<svg width="390" height="540" viewBox="0 0 390 540" fill="none" xmlns="http://www.w3.org/2000/svg">
<g filter="url(#filter0_d_193_457)">
<path fill-rule="evenodd" clip-rule="evenodd" d="M60 20C37.9086 20 20 37.9086 20 60V480C20 502.091 37.9086 520 60 520H330C352.091 520 370 502.091 370 480V60C370 37.9086 352.091 20 330 20H60ZM174.885 314.568L143.525 397H154.405L163.109 374.344H198.949L207.653 397H218.405L187.173 314.568H174.885ZM197.029 366.024H164.901L180.901 323.656L197.029 366.024ZM230.666 395.08C233.055 397.213 236.298 398.28 240.394 398.28C241.845 398.28 243.253 398.195 244.618 398.024C245.983 397.853 247.349 397.512 248.714 397V388.68C246.837 389.192 244.917 389.448 242.954 389.448C241.162 389.448 239.839 388.979 238.986 388.04C238.133 387.101 237.706 385.352 237.706 382.792V310.728H227.21V383.944C227.21 389.149 228.362 392.861 230.666 395.08ZM122.213 432L130.021 411.392H132.261L140.037 432H138.245L135.973 425.984H126.309L124.037 432H122.213ZM126.693 424.544H135.557L131.109 412.8L126.693 424.544ZM145.388 432.32C144.535 432.32 143.852 432.085 143.34 431.616C142.828 431.147 142.572 430.304 142.572 429.088V410.432H144.332V429.024C144.332 429.707 144.439 430.176 144.652 430.432C144.865 430.688 145.207 430.816 145.676 430.816C146.145 430.816 146.615 430.752 147.084 430.624V432.096C146.807 432.181 146.519 432.235 146.22 432.256C145.921 432.299 145.644 432.32 145.388 432.32ZM155.01 432.32C153.197 432.32 151.821 431.808 150.882 430.784C149.944 429.76 149.474 428.309 149.474 426.432V416.832H151.234V426.496C151.234 427.947 151.597 429.045 152.322 429.792C153.048 430.517 154.189 430.88 155.746 430.88C156.813 430.88 157.784 430.677 158.658 430.272C159.554 429.845 160.322 429.312 160.962 428.672V416.832H162.722V432H161.154L160.994 430.144C160.248 430.805 159.394 431.339 158.434 431.744C157.474 432.128 156.333 432.32 155.01 432.32ZM167.509 432V416.832H169.045L169.205 418.688C170.037 418.005 170.923 417.472 171.861 417.088C172.821 416.704 173.824 416.512 174.869 416.512C176.043 416.512 176.949 416.704 177.589 417.088C178.229 417.472 178.699 418.005 178.997 418.688C179.723 418.069 180.565 417.557 181.525 417.152C182.485 416.725 183.637 416.512 184.981 416.512C186.688 416.512 187.957 416.949 188.789 417.824C189.643 418.677 190.069 420.021 190.069 421.856V432H188.341V422.016C188.341 420.501 188.011 419.456 187.349 418.88C186.709 418.283 185.696 417.984 184.309 417.984C183.349 417.984 182.443 418.155 181.589 418.496C180.736 418.816 180.011 419.296 179.413 419.936C179.477 420.235 179.531 420.587 179.573 420.992C179.616 421.376 179.637 421.739 179.637 422.08V432H177.941V422.112C177.941 420.661 177.696 419.616 177.205 418.976C176.715 418.315 175.765 417.984 174.357 417.984C173.419 417.984 172.501 418.197 171.605 418.624C170.709 419.051 169.92 419.573 169.237 420.192V432H167.509ZM195.552 412.896V410.976H197.568V412.896H195.552ZM195.776 432V418.304H193.408L193.6 416.832H197.536V432H195.776ZM202.353 432V416.832H203.889L204.049 418.688C204.817 418.048 205.692 417.525 206.673 417.12C207.654 416.715 208.828 416.512 210.193 416.512C212.092 416.512 213.468 416.949 214.321 417.824C215.174 418.699 215.601 420.085 215.601 421.984V432H213.841V422.016C213.841 420.523 213.532 419.477 212.913 418.88C212.316 418.283 211.164 417.984 209.457 417.984C208.39 417.984 207.398 418.187 206.481 418.592C205.585 418.997 204.796 419.531 204.113 420.192V432H202.353ZM221.083 412.896V410.976H223.099V412.896H221.083ZM221.307 432V418.304H218.939L219.131 416.832H223.067V432H221.307ZM233.26 432.32C231.447 432.32 230.071 431.808 229.132 430.784C228.194 429.76 227.724 428.309 227.724 426.432V416.832H229.484V426.496C229.484 427.947 229.847 429.045 230.572 429.792C231.298 430.517 232.439 430.88 233.996 430.88C235.063 430.88 236.034 430.677 236.908 430.272C237.804 429.845 238.572 429.312 239.212 428.672V416.832H240.972V432H239.404L239.244 430.144C238.498 430.805 237.644 431.339 236.684 431.744C235.724 432.128 234.583 432.32 233.26 432.32ZM245.759 432V416.832H247.295L247.455 418.688C248.287 418.005 249.173 417.472 250.111 417.088C251.071 416.704 252.074 416.512 253.119 416.512C254.293 416.512 255.199 416.704 255.839 417.088C256.479 417.472 256.949 418.005 257.247 418.688C257.973 418.069 258.815 417.557 259.775 417.152C260.735 416.725 261.887 416.512 263.231 416.512C264.938 416.512 266.207 416.949 267.039 417.824C267.893 418.677 268.319 420.021 268.319 421.856V432H266.591V422.016C266.591 420.501 266.261 419.456 265.599 418.88C264.959 418.283 263.946 417.984 262.559 417.984C261.599 417.984 260.693 418.155 259.839 418.496C258.986 418.816 258.261 419.296 257.663 419.936C257.727 420.235 257.781 420.587 257.823 420.992C257.866 421.376 257.887 421.739 257.887 422.08V432H256.191V422.112C256.191 420.661 255.946 419.616 255.455 418.976C254.965 418.315 254.015 417.984 252.607 417.984C251.669 417.984 250.751 418.197 249.855 418.624C248.959 419.051 248.17 419.573 247.487 420.192V432H245.759ZM149.955 153.977C159.967 161.921 166.683 167.097 171.126 170.522L171.126 170.522C174.228 172.912 176.221 174.449 177.455 175.477L206.455 164.476L158.455 153.977C156.338 153.578 154.432 153.14 152.856 152.778L152.855 152.778C148.476 151.772 146.647 151.352 149.955 153.977ZM191.229 270.491L196.02 206.568C174.707 210.488 159.371 213.062 159.259 213.081C159.253 213.082 159.259 213.081 159.259 213.081C159.26 213.081 159.259 213.081 159.257 213.082C159.078 213.116 137.535 217.278 120.99 219.925L102.124 249.827C101.561 250.719 100.731 251.409 99.7525 251.801L93.1735 254.434C92.5051 254.701 91.7816 254.196 91.8024 253.476L92.7447 220.968C88.4066 220.275 84.1837 219.4 81.4274 218.794C80.465 218.582 80.3863 217.273 81.3093 216.928L88.8296 214.116L88.7583 214L70.469 192.242C69.7887 191.432 69.8559 190.233 70.6223 189.505L72.3367 187.876C72.8991 187.341 73.7198 187.18 74.4424 187.463L116.33 203.832L231.038 160.939C254.258 155.295 268.189 154.973 281.867 157.544L268.789 160.044C267.432 160.303 266.543 161.613 266.802 162.969C267.062 164.325 268.371 165.214 269.727 164.955L293.451 160.42C299.248 162.289 312.823 167.033 318.258 172.078C323.897 177.312 298.83 184.63 291.387 186.547C274.986 190.77 254.619 195.163 234.826 199.13L223.729 222.495L205.799 257.008C204.436 259.632 202.508 261.921 200.153 263.71L191.231 270.492C191.23 270.493 191.229 270.492 191.229 270.491Z" fill="white"/>
</g>
<defs>
<filter id="filter0_d_193_457" x="0" y="0" width="390" height="540" filterUnits="userSpaceOnUse" color-interpolation-filters="sRGB">
<feFlood flood-opacity="0" result="BackgroundImageFix"/>
<feColorMatrix in="SourceAlpha" type="matrix" values="0 0 0 0 0 0 0 0 0 0 0 0 0 0 0 0 0 0 127 0" result="hardAlpha"/>
<feOffset/>
<feGaussianBlur stdDeviation="10"/>
<feComposite in2="hardAlpha" operator="out"/>
<feColorMatrix type="matrix" values="0 0 0 0 0 0 0 0 0 0.637931 0 0 0 0 1 0 0 0 1 0"/>
<feBlend mode="normal" in2="BackgroundImageFix" result="effect1_dropShadow_193_457"/>
<feBlend mode="normal" in="SourceGraphic" in2="effect1_dropShadow_193_457" result="shape"/>
</filter>
</defs>
</svg>
