<svg width="390" height="540" viewBox="0 0 390 540" fill="none" xmlns="http://www.w3.org/2000/svg">
<g filter="url(#filter0_d_305_225)">
<path fill-rule="evenodd" clip-rule="evenodd" d="M20 60C20 37.9086 37.9086 20 60 20H330C352.091 20 370 37.9086 370 60V480C370 502.091 352.091 520 330 520H60C37.9086 520 20 502.091 20 480V60ZM155.277 398.28C145.037 398.28 136.76 397 130.445 394.44V385.096C134.029 386.461 137.826 387.528 141.837 388.296C145.933 388.979 150.114 389.32 154.381 389.32C161.72 389.32 167.224 388.339 170.893 386.376C174.562 384.328 176.397 380.701 176.397 375.496C176.397 372.253 175.629 369.693 174.093 367.816C172.642 365.853 170.21 364.232 166.797 362.952C163.384 361.587 158.818 360.221 153.101 358.856C144.056 356.637 137.698 353.779 134.029 350.28C130.36 346.696 128.525 341.917 128.525 335.944C128.525 328.947 131.042 323.443 136.077 319.432C141.112 315.336 148.792 313.288 159.117 313.288C163.896 313.288 168.333 313.629 172.429 314.312C176.525 314.995 179.682 315.72 181.901 316.488V325.704C178.829 324.595 175.501 323.741 171.917 323.144C168.333 322.547 164.621 322.248 160.781 322.248C153.784 322.248 148.408 323.272 144.653 325.32C140.898 327.368 139.021 330.909 139.021 335.944C139.021 338.76 139.661 341.064 140.941 342.856C142.306 344.563 144.568 346.056 147.725 347.336C150.882 348.531 155.277 349.811 160.909 351.176C167.65 352.797 172.898 354.76 176.653 357.064C180.408 359.283 183.053 361.928 184.589 365C186.125 368.072 186.893 371.571 186.893 375.496C186.893 382.749 184.248 388.381 178.957 392.392C173.666 396.317 165.773 398.28 155.277 398.28ZM233.058 398.28C228.535 398.28 224.567 397.683 221.154 396.488C217.826 395.208 214.754 393.245 211.938 390.6L211.17 397H202.21V310.728H212.706V340.808C218.253 336.968 224.994 335.048 232.93 335.048C241.549 335.048 248.29 337.523 253.154 342.472C258.018 347.336 260.45 355.229 260.45 366.152C260.45 377.16 258.018 385.267 253.154 390.472C248.29 395.677 241.591 398.28 233.058 398.28ZM230.37 389.832C237.453 389.832 242.487 387.869 245.474 383.944C248.461 380.019 249.954 374.088 249.954 366.152C249.954 357.875 248.333 352.029 245.09 348.616C241.933 345.203 236.941 343.496 230.114 343.496C226.445 343.496 223.159 344.051 220.258 345.16C217.357 346.184 214.839 347.635 212.706 349.512V382.536C215.01 385.011 217.655 386.845 220.642 388.04C223.629 389.235 226.871 389.832 230.37 389.832ZM135.896 411.392L128.088 432H129.912L132.184 425.984H141.848L144.12 432H145.912L138.136 411.392H135.896ZM141.432 424.544H132.568L136.984 412.8L141.432 424.544ZM150.072 416.832V432H151.832V420.192C152.515 419.531 153.304 418.997 154.2 418.592C155.117 418.187 156.109 417.984 157.176 417.984C158.883 417.984 160.035 418.283 160.632 418.88C161.251 419.477 161.56 420.523 161.56 422.016V432H163.32V421.984C163.32 420.085 162.893 418.699 162.04 417.824C161.187 416.949 159.811 416.512 157.912 416.512C156.547 416.512 155.373 416.715 154.392 417.12C153.411 417.525 152.536 418.048 151.768 418.688L151.608 416.832H150.072ZM170.123 431.2C170.848 431.947 171.883 432.32 173.227 432.32C174.123 432.32 174.923 432.192 175.627 431.936V430.528C175.264 430.656 174.923 430.752 174.603 430.816C174.304 430.859 174.016 430.88 173.739 430.88C172.694 430.88 171.936 430.645 171.467 430.176C171.019 429.707 170.795 428.981 170.795 428V418.304H175.083L175.179 416.832H170.795V412.288L169.035 412.864V416.832H166.667V418.304H169.035V428.064C169.035 429.408 169.398 430.453 170.123 431.2ZM180.177 410.976V412.896H182.193V410.976H180.177ZM180.401 418.304V432H182.161V416.832H178.225L178.033 418.304H180.401ZM186.978 416.832V432H188.706V420.192C189.389 419.573 190.178 419.051 191.074 418.624C191.97 418.197 192.887 417.984 193.826 417.984C195.234 417.984 196.183 418.315 196.674 418.976C197.165 419.616 197.41 420.661 197.41 422.112V432H199.106V422.08C199.106 421.739 199.085 421.376 199.042 420.992C198.999 420.587 198.946 420.235 198.882 419.936C199.479 419.296 200.205 418.816 201.058 418.496C201.911 418.155 202.818 417.984 203.778 417.984C205.165 417.984 206.178 418.283 206.818 418.88C207.479 419.456 207.81 420.501 207.81 422.016V432H209.538V421.856C209.538 420.021 209.111 418.677 208.258 417.824C207.426 416.949 206.157 416.512 204.45 416.512C203.106 416.512 201.954 416.725 200.994 417.152C200.034 417.557 199.191 418.069 198.466 418.688C198.167 418.005 197.698 417.472 197.058 417.088C196.418 416.704 195.511 416.512 194.338 416.512C193.293 416.512 192.29 416.704 191.33 417.088C190.391 417.472 189.506 418.005 188.674 418.688L188.514 416.832H186.978ZM214.909 430.304C216.04 431.648 217.885 432.32 220.445 432.32C223.005 432.32 224.85 431.648 225.981 430.304C227.133 428.96 227.709 426.997 227.709 424.416C227.709 421.856 227.133 419.904 225.981 418.56C224.829 417.195 222.984 416.512 220.445 416.512C217.928 416.512 216.093 417.195 214.941 418.56C213.789 419.904 213.213 421.856 213.213 424.416C213.213 426.997 213.778 428.96 214.909 430.304ZM224.701 429.248C223.89 430.293 222.472 430.816 220.445 430.816C218.44 430.816 217.021 430.293 216.189 429.248C215.357 428.203 214.941 426.592 214.941 424.416C214.941 422.261 215.357 420.661 216.189 419.616C217.021 418.571 218.44 418.048 220.445 418.048C222.45 418.048 223.869 418.571 224.701 419.616C225.533 420.661 225.949 422.261 225.949 424.416C225.949 426.592 225.533 428.203 224.701 429.248ZM231.884 416.832V432H233.644V420.192C234.327 419.531 235.116 418.997 236.012 418.592C236.93 418.187 237.922 417.984 238.988 417.984C240.695 417.984 241.847 418.283 242.444 418.88C243.063 419.477 243.372 420.523 243.372 422.016V432H245.132V421.984C245.132 420.085 244.706 418.699 243.852 417.824C242.999 416.949 241.623 416.512 239.724 416.512C238.359 416.512 237.186 416.715 236.204 417.12C235.223 417.525 234.348 418.048 233.58 418.688L233.42 416.832H231.884ZM249.971 437.536C250.355 437.6 250.771 437.632 251.219 437.632C252.222 437.632 253.054 437.365 253.715 436.832C254.376 436.299 254.952 435.573 255.443 434.656C255.955 433.739 256.467 432.693 256.979 431.52L263.539 416.832H261.747L255.827 430.016L250.131 416.832H248.307L254.931 431.904C254.547 432.8 254.184 433.557 253.843 434.176C253.502 434.816 253.107 435.296 252.659 435.616C252.211 435.957 251.614 436.128 250.867 436.128C250.547 436.128 250.227 436.107 249.907 436.064C249.608 436.021 249.278 435.936 248.915 435.808V437.28C249.256 437.408 249.608 437.493 249.971 437.536ZM169.285 270V260.984H172.939C174.273 260.984 175.263 261.339 175.907 262.048C176.551 262.748 176.873 263.915 176.873 265.548C176.873 267.088 176.555 268.217 175.921 268.936C175.286 269.645 174.292 270 172.939 270H169.285ZM170.811 268.824H172.701C173.289 268.824 173.779 268.74 174.171 268.572C174.563 268.395 174.857 268.068 175.053 267.592C175.249 267.116 175.347 266.435 175.347 265.548C175.347 264.661 175.258 263.975 175.081 263.49C174.903 263.005 174.619 262.664 174.227 262.468C173.844 262.272 173.335 262.174 172.701 262.174H170.811V268.824ZM182.781 261.978V260.718H184.447V261.978H182.781ZM182.907 270V264.526H181.899L182.039 263.364H184.433V270H182.907ZM193.591 270.14C192.397 270.14 191.519 269.841 190.959 269.244C190.409 268.647 190.133 267.793 190.133 266.682C190.133 265.571 190.413 264.717 190.973 264.12C191.533 263.523 192.406 263.224 193.591 263.224C194.786 263.224 195.663 263.523 196.223 264.12C196.783 264.717 197.063 265.571 197.063 266.682C197.063 267.793 196.783 268.647 196.223 269.244C195.673 269.841 194.795 270.14 193.591 270.14ZM193.591 268.852C194.291 268.852 194.786 268.684 195.075 268.348C195.374 268.003 195.523 267.447 195.523 266.682C195.523 265.917 195.374 265.366 195.075 265.03C194.786 264.694 194.291 264.526 193.591 264.526C192.901 264.526 192.406 264.694 192.107 265.03C191.818 265.366 191.673 265.917 191.673 266.682C191.673 267.447 191.818 268.003 192.107 268.348C192.406 268.684 192.901 268.852 193.591 268.852ZM205.492 270.14C204.895 270.14 204.367 270.037 203.91 269.832C203.453 269.627 203.098 269.286 202.846 268.81C202.594 268.334 202.468 267.695 202.468 266.892C202.468 266.099 202.603 265.431 202.874 264.89C203.145 264.339 203.518 263.924 203.994 263.644C204.479 263.364 205.025 263.224 205.632 263.224C206.033 263.224 206.388 263.271 206.696 263.364C207.013 263.457 207.317 263.602 207.606 263.798V260.564H209.132V270H207.83L207.732 269.342C207.433 269.613 207.107 269.813 206.752 269.944C206.397 270.075 205.977 270.14 205.492 270.14ZM205.898 268.992C206.579 268.992 207.149 268.759 207.606 268.292V264.974C207.167 264.582 206.617 264.386 205.954 264.386C205.31 264.386 204.825 264.601 204.498 265.03C204.171 265.459 204.008 266.085 204.008 266.906C204.008 267.699 204.157 268.245 204.456 268.544C204.764 268.843 205.245 268.992 205.898 268.992ZM218.32 270.14C217.162 270.14 216.266 269.855 215.632 269.286C214.997 268.717 214.68 267.844 214.68 266.668C214.68 265.604 214.95 264.764 215.492 264.148C216.033 263.532 216.854 263.224 217.956 263.224C218.964 263.224 219.72 263.49 220.224 264.022C220.737 264.545 220.994 265.221 220.994 266.052V267.284H216.136C216.21 267.928 216.444 268.371 216.836 268.614C217.228 268.857 217.825 268.978 218.628 268.978C218.964 268.978 219.309 268.945 219.664 268.88C220.018 268.815 220.326 268.731 220.588 268.628V269.748C220.289 269.879 219.944 269.977 219.552 270.042C219.169 270.107 218.758 270.14 218.32 270.14ZM216.136 266.29H219.65V265.828C219.65 265.371 219.524 265.016 219.272 264.764C219.02 264.503 218.595 264.372 217.998 264.372C217.288 264.372 216.798 264.526 216.528 264.834C216.266 265.142 216.136 265.627 216.136 266.29ZM208.587 226.246H196.828V148H208.587V226.246ZM194.828 231.246C193.171 231.246 191.828 229.903 191.828 228.246V221.574H140.445C121.422 221.574 106 206.153 106 187.129C106 168.106 121.422 152.684 140.445 152.684H191.828V146C191.828 144.343 193.171 143 194.828 143H210.587C212.244 143 213.587 144.343 213.587 146V171.931H268.327C269.707 171.931 270.827 173.05 270.827 174.431C270.827 175.812 269.707 176.931 268.327 176.931H213.587V198.526H283.699C285.08 198.526 286.199 199.645 286.199 201.026C286.199 202.406 285.08 203.526 283.699 203.526H213.587V228.246C213.587 229.903 212.244 231.246 210.587 231.246H194.828ZM140.445 216.574H191.828V157.684H140.445C124.183 157.684 111 170.867 111 187.129C111 203.391 124.183 216.574 140.445 216.574ZM255.606 231.246C255.606 232.075 256.278 232.746 257.106 232.746C257.934 232.746 258.606 232.075 258.606 231.246V225.492H265.568C266.397 225.492 267.068 224.821 267.068 223.992C267.068 223.164 266.397 222.492 265.568 222.492H258.606V215.531C258.606 214.703 257.934 214.031 257.106 214.031C256.278 214.031 255.606 214.703 255.606 215.531V222.492H249.853C249.025 222.492 248.353 223.164 248.353 223.992C248.353 224.821 249.025 225.492 249.853 225.492H255.606V231.246ZM248.738 152.769C248.738 151.94 249.41 151.269 250.238 151.269H265.953C266.782 151.269 267.453 151.94 267.453 152.769C267.453 153.597 266.782 154.269 265.953 154.269H250.238C249.41 154.269 248.738 153.597 248.738 152.769Z" fill="white"/>
</g>
<defs>
<filter id="filter0_d_305_225" x="0" y="0" width="390" height="540" filterUnits="userSpaceOnUse" color-interpolation-filters="sRGB">
<feFlood flood-opacity="0" result="BackgroundImageFix"/>
<feColorMatrix in="SourceAlpha" type="matrix" values="0 0 0 0 0 0 0 0 0 0 0 0 0 0 0 0 0 0 127 0" result="hardAlpha"/>
<feOffset/>
<feGaussianBlur stdDeviation="10"/>
<feComposite in2="hardAlpha" operator="out"/>
<feColorMatrix type="matrix" values="0 0 0 0 0.149195 0 0 0 0 0.00833333 0 0 0 0 1 0 0 0 1 0"/>
<feBlend mode="normal" in2="BackgroundImageFix" result="effect1_dropShadow_305_225"/>
<feBlend mode="normal" in="SourceGraphic" in2="effect1_dropShadow_305_225" result="shape"/>
</filter>
</defs>
</svg>
