<svg width="390" height="540" viewBox="0 0 390 540" fill="none" xmlns="http://www.w3.org/2000/svg">
<g filter="url(#filter0_d_305_202)">
<path fill-rule="evenodd" clip-rule="evenodd" d="M20 60C20 37.9086 37.9086 20 60 20H330C352.091 20 370 37.9086 370 60V480C370 502.091 352.091 520 330 520H60C37.9086 520 20 502.091 20 480V60ZM127.838 397L159.198 314.568H171.486L202.717 397H191.965L183.262 374.344H147.422L138.717 397H127.838ZM149.214 366.024H181.342L165.214 323.656L149.214 366.024ZM237.094 398.28C233.169 398.28 229.415 398.024 225.831 397.512C222.332 397 219.388 396.317 216.999 395.464V386.248C219.9 387.272 222.929 388.04 226.087 388.552C229.329 389.064 232.529 389.32 235.686 389.32C241.062 389.32 244.902 388.765 247.206 387.656C249.51 386.461 250.663 384.285 250.663 381.128C250.663 378.824 250.023 377.075 248.742 375.88C247.548 374.685 245.671 373.619 243.111 372.68C240.636 371.741 237.436 370.632 233.51 369.352C230.012 368.157 226.897 366.92 224.167 365.64C221.436 364.36 219.303 362.653 217.766 360.52C216.23 358.301 215.462 355.357 215.462 351.688C215.462 346.312 217.34 342.216 221.094 339.4C224.849 336.499 230.908 335.048 239.271 335.048C242.513 335.048 245.628 335.304 248.615 335.816C251.601 336.243 254.204 336.797 256.423 337.48V346.696C251.047 344.904 245.884 344.008 240.935 344.008C235.644 344.008 231.804 344.563 229.415 345.672C227.111 346.696 225.958 348.659 225.958 351.56C225.958 353.523 226.471 355.101 227.495 356.296C228.604 357.405 230.268 358.387 232.486 359.24L241.318 362.184C246.012 363.635 249.809 365.128 252.711 366.664C255.612 368.2 257.745 370.077 259.111 372.296C260.476 374.515 261.159 377.416 261.159 381C261.159 386.973 259.068 391.368 254.887 394.184C250.705 396.915 244.775 398.28 237.094 398.28ZM153.662 411.392L145.854 432H147.678L149.95 425.984H159.614L161.886 432H163.678L155.902 411.392H153.662ZM159.198 424.544H150.334L154.75 412.8L159.198 424.544ZM167.837 416.832V432H169.598V420.352C170.024 420.032 170.557 419.723 171.197 419.424C171.859 419.104 172.542 418.816 173.245 418.56C173.971 418.304 174.643 418.101 175.262 417.952V416.512C174.28 416.725 173.277 417.045 172.253 417.472C171.251 417.899 170.355 418.389 169.566 418.944L169.374 416.832H167.837ZM180.256 432.128C181.088 432.256 181.952 432.32 182.848 432.32C184.619 432.32 186.005 432 187.008 431.36C188.032 430.72 188.544 429.653 188.544 428.16C188.544 427.243 188.352 426.517 187.968 425.984C187.605 425.429 187.04 424.971 186.272 424.608C185.525 424.245 184.587 423.883 183.456 423.52C182.517 423.221 181.749 422.955 181.152 422.72C180.576 422.485 180.149 422.208 179.872 421.888C179.616 421.547 179.488 421.077 179.488 420.48C179.488 419.605 179.787 418.987 180.384 418.624C181.003 418.24 182.069 418.048 183.584 418.048C184.864 418.048 186.123 418.24 187.36 418.624V417.056C186.827 416.885 186.208 416.757 185.504 416.672C184.821 416.565 184.096 416.512 183.328 416.512C181.365 416.512 179.947 416.853 179.072 417.536C178.197 418.197 177.76 419.189 177.76 420.512C177.76 421.451 177.963 422.187 178.368 422.72C178.773 423.232 179.317 423.637 180 423.936C180.704 424.213 181.483 424.501 182.336 424.8C183.36 425.141 184.203 425.44 184.864 425.696C185.525 425.952 186.005 426.261 186.304 426.624C186.624 426.965 186.784 427.477 186.784 428.16C186.784 429.141 186.464 429.835 185.824 430.24C185.184 430.624 184.117 430.816 182.624 430.816C181.856 430.816 181.099 430.763 180.352 430.656C179.605 430.528 178.88 430.347 178.176 430.112V431.68C178.752 431.872 179.445 432.021 180.256 432.128ZM193.46 430.4C194.718 431.68 196.713 432.32 199.444 432.32C201.108 432.32 202.59 432.053 203.892 431.52V430.08C202.569 430.613 201.204 430.88 199.796 430.88C197.47 430.88 195.838 430.453 194.9 429.6C193.961 428.725 193.449 427.307 193.364 425.344H204.884V422.592C204.884 421.461 204.66 420.437 204.212 419.52C203.785 418.603 203.113 417.877 202.196 417.344C201.278 416.789 200.084 416.512 198.612 416.512C196.137 416.512 194.345 417.205 193.236 418.592C192.148 419.979 191.604 421.888 191.604 424.32C191.604 427.072 192.222 429.099 193.46 430.4ZM203.284 423.968H193.364C193.364 422.048 193.737 420.576 194.484 419.552C195.252 418.507 196.638 417.984 198.644 417.984C200.286 417.984 201.47 418.389 202.196 419.2C202.921 420.011 203.284 421.12 203.284 422.528V423.968ZM209.369 416.832V432H211.129V420.192C211.811 419.531 212.601 418.997 213.497 418.592C214.414 418.187 215.406 417.984 216.473 417.984C218.179 417.984 219.331 418.283 219.929 418.88C220.547 419.477 220.857 420.523 220.857 422.016V432H222.617V421.984C222.617 420.085 222.19 418.699 221.337 417.824C220.483 416.949 219.107 416.512 217.209 416.512C215.843 416.512 214.67 416.715 213.689 417.12C212.707 417.525 211.833 418.048 211.065 418.688L210.905 416.832H209.369ZM228.099 410.976V412.896H230.115V410.976H228.099ZM228.323 418.304V432H230.083V416.832H226.147L225.955 418.304H228.323ZM236.052 430.24C237.247 431.627 239.156 432.32 241.78 432.32C242.655 432.32 243.455 432.245 244.18 432.096C244.927 431.968 245.599 431.776 246.196 431.52V430.048C245.599 430.304 244.948 430.507 244.244 430.656C243.561 430.805 242.879 430.88 242.196 430.88C239.956 430.88 238.356 430.357 237.396 429.312C236.457 428.245 235.988 426.613 235.988 424.416C235.988 422.176 236.543 420.544 237.652 419.52C238.761 418.496 240.319 417.984 242.324 417.984C243.753 417.984 245.033 418.251 246.164 418.784V417.344C245.588 417.067 245.001 416.864 244.404 416.736C243.807 416.587 243.017 416.512 242.036 416.512C239.647 416.512 237.748 417.163 236.34 418.464C234.953 419.765 234.26 421.749 234.26 424.416C234.26 426.912 234.857 428.853 236.052 430.24ZM164.068 270V260.984H168.086C168.776 260.984 169.346 261.115 169.794 261.376C170.242 261.637 170.573 261.997 170.788 262.454C171.002 262.902 171.11 263.415 171.11 263.994C171.11 264.89 170.83 265.609 170.27 266.15C169.719 266.691 168.972 266.962 168.03 266.962H165.594V270H164.068ZM165.594 265.758H167.75C168.356 265.758 168.814 265.599 169.122 265.282C169.43 264.965 169.584 264.535 169.584 263.994C169.584 263.415 169.434 262.967 169.136 262.65C168.846 262.333 168.408 262.174 167.82 262.174H165.594V265.758ZM179.703 270.14C178.509 270.14 177.631 269.841 177.071 269.244C176.521 268.647 176.245 267.793 176.245 266.682C176.245 265.571 176.525 264.717 177.085 264.12C177.645 263.523 178.518 263.224 179.703 263.224C180.898 263.224 181.775 263.523 182.335 264.12C182.895 264.717 183.175 265.571 183.175 266.682C183.175 267.793 182.895 268.647 182.335 269.244C181.785 269.841 180.907 270.14 179.703 270.14ZM179.703 268.852C180.403 268.852 180.898 268.684 181.187 268.348C181.486 268.003 181.635 267.447 181.635 266.682C181.635 265.917 181.486 265.366 181.187 265.03C180.898 264.694 180.403 264.526 179.703 264.526C179.013 264.526 178.518 264.694 178.219 265.03C177.93 265.366 177.785 265.917 177.785 266.682C177.785 267.447 177.93 268.003 178.219 268.348C178.518 268.684 179.013 268.852 179.703 268.852ZM189.147 261.978V260.718H190.813V261.978H189.147ZM189.273 270V264.526H188.265L188.405 263.364H190.799V270H189.273ZM198.991 270.14C198.534 270.14 198.095 270.107 197.675 270.042C197.264 269.977 196.924 269.897 196.653 269.804V268.516C196.97 268.637 197.32 268.731 197.703 268.796C198.086 268.861 198.45 268.894 198.795 268.894C199.318 268.894 199.691 268.847 199.915 268.754C200.139 268.661 200.251 268.479 200.251 268.208C200.251 268.012 200.181 267.858 200.041 267.746C199.91 267.634 199.71 267.531 199.439 267.438C199.178 267.345 198.842 267.233 198.431 267.102C198.039 266.971 197.698 266.831 197.409 266.682C197.12 266.523 196.896 266.323 196.737 266.08C196.578 265.837 196.499 265.52 196.499 265.128C196.499 264.521 196.718 264.055 197.157 263.728C197.596 263.392 198.3 263.224 199.271 263.224C199.654 263.224 200.018 263.252 200.363 263.308C200.708 263.364 201.002 263.434 201.245 263.518V264.792C200.984 264.689 200.694 264.61 200.377 264.554C200.069 264.498 199.78 264.47 199.509 264.47C199.024 264.47 198.655 264.512 198.403 264.596C198.16 264.68 198.039 264.848 198.039 265.1C198.039 265.361 198.165 265.548 198.417 265.66C198.678 265.763 199.094 265.907 199.663 266.094C200.186 266.253 200.601 266.421 200.909 266.598C201.217 266.775 201.436 266.99 201.567 267.242C201.707 267.485 201.777 267.802 201.777 268.194C201.777 268.847 201.539 269.337 201.063 269.664C200.587 269.981 199.896 270.14 198.991 270.14ZM210.446 270.14C209.251 270.14 208.374 269.841 207.814 269.244C207.263 268.647 206.988 267.793 206.988 266.682C206.988 265.571 207.268 264.717 207.828 264.12C208.388 263.523 209.261 263.224 210.446 263.224C211.641 263.224 212.518 263.523 213.078 264.12C213.638 264.717 213.918 265.571 213.918 266.682C213.918 267.793 213.638 268.647 213.078 269.244C212.527 269.841 211.65 270.14 210.446 270.14ZM210.446 268.852C211.146 268.852 211.641 268.684 211.93 268.348C212.229 268.003 212.378 267.447 212.378 266.682C212.378 265.917 212.229 265.366 211.93 265.03C211.641 264.694 211.146 264.526 210.446 264.526C209.755 264.526 209.261 264.694 208.962 265.03C208.673 265.366 208.528 265.917 208.528 266.682C208.528 267.447 208.673 268.003 208.962 268.348C209.261 268.684 209.755 268.852 210.446 268.852ZM219.603 263.364H221.003L221.073 264.064C221.371 263.831 221.726 263.635 222.137 263.476C222.557 263.308 223.019 263.224 223.523 263.224C224.381 263.224 225.007 263.425 225.399 263.826C225.791 264.227 225.987 264.853 225.987 265.702V270H224.475V265.772C224.475 265.259 224.367 264.899 224.153 264.694C223.947 264.489 223.555 264.386 222.977 264.386C222.631 264.386 222.291 264.456 221.955 264.596C221.628 264.736 221.353 264.918 221.129 265.142V270H219.603V263.364ZM183.235 162.761C169.393 163.016 156.204 171.539 160.497 180.564C163.199 186.247 171.881 194.499 178.02 193.116C186.437 191.219 197.078 162.506 183.235 162.761ZM232.927 180.564C237.22 171.539 224.032 163.016 210.189 162.761C196.346 162.506 206.987 191.219 215.404 193.116C221.543 194.499 230.225 186.247 232.927 180.564ZM167.039 215.841V203.848H166.542V202.87C157.491 194.542 151.82 182.597 151.82 169.328C151.82 144.161 172.222 123.759 197.389 123.759C222.556 123.759 242.958 144.161 242.958 169.328C242.958 182.597 237.287 194.541 228.236 202.869V203.848H227.762V215.761C227.762 216.8 227.139 217.672 226.236 217.996C224.941 218.461 223.308 219.029 221.446 219.638V210.249C221.446 209.697 220.999 209.249 220.446 209.249C219.894 209.249 219.446 209.697 219.446 210.249V220.279C217.324 220.945 214.989 221.632 212.576 222.264C211.554 222.532 210.525 222.788 209.497 223.028V216.224C209.497 215.671 209.049 215.224 208.497 215.224C207.944 215.224 207.497 215.671 207.497 216.224V223.473C204.3 224.149 201.175 224.633 198.401 224.777V219.638C198.401 219.086 197.953 218.638 197.401 218.638C196.848 218.638 196.401 219.086 196.401 219.638V224.818C193.393 224.779 189.951 224.271 186.451 223.513V216.224C186.451 215.671 186.003 215.224 185.451 215.224C184.899 215.224 184.451 215.671 184.451 216.224V223.056C183.456 222.816 182.461 222.56 181.477 222.292C179.957 221.878 178.474 221.44 177.062 221V210.249C177.062 209.697 176.614 209.249 176.062 209.249C175.51 209.249 175.062 209.697 175.062 210.249V220.36C172.458 219.506 170.19 218.681 168.512 218.045C167.639 217.714 167.039 216.858 167.039 215.841ZM162.039 205.489V215.841C162.039 218.851 163.846 221.623 166.74 222.72C169.78 223.873 174.73 225.637 180.164 227.116C185.559 228.585 191.601 229.821 196.772 229.821C201.96 229.821 208.213 228.576 213.843 227.101C219.514 225.616 224.737 223.847 227.925 222.702C230.888 221.639 232.762 218.831 232.762 215.761V205.466C232.982 205.251 233.2 205.034 233.416 204.815C234.164 204.056 234.888 203.273 235.587 202.467L240.32 206.552L241.557 207.619L241.076 209.18L241.076 209.18L241.076 209.181L241.076 209.181L241.075 209.186L241.067 209.21L241.057 209.244L241.035 209.318C241.006 209.414 240.964 209.56 240.909 209.749C240.801 210.126 240.649 210.677 240.473 211.354C240.122 212.714 239.686 214.568 239.338 216.564C238.988 218.572 238.741 220.656 238.741 222.492C238.741 224.409 239.015 225.702 239.408 226.39C241.294 229.691 243.718 230.953 245.911 231.144C248.199 231.344 250.581 230.408 252.319 228.67C253.936 227.054 254.554 224.696 254.679 222.437L254.485 219.202C254.181 218.682 254.063 218.052 254.199 217.417C254.488 216.069 255.813 215.21 257.161 215.495L257.166 215.496L260.998 215.726C263.257 215.601 265.615 214.982 267.231 213.365C268.969 211.628 269.904 209.245 269.705 206.958C269.514 204.764 268.252 202.341 264.951 200.454C264.263 200.061 262.97 199.787 261.053 199.787C259.217 199.787 257.133 200.035 255.125 200.385C253.129 200.732 251.275 201.169 249.915 201.52C249.238 201.695 248.687 201.848 248.309 201.956C248.121 202.01 247.975 202.053 247.879 202.082L247.836 202.094L247.771 202.114L247.746 202.121L247.742 202.123L247.742 202.123L247.741 202.123L247.741 202.123L246.41 202.533L245.361 201.617L239.85 196.804C238.56 198.793 237.135 200.685 235.587 202.467M242.441 192.321C245.968 185.423 247.958 177.608 247.958 169.328C247.958 157.597 243.963 146.798 237.259 138.219L243.558 132.783C243.772 132.598 243.947 132.385 244.083 132.155C244.162 132.176 244.243 132.197 244.327 132.219C244.403 132.239 244.481 132.259 244.56 132.28C246.009 132.654 248.005 133.124 250.177 133.502C252.336 133.878 254.738 134.174 256.979 134.174C259.141 134.175 261.519 133.904 263.37 132.847C267.941 130.237 270.291 126.433 270.641 122.42C270.982 118.502 269.387 114.7 266.713 112.027C263.831 109.147 260.003 108.36 257.201 108.205C256.604 108.172 256.036 108.166 255.51 108.178C255.522 107.656 255.516 107.092 255.484 106.499C255.329 103.696 254.546 99.8665 251.676 96.9817C249.012 94.3039 245.219 92.7035 241.307 93.0459C237.3 93.3966 233.509 95.7534 230.909 100.328C229.856 102.179 229.587 104.558 229.587 106.72C229.587 108.963 229.883 111.366 230.257 113.528C230.634 115.701 231.102 117.699 231.475 119.15C231.522 119.332 231.567 119.506 231.611 119.671L223.999 126.318C216.269 121.526 207.152 118.759 197.389 118.759C186.636 118.759 176.667 122.115 168.473 127.837L159.121 119.671C159.165 119.506 159.21 119.332 159.257 119.15C159.63 117.699 160.098 115.701 160.475 113.528C160.849 111.366 161.145 108.963 161.145 106.72C161.145 104.558 160.876 102.179 159.823 100.328C157.223 95.7534 153.432 93.3966 149.425 93.0459C145.513 92.7035 141.72 94.3039 139.056 96.9817C136.186 99.8665 135.403 103.696 135.249 106.499C135.216 107.092 135.21 107.656 135.222 108.178C134.696 108.166 134.128 108.172 133.531 108.205C130.729 108.36 126.901 109.147 124.019 112.027C121.345 114.7 119.75 118.502 120.091 122.42C120.441 126.433 122.791 130.237 127.362 132.847C129.213 133.904 131.592 134.175 133.753 134.174C135.994 134.174 138.396 133.878 140.555 133.502C142.727 133.124 144.723 132.654 146.172 132.28C146.338 132.237 146.497 132.195 146.649 132.155C146.785 132.385 146.96 132.598 147.174 132.783L155.942 140.349C156.589 139.424 157.268 138.522 157.974 137.644C150.996 146.313 146.82 157.333 146.82 169.328C146.82 183.499 152.648 196.308 162.039 205.489M159.151 136.235C159.226 136.148 159.301 136.062 159.377 135.976L149.481 127.34L148.432 126.425L147.102 126.834L147.102 126.834L147.101 126.834L147.101 126.834L147.096 126.836L147.071 126.843C147.048 126.85 147.012 126.861 146.964 126.876C146.867 126.904 146.721 126.947 146.532 127.001C146.153 127.11 145.601 127.263 144.921 127.438C143.558 127.79 141.699 128.228 139.698 128.576C137.684 128.926 135.595 129.174 133.753 129.174C131.831 129.175 130.533 128.9 129.841 128.505C126.53 126.614 125.264 124.185 125.072 121.986C124.872 119.694 125.811 117.306 127.554 115.564C129.176 113.942 131.542 113.323 133.808 113.197L136.909 113.383C137.398 113.628 137.97 113.714 138.547 113.592C139.118 113.47 139.602 113.162 139.948 112.745C140.275 112.416 140.514 111.993 140.619 111.506C140.74 110.942 140.66 110.382 140.427 109.899L140.241 106.775C140.366 104.504 140.985 102.133 142.601 100.508C144.336 98.7637 146.712 97.8275 148.989 98.0268C151.171 98.2179 153.591 99.4811 155.476 102.798C155.871 103.493 156.145 104.795 156.145 106.72C156.145 108.565 155.898 110.658 155.548 112.674C155.201 114.678 154.765 116.54 154.414 117.905C154.239 118.585 154.087 119.138 153.979 119.517C153.925 119.707 153.882 119.853 153.853 119.95C153.843 119.985 153.835 120.013 153.828 120.035L153.821 120.058L153.814 120.083L153.812 120.087L153.812 120.088L153.812 120.088L153.812 120.088L153.336 121.643L154.564 122.708L164.261 131.12C162.439 132.702 160.731 134.411 159.151 136.235ZM228.44 129.412L236.168 122.708L237.397 121.643L236.92 120.088L236.92 120.088L236.92 120.088L236.92 120.087L236.918 120.083L236.911 120.058L236.898 120.013L236.879 119.95C236.861 119.889 236.837 119.808 236.808 119.71C236.792 119.652 236.773 119.587 236.753 119.517C236.645 119.138 236.493 118.585 236.318 117.905C235.967 116.54 235.531 114.678 235.184 112.674C234.835 110.658 234.587 108.565 234.587 106.72C234.587 104.795 234.861 103.493 235.256 102.798C237.141 99.4811 239.561 98.2179 241.743 98.0268C244.021 97.8275 246.396 98.7637 248.131 100.508C249.747 102.133 250.366 104.504 250.491 106.775L250.305 109.899C250.072 110.382 249.993 110.942 250.113 111.506C250.218 111.993 250.457 112.416 250.784 112.745C251.13 113.162 251.614 113.47 252.185 113.592C252.762 113.714 253.334 113.628 253.823 113.383L256.924 113.197C259.19 113.323 261.556 113.942 263.178 115.564C264.921 117.306 265.86 119.694 265.66 121.986C265.468 124.185 264.202 126.614 260.891 128.505C260.199 128.9 258.902 129.175 256.979 129.174C255.137 129.174 253.048 128.926 251.034 128.576C249.033 128.228 247.174 127.79 245.811 127.438C245.131 127.263 244.579 127.11 244.2 127.001C244.011 126.947 243.865 126.904 243.768 126.876C243.72 126.861 243.684 126.85 243.661 126.843L243.636 126.836L243.631 126.834L243.631 126.834L243.631 126.834L243.63 126.834L242.301 126.425L241.252 127.34L233.593 134.023C231.983 132.372 230.262 130.831 228.44 129.412ZM204.405 199.914L199.38 191.201C199.004 190.549 198.068 190.531 197.667 191.168L192.193 199.87C191.821 200.461 192.153 201.241 192.836 201.382L198.339 202.523C198.479 202.552 198.623 202.551 198.762 202.519L203.759 201.389C204.416 201.24 204.741 200.498 204.405 199.914ZM157.503 200.42C158.532 201.738 159.625 203.004 160.777 204.212L159.529 205.289L154.896 209.332C154.96 209.568 155.028 209.826 155.1 210.103C155.473 211.549 155.943 213.54 156.32 215.706C156.695 217.86 156.991 220.256 156.991 222.492C156.991 224.649 156.722 227.022 155.665 228.871C153.059 233.432 149.261 235.777 145.255 236.126C141.343 236.466 137.547 234.875 134.878 232.206C132.002 229.33 131.216 225.51 131.061 222.714C131.021 222.01 131.021 221.347 131.042 220.747C130.547 220.756 130.015 220.749 129.457 220.718C126.661 220.563 122.841 219.777 119.965 216.901C117.297 214.232 115.705 210.436 116.046 206.524C116.394 202.518 118.739 198.72 123.3 196.113C125.149 195.057 127.523 194.787 129.679 194.787C131.915 194.787 134.311 195.084 136.465 195.459C138.631 195.836 140.623 196.305 142.068 196.679C142.409 196.767 142.721 196.85 142.998 196.926C143.049 196.873 143.103 196.822 143.16 196.773L151.152 189.84C151.862 191.439 152.653 192.995 153.52 194.501L145.371 201.617L144.322 202.533L142.991 202.123L142.991 202.123L142.991 202.123L142.99 202.123L142.986 202.121L142.961 202.114L142.897 202.094L142.854 202.082C142.757 202.053 142.611 202.01 142.423 201.956C142.045 201.848 141.495 201.695 140.817 201.52C139.457 201.169 137.603 200.732 135.607 200.385C133.599 200.035 131.515 199.787 129.679 199.787C127.762 199.787 126.469 200.061 125.781 200.454C122.48 202.341 121.218 204.764 121.027 206.958C120.828 209.245 121.763 211.628 123.501 213.365C125.118 214.982 127.475 215.601 129.734 215.726L133.567 215.496L133.571 215.495C134.919 215.21 136.244 216.069 136.533 217.417C136.669 218.052 136.551 218.682 136.247 219.202L136.053 222.437C136.178 224.696 136.796 227.054 138.413 228.67C140.151 230.408 142.533 231.344 144.821 231.144C147.014 230.953 149.438 229.691 151.324 226.39C151.717 225.702 151.991 224.409 151.991 222.492C151.991 220.656 151.744 218.572 151.394 216.564C151.047 214.568 150.61 212.714 150.259 211.354C150.084 210.677 149.931 210.126 149.823 209.749C149.769 209.56 149.726 209.414 149.697 209.318L149.675 209.244L149.665 209.21L149.657 209.186L149.656 209.181L149.656 209.181L149.656 209.18L149.656 209.18L149.175 207.619L150.412 206.552L156.252 201.512L157.503 200.42Z" fill="white"/>
</g>
<defs>
<filter id="filter0_d_305_202" x="0" y="0" width="390" height="540" filterUnits="userSpaceOnUse" color-interpolation-filters="sRGB">
<feFlood flood-opacity="0" result="BackgroundImageFix"/>
<feColorMatrix in="SourceAlpha" type="matrix" values="0 0 0 0 0 0 0 0 0 0 0 0 0 0 0 0 0 0 127 0" result="hardAlpha"/>
<feOffset/>
<feGaussianBlur stdDeviation="10"/>
<feComposite in2="hardAlpha" operator="out"/>
<feColorMatrix type="matrix" values="0 0 0 0 0.149195 0 0 0 0 0.00833333 0 0 0 0 1 0 0 0 1 0"/>
<feBlend mode="normal" in2="BackgroundImageFix" result="effect1_dropShadow_305_202"/>
<feBlend mode="normal" in="SourceGraphic" in2="effect1_dropShadow_305_202" result="shape"/>
</filter>
</defs>
</svg>
