<svg width="390" height="540" viewBox="0 0 390 540" fill="none" xmlns="http://www.w3.org/2000/svg">
<g filter="url(#filter0_d_193_429)">
<path fill-rule="evenodd" clip-rule="evenodd" d="M20 60C20 37.9086 37.9086 20 60 20H330C352.091 20 370 37.9086 370 60V480C370 502.091 352.091 520 330 520H60C37.9086 520 20 502.091 20 480V60ZM128.21 397V314.568H166.354C174.461 314.568 180.391 316.488 184.146 320.328C187.986 324.083 189.906 329.416 189.906 336.328C189.906 340.851 188.967 344.648 187.09 347.72C185.298 350.707 182.781 352.968 179.538 354.504C183.719 355.528 187.005 357.533 189.394 360.52C191.869 363.421 193.106 367.731 193.106 373.448C193.106 381.469 191.015 387.4 186.834 391.24C182.653 395.08 176.509 397 168.402 397H128.21ZM138.706 350.664H165.714C170.919 350.664 174.589 349.427 176.722 346.952C178.941 344.392 180.05 341.107 180.05 337.096C180.05 332.317 178.941 328.733 176.722 326.344C174.503 323.869 170.194 322.632 163.794 322.632H138.706V350.664ZM138.706 389.064H166.61C172.157 389.064 176.21 387.869 178.77 385.48C181.33 383.005 182.61 378.867 182.61 373.064C182.61 368.285 181.33 364.701 178.77 362.312C176.295 359.837 171.687 358.6 164.946 358.6H138.706V389.064ZM227.276 398.28C223.436 398.28 219.895 397.597 216.652 396.232C213.409 394.867 210.807 392.861 208.844 390.216C206.881 387.485 205.9 384.072 205.9 379.976C205.9 374.429 207.735 369.907 211.404 366.408C215.073 362.824 221.047 361.032 229.324 361.032H250.444V357.32C250.444 353.992 249.975 351.347 249.036 349.384C248.183 347.421 246.519 346.013 244.044 345.16C241.569 344.307 237.943 343.88 233.164 343.88C229.495 343.88 225.953 344.179 222.54 344.776C219.127 345.373 215.927 346.184 212.94 347.208V338.504C215.671 337.48 218.871 336.669 222.54 336.072C226.295 335.389 230.305 335.048 234.572 335.048C243.191 335.048 249.633 336.797 253.9 340.296C258.252 343.795 260.428 349.469 260.428 357.32V397H251.596L250.828 390.088C248.183 392.819 244.983 394.867 241.228 396.232C237.473 397.597 232.823 398.28 227.276 398.28ZM229.964 389.704C234.401 389.704 238.327 388.936 241.74 387.4C245.153 385.779 248.055 383.603 250.444 380.872V369.096H229.58C224.801 369.096 221.388 369.992 219.34 371.784C217.292 373.576 216.268 376.307 216.268 379.976C216.268 383.645 217.505 386.205 219.98 387.656C222.455 389.021 225.783 389.704 229.964 389.704ZM147.447 411.392V432H157.111C159.095 432 160.588 431.531 161.591 430.592C162.594 429.653 163.095 428.181 163.095 426.176C163.095 424.725 162.775 423.616 162.135 422.848C161.495 422.08 160.642 421.579 159.575 421.344C160.407 420.981 161.058 420.416 161.527 419.648C162.018 418.88 162.263 417.92 162.263 416.768C162.263 415.061 161.804 413.739 160.887 412.8C159.991 411.861 158.53 411.392 156.503 411.392H147.447ZM156.663 420.672H149.207V412.8H156.119C157.89 412.8 159.074 413.152 159.671 413.856C160.29 414.539 160.599 415.541 160.599 416.864C160.599 417.973 160.3 418.891 159.703 419.616C159.127 420.32 158.114 420.672 156.663 420.672ZM156.951 430.624H149.207V422.048H156.471C158.348 422.048 159.628 422.4 160.311 423.104C161.015 423.787 161.367 424.789 161.367 426.112C161.367 427.733 161.004 428.896 160.279 429.6C159.575 430.283 158.466 430.624 156.951 430.624ZM169.243 431.872C170.054 432.171 170.939 432.32 171.899 432.32C173.35 432.32 174.555 432.139 175.515 431.776C176.475 431.413 177.307 430.859 178.011 430.112L178.171 432H179.611V421.952C179.611 420.011 179.11 418.624 178.107 417.792C177.126 416.939 175.59 416.512 173.499 416.512C172.497 416.512 171.547 416.587 170.651 416.736C169.777 416.885 169.009 417.088 168.347 417.344V418.848C169.073 418.592 169.841 418.389 170.651 418.24C171.462 418.091 172.305 418.016 173.179 418.016C174.481 418.016 175.462 418.144 176.123 418.4C176.806 418.656 177.275 419.083 177.531 419.68C177.787 420.256 177.915 421.024 177.915 421.984V423.424H172.251C170.203 423.424 168.753 423.851 167.899 424.704C167.046 425.536 166.619 426.624 166.619 427.968C166.619 428.971 166.854 429.803 167.323 430.464C167.814 431.104 168.454 431.573 169.243 431.872ZM175.547 430.272C174.63 430.656 173.563 430.848 172.347 430.848C171.11 430.848 170.129 430.635 169.403 430.208C168.699 429.76 168.347 429.013 168.347 427.968C168.347 426.944 168.635 426.165 169.211 425.632C169.787 425.099 170.822 424.832 172.315 424.832H177.915V428.48C177.254 429.269 176.465 429.867 175.547 430.272ZM184.259 416.832V432H186.019V420.352C186.446 420.032 186.979 419.723 187.619 419.424C188.281 419.104 188.963 418.816 189.667 418.56C190.393 418.304 191.065 418.101 191.683 417.952V416.512C190.702 416.725 189.699 417.045 188.675 417.472C187.673 417.899 186.777 418.389 185.987 418.944L185.795 416.832H184.259ZM196.49 410.976V412.896H198.506V410.976H196.49ZM196.714 418.304V432H198.474V416.832H194.538L194.346 418.304H196.714ZM204.539 430.784C205.477 431.808 206.853 432.32 208.667 432.32C209.989 432.32 211.131 432.128 212.091 431.744C213.051 431.339 213.904 430.805 214.651 430.144L214.811 432H216.379V416.832H214.619V428.672C213.979 429.312 213.211 429.845 212.315 430.272C211.44 430.677 210.469 430.88 209.403 430.88C207.845 430.88 206.704 430.517 205.979 429.792C205.253 429.045 204.891 427.947 204.891 426.496V416.832H203.131V426.432C203.131 428.309 203.6 429.76 204.539 430.784ZM221.166 416.832V432H222.894V420.192C223.576 419.573 224.366 419.051 225.262 418.624C226.158 418.197 227.075 417.984 228.014 417.984C229.422 417.984 230.371 418.315 230.862 418.976C231.352 419.616 231.598 420.661 231.598 422.112V432H233.294V422.08C233.294 421.739 233.272 421.376 233.23 420.992C233.187 420.587 233.134 420.235 233.07 419.936C233.667 419.296 234.392 418.816 235.246 418.496C236.099 418.155 237.006 417.984 237.966 417.984C239.352 417.984 240.366 418.283 241.006 418.88C241.667 419.456 241.998 420.501 241.998 422.016V432H243.726V421.856C243.726 420.021 243.299 418.677 242.446 417.824C241.614 416.949 240.344 416.512 238.638 416.512C237.294 416.512 236.142 416.725 235.182 417.152C234.222 417.557 233.379 418.069 232.654 418.688C232.355 418.005 231.886 417.472 231.246 417.088C230.606 416.704 229.699 416.512 228.526 416.512C227.48 416.512 226.478 416.704 225.518 417.088C224.579 417.472 223.694 418.005 222.862 418.688L222.702 416.832H221.166ZM127 191V263H175.752L173.771 257.055C172.368 252.847 175.501 248.5 179.937 248.5H193.5V231.479C190.625 231.414 187.394 231.209 184.715 231.005C183.047 230.878 181.582 230.75 180.533 230.654C180.238 230.626 179.977 230.602 179.752 230.581C179.578 230.564 179.426 230.549 179.299 230.537C179.154 230.523 179.042 230.512 178.965 230.504L178.878 230.495L178.856 230.493L178.85 230.492L178.848 230.492L178.848 230.492C178.024 230.408 177.424 229.672 177.508 228.848C177.592 228.024 178.328 227.424 179.152 227.508L179.153 227.508L179.154 227.508L179.159 227.508L179.18 227.511L179.263 227.519L179.406 227.533L179.59 227.551C179.874 227.579 180.289 227.618 180.807 227.666C181.844 227.761 183.294 227.888 184.943 228.014C187.592 228.216 190.73 228.414 193.5 228.478V218.479C190.625 218.414 187.394 218.209 184.715 218.005C183.047 217.878 181.582 217.75 180.533 217.654C180.009 217.605 179.589 217.565 179.299 217.537C179.154 217.523 179.042 217.512 178.965 217.504L178.878 217.495L178.856 217.493L178.85 217.492L178.848 217.492L178.848 217.492C178.024 217.408 177.424 216.672 177.508 215.848C177.592 215.024 178.328 214.424 179.152 214.508L179.153 214.508L179.154 214.508L179.159 214.508L179.18 214.511L179.263 214.519L179.431 214.535L179.59 214.551C179.874 214.579 180.289 214.618 180.807 214.666C181.844 214.761 183.294 214.888 184.943 215.014C187.592 215.216 190.73 215.414 193.5 215.478V205.479C190.625 205.414 187.394 205.209 184.715 205.005C183.047 204.878 181.582 204.75 180.533 204.654C180.009 204.605 179.589 204.565 179.299 204.537C179.154 204.523 179.042 204.512 178.965 204.504L178.878 204.495L178.856 204.493L178.85 204.492L178.848 204.492L178.848 204.492C178.024 204.408 177.424 203.672 177.508 202.848C177.592 202.024 178.328 201.424 179.152 201.508L179.153 201.508L179.154 201.508L179.159 201.508L179.18 201.511L179.263 201.519C179.337 201.526 179.447 201.537 179.59 201.551C179.874 201.579 180.289 201.618 180.807 201.666C181.844 201.761 183.294 201.888 184.943 202.014C187.592 202.216 190.73 202.414 193.5 202.478V191H127ZM196.5 248.5V231.489C199.408 231.435 202.846 231.208 205.643 230.986C207.21 230.862 208.587 230.739 209.571 230.646C209.826 230.622 210.055 230.601 210.253 230.581C210.439 230.563 210.599 230.548 210.731 230.535C210.867 230.521 210.972 230.511 211.044 230.503L211.126 230.495L211.147 230.493L211.152 230.492L211.154 230.492L211.154 230.492C211.978 230.407 212.577 229.67 212.492 228.846C212.407 228.022 211.67 227.423 210.846 227.508L210.845 227.508L210.844 227.508L210.839 227.509L210.82 227.511L210.741 227.519C210.672 227.526 210.569 227.536 210.435 227.549C210.167 227.576 209.778 227.614 209.291 227.659C208.317 227.751 206.956 227.873 205.406 227.996C202.637 228.215 199.298 228.435 196.5 228.488V218.489C199.408 218.435 202.846 218.208 205.643 217.986C207.21 217.862 208.587 217.739 209.571 217.646C210.064 217.6 210.459 217.562 210.731 217.535C210.867 217.521 210.972 217.511 211.044 217.503L211.126 217.495L211.147 217.493L211.152 217.492L211.154 217.492L211.154 217.492C211.978 217.407 212.577 216.67 212.492 215.846C212.407 215.022 211.67 214.423 210.846 214.508L210.845 214.508L210.844 214.508L210.839 214.509L210.82 214.511L210.741 214.519L210.605 214.532L210.435 214.549C210.167 214.576 209.778 214.614 209.291 214.659C208.317 214.751 206.956 214.873 205.406 214.996C202.637 215.215 199.298 215.435 196.5 215.488V205.489C199.408 205.435 202.846 205.208 205.643 204.986C207.21 204.862 208.587 204.739 209.571 204.646C210.064 204.6 210.459 204.562 210.731 204.535C210.867 204.521 210.972 204.511 211.044 204.503L211.126 204.495L211.147 204.493L211.152 204.492L211.154 204.492L211.154 204.492C211.978 204.407 212.577 203.67 212.492 202.846C212.407 202.022 211.67 201.423 210.846 201.508L210.845 201.508L210.844 201.508L210.839 201.509L210.82 201.511L210.741 201.519L210.558 201.537L210.435 201.549C210.167 201.576 209.778 201.614 209.291 201.659C208.317 201.751 206.956 201.873 205.406 201.996C202.637 202.215 199.298 202.435 196.5 202.488V191H263V263H213.248L215.229 257.055C216.632 252.847 213.499 248.5 209.063 248.5H196.5ZM210.086 263H178.914L176.617 256.107C175.861 253.84 177.548 251.5 179.937 251.5H194C194.175 251.5 194.344 251.47 194.5 251.415C194.656 251.47 194.825 251.5 195 251.5H209.063C211.452 251.5 213.139 253.84 212.383 256.107L210.086 263ZM125 184C122.239 184 120 186.239 120 189V265C120 267.761 122.239 270 125 270H265C267.761 270 270 267.761 270 265V189C270 186.239 267.761 184 265 184H236.487C236.485 183.994 236.483 183.987 236.48 183.981C236.167 183.128 235.665 181.942 234.885 180.509C233.323 177.639 230.658 173.796 226.199 169.666C221.792 165.586 218.189 163.421 215.585 162.274C214.981 162.008 214.432 161.797 213.941 161.631C217.714 157.321 220 151.678 220 145.5C220 131.969 209.031 121 195.5 121C181.969 121 171 131.969 171 145.5C171 151.81 173.385 157.563 177.304 161.906C177.022 162.015 176.726 162.137 176.415 162.274C173.811 163.421 170.208 165.586 165.801 169.666C161.342 173.796 158.677 177.639 157.115 180.509C156.335 181.942 155.833 183.128 155.52 183.981L155.513 184H125ZM209.576 165.555C209.945 165.811 210.387 165.971 210.866 165.996C210.874 165.997 210.891 165.999 210.915 166.002C210.989 166.012 211.14 166.035 211.364 166.086C211.81 166.187 212.553 166.402 213.569 166.85C215.6 167.744 218.747 169.58 222.801 173.335C226.847 177.081 229.181 180.488 230.493 182.899C230.708 183.293 230.895 183.661 231.059 184H160.941C161.105 183.661 161.292 183.293 161.507 182.899C162.819 180.488 165.153 177.081 169.199 173.335C173.253 169.58 176.4 167.744 178.431 166.85C179.447 166.402 180.19 166.187 180.636 166.086C180.86 166.035 181.011 166.012 181.085 166.002C181.109 165.999 181.126 165.997 181.134 165.996C181.386 165.983 181.627 165.933 181.853 165.851C185.753 168.471 190.448 170 195.5 170C200.739 170 205.593 168.356 209.576 165.555ZM163.5 193C163.5 192.172 162.828 191.5 162 191.5C161.172 191.5 160.5 192.172 160.5 193V239C160.5 239.828 161.172 240.5 162 240.5C162.828 240.5 163.5 239.828 163.5 239V193ZM227 191.5C227.828 191.5 228.5 192.172 228.5 193V239C228.5 239.828 227.828 240.5 227 240.5C226.172 240.5 225.5 239.828 225.5 239V193C225.5 192.172 226.172 191.5 227 191.5ZM162 252C164.209 252 166 250.433 166 248.5C166 246.567 164.209 245 162 245C159.791 245 158 246.567 158 248.5C158 250.433 159.791 252 162 252ZM231 248.5C231 250.433 229.209 252 227 252C224.791 252 223 250.433 223 248.5C223 246.567 224.791 245 227 245C229.209 245 231 246.567 231 248.5ZM215 145.5C215 156.27 206.27 165 195.5 165C184.73 165 176 156.27 176 145.5C176 134.73 184.73 126 195.5 126C206.27 126 215 134.73 215 145.5Z" fill="white"/>
</g>
<defs>
<filter id="filter0_d_193_429" x="0" y="0" width="390" height="540" filterUnits="userSpaceOnUse" color-interpolation-filters="sRGB">
<feFlood flood-opacity="0" result="BackgroundImageFix"/>
<feColorMatrix in="SourceAlpha" type="matrix" values="0 0 0 0 0 0 0 0 0 0 0 0 0 0 0 0 0 0 127 0" result="hardAlpha"/>
<feOffset/>
<feGaussianBlur stdDeviation="10"/>
<feComposite in2="hardAlpha" operator="out"/>
<feColorMatrix type="matrix" values="0 0 0 0 0.149195 0 0 0 0 0.00833333 0 0 0 0 1 0 0 0 1 0"/>
<feBlend mode="normal" in2="BackgroundImageFix" result="effect1_dropShadow_193_429"/>
<feBlend mode="normal" in="SourceGraphic" in2="effect1_dropShadow_193_429" result="shape"/>
</filter>
</defs>
</svg>
