<svg width="390" height="540" viewBox="0 0 390 540" fill="none" xmlns="http://www.w3.org/2000/svg">
<g filter="url(#filter0_d_183_32)">
<path fill-rule="evenodd" clip-rule="evenodd" d="M60 20C37.9086 20 20 37.9086 20 60V480C20 502.091 37.9086 520 60 520H330C352.091 520 370 502.091 370 480V60C370 37.9086 352.091 20 330 20H60ZM129.21 314.568V397H169.402C177.509 397 183.653 395.08 187.834 391.24C192.015 387.4 194.106 381.469 194.106 373.448C194.106 367.731 192.869 363.421 190.394 360.52C188.005 357.533 184.719 355.528 180.538 354.504C183.781 352.968 186.298 350.707 188.09 347.72C189.967 344.648 190.906 340.851 190.906 336.328C190.906 329.416 188.986 324.083 185.146 320.328C181.391 316.488 175.461 314.568 167.354 314.568H129.21ZM166.714 350.664H139.706V322.632H164.794C171.194 322.632 175.503 323.869 177.722 326.344C179.941 328.733 181.05 332.317 181.05 337.096C181.05 341.107 179.941 344.392 177.722 346.952C175.589 349.427 171.919 350.664 166.714 350.664ZM167.61 389.064H139.706V358.6H165.946C172.687 358.6 177.295 359.837 179.77 362.312C182.33 364.701 183.61 368.285 183.61 373.064C183.61 378.867 182.33 383.005 179.77 385.48C177.21 387.869 173.157 389.064 167.61 389.064ZM214.964 390.472C220.34 395.677 228.447 398.28 239.284 398.28C242.868 398.28 246.281 397.981 249.524 397.384C252.852 396.787 255.839 395.933 258.484 394.824V386.632C253.279 388.765 247.561 389.832 241.332 389.832C235.785 389.832 231.305 389.277 227.892 388.168C224.564 386.973 222.047 385.053 220.34 382.408C218.719 379.763 217.737 376.136 217.396 371.528H262.324V360.136C262.324 355.357 261.343 351.091 259.38 347.336C257.503 343.496 254.601 340.509 250.676 338.376C246.836 336.157 241.929 335.048 235.956 335.048C225.887 335.048 218.505 337.864 213.812 343.496C209.204 349.043 206.9 356.68 206.9 366.408C206.9 377.245 209.588 385.267 214.964 390.472ZM252.98 363.976H217.396C217.396 357.149 218.719 352.029 221.364 348.616C224.009 345.203 228.959 343.496 236.212 343.496C242.185 343.496 246.452 344.861 249.012 347.592C251.657 350.237 252.98 354.035 252.98 358.984V363.976ZM131.822 432V411.392H140.878C142.905 411.392 144.366 411.861 145.262 412.8C146.179 413.739 146.638 415.061 146.638 416.768C146.638 417.92 146.393 418.88 145.902 419.648C145.433 420.416 144.782 420.981 143.95 421.344C145.017 421.579 145.87 422.08 146.51 422.848C147.15 423.616 147.47 424.725 147.47 426.176C147.47 428.181 146.969 429.653 145.966 430.592C144.963 431.531 143.47 432 141.486 432H131.822ZM133.582 420.672H141.038C142.489 420.672 143.502 420.32 144.078 419.616C144.675 418.891 144.974 417.973 144.974 416.864C144.974 415.541 144.665 414.539 144.046 413.856C143.449 413.152 142.265 412.8 140.494 412.8H133.582V420.672ZM133.582 430.624H141.326C142.841 430.624 143.95 430.283 144.654 429.6C145.379 428.896 145.742 427.733 145.742 426.112C145.742 424.789 145.39 423.787 144.686 423.104C144.003 422.4 142.723 422.048 140.846 422.048H133.582V430.624ZM158.834 432.32C156.104 432.32 154.109 431.68 152.85 430.4C151.613 429.099 150.994 427.072 150.994 424.32C150.994 421.888 151.538 419.979 152.626 418.592C153.736 417.205 155.528 416.512 158.002 416.512C159.474 416.512 160.669 416.789 161.586 417.344C162.504 417.877 163.176 418.603 163.602 419.52C164.05 420.437 164.274 421.461 164.274 422.592V425.344H152.754C152.84 427.307 153.352 428.725 154.29 429.6C155.229 430.453 156.861 430.88 159.186 430.88C160.594 430.88 161.96 430.613 163.282 430.08V431.52C161.981 432.053 160.498 432.32 158.834 432.32ZM152.754 423.968H162.674V422.528C162.674 421.12 162.312 420.011 161.586 419.2C160.861 418.389 159.677 417.984 158.034 417.984C156.029 417.984 154.642 418.507 153.874 419.552C153.128 420.576 152.754 422.048 152.754 423.968ZM168.759 432V416.832H170.295L170.487 418.944C171.277 418.389 172.173 417.899 173.175 417.472C174.199 417.045 175.202 416.725 176.183 416.512V417.952C175.565 418.101 174.893 418.304 174.167 418.56C173.463 418.816 172.781 419.104 172.119 419.424C171.479 419.723 170.946 420.032 170.519 420.352V432H168.759ZM180.625 437.632C180.177 437.632 179.761 437.6 179.377 437.536C179.014 437.493 178.662 437.408 178.321 437.28V435.808C178.684 435.936 179.014 436.021 179.313 436.064C179.633 436.107 179.953 436.128 180.273 436.128C181.02 436.128 181.617 435.957 182.065 435.616C182.513 435.296 182.908 434.816 183.249 434.176C183.59 433.557 183.953 432.8 184.337 431.904L177.713 416.832H179.537L185.233 430.016L191.153 416.832H192.945L186.385 431.52C185.873 432.693 185.361 433.739 184.849 434.656C184.358 435.573 183.782 436.299 183.121 436.832C182.46 437.365 181.628 437.632 180.625 437.632ZM199.294 432.32C198.441 432.32 197.758 432.085 197.246 431.616C196.734 431.147 196.478 430.304 196.478 429.088V410.432H198.238V429.024C198.238 429.707 198.345 430.176 198.558 430.432C198.771 430.688 199.113 430.816 199.582 430.816C200.051 430.816 200.521 430.752 200.99 430.624V432.096C200.713 432.181 200.425 432.235 200.126 432.256C199.827 432.299 199.55 432.32 199.294 432.32ZM206.357 432.32C205.503 432.32 204.821 432.085 204.309 431.616C203.797 431.147 203.541 430.304 203.541 429.088V410.432H205.301V429.024C205.301 429.707 205.407 430.176 205.621 430.432C205.834 430.688 206.175 430.816 206.645 430.816C207.114 430.816 207.583 430.752 208.053 430.624V432.096C207.775 432.181 207.487 432.235 207.189 432.256C206.89 432.299 206.613 432.32 206.357 432.32ZM212.115 412.896V410.976H214.131V412.896H212.115ZM212.339 432V418.304H209.971L210.163 416.832H214.099V432H212.339ZM224.292 432.32C222.478 432.32 221.102 431.808 220.164 430.784C219.225 429.76 218.756 428.309 218.756 426.432V416.832H220.516V426.496C220.516 427.947 220.878 429.045 221.604 429.792C222.329 430.517 223.47 430.88 225.028 430.88C226.094 430.88 227.065 430.677 227.94 430.272C228.836 429.845 229.604 429.312 230.244 428.672V416.832H232.004V432H230.436L230.276 430.144C229.529 430.805 228.676 431.339 227.716 431.744C226.756 432.128 225.614 432.32 224.292 432.32ZM236.791 432V416.832H238.327L238.487 418.688C239.319 418.005 240.204 417.472 241.143 417.088C242.103 416.704 243.105 416.512 244.151 416.512C245.324 416.512 246.231 416.704 246.871 417.088C247.511 417.472 247.98 418.005 248.279 418.688C249.004 418.069 249.847 417.557 250.807 417.152C251.767 416.725 252.919 416.512 254.263 416.512C255.969 416.512 257.239 416.949 258.071 417.824C258.924 418.677 259.351 420.021 259.351 421.856V432H257.623V422.016C257.623 420.501 257.292 419.456 256.631 418.88C255.991 418.283 254.977 417.984 253.591 417.984C252.631 417.984 251.724 418.155 250.871 418.496C250.017 418.816 249.292 419.296 248.695 419.936C248.759 420.235 248.812 420.587 248.855 420.992C248.897 421.376 248.919 421.739 248.919 422.08V432H247.223V422.112C247.223 420.661 246.977 419.616 246.487 418.976C245.996 418.315 245.047 417.984 243.639 417.984C242.7 417.984 241.783 418.197 240.887 418.624C239.991 419.051 239.201 419.573 238.519 420.192V432H236.791ZM164.103 137.099L154.11 118.609L138.463 133.423L154.531 146.041L164.103 137.099ZM138 188.999V139.416L152.389 150.715V206.922L138 218.221V201.434C136.249 202.427 134.558 203.569 133 204.88V224.214V225.29L133.781 226.03L153.094 244.315L153.817 245H154.813H234.364H235.36L236.083 244.315L255.396 226.03L256.177 225.29V224.214V166.389C255.968 166.029 255.754 165.676 255.534 165.333C254.388 163.547 252.873 162.046 251.177 160.786V218.583L236.789 207.284V151.078L251.177 139.78V149.02C252.802 148.311 254.3 147.559 255.534 146.782C255.754 146.643 255.968 146.494 256.177 146.337V132.786V131.71L255.396 130.97L236.083 112.685L235.36 112H234.364H154.813H153.817L153.094 112.685L133.781 130.97L133 131.71V132.786V186.83C134.585 187.611 136.272 188.334 138 188.999ZM154.32 211.762L138.831 223.926L154.162 238.441L163.796 220.615L154.32 211.762ZM234.646 211.959L250.137 224.123L235.5 237.982L225.868 220.16L234.646 211.959ZM159.003 240H230.907L221.719 223H168.191L159.003 240ZM236.163 119.646L250.924 133.621L234.857 146.238L226.175 138.126L236.163 119.646ZM222.181 135L231.909 117H158.924L168.652 135H221.842H222.181ZM157.389 150.214L168.321 140H220.856L231.789 150.214V207.786L220.856 218H168.321L157.389 207.786V150.214ZM92.237 192.201C86.6939 193.989 81.906 195.125 81.906 195.125C81.906 195.125 86.7126 195.644 92.1744 197.633C96.9753 199.383 102.282 202.268 105.276 206.938C108.569 212.073 110.703 219.047 112.085 225.994C114.249 236.867 114.572 247.673 114.618 251.258C114.616 252.059 114.624 252.5 114.624 252.5C114.624 252.5 114.628 252.06 114.618 251.258C114.626 247.667 114.845 236.837 116.986 225.989C118.365 219.003 120.541 212.009 123.972 206.938C127.107 202.303 132.246 199.465 137.045 197.737C143.256 195.501 148.9 195.125 148.9 195.125C148.9 195.125 143.264 194.211 136.933 192.327C132.351 190.963 127.406 189.09 123.972 186.687C120.724 184.414 118.604 180.177 117.22 175.644C114.681 167.321 114.624 158 114.624 158C114.624 158 114.679 167.375 112.204 175.663C110.826 180.275 108.666 184.551 105.276 186.687C101.94 188.79 96.8294 190.719 92.237 192.201ZM109.216 203.974C106.664 199.994 102.973 197.181 99.2802 195.189C102.328 194.017 105.333 192.662 107.689 191.178C110.953 189.12 113.183 185.905 114.725 182.663C116.224 185.816 118.341 188.932 121.369 191.051C123.807 192.757 126.784 194.182 129.812 195.355C126.216 197.318 122.686 200.049 120.103 203.867C117.732 207.372 115.924 211.567 114.541 215.964C113.195 211.625 111.461 207.475 109.216 203.974ZM243.063 155.044C243.063 155.044 247.887 153.9 252.467 152.219C254.602 151.435 256.683 150.535 258.199 149.58C259.722 148.62 260.861 146.993 261.715 145.09C264.302 139.318 264.253 131 264.253 131C264.253 131 264.303 139.258 266.918 145.081C267.756 146.949 268.859 148.566 270.307 149.58C271.846 150.656 273.853 151.568 275.926 152.321C280.991 154.159 286.452 155.044 286.452 155.044C286.452 155.044 281.054 155.404 276.158 157.848C273.912 158.969 271.772 160.529 270.307 162.694C268.723 165.037 267.551 168.012 266.686 171.168C264.453 179.307 264.256 188.643 264.249 191.399C264.214 188.648 263.927 179.336 261.705 171.163C260.853 168.028 259.716 165.06 258.199 162.694C256.783 160.486 254.567 158.893 252.264 157.753C247.826 155.558 243.063 155.044 243.063 155.044ZM264.253 192.203C264.253 192.203 264.256 191.918 264.249 191.399C264.248 191.918 264.253 192.203 264.253 192.203ZM258.131 155.422C259.627 156.577 261.024 157.993 262.139 159.731C262.92 160.949 263.608 162.273 264.216 163.661C264.86 162.229 265.596 160.868 266.438 159.624C267.552 157.977 268.899 156.622 270.337 155.506C269.406 155.031 268.516 154.511 267.704 153.943C266.32 152.975 265.209 151.747 264.313 150.437C263.355 151.818 262.145 153.103 260.611 154.07C259.859 154.544 259.018 154.996 258.131 155.422ZM260 260.5H130.5V255.5H260V260.5ZM291 270.5H169V265.5H291V270.5Z" fill="white"/>
</g>
<defs>
<filter id="filter0_d_183_32" x="0" y="0" width="390" height="540" filterUnits="userSpaceOnUse" color-interpolation-filters="sRGB">
<feFlood flood-opacity="0" result="BackgroundImageFix"/>
<feColorMatrix in="SourceAlpha" type="matrix" values="0 0 0 0 0 0 0 0 0 0 0 0 0 0 0 0 0 0 127 0" result="hardAlpha"/>
<feOffset/>
<feGaussianBlur stdDeviation="10"/>
<feComposite in2="hardAlpha" operator="out"/>
<feColorMatrix type="matrix" values="0 0 0 0 0.149195 0 0 0 0 0.00833333 0 0 0 0 1 0 0 0 1 0"/>
<feBlend mode="normal" in2="BackgroundImageFix" result="effect1_dropShadow_183_32"/>
<feBlend mode="normal" in="SourceGraphic" in2="effect1_dropShadow_183_32" result="shape"/>
</filter>
</defs>
</svg>
