<svg width="390" height="540" viewBox="0 0 390 540" fill="none" xmlns="http://www.w3.org/2000/svg">
<g filter="url(#filter0_d_307_241)">
<path fill-rule="evenodd" clip-rule="evenodd" d="M60 20C37.9086 20 20 37.9086 20 60V480C20 502.091 37.9086 520 60 520H330C352.091 520 370 502.091 370 480V60C370 37.9086 352.091 20 330 20H60ZM146.085 314.568V397H186.277C194.384 397 200.528 395.08 204.709 391.24C208.89 387.4 210.981 381.469 210.981 373.448C210.981 367.731 209.744 363.421 207.269 360.52C204.88 357.533 201.594 355.528 197.413 354.504C200.656 352.968 203.173 350.707 204.965 347.72C206.842 344.648 207.781 340.851 207.781 336.328C207.781 329.416 205.861 324.083 202.021 320.328C198.266 316.488 192.336 314.568 184.229 314.568H146.085ZM183.589 350.664H156.581V322.632H181.669C188.069 322.632 192.378 323.869 194.597 326.344C196.816 328.733 197.925 332.317 197.925 337.096C197.925 341.107 196.816 344.392 194.597 346.952C192.464 349.427 188.794 350.664 183.589 350.664ZM184.485 389.064H156.581V358.6H182.821C189.562 358.6 194.17 359.837 196.645 362.312C199.205 364.701 200.485 368.285 200.485 373.064C200.485 378.867 199.205 383.005 196.645 385.48C194.085 387.869 190.032 389.064 184.485 389.064ZM230.22 312.52V322.12H241.868V312.52H230.22ZM231.244 344.648V397H241.74V336.328H222.924L221.9 344.648H231.244ZM139.775 432V411.392H148.831C150.858 411.392 152.319 411.861 153.215 412.8C154.132 413.739 154.591 415.061 154.591 416.768C154.591 417.92 154.346 418.88 153.855 419.648C153.386 420.416 152.735 420.981 151.903 421.344C152.97 421.579 153.823 422.08 154.463 422.848C155.103 423.616 155.423 424.725 155.423 426.176C155.423 428.181 154.922 429.653 153.919 430.592C152.916 431.531 151.423 432 149.439 432H139.775ZM141.535 420.672H148.991C150.442 420.672 151.455 420.32 152.031 419.616C152.628 418.891 152.927 417.973 152.927 416.864C152.927 415.541 152.618 414.539 151.999 413.856C151.402 413.152 150.218 412.8 148.447 412.8H141.535V420.672ZM141.535 430.624H149.279C150.794 430.624 151.903 430.283 152.607 429.6C153.332 428.896 153.695 427.733 153.695 426.112C153.695 424.789 153.343 423.787 152.639 423.104C151.956 422.4 150.676 422.048 148.799 422.048H141.535V430.624ZM160.943 412.896V410.976H162.959V412.896H160.943ZM161.167 432V418.304H158.799L158.991 416.832H162.927V432H161.167ZM172.192 432.32C171.296 432.32 170.432 432.256 169.6 432.128C168.789 432.021 168.096 431.872 167.52 431.68V430.112C168.224 430.347 168.949 430.528 169.696 430.656C170.442 430.763 171.2 430.816 171.968 430.816C173.461 430.816 174.528 430.624 175.168 430.24C175.808 429.835 176.128 429.141 176.128 428.16C176.128 427.477 175.968 426.965 175.648 426.624C175.349 426.261 174.869 425.952 174.208 425.696C173.546 425.44 172.704 425.141 171.68 424.8C170.826 424.501 170.048 424.213 169.344 423.936C168.661 423.637 168.117 423.232 167.712 422.72C167.306 422.187 167.104 421.451 167.104 420.512C167.104 419.189 167.541 418.197 168.416 417.536C169.29 416.853 170.709 416.512 172.672 416.512C173.44 416.512 174.165 416.565 174.848 416.672C175.552 416.757 176.17 416.885 176.704 417.056V418.624C175.466 418.24 174.208 418.048 172.928 418.048C171.413 418.048 170.346 418.24 169.728 418.624C169.13 418.987 168.832 419.605 168.832 420.48C168.832 421.077 168.96 421.547 169.216 421.888C169.493 422.208 169.92 422.485 170.496 422.72C171.093 422.955 171.861 423.221 172.8 423.52C173.93 423.883 174.869 424.245 175.616 424.608C176.384 424.971 176.949 425.429 177.312 425.984C177.696 426.517 177.888 427.243 177.888 428.16C177.888 429.653 177.376 430.72 176.352 431.36C175.349 432 173.962 432.32 172.192 432.32ZM182.056 432V416.832H183.592L183.752 418.688C184.584 418.005 185.47 417.472 186.408 417.088C187.368 416.704 188.371 416.512 189.416 416.512C190.59 416.512 191.496 416.704 192.136 417.088C192.776 417.472 193.246 418.005 193.544 418.688C194.27 418.069 195.112 417.557 196.072 417.152C197.032 416.725 198.184 416.512 199.528 416.512C201.235 416.512 202.504 416.949 203.336 417.824C204.19 418.677 204.616 420.021 204.616 421.856V432H202.888V422.016C202.888 420.501 202.558 419.456 201.896 418.88C201.256 418.283 200.243 417.984 198.856 417.984C197.896 417.984 196.99 418.155 196.136 418.496C195.283 418.816 194.558 419.296 193.96 419.936C194.024 420.235 194.078 420.587 194.12 420.992C194.163 421.376 194.184 421.739 194.184 422.08V432H192.488V422.112C192.488 420.661 192.243 419.616 191.752 418.976C191.262 418.315 190.312 417.984 188.904 417.984C187.966 417.984 187.048 418.197 186.152 418.624C185.256 419.051 184.467 419.573 183.784 420.192V432H182.056ZM214.62 432.32C212.806 432.32 211.43 431.808 210.492 430.784C209.553 429.76 209.084 428.309 209.084 426.432V416.832H210.844V426.496C210.844 427.947 211.206 429.045 211.932 429.792C212.657 430.517 213.798 430.88 215.356 430.88C216.422 430.88 217.393 430.677 218.268 430.272C219.164 429.845 219.932 429.312 220.572 428.672V416.832H222.332V432H220.764L220.604 430.144C219.857 430.805 219.004 431.339 218.044 431.744C217.084 432.128 215.942 432.32 214.62 432.32ZM232.399 432.32C231.055 432.32 230.02 431.947 229.295 431.2C228.569 430.453 228.207 429.408 228.207 428.064V418.304H225.839V416.832H228.207V412.864L229.967 412.288V416.832H234.351L234.255 418.304H229.967V428C229.967 428.981 230.191 429.707 230.639 430.176C231.108 430.645 231.865 430.88 232.911 430.88C233.188 430.88 233.476 430.859 233.775 430.816C234.095 430.752 234.436 430.656 234.799 430.528V431.936C234.095 432.192 233.295 432.32 232.399 432.32ZM238.15 432V410.432H239.91V418.656C240.657 418.016 241.51 417.504 242.47 417.12C243.451 416.715 244.625 416.512 245.99 416.512C247.825 416.512 249.179 416.949 250.054 417.824C250.95 418.699 251.398 420.085 251.398 421.984V432H249.638V422.016C249.638 420.523 249.318 419.477 248.678 418.88C248.059 418.283 246.939 417.984 245.318 417.984C244.273 417.984 243.281 418.197 242.342 418.624C241.403 419.029 240.593 419.563 239.91 420.224V432H238.15ZM203 185H209H245H251V265H203V185ZM203 180H204V163C204 160.581 205.718 158.563 208 158.1V129.772C208 126.861 209.268 124.095 211.474 122.195L229.474 106.691C235.956 101.108 246 105.713 246 114.268V158.1C248.282 158.563 250 160.581 250 163V180H251H256V185V265C256 267.761 253.761 270 251 270H203C200.239 270 198 267.761 198 265V185V180H203ZM209 163H211H243H245V180H209V163ZM214 158H240V114.268C240 110.846 235.982 109.004 233.39 111.237L215.39 126.742C214.507 127.501 214 128.608 214 129.772V158ZM244.5 203C244.5 202.172 243.828 201.5 243 201.5C242.172 201.5 241.5 202.172 241.5 203V239C241.5 239.828 242.172 240.5 243 240.5C243.828 240.5 244.5 239.828 244.5 239V203ZM189.916 203.356H187.416H145H140L140.007 208.356L140.09 265.007C140.094 267.214 141.884 269.001 144.09 269.001H185.995C188.206 269.001 189.998 267.207 189.995 264.996L189.916 203.356ZM145.089 264.001L145.007 208.356H184.922L184.994 264.001H145.089Z" fill="white"/>
</g>
<defs>
<filter id="filter0_d_307_241" x="0" y="0" width="390" height="540" filterUnits="userSpaceOnUse" color-interpolation-filters="sRGB">
<feFlood flood-opacity="0" result="BackgroundImageFix"/>
<feColorMatrix in="SourceAlpha" type="matrix" values="0 0 0 0 0 0 0 0 0 0 0 0 0 0 0 0 0 0 127 0" result="hardAlpha"/>
<feOffset/>
<feGaussianBlur stdDeviation="10"/>
<feComposite in2="hardAlpha" operator="out"/>
<feColorMatrix type="matrix" values="0 0 0 0 0 0 0 0 0 0.637931 0 0 0 0 1 0 0 0 1 0"/>
<feBlend mode="normal" in2="BackgroundImageFix" result="effect1_dropShadow_307_241"/>
<feBlend mode="normal" in="SourceGraphic" in2="effect1_dropShadow_307_241" result="shape"/>
</filter>
</defs>
</svg>
