<svg width="390" height="540" viewBox="0 0 390 540" fill="none" xmlns="http://www.w3.org/2000/svg">
<g filter="url(#filter0_d_193_409)">
<path fill-rule="evenodd" clip-rule="evenodd" d="M60 20C37.9086 20 20 37.9086 20 60V480C20 502.091 37.9086 520 60 520H330C352.091 520 370 502.091 370 480V60C370 37.9086 352.091 20 330 20H60ZM163.335 314.568V397H203.527C211.634 397 217.778 395.08 221.959 391.24C226.14 387.4 228.231 381.469 228.231 373.448C228.231 367.731 226.994 363.421 224.519 360.52C222.13 357.533 218.844 355.528 214.663 354.504C217.906 352.968 220.423 350.707 222.215 347.72C224.092 344.648 225.031 340.851 225.031 336.328C225.031 329.416 223.111 324.083 219.271 320.328C215.516 316.488 209.586 314.568 201.479 314.568H163.335ZM200.839 350.664H173.831V322.632H198.919C205.319 322.632 209.628 323.869 211.847 326.344C214.066 328.733 215.175 332.317 215.175 337.096C215.175 341.107 214.066 344.392 211.847 346.952C209.714 349.427 206.044 350.664 200.839 350.664ZM201.735 389.064H173.831V358.6H200.071C206.812 358.6 211.42 359.837 213.895 362.312C216.455 364.701 217.735 368.285 217.735 373.064C217.735 378.867 216.455 383.005 213.895 385.48C211.335 387.869 207.282 389.064 201.735 389.064ZM155.478 432V411.392H164.534C166.561 411.392 168.022 411.861 168.918 412.8C169.835 413.739 170.294 415.061 170.294 416.768C170.294 417.92 170.049 418.88 169.558 419.648C169.089 420.416 168.438 420.981 167.606 421.344C168.673 421.579 169.526 422.08 170.166 422.848C170.806 423.616 171.126 424.725 171.126 426.176C171.126 428.181 170.625 429.653 169.622 430.592C168.619 431.531 167.126 432 165.142 432H155.478ZM157.238 420.672H164.694C166.145 420.672 167.158 420.32 167.734 419.616C168.331 418.891 168.63 417.973 168.63 416.864C168.63 415.541 168.321 414.539 167.702 413.856C167.105 413.152 165.921 412.8 164.15 412.8H157.238V420.672ZM157.238 430.624H164.982C166.497 430.624 167.606 430.283 168.31 429.6C169.035 428.896 169.398 427.733 169.398 426.112C169.398 424.789 169.046 423.787 168.342 423.104C167.659 422.4 166.379 422.048 164.502 422.048H157.238V430.624ZM181.883 432.32C179.323 432.32 177.477 431.648 176.347 430.304C175.216 428.96 174.651 426.997 174.651 424.416C174.651 421.856 175.227 419.904 176.379 418.56C177.531 417.195 179.365 416.512 181.883 416.512C184.421 416.512 186.267 417.195 187.419 418.56C188.571 419.904 189.147 421.856 189.147 424.416C189.147 426.997 188.571 428.96 187.419 430.304C186.288 431.648 184.443 432.32 181.883 432.32ZM181.883 430.816C183.909 430.816 185.328 430.293 186.139 429.248C186.971 428.203 187.387 426.592 187.387 424.416C187.387 422.261 186.971 420.661 186.139 419.616C185.307 418.571 183.888 418.048 181.883 418.048C179.877 418.048 178.459 418.571 177.627 419.616C176.795 420.661 176.379 422.261 176.379 424.416C176.379 426.592 176.795 428.203 177.627 429.248C178.459 430.293 179.877 430.816 181.883 430.816ZM193.322 432V416.832H194.858L195.05 418.944C195.839 418.389 196.735 417.899 197.738 417.472C198.762 417.045 199.765 416.725 200.746 416.512V417.952C200.127 418.101 199.455 418.304 198.73 418.56C198.026 418.816 197.343 419.104 196.682 419.424C196.042 419.723 195.509 420.032 195.082 420.352V432H193.322ZM210.008 432.32C207.448 432.32 205.602 431.648 204.472 430.304C203.341 428.96 202.776 426.997 202.776 424.416C202.776 421.856 203.352 419.904 204.504 418.56C205.656 417.195 207.49 416.512 210.008 416.512C212.546 416.512 214.392 417.195 215.544 418.56C216.696 419.904 217.272 421.856 217.272 424.416C217.272 426.997 216.696 428.96 215.544 430.304C214.413 431.648 212.568 432.32 210.008 432.32ZM210.008 430.816C212.034 430.816 213.453 430.293 214.264 429.248C215.096 428.203 215.512 426.592 215.512 424.416C215.512 422.261 215.096 420.661 214.264 419.616C213.432 418.571 212.013 418.048 210.008 418.048C208.002 418.048 206.584 418.571 205.752 419.616C204.92 420.661 204.504 422.261 204.504 424.416C204.504 426.592 204.92 428.203 205.752 429.248C206.584 430.293 208.002 430.816 210.008 430.816ZM221.447 432V416.832H222.983L223.143 418.688C223.911 418.048 224.786 417.525 225.767 417.12C226.748 416.715 227.922 416.512 229.287 416.512C231.186 416.512 232.562 416.949 233.415 417.824C234.268 418.699 234.695 420.085 234.695 421.984V432H232.935V422.016C232.935 420.523 232.626 419.477 232.007 418.88C231.41 418.283 230.258 417.984 228.551 417.984C227.484 417.984 226.492 418.187 225.575 418.592C224.679 418.997 223.89 419.531 223.207 420.192V432H221.447ZM232.186 126.121C236.572 127.015 239.899 128.016 242.105 129C239.899 129.984 236.572 130.985 232.186 131.879C222.831 133.784 209.681 135 195 135C180.319 135 167.169 133.784 157.814 131.879C153.428 130.985 150.101 129.984 147.895 129C150.101 128.016 153.428 127.015 157.814 126.121C167.169 124.216 180.319 123 195 123C209.681 123 222.831 124.216 232.186 126.121ZM249.49 128.582L248.952 128.534C247.755 122.675 224.058 118 195 118C166.559 118 143.253 122.479 141.154 128.163L140.51 128.22L152.658 265.66C153.001 269.531 156.243 272.5 160.129 272.5H229.872C233.757 272.5 237 269.532 237.342 265.662L249.49 128.582ZM195 140C173.301 140 154.591 137.393 146.008 133.632L157.639 265.22C157.753 266.51 158.834 267.5 160.129 267.5H229.872C231.167 267.5 232.248 266.511 232.362 265.221L244.024 133.618C235.456 137.386 216.726 140 195 140ZM158.319 148.019C158.189 146.645 156.969 145.636 155.594 145.767C154.22 145.898 153.211 147.118 153.342 148.492L156.914 186.074C157.044 187.449 158.264 188.457 159.639 188.327C161.013 188.196 162.022 186.976 161.891 185.601L158.319 148.019ZM163.814 205.834C163.681 204.459 162.459 203.453 161.085 203.586C159.711 203.719 158.704 204.94 158.837 206.315L163.642 256.003C164.014 259.848 167.245 262.781 171.107 262.781H201.151C202.532 262.781 203.651 261.662 203.651 260.281C203.651 258.901 202.532 257.781 201.151 257.781H171.107C169.82 257.781 168.743 256.804 168.619 255.522L163.814 205.834Z" fill="white"/>
</g>
<defs>
<filter id="filter0_d_193_409" x="0" y="0" width="390" height="540" filterUnits="userSpaceOnUse" color-interpolation-filters="sRGB">
<feFlood flood-opacity="0" result="BackgroundImageFix"/>
<feColorMatrix in="SourceAlpha" type="matrix" values="0 0 0 0 0 0 0 0 0 0 0 0 0 0 0 0 0 0 127 0" result="hardAlpha"/>
<feOffset/>
<feGaussianBlur stdDeviation="10"/>
<feComposite in2="hardAlpha" operator="out"/>
<feColorMatrix type="matrix" values="0 0 0 0 0.149195 0 0 0 0 0.00833333 0 0 0 0 1 0 0 0 1 0"/>
<feBlend mode="normal" in2="BackgroundImageFix" result="effect1_dropShadow_193_409"/>
<feBlend mode="normal" in="SourceGraphic" in2="effect1_dropShadow_193_409" result="shape"/>
</filter>
</defs>
</svg>
