<svg width="390" height="540" viewBox="0 0 390 540" fill="none" xmlns="http://www.w3.org/2000/svg">
<g filter="url(#filter0_d_188_207)">
<path fill-rule="evenodd" clip-rule="evenodd" d="M60 20C37.9086 20 20 37.9086 20 60V480C20 502.091 37.9086 520 60 520H330C352.091 520 370 502.091 370 480V60C370 37.9086 352.091 20 330 20H60ZM145.12 393.288C151.008 396.616 158.39 398.28 167.264 398.28C172.043 398.28 176.353 397.981 180.193 397.384C184.118 396.787 187.745 395.976 191.073 394.952V385.608C187.659 386.888 183.947 387.827 179.937 388.424C176.011 389.021 172.129 389.32 168.288 389.32C157.878 389.32 150.24 386.589 145.377 381.128C140.598 375.581 138.208 367.731 138.208 357.576C138.208 350.237 139.147 343.923 141.025 338.632C142.902 333.341 146.017 329.288 150.368 326.472C154.721 323.656 160.609 322.248 168.033 322.248C172.299 322.248 176.353 322.632 180.193 323.4C184.033 324.083 187.659 325.064 191.073 326.344V317.128C187.659 315.933 183.99 314.995 180.064 314.312C176.225 313.629 171.915 313.288 167.137 313.288C157.921 313.288 150.411 315.123 144.609 318.792C138.806 322.376 134.539 327.496 131.809 334.152C129.078 340.808 127.713 348.616 127.713 357.576C127.713 365.768 129.163 372.936 132.064 379.08C134.966 385.139 139.318 389.875 145.12 393.288ZM214.59 396.232C217.832 397.597 221.374 398.28 225.214 398.28C230.76 398.28 235.411 397.597 239.165 396.232C242.92 394.867 246.12 392.819 248.766 390.088L249.534 397H258.366V357.32C258.366 349.469 256.189 343.795 251.837 340.296C247.571 336.797 241.128 335.048 232.51 335.048C228.243 335.048 224.232 335.389 220.478 336.072C216.808 336.669 213.608 337.48 210.878 338.504V347.208C213.864 346.184 217.064 345.373 220.478 344.776C223.891 344.179 227.432 343.88 231.102 343.88C235.88 343.88 239.507 344.307 241.982 345.16C244.456 346.013 246.12 347.421 246.974 349.384C247.912 351.347 248.382 353.992 248.382 357.32V361.032H227.262C218.984 361.032 213.011 362.824 209.342 366.408C205.672 369.907 203.837 374.429 203.837 379.976C203.837 384.072 204.819 387.485 206.781 390.216C208.744 392.861 211.347 394.867 214.59 396.232ZM239.678 387.4C236.264 388.936 232.339 389.704 227.902 389.704C223.72 389.704 220.392 389.021 217.917 387.656C215.443 386.205 214.206 383.645 214.206 379.976C214.206 376.307 215.23 373.576 217.277 371.784C219.326 369.992 222.739 369.096 227.518 369.096H248.382V380.872C245.992 383.603 243.091 385.779 239.678 387.4ZM150.326 432.32C148.15 432.32 146.358 431.904 144.95 431.072C143.563 430.219 142.528 429.045 141.846 427.552C141.184 426.037 140.854 424.277 140.854 422.272C140.854 420.032 141.163 418.08 141.782 416.416C142.4 414.731 143.403 413.419 144.79 412.48C146.176 411.541 148.011 411.072 150.294 411.072C151.467 411.072 152.534 411.157 153.494 411.328C154.475 411.477 155.371 411.701 156.182 412V413.568C155.371 413.269 154.475 413.035 153.494 412.864C152.534 412.693 151.52 412.608 150.454 412.608C148.47 412.608 146.902 413.013 145.75 413.824C144.598 414.613 143.776 415.733 143.286 417.184C142.816 418.613 142.582 420.309 142.582 422.272C142.582 424.96 143.211 427.061 144.47 428.576C145.728 430.069 147.755 430.816 150.55 430.816C151.488 430.816 152.459 430.741 153.462 430.592C154.464 430.443 155.371 430.229 156.182 429.952V431.52C155.371 431.776 154.475 431.968 153.494 432.096C152.534 432.245 151.478 432.32 150.326 432.32ZM164.977 432.32C164.018 432.32 163.132 432.171 162.322 431.872C161.532 431.573 160.892 431.104 160.402 430.464C159.932 429.803 159.697 428.971 159.697 427.968C159.697 426.624 160.124 425.536 160.977 424.704C161.831 423.851 163.281 423.424 165.329 423.424H170.993V421.984C170.993 421.024 170.865 420.256 170.609 419.68C170.354 419.083 169.884 418.656 169.202 418.4C168.54 418.144 167.559 418.016 166.258 418.016C165.383 418.016 164.54 418.091 163.73 418.24C162.919 418.389 162.151 418.592 161.426 418.848V417.344C162.087 417.088 162.855 416.885 163.73 416.736C164.626 416.587 165.575 416.512 166.577 416.512C168.668 416.512 170.204 416.939 171.186 417.792C172.188 418.624 172.689 420.011 172.689 421.952V432H171.249L171.09 430.112C170.385 430.859 169.553 431.413 168.594 431.776C167.633 432.139 166.428 432.32 164.977 432.32ZM165.426 430.848C166.641 430.848 167.708 430.656 168.626 430.272C169.543 429.867 170.332 429.269 170.993 428.48V424.832H165.393C163.9 424.832 162.865 425.099 162.29 425.632C161.714 426.165 161.426 426.944 161.426 427.968C161.426 429.013 161.777 429.76 162.482 430.208C163.207 430.635 164.188 430.848 165.426 430.848ZM180.154 432.32C179.3 432.32 178.617 432.085 178.105 431.616C177.594 431.147 177.337 430.304 177.337 429.088V410.432H179.098V429.024C179.098 429.707 179.204 430.176 179.417 430.432C179.631 430.688 179.972 430.816 180.441 430.816C180.911 430.816 181.38 430.752 181.85 430.624V432.096C181.572 432.181 181.284 432.235 180.986 432.256C180.687 432.299 180.41 432.32 180.154 432.32ZM192.092 432.32C189.469 432.32 187.559 431.627 186.365 430.24C185.17 428.853 184.572 426.912 184.572 424.416C184.572 421.749 185.266 419.765 186.652 418.464C188.061 417.163 189.959 416.512 192.348 416.512C193.33 416.512 194.119 416.587 194.717 416.736C195.314 416.864 195.9 417.067 196.477 417.344V418.784C195.346 418.251 194.066 417.984 192.637 417.984C190.631 417.984 189.074 418.496 187.965 419.52C186.855 420.544 186.301 422.176 186.301 424.416C186.301 426.613 186.77 428.245 187.708 429.312C188.669 430.357 190.268 430.88 192.508 430.88C193.191 430.88 193.874 430.805 194.557 430.656C195.26 430.507 195.911 430.304 196.508 430.048V431.52C195.911 431.776 195.239 431.968 194.492 432.096C193.767 432.245 192.967 432.32 192.092 432.32ZM201.443 412.896V410.976H203.459V412.896H201.443ZM201.667 432V418.304H199.299L199.491 416.832H203.427V432H201.667ZM213.62 432.32C211.806 432.32 210.43 431.808 209.492 430.784C208.553 429.76 208.084 428.309 208.084 426.432V416.832H209.844V426.496C209.844 427.947 210.206 429.045 210.932 429.792C211.657 430.517 212.798 430.88 214.356 430.88C215.422 430.88 216.393 430.677 217.268 430.272C218.164 429.845 218.932 429.312 219.572 428.672V416.832H221.332V432H219.764L219.604 430.144C218.857 430.805 218.004 431.339 217.044 431.744C216.084 432.128 214.942 432.32 213.62 432.32ZM226.119 432V416.832H227.655L227.815 418.688C228.647 418.005 229.532 417.472 230.471 417.088C231.431 416.704 232.433 416.512 233.479 416.512C234.652 416.512 235.559 416.704 236.199 417.088C236.839 417.472 237.308 418.005 237.607 418.688C238.332 418.069 239.175 417.557 240.135 417.152C241.095 416.725 242.247 416.512 243.591 416.512C245.297 416.512 246.567 416.949 247.399 417.824C248.252 418.677 248.679 420.021 248.679 421.856V432H246.951V422.016C246.951 420.501 246.62 419.456 245.959 418.88C245.319 418.283 244.305 417.984 242.919 417.984C241.959 417.984 241.052 418.155 240.199 418.496C239.345 418.816 238.62 419.296 238.023 419.936C238.087 420.235 238.14 420.587 238.183 420.992C238.225 421.376 238.247 421.739 238.247 422.08V432H236.551V422.112C236.551 420.661 236.305 419.616 235.815 418.976C235.324 418.315 234.375 417.984 232.967 417.984C232.028 417.984 231.111 418.197 230.215 418.624C229.319 419.051 228.529 419.573 227.847 420.192V432H226.119ZM128.638 151.212L146.953 134.181V121.5C146.953 119.015 148.968 117 151.453 117H189.06C191.545 117 193.56 119.015 193.56 121.5V134.226L211.828 151.212C212.235 151.59 212.466 152.121 212.466 152.677V197.641C210.692 197.882 209.019 198.163 207.466 198.479V191.261H133V228.572H197.144L197.464 231.572H133V264.619H200.992L201.526 269.619H130C128.895 269.619 128 268.723 128 267.619V152.677C128 152.121 128.231 151.59 128.638 151.212ZM133 188.261H207.466V155.17H133V188.261ZM134.95 152.17H205.515L189.384 137.17H170.233H151.082L134.95 152.17ZM151.953 132.17V122H188.56V132.17H170.233H151.953ZM257.001 206.447C257.374 206.675 257.619 206.861 257.777 207C257.619 207.139 257.374 207.325 257.001 207.553C255.793 208.29 253.844 209.062 251.171 209.752C245.869 211.12 238.383 212 230 212C221.617 212 214.131 211.12 208.829 209.752C206.156 209.062 204.207 208.29 202.999 207.553C202.626 207.325 202.381 207.139 202.223 207C202.381 206.861 202.626 206.675 202.999 206.447C204.207 205.71 206.156 204.938 208.829 204.248C214.131 202.88 221.617 202 230 202C238.383 202 245.869 202.88 251.171 204.248C253.844 204.938 255.793 205.71 257.001 206.447ZM261 207C261 207.109 260.992 207.217 260.975 207.325L254.958 267.99C254.781 269.78 253.274 271.144 251.475 271.144H209.012C207.223 271.144 205.722 269.796 205.532 268.017L199.028 207.345C199.009 207.23 199 207.116 199 207C199 202.582 212.879 199 230 199C247.121 199 261 202.582 261 207ZM251.973 267.694L257.632 210.63C252.506 213.224 242.057 215 230 215C217.968 215 207.537 213.231 202.399 210.646L208.514 267.698C208.542 267.952 208.756 268.144 209.012 268.144H251.475C251.732 268.144 251.947 267.949 251.973 267.694ZM207.835 229.128C207.412 229.484 207.255 230.038 207.327 230.586L211.594 263.308C211.724 264.304 212.573 265.049 213.578 265.049H246.923C247.928 265.049 248.777 264.304 248.906 263.308L253.214 230.283C253.262 229.92 253.212 229.546 252.985 229.258C252.296 228.383 250.29 226.716 245.608 228.18C243.904 228.712 242.613 229.244 241.483 229.71C238.537 230.923 236.674 231.691 231.402 230.867C226.994 230.178 226.329 229.934 224.714 229.34C223.656 228.951 222.191 228.412 219 227.5C212.825 225.736 209.196 227.98 207.835 229.128ZM183.131 218.171V202.347H185.809V209.62L192.542 202.347H195.638L189.815 208.736L195.884 218.171H193.033L188.144 210.431L185.809 212.937V218.171H183.131ZM170.221 202.347V218.171H181.008V216.107H172.899V202.347H170.221ZM164.438 218.171V202.347H167.116V218.171H164.438ZM145.841 202.347V218.171H148.495V206.696L152.795 215.444H154.417L158.692 206.696V218.171H161.346V202.347H158.594L153.606 212.593L148.593 202.347H145.841Z" fill="white"/>
</g>
<defs>
<filter id="filter0_d_188_207" x="0" y="0" width="390" height="540" filterUnits="userSpaceOnUse" color-interpolation-filters="sRGB">
<feFlood flood-opacity="0" result="BackgroundImageFix"/>
<feColorMatrix in="SourceAlpha" type="matrix" values="0 0 0 0 0 0 0 0 0 0 0 0 0 0 0 0 0 0 127 0" result="hardAlpha"/>
<feOffset/>
<feGaussianBlur stdDeviation="10"/>
<feComposite in2="hardAlpha" operator="out"/>
<feColorMatrix type="matrix" values="0 0 0 0 0.149195 0 0 0 0 0.00833333 0 0 0 0 1 0 0 0 1 0"/>
<feBlend mode="normal" in2="BackgroundImageFix" result="effect1_dropShadow_188_207"/>
<feBlend mode="normal" in="SourceGraphic" in2="effect1_dropShadow_188_207" result="shape"/>
</filter>
</defs>
</svg>
