<svg width="390" height="540" viewBox="0 0 390 540" fill="none" xmlns="http://www.w3.org/2000/svg">
<g filter="url(#filter0_d_224_59)">
<path fill-rule="evenodd" clip-rule="evenodd" d="M60 20C37.9086 20 20 37.9086 20 60V480C20 502.091 37.9086 520 60 520H330C352.091 520 370 502.091 370 480V60C370 37.9086 352.091 20 330 20H60ZM180.245 393.288C186.133 396.616 193.515 398.28 202.389 398.28C207.168 398.28 211.478 397.981 215.318 397.384C219.243 396.787 222.87 395.976 226.198 394.952V385.608C222.784 386.888 219.072 387.827 215.062 388.424C211.136 389.021 207.254 389.32 203.413 389.32C193.003 389.32 185.365 386.589 180.501 381.128C175.723 375.581 173.333 367.731 173.333 357.576C173.333 350.237 174.272 343.923 176.15 338.632C178.027 333.341 181.141 329.288 185.493 326.472C189.846 323.656 195.734 322.248 203.158 322.248C207.424 322.248 211.478 322.632 215.318 323.4C219.158 324.083 222.784 325.064 226.198 326.344V317.128C222.784 315.933 219.115 314.995 215.189 314.312C211.35 313.629 207.04 313.288 202.262 313.288C193.046 313.288 185.536 315.123 179.734 318.792C173.931 322.376 169.664 327.496 166.934 334.152C164.203 340.808 162.837 348.616 162.837 357.576C162.837 365.768 164.288 372.936 167.189 379.08C170.091 385.139 174.443 389.875 180.245 393.288ZM156.623 432.32C154.447 432.32 152.655 431.904 151.247 431.072C149.86 430.219 148.825 429.045 148.143 427.552C147.481 426.037 147.151 424.277 147.151 422.272C147.151 420.032 147.46 418.08 148.079 416.416C148.697 414.731 149.7 413.419 151.087 412.48C152.473 411.541 154.308 411.072 156.591 411.072C157.764 411.072 158.831 411.157 159.791 411.328C160.772 411.477 161.668 411.701 162.479 412V413.568C161.668 413.269 160.772 413.035 159.791 412.864C158.831 412.693 157.817 412.608 156.751 412.608C154.767 412.608 153.199 413.013 152.047 413.824C150.895 414.613 150.073 415.733 149.583 417.184C149.113 418.613 148.879 420.309 148.879 422.272C148.879 424.96 149.508 427.061 150.767 428.576C152.025 430.069 154.052 430.816 156.847 430.816C157.785 430.816 158.756 430.741 159.759 430.592C160.761 430.443 161.668 430.229 162.479 429.952V431.52C161.668 431.776 160.772 431.968 159.791 432.096C158.831 432.245 157.775 432.32 156.623 432.32ZM171.274 432.32C170.314 432.32 169.429 432.171 168.618 431.872C167.829 431.573 167.189 431.104 166.698 430.464C166.229 429.803 165.994 428.971 165.994 427.968C165.994 426.624 166.421 425.536 167.274 424.704C168.128 423.851 169.578 423.424 171.626 423.424H177.29V421.984C177.29 421.024 177.162 420.256 176.906 419.68C176.65 419.083 176.181 418.656 175.498 418.4C174.837 418.144 173.856 418.016 172.554 418.016C171.68 418.016 170.837 418.091 170.026 418.24C169.216 418.389 168.448 418.592 167.722 418.848V417.344C168.384 417.088 169.152 416.885 170.026 416.736C170.922 416.587 171.872 416.512 172.874 416.512C174.965 416.512 176.501 416.939 177.482 417.792C178.485 418.624 178.986 420.011 178.986 421.952V432H177.546L177.386 430.112C176.682 430.859 175.85 431.413 174.89 431.776C173.93 432.139 172.725 432.32 171.274 432.32ZM171.722 430.848C172.938 430.848 174.005 430.656 174.922 430.272C175.84 429.867 176.629 429.269 177.29 428.48V424.832H171.69C170.197 424.832 169.162 425.099 168.586 425.632C168.01 426.165 167.722 426.944 167.722 427.968C167.722 429.013 168.074 429.76 168.778 430.208C169.504 430.635 170.485 430.848 171.722 430.848ZM183.634 432V416.832H185.17L185.362 418.944C186.152 418.389 187.048 417.899 188.05 417.472C189.074 417.045 190.077 416.725 191.058 416.512V417.952C190.44 418.101 189.768 418.304 189.042 418.56C188.338 418.816 187.656 419.104 186.994 419.424C186.354 419.723 185.821 420.032 185.394 420.352V432H183.634ZM201.457 432.32C200.284 432.32 199.26 432.16 198.385 431.84C197.532 431.499 196.732 430.987 195.985 430.304L195.825 432H194.353V410.432H196.113V418.112C196.881 417.557 197.702 417.152 198.577 416.896C199.452 416.64 200.412 416.512 201.457 416.512C203.59 416.512 205.254 417.12 206.449 418.336C207.644 419.552 208.241 421.536 208.241 424.288C208.241 427.061 207.644 429.099 206.449 430.4C205.254 431.68 203.59 432.32 201.457 432.32ZM201.041 430.88C203.004 430.88 204.401 430.325 205.233 429.216C206.086 428.085 206.513 426.443 206.513 424.288C206.513 422.027 206.054 420.416 205.137 419.456C204.241 418.475 202.854 417.984 200.977 417.984C199.932 417.984 199.004 418.144 198.193 418.464C197.404 418.763 196.71 419.157 196.113 419.648V428.832C197.393 430.197 199.036 430.88 201.041 430.88ZM218.695 432.32C216.135 432.32 214.29 431.648 213.159 430.304C212.028 428.96 211.463 426.997 211.463 424.416C211.463 421.856 212.039 419.904 213.191 418.56C214.343 417.195 216.178 416.512 218.695 416.512C221.234 416.512 223.079 417.195 224.231 418.56C225.383 419.904 225.959 421.856 225.959 424.416C225.959 426.997 225.383 428.96 224.231 430.304C223.1 431.648 221.255 432.32 218.695 432.32ZM218.695 430.816C220.722 430.816 222.14 430.293 222.951 429.248C223.783 428.203 224.199 426.592 224.199 424.416C224.199 422.261 223.783 420.661 222.951 419.616C222.119 418.571 220.7 418.048 218.695 418.048C216.69 418.048 215.271 418.571 214.439 419.616C213.607 420.661 213.191 422.261 213.191 424.416C213.191 426.592 213.607 428.203 214.439 429.248C215.271 430.293 216.69 430.816 218.695 430.816ZM230.134 432V416.832H231.67L231.83 418.688C232.598 418.048 233.473 417.525 234.454 417.12C235.436 416.715 236.609 416.512 237.974 416.512C239.873 416.512 241.249 416.949 242.102 417.824C242.956 418.699 243.382 420.085 243.382 421.984V432H241.622V422.016C241.622 420.523 241.313 419.477 240.694 418.88C240.097 418.283 238.945 417.984 237.238 417.984C236.172 417.984 235.18 418.187 234.262 418.592C233.366 418.997 232.577 419.531 231.894 420.192V432H230.134ZM139 214.973C138.972 241.786 152.988 263.023 176.959 270.318C172.346 265.55 169.81 258.793 169.818 251.015C169.827 242.196 175.002 236.059 180.537 229.495C181.632 228.197 182.741 226.881 183.827 225.525C191.765 215.613 188.963 199.564 188.963 199.564C188.963 199.564 197.835 207.589 204.839 215.613C214.285 226.435 221.182 237.526 221.182 251.959C221.182 258.13 218.352 264.318 213.823 269.073C235.785 260.471 252 238.701 252 217.027C252 185.618 236.827 161.479 216.045 137.927C200.636 120.464 181.118 103 181.118 103C181.118 103 187.282 137.927 169.818 159.5C167.43 162.451 164.99 165.313 162.581 168.139L162.581 168.14C150.404 182.425 139.02 195.78 139 214.973Z" fill="white"/>
</g>
<defs>
<filter id="filter0_d_224_59" x="0" y="0" width="390" height="540" filterUnits="userSpaceOnUse" color-interpolation-filters="sRGB">
<feFlood flood-opacity="0" result="BackgroundImageFix"/>
<feColorMatrix in="SourceAlpha" type="matrix" values="0 0 0 0 0 0 0 0 0 0 0 0 0 0 0 0 0 0 127 0" result="hardAlpha"/>
<feOffset/>
<feGaussianBlur stdDeviation="10"/>
<feComposite in2="hardAlpha" operator="out"/>
<feColorMatrix type="matrix" values="0 0 0 0 1 0 0 0 0 0.233333 0 0 0 0 0.556367 0 0 0 1 0"/>
<feBlend mode="normal" in2="BackgroundImageFix" result="effect1_dropShadow_224_59"/>
<feBlend mode="normal" in="SourceGraphic" in2="effect1_dropShadow_224_59" result="shape"/>
</filter>
</defs>
</svg>
