<svg width="390" height="540" viewBox="0 0 390 540" fill="none" xmlns="http://www.w3.org/2000/svg">
<g filter="url(#filter0_d_181_226)">
<path fill-rule="evenodd" clip-rule="evenodd" d="M20 60C20 37.9086 37.9086 20 60 20H330C352.091 20 370 37.9086 370 60V480C370 502.091 352.091 520 330 520H60C37.9086 520 20 502.091 20 480V60ZM172.202 398.28C163.327 398.28 155.946 396.616 150.058 393.288C144.255 389.875 139.903 385.139 137.002 379.08C134.101 372.936 132.65 365.768 132.65 357.576C132.65 348.616 134.015 340.808 136.746 334.152C139.477 327.496 143.743 322.376 149.546 318.792C155.349 315.123 162.858 313.288 172.074 313.288C176.853 313.288 181.162 313.629 185.002 314.312C188.927 314.995 192.597 315.933 196.01 317.128V326.344C192.597 325.064 188.97 324.083 185.13 323.4C181.29 322.632 177.237 322.248 172.97 322.248C165.546 322.248 159.658 323.656 155.306 326.472C150.954 329.288 147.839 333.341 145.962 338.632C144.085 343.923 143.146 350.237 143.146 357.576C143.146 367.731 145.535 375.581 150.314 381.128C155.178 386.589 162.815 389.32 173.226 389.32C177.066 389.32 180.949 389.021 184.874 388.424C188.885 387.827 192.597 386.888 196.01 385.608V394.952C192.682 395.976 189.055 396.787 185.13 397.384C181.29 397.981 176.981 398.28 172.202 398.28ZM232.282 398.28C228.357 398.28 224.602 398.024 221.018 397.512C217.519 397 214.575 396.317 212.186 395.464V386.248C215.087 387.272 218.117 388.04 221.274 388.552C224.517 389.064 227.717 389.32 230.874 389.32C236.25 389.32 240.09 388.765 242.394 387.656C244.698 386.461 245.85 384.285 245.85 381.128C245.85 378.824 245.21 377.075 243.93 375.88C242.735 374.685 240.858 373.619 238.298 372.68C235.823 371.741 232.623 370.632 228.698 369.352C225.199 368.157 222.085 366.92 219.354 365.64C216.623 364.36 214.49 362.653 212.954 360.52C211.418 358.301 210.65 355.357 210.65 351.688C210.65 346.312 212.527 342.216 216.282 339.4C220.037 336.499 226.095 335.048 234.458 335.048C237.701 335.048 240.815 335.304 243.802 335.816C246.789 336.243 249.391 336.797 251.61 337.48V346.696C246.234 344.904 241.071 344.008 236.122 344.008C230.831 344.008 226.991 344.563 224.602 345.672C222.298 346.696 221.146 348.659 221.146 351.56C221.146 353.523 221.658 355.101 222.682 356.296C223.791 357.405 225.455 358.387 227.674 359.24L236.506 362.184C241.199 363.635 244.997 365.128 247.898 366.664C250.799 368.2 252.933 370.077 254.298 372.296C255.663 374.515 256.346 377.416 256.346 381C256.346 386.973 254.255 391.368 250.074 394.184C245.893 396.915 239.962 398.28 232.282 398.28ZM149.934 431.072C151.342 431.904 153.134 432.32 155.31 432.32C156.462 432.32 157.518 432.245 158.478 432.096C159.459 431.968 160.355 431.776 161.166 431.52V429.952C160.355 430.229 159.449 430.443 158.446 430.592C157.443 430.741 156.473 430.816 155.534 430.816C152.739 430.816 150.713 430.069 149.454 428.576C148.195 427.061 147.566 424.96 147.566 422.272C147.566 420.309 147.801 418.613 148.27 417.184C148.761 415.733 149.582 414.613 150.734 413.824C151.886 413.013 153.454 412.608 155.438 412.608C156.505 412.608 157.518 412.693 158.478 412.864C159.459 413.035 160.355 413.269 161.166 413.568V412C160.355 411.701 159.459 411.477 158.478 411.328C157.518 411.157 156.451 411.072 155.278 411.072C152.995 411.072 151.161 411.541 149.774 412.48C148.387 413.419 147.385 414.731 146.766 416.416C146.147 418.08 145.838 420.032 145.838 422.272C145.838 424.277 146.169 426.037 146.83 427.552C147.513 429.045 148.547 430.219 149.934 431.072ZM166.538 430.4C167.797 431.68 169.791 432.32 172.522 432.32C174.186 432.32 175.669 432.053 176.97 431.52V430.08C175.647 430.613 174.282 430.88 172.874 430.88C170.549 430.88 168.917 430.453 167.978 429.6C167.039 428.725 166.527 427.307 166.442 425.344H177.962V422.592C177.962 421.461 177.738 420.437 177.29 419.52C176.863 418.603 176.191 417.877 175.274 417.344C174.357 416.789 173.162 416.512 171.69 416.512C169.215 416.512 167.423 417.205 166.314 418.592C165.226 419.979 164.682 421.888 164.682 424.32C164.682 427.072 165.301 429.099 166.538 430.4ZM176.362 423.968H166.442C166.442 422.048 166.815 420.576 167.562 419.552C168.33 418.507 169.717 417.984 171.722 417.984C173.365 417.984 174.549 418.389 175.274 419.2C175.999 420.011 176.362 421.12 176.362 422.528V423.968ZM184.147 432.128C184.979 432.256 185.843 432.32 186.739 432.32C188.509 432.32 189.896 432 190.899 431.36C191.923 430.72 192.435 429.653 192.435 428.16C192.435 427.243 192.243 426.517 191.859 425.984C191.496 425.429 190.931 424.971 190.163 424.608C189.416 424.245 188.477 423.883 187.347 423.52C186.408 423.221 185.64 422.955 185.043 422.72C184.467 422.485 184.04 422.208 183.763 421.888C183.507 421.547 183.379 421.077 183.379 420.48C183.379 419.605 183.677 418.987 184.275 418.624C184.893 418.24 185.96 418.048 187.475 418.048C188.755 418.048 190.013 418.24 191.251 418.624V417.056C190.717 416.885 190.099 416.757 189.395 416.672C188.712 416.565 187.987 416.512 187.219 416.512C185.256 416.512 183.837 416.853 182.963 417.536C182.088 418.197 181.651 419.189 181.651 420.512C181.651 421.451 181.853 422.187 182.259 422.72C182.664 423.232 183.208 423.637 183.891 423.936C184.595 424.213 185.373 424.501 186.227 424.8C187.251 425.141 188.093 425.44 188.755 425.696C189.416 425.952 189.896 426.261 190.195 426.624C190.515 426.965 190.675 427.477 190.675 428.16C190.675 429.141 190.355 429.835 189.715 430.24C189.075 430.624 188.008 430.816 186.515 430.816C185.747 430.816 184.989 430.763 184.243 430.656C183.496 430.528 182.771 430.347 182.067 430.112V431.68C182.643 431.872 183.336 432.021 184.147 432.128ZM197.458 410.976V412.896H199.474V410.976H197.458ZM197.682 418.304V432H199.442V416.832H195.506L195.314 418.304H197.682ZM205.507 430.784C206.446 431.808 207.822 432.32 209.635 432.32C210.958 432.32 212.099 432.128 213.059 431.744C214.019 431.339 214.873 430.805 215.619 430.144L215.779 432H217.347V416.832H215.587V428.672C214.947 429.312 214.179 429.845 213.283 430.272C212.409 430.677 211.438 430.88 210.371 430.88C208.814 430.88 207.673 430.517 206.947 429.792C206.222 429.045 205.859 427.947 205.859 426.496V416.832H204.099V426.432C204.099 428.309 204.569 429.76 205.507 430.784ZM222.134 416.832V432H223.862V420.192C224.545 419.573 225.334 419.051 226.23 418.624C227.126 418.197 228.044 417.984 228.982 417.984C230.39 417.984 231.34 418.315 231.83 418.976C232.321 419.616 232.566 420.661 232.566 422.112V432H234.262V422.08C234.262 421.739 234.241 421.376 234.198 420.992C234.156 420.587 234.102 420.235 234.038 419.936C234.636 419.296 235.361 418.816 236.214 418.496C237.068 418.155 237.974 417.984 238.934 417.984C240.321 417.984 241.334 418.283 241.974 418.88C242.636 419.456 242.966 420.501 242.966 422.016V432H244.694V421.856C244.694 420.021 244.268 418.677 243.414 417.824C242.582 416.949 241.313 416.512 239.606 416.512C238.262 416.512 237.11 416.725 236.15 417.152C235.19 417.557 234.348 418.069 233.622 418.688C233.324 418.005 232.854 417.472 232.214 417.088C231.574 416.704 230.668 416.512 229.494 416.512C228.449 416.512 227.446 416.704 226.486 417.088C225.548 417.472 224.662 418.005 223.83 418.688L223.67 416.832H222.134ZM128.575 216.32C127.658 216.32 126.655 216.245 125.567 216.096C124.479 215.947 123.572 215.712 122.847 215.392V212.352C123.594 212.672 124.447 212.917 125.407 213.088C126.367 213.259 127.274 213.344 128.127 213.344C129.77 213.344 130.975 213.067 131.743 212.512C132.532 211.936 132.927 210.997 132.927 209.696C132.927 208.501 132.65 207.616 132.095 207.04C131.54 206.464 130.452 206.176 128.831 206.176H122.751V204.064L123.295 195.392H135.007L134.719 198.08H126.239L125.887 203.488H129.375C131.828 203.488 133.62 204.011 134.751 205.056C135.882 206.101 136.447 207.669 136.447 209.76C136.447 211.787 135.786 213.387 134.463 214.56C133.14 215.733 131.178 216.32 128.575 216.32ZM146.1 216.32C145.054 216.32 144.148 216.256 143.38 216.128C142.612 216 141.886 215.829 141.204 215.616V212.608C141.865 212.864 142.569 213.056 143.316 213.184C144.084 213.312 144.937 213.376 145.876 213.376C147.796 213.376 149.214 212.917 150.132 212C151.049 211.083 151.508 209.867 151.508 208.352V207.072C150.761 207.605 149.908 208.011 148.948 208.288C147.988 208.565 147.102 208.704 146.292 208.704C143.902 208.704 142.121 208.117 140.948 206.944C139.796 205.771 139.22 204.107 139.22 201.952C139.22 199.925 139.849 198.272 141.108 196.992C142.366 195.712 144.329 195.072 146.996 195.072C149.577 195.072 151.518 195.723 152.82 197.024C154.142 198.304 154.804 200.309 154.804 203.04V207.68C154.804 209.387 154.452 210.891 153.748 212.192C153.044 213.493 152.041 214.507 150.74 215.232C149.438 215.957 147.892 216.32 146.1 216.32ZM146.804 206.048C147.678 206.048 148.521 205.899 149.332 205.6C150.142 205.301 150.868 204.928 151.508 204.48V202.24C151.508 199.232 149.993 197.728 146.964 197.728C145.428 197.728 144.276 198.101 143.508 198.848C142.74 199.595 142.356 200.597 142.356 201.856C142.356 203.157 142.665 204.181 143.284 204.928C143.924 205.675 145.097 206.048 146.804 206.048ZM164.939 205.568V202.816H167.883V205.568H164.939ZM164.939 215.2V212.448H167.883V215.2H164.939ZM183.856 216.32C182.939 216.32 181.936 216.245 180.848 216.096C179.76 215.947 178.854 215.712 178.128 215.392V212.352C178.875 212.672 179.728 212.917 180.688 213.088C181.648 213.259 182.555 213.344 183.408 213.344C185.051 213.344 186.256 213.067 187.024 212.512C187.814 211.936 188.208 210.997 188.208 209.696C188.208 208.501 187.931 207.616 187.376 207.04C186.822 206.464 185.734 206.176 184.112 206.176H178.032V204.064L178.576 195.392H190.288L190 198.08H181.52L181.168 203.488H184.656C187.11 203.488 188.902 204.011 190.032 205.056C191.163 206.101 191.728 207.669 191.728 209.76C191.728 211.787 191.067 213.387 189.744 214.56C188.422 215.733 186.459 216.32 183.856 216.32ZM201.381 216.32C200.336 216.32 199.429 216.256 198.661 216.128C197.893 216 197.168 215.829 196.485 215.616V212.608C197.146 212.864 197.85 213.056 198.597 213.184C199.365 213.312 200.218 213.376 201.157 213.376C203.077 213.376 204.496 212.917 205.413 212C206.33 211.083 206.789 209.867 206.789 208.352V207.072C206.042 207.605 205.189 208.011 204.229 208.288C203.269 208.565 202.384 208.704 201.573 208.704C199.184 208.704 197.402 208.117 196.229 206.944C195.077 205.771 194.501 204.107 194.501 201.952C194.501 199.925 195.13 198.272 196.389 196.992C197.648 195.712 199.61 195.072 202.277 195.072C204.858 195.072 206.8 195.723 208.101 197.024C209.424 198.304 210.085 200.309 210.085 203.04V207.68C210.085 209.387 209.733 210.891 209.029 212.192C208.325 213.493 207.322 214.507 206.021 215.232C204.72 215.957 203.173 216.32 201.381 216.32ZM202.085 206.048C202.96 206.048 203.802 205.899 204.613 205.6C205.424 205.301 206.149 204.928 206.789 204.48V202.24C206.789 199.232 205.274 197.728 202.245 197.728C200.709 197.728 199.557 198.101 198.789 198.848C198.021 199.595 197.637 200.597 197.637 201.856C197.637 203.157 197.946 204.181 198.565 204.928C199.205 205.675 200.378 206.048 202.085 206.048ZM220.22 205.568V202.816H223.164V205.568H220.22ZM220.22 215.2V212.448H223.164V215.2H220.22ZM240.193 216.32C239.148 216.32 238.242 216.256 237.473 216.128C236.706 216 235.98 215.829 235.298 215.616V212.608C235.959 212.864 236.663 213.056 237.41 213.184C238.178 213.312 239.031 213.376 239.969 213.376C241.889 213.376 243.308 212.917 244.225 212C245.143 211.083 245.602 209.867 245.602 208.352V207.072C244.855 207.605 244.001 208.011 243.042 208.288C242.081 208.565 241.196 208.704 240.385 208.704C237.996 208.704 236.215 208.117 235.042 206.944C233.889 205.771 233.314 204.107 233.314 201.952C233.314 199.925 233.943 198.272 235.202 196.992C236.46 195.712 238.423 195.072 241.09 195.072C243.671 195.072 245.612 195.723 246.913 197.024C248.236 198.304 248.898 200.309 248.898 203.04V207.68C248.898 209.387 248.546 210.891 247.842 212.192C247.137 213.493 246.135 214.507 244.833 215.232C243.532 215.957 241.986 216.32 240.193 216.32ZM240.898 206.048C241.772 206.048 242.615 205.899 243.426 205.6C244.236 205.301 244.962 204.928 245.602 204.48V202.24C245.602 199.232 244.087 197.728 241.057 197.728C239.521 197.728 238.37 198.101 237.602 198.848C236.833 199.595 236.449 200.597 236.449 201.856C236.449 203.157 236.759 204.181 237.378 204.928C238.018 205.675 239.191 206.048 240.898 206.048ZM258.537 216.32C257.492 216.32 256.585 216.256 255.817 216.128C255.049 216 254.324 215.829 253.641 215.616V212.608C254.303 212.864 255.007 213.056 255.753 213.184C256.521 213.312 257.375 213.376 258.313 213.376C260.233 213.376 261.652 212.917 262.569 212C263.487 211.083 263.945 209.867 263.945 208.352V207.072C263.199 207.605 262.345 208.011 261.385 208.288C260.425 208.565 259.54 208.704 258.729 208.704C256.34 208.704 254.559 208.117 253.385 206.944C252.233 205.771 251.657 204.107 251.657 201.952C251.657 199.925 252.287 198.272 253.545 196.992C254.804 195.712 256.767 195.072 259.433 195.072C262.015 195.072 263.956 195.723 265.257 197.024C266.58 198.304 267.241 200.309 267.241 203.04V207.68C267.241 209.387 266.889 210.891 266.185 212.192C265.481 213.493 264.479 214.507 263.177 215.232C261.876 215.957 260.329 216.32 258.537 216.32ZM259.241 206.048C260.116 206.048 260.959 205.899 261.769 205.6C262.58 205.301 263.305 204.928 263.945 204.48V202.24C263.945 199.232 262.431 197.728 259.401 197.728C257.865 197.728 256.713 198.101 255.945 198.848C255.177 199.595 254.793 200.597 254.793 201.856C254.793 203.157 255.103 204.181 255.721 204.928C256.361 205.675 257.535 206.048 259.241 206.048ZM93 185V231.5H297V185C297 181.134 293.866 178 290 178H100C96.134 178 93 181.134 93 185ZM297 236.5H93V255C93 258.866 96.134 262 100 262H290C293.866 262 297 258.866 297 255V236.5ZM100 170C91.7157 170 85 176.716 85 185V255C85 263.284 91.7157 270 100 270H290C298.284 270 305 263.284 305 255V185C305 176.716 298.284 170 290 170H100ZM134.157 244.984L130.713 254H132.295L133.191 251.676H136.817L137.713 254H139.281L135.865 244.984H134.157ZM134.997 246.37L136.565 250.5H133.429L134.997 246.37ZM145.154 253.58C145.509 253.953 146.041 254.14 146.75 254.14C147.273 254.14 147.716 254.065 148.08 253.916V252.838C147.8 252.931 147.534 252.978 147.282 252.978C146.881 252.978 146.592 252.903 146.414 252.754C146.237 252.595 146.148 252.325 146.148 251.942V248.554H147.814L147.912 247.364H146.148V245.376L144.636 245.838V247.364H143.656V248.554H144.636V252.026C144.636 252.679 144.809 253.197 145.154 253.58ZM153.994 253.244C154.554 253.841 155.431 254.14 156.626 254.14C157.83 254.14 158.707 253.841 159.258 253.244C159.818 252.647 160.098 251.793 160.098 250.682C160.098 249.571 159.818 248.717 159.258 248.12C158.698 247.523 157.82 247.224 156.626 247.224C155.44 247.224 154.568 247.523 154.008 248.12C153.448 248.717 153.168 249.571 153.168 250.682C153.168 251.793 153.443 252.647 153.994 253.244ZM158.11 252.348C157.82 252.684 157.326 252.852 156.626 252.852C155.935 252.852 155.44 252.684 155.142 252.348C154.852 252.003 154.708 251.447 154.708 250.682C154.708 249.917 154.852 249.366 155.142 249.03C155.44 248.694 155.935 248.526 156.626 248.526C157.326 248.526 157.82 248.694 158.11 249.03C158.408 249.366 158.558 249.917 158.558 250.682C158.558 251.447 158.408 252.003 158.11 252.348ZM165.782 247.364V254H167.28V249.17C167.514 248.955 167.775 248.773 168.064 248.624C168.363 248.465 168.676 248.386 169.002 248.386C169.469 248.386 169.786 248.498 169.954 248.722C170.122 248.946 170.206 249.301 170.206 249.786V254H171.62V249.744C171.62 249.613 171.616 249.492 171.606 249.38C171.597 249.268 171.578 249.161 171.55 249.058C171.756 248.834 171.998 248.666 172.278 248.554C172.568 248.442 172.871 248.386 173.188 248.386C173.674 248.386 174.024 248.489 174.238 248.694C174.453 248.899 174.56 249.259 174.56 249.772V254H176.058V249.618C176.058 248.806 175.876 248.204 175.512 247.812C175.148 247.42 174.584 247.224 173.818 247.224C173.258 247.224 172.778 247.308 172.376 247.476C171.975 247.635 171.62 247.84 171.312 248.092C171.172 247.821 170.967 247.611 170.696 247.462C170.435 247.303 170.066 247.224 169.59 247.224C169.142 247.224 168.722 247.299 168.33 247.448C167.938 247.597 167.579 247.803 167.252 248.064L167.182 247.364H165.782ZM182.533 244.718V245.978H184.199V244.718H182.533ZM182.659 248.526V254H184.185V247.364H181.791L181.651 248.526H182.659ZM190.781 253.258C191.378 253.846 192.26 254.14 193.427 254.14C193.856 254.14 194.243 254.107 194.589 254.042C194.943 253.977 195.275 253.883 195.583 253.762V252.6C195.041 252.852 194.439 252.978 193.777 252.978C192.937 252.978 192.335 252.796 191.971 252.432C191.607 252.059 191.425 251.475 191.425 250.682C191.425 249.842 191.63 249.254 192.041 248.918C192.451 248.573 193.039 248.4 193.805 248.4C194.495 248.4 195.083 248.521 195.569 248.764V247.63C195.279 247.49 194.976 247.387 194.659 247.322C194.351 247.257 193.968 247.224 193.511 247.224C192.409 247.224 191.527 247.509 190.865 248.078C190.211 248.647 189.885 249.515 189.885 250.682C189.885 251.802 190.183 252.661 190.781 253.258ZM209.276 252.922C210.042 253.734 211.166 254.14 212.65 254.14C213.173 254.14 213.649 254.107 214.078 254.042C214.517 253.977 214.923 253.883 215.296 253.762V252.418C214.914 252.567 214.503 252.679 214.064 252.754C213.635 252.819 213.206 252.852 212.776 252.852C211.722 252.852 210.942 252.581 210.438 252.04C209.934 251.489 209.682 250.687 209.682 249.632C209.682 248.503 209.911 247.639 210.368 247.042C210.835 246.445 211.628 246.146 212.748 246.146C213.215 246.146 213.658 246.188 214.078 246.272C214.508 246.347 214.909 246.459 215.282 246.608V245.278C214.909 245.147 214.503 245.045 214.064 244.97C213.635 244.886 213.159 244.844 212.636 244.844C211.61 244.844 210.765 245.04 210.102 245.432C209.44 245.815 208.945 246.365 208.618 247.084C208.301 247.793 208.142 248.643 208.142 249.632C208.142 251.013 208.52 252.11 209.276 252.922ZM221.396 253.748C221.676 254.009 222.086 254.14 222.628 254.14C222.842 254.14 223.029 254.126 223.188 254.098C223.356 254.079 223.528 254.037 223.706 253.972V252.866C223.5 252.922 223.286 252.95 223.062 252.95C222.875 252.95 222.735 252.903 222.642 252.81C222.548 252.717 222.502 252.539 222.502 252.278V244.564H220.976V252.418C220.976 253.034 221.116 253.477 221.396 253.748ZM229.646 253.244C230.206 253.841 231.083 254.14 232.278 254.14C233.482 254.14 234.359 253.841 234.91 253.244C235.47 252.647 235.75 251.793 235.75 250.682C235.75 249.571 235.47 248.717 234.91 248.12C234.35 247.523 233.472 247.224 232.278 247.224C231.092 247.224 230.22 247.523 229.66 248.12C229.1 248.717 228.82 249.571 228.82 250.682C228.82 251.793 229.095 252.647 229.646 253.244ZM233.762 252.348C233.472 252.684 232.978 252.852 232.278 252.852C231.587 252.852 231.092 252.684 230.794 252.348C230.504 252.003 230.36 251.447 230.36 250.682C230.36 249.917 230.504 249.366 230.794 249.03C231.092 248.694 231.587 248.526 232.278 248.526C232.978 248.526 233.472 248.694 233.762 249.03C234.06 249.366 234.21 249.917 234.21 250.682C234.21 251.447 234.06 252.003 233.762 252.348ZM242.05 253.258C242.648 253.846 243.53 254.14 244.696 254.14C245.126 254.14 245.513 254.107 245.858 254.042C246.213 253.977 246.544 253.883 246.852 253.762V252.6C246.311 252.852 245.709 252.978 245.046 252.978C244.206 252.978 243.604 252.796 243.24 252.432C242.876 252.059 242.694 251.475 242.694 250.682C242.694 249.842 242.9 249.254 243.31 248.918C243.721 248.573 244.309 248.4 245.074 248.4C245.765 248.4 246.353 248.521 246.838 248.764V247.63C246.549 247.49 246.246 247.387 245.928 247.322C245.62 247.257 245.238 247.224 244.78 247.224C243.679 247.224 242.797 247.509 242.134 248.078C241.481 248.647 241.154 249.515 241.154 250.682C241.154 251.802 241.453 252.661 242.05 253.258ZM252.265 244.564V254H253.791V251.69L254.673 250.85L256.871 254H258.481L255.625 250.038L258.327 247.364H256.577L253.791 250.024V244.564H252.265Z" fill="white"/>
</g>
<defs>
<filter id="filter0_d_181_226" x="0" y="0" width="390" height="540" filterUnits="userSpaceOnUse" color-interpolation-filters="sRGB">
<feFlood flood-opacity="0" result="BackgroundImageFix"/>
<feColorMatrix in="SourceAlpha" type="matrix" values="0 0 0 0 0 0 0 0 0 0 0 0 0 0 0 0 0 0 127 0" result="hardAlpha"/>
<feOffset/>
<feGaussianBlur stdDeviation="10"/>
<feComposite in2="hardAlpha" operator="out"/>
<feColorMatrix type="matrix" values="0 0 0 0 0.78 0 0 0 0 0.3125 0 0 0 0 1 0 0 0 1 0"/>
<feBlend mode="normal" in2="BackgroundImageFix" result="effect1_dropShadow_181_226"/>
<feBlend mode="normal" in="SourceGraphic" in2="effect1_dropShadow_181_226" result="shape"/>
</filter>
</defs>
</svg>
