<svg width="390" height="540" viewBox="0 0 390 540" fill="none" xmlns="http://www.w3.org/2000/svg">
<g filter="url(#filter0_d_164_1506)">
<path fill-rule="evenodd" clip-rule="evenodd" d="M20 60C20 37.9086 37.9086 20 60 20H330C352.091 20 370 37.9086 370 60V480C370 502.091 352.091 520 330 520H60C37.9086 520 20 502.091 20 480V60ZM185.077 398.28C176.202 398.28 168.821 396.616 162.933 393.288C157.13 389.875 152.778 385.139 149.877 379.08C146.976 372.936 145.525 365.768 145.525 357.576C145.525 348.616 146.89 340.808 149.621 334.152C152.352 327.496 156.618 322.376 162.421 318.792C168.224 315.123 175.733 313.288 184.949 313.288C189.728 313.288 194.037 313.629 197.877 314.312C201.802 314.995 205.472 315.933 208.885 317.128V326.344C205.472 325.064 201.845 324.083 198.005 323.4C194.165 322.632 190.112 322.248 185.845 322.248C178.421 322.248 172.533 323.656 168.181 326.472C163.829 329.288 160.714 333.341 158.837 338.632C156.96 343.923 156.021 350.237 156.021 357.576C156.021 367.731 158.41 375.581 163.189 381.128C168.053 386.589 175.69 389.32 186.101 389.32C189.941 389.32 193.824 389.021 197.749 388.424C201.76 387.827 205.472 386.888 208.885 385.608V394.952C205.557 395.976 201.93 396.787 198.005 397.384C194.165 397.981 189.856 398.28 185.077 398.28ZM237.394 398.28C233.298 398.28 230.055 397.213 227.666 395.08C225.362 392.861 224.21 389.149 224.21 383.944V310.728H234.706V382.792C234.706 385.352 235.133 387.101 235.986 388.04C236.839 388.979 238.162 389.448 239.954 389.448C241.917 389.448 243.837 389.192 245.714 388.68V397C244.349 397.512 242.983 397.853 241.618 398.024C240.253 398.195 238.845 398.28 237.394 398.28ZM143.184 431.072C144.592 431.904 146.384 432.32 148.56 432.32C149.712 432.32 150.768 432.245 151.728 432.096C152.709 431.968 153.605 431.776 154.416 431.52V429.952C153.605 430.229 152.699 430.443 151.696 430.592C150.693 430.741 149.723 430.816 148.784 430.816C145.989 430.816 143.963 430.069 142.704 428.576C141.445 427.061 140.816 424.96 140.816 422.272C140.816 420.309 141.051 418.613 141.52 417.184C142.011 415.733 142.832 414.613 143.984 413.824C145.136 413.013 146.704 412.608 148.688 412.608C149.755 412.608 150.768 412.693 151.728 412.864C152.709 413.035 153.605 413.269 154.416 413.568V412C153.605 411.701 152.709 411.477 151.728 411.328C150.768 411.157 149.701 411.072 148.528 411.072C146.245 411.072 144.411 411.541 143.024 412.48C141.637 413.419 140.635 414.731 140.016 416.416C139.397 418.08 139.088 420.032 139.088 422.272C139.088 424.277 139.419 426.037 140.08 427.552C140.763 429.045 141.797 430.219 143.184 431.072ZM158.572 410.432V432H160.332V420.224C161.015 419.563 161.825 419.029 162.764 418.624C163.703 418.197 164.695 417.984 165.74 417.984C167.361 417.984 168.481 418.283 169.1 418.88C169.74 419.477 170.06 420.523 170.06 422.016V432H171.82V421.984C171.82 420.085 171.372 418.699 170.476 417.824C169.601 416.949 168.247 416.512 166.412 416.512C165.047 416.512 163.873 416.715 162.892 417.12C161.932 417.504 161.079 418.016 160.332 418.656V410.432H158.572ZM177.215 431.616C177.727 432.085 178.41 432.32 179.263 432.32C179.519 432.32 179.796 432.299 180.095 432.256C180.394 432.235 180.682 432.181 180.959 432.096V430.624C180.49 430.752 180.02 430.816 179.551 430.816C179.082 430.816 178.74 430.688 178.527 430.432C178.314 430.176 178.207 429.707 178.207 429.024V410.432H176.447V429.088C176.447 430.304 176.703 431.147 177.215 431.616ZM185.378 430.304C186.509 431.648 188.354 432.32 190.914 432.32C193.474 432.32 195.319 431.648 196.45 430.304C197.602 428.96 198.178 426.997 198.178 424.416C198.178 421.856 197.602 419.904 196.45 418.56C195.298 417.195 193.453 416.512 190.914 416.512C188.397 416.512 186.562 417.195 185.41 418.56C184.258 419.904 183.682 421.856 183.682 424.416C183.682 426.997 184.247 428.96 185.378 430.304ZM195.17 429.248C194.359 430.293 192.941 430.816 190.914 430.816C188.909 430.816 187.49 430.293 186.658 429.248C185.826 428.203 185.41 426.592 185.41 424.416C185.41 422.261 185.826 420.661 186.658 419.616C187.49 418.571 188.909 418.048 190.914 418.048C192.919 418.048 194.338 418.571 195.17 419.616C196.002 420.661 196.418 422.261 196.418 424.416C196.418 426.592 196.002 428.203 195.17 429.248ZM202.353 416.832V432H204.113V420.352C204.54 420.032 205.073 419.723 205.713 419.424C206.374 419.104 207.057 418.816 207.761 418.56C208.486 418.304 209.158 418.101 209.777 417.952V416.512C208.796 416.725 207.793 417.045 206.769 417.472C205.766 417.899 204.87 418.389 204.081 418.944L203.889 416.832H202.353ZM214.583 410.976V412.896H216.599V410.976H214.583ZM214.807 418.304V432H216.567V416.832H212.631L212.439 418.304H214.807ZM221.384 416.832V432H223.144V420.192C223.827 419.531 224.616 418.997 225.512 418.592C226.43 418.187 227.422 417.984 228.488 417.984C230.195 417.984 231.347 418.283 231.944 418.88C232.563 419.477 232.872 420.523 232.872 422.016V432H234.632V421.984C234.632 420.085 234.206 418.699 233.352 417.824C232.499 416.949 231.123 416.512 229.224 416.512C227.859 416.512 226.686 416.715 225.704 417.12C224.723 417.525 223.848 418.048 223.08 418.688L222.92 416.832H221.384ZM240.163 430.4C241.422 431.68 243.416 432.32 246.147 432.32C247.811 432.32 249.294 432.053 250.595 431.52V430.08C249.272 430.613 247.907 430.88 246.499 430.88C244.174 430.88 242.542 430.453 241.603 429.6C240.664 428.725 240.152 427.307 240.067 425.344H251.587V422.592C251.587 421.461 251.363 420.437 250.915 419.52C250.488 418.603 249.816 417.877 248.899 417.344C247.982 416.789 246.787 416.512 245.315 416.512C242.84 416.512 241.048 417.205 239.939 418.592C238.851 419.979 238.307 421.888 238.307 424.32C238.307 427.072 238.926 429.099 240.163 430.4ZM249.987 423.968H240.067C240.067 422.048 240.44 420.576 241.187 419.552C241.955 418.507 243.342 417.984 245.347 417.984C246.99 417.984 248.174 418.389 248.899 419.2C249.624 420.011 249.987 421.12 249.987 422.528V423.968Z" fill="white"/>
</g>
<defs>
<filter id="filter0_d_164_1506" x="0" y="0" width="390" height="540" filterUnits="userSpaceOnUse" color-interpolation-filters="sRGB">
<feFlood flood-opacity="0" result="BackgroundImageFix"/>
<feColorMatrix in="SourceAlpha" type="matrix" values="0 0 0 0 0 0 0 0 0 0 0 0 0 0 0 0 0 0 127 0" result="hardAlpha"/>
<feOffset/>
<feGaussianBlur stdDeviation="10"/>
<feComposite in2="hardAlpha" operator="out"/>
<feColorMatrix type="matrix" values="0 0 0 0 1 0 0 0 0 0.233333 0 0 0 0 0.556367 0 0 0 1 0"/>
<feBlend mode="normal" in2="BackgroundImageFix" result="effect1_dropShadow_164_1506"/>
<feBlend mode="normal" in="SourceGraphic" in2="effect1_dropShadow_164_1506" result="shape"/>
</filter>
</defs>
</svg>
