<svg width="390" height="540" viewBox="0 0 390 540" fill="none" xmlns="http://www.w3.org/2000/svg">
<g filter="url(#filter0_d_308_388)">
<path fill-rule="evenodd" clip-rule="evenodd" d="M20 60C20 37.9086 37.9086 20 60 20H330C352.091 20 370 37.9086 370 60V480C370 502.091 352.091 520 330 520H60C37.9086 520 20 502.091 20 480V60ZM170.023 397V314.568H224.038V322.888H180.518V351.688H219.303V359.88H180.518V397H170.023ZM141.463 411.392V432H143.223V422.4H153.271V420.992H143.223V412.832H154.454V411.392H141.463ZM158.418 431.616C158.93 432.085 159.613 432.32 160.466 432.32C160.722 432.32 160.999 432.299 161.298 432.256C161.597 432.235 161.885 432.181 162.162 432.096V430.624C161.693 430.752 161.223 430.816 160.754 430.816C160.285 430.816 159.943 430.688 159.73 430.432C159.517 430.176 159.41 429.707 159.41 429.024V410.432H157.65V429.088C157.65 430.304 157.906 431.147 158.418 431.616ZM165.96 430.784C166.899 431.808 168.275 432.32 170.089 432.32C171.411 432.32 172.553 432.128 173.512 431.744C174.473 431.339 175.326 430.805 176.072 430.144L176.232 432H177.801V416.832H176.04V428.672C175.4 429.312 174.633 429.845 173.736 430.272C172.862 430.677 171.891 430.88 170.824 430.88C169.267 430.88 168.126 430.517 167.4 429.792C166.675 429.045 166.312 427.947 166.312 426.496V416.832H164.553V426.432C164.553 428.309 165.022 429.76 165.96 430.784ZM183.643 430.304C184.774 431.648 186.62 432.32 189.18 432.32C191.74 432.32 193.585 431.648 194.715 430.304C195.868 428.96 196.443 426.997 196.443 424.416C196.443 421.856 195.868 419.904 194.715 418.56C193.564 417.195 191.718 416.512 189.18 416.512C186.662 416.512 184.827 417.195 183.676 418.56C182.523 419.904 181.947 421.856 181.947 424.416C181.947 426.997 182.513 428.96 183.643 430.304ZM193.436 429.248C192.625 430.293 191.206 430.816 189.18 430.816C187.174 430.816 185.755 430.293 184.923 429.248C184.092 428.203 183.676 426.592 183.676 424.416C183.676 422.261 184.092 420.661 184.923 419.616C185.755 418.571 187.174 418.048 189.18 418.048C191.185 418.048 192.604 418.571 193.436 419.616C194.268 420.661 194.684 422.261 194.684 424.416C194.684 426.592 194.268 428.203 193.436 429.248ZM200.619 416.832V432H202.379V420.352C202.805 420.032 203.339 419.723 203.979 419.424C204.64 419.104 205.323 418.816 206.027 418.56C206.752 418.304 207.424 418.101 208.043 417.952V416.512C207.061 416.725 206.059 417.045 205.035 417.472C204.032 417.899 203.136 418.389 202.347 418.944L202.155 416.832H200.619ZM212.849 410.976V412.896H214.865V410.976H212.849ZM213.073 418.304V432H214.833V416.832H210.897L210.705 418.304H213.073ZM219.65 416.832V432H221.41V420.192C222.093 419.531 222.882 418.997 223.778 418.592C224.695 418.187 225.687 417.984 226.754 417.984C228.461 417.984 229.613 418.283 230.21 418.88C230.829 419.477 231.138 420.523 231.138 422.016V432H232.898V421.984C232.898 420.085 232.471 418.699 231.618 417.824C230.765 416.949 229.389 416.512 227.49 416.512C226.125 416.512 224.951 416.715 223.97 417.12C222.989 417.525 222.114 418.048 221.346 418.688L221.186 416.832H219.65ZM238.428 430.4C239.687 431.68 241.682 432.32 244.413 432.32C246.077 432.32 247.559 432.053 248.861 431.52V430.08C247.538 430.613 246.173 430.88 244.764 430.88C242.439 430.88 240.807 430.453 239.868 429.6C238.93 428.725 238.418 427.307 238.333 425.344H249.853V422.592C249.853 421.461 249.628 420.437 249.18 419.52C248.754 418.603 248.082 417.877 247.165 417.344C246.247 416.789 245.053 416.512 243.581 416.512C241.106 416.512 239.314 417.205 238.204 418.592C237.117 419.979 236.572 421.888 236.572 424.32C236.572 427.072 237.191 429.099 238.428 430.4ZM248.253 423.968H238.333C238.333 422.048 238.706 420.576 239.452 419.552C240.221 418.507 241.607 417.984 243.613 417.984C245.255 417.984 246.439 418.389 247.165 419.2C247.89 420.011 248.253 421.12 248.253 422.528V423.968ZM166.023 225.779C173.85 227.323 181.872 221.799 183.619 212.942C185.366 204.085 180.043 195.928 172.216 194.384C164.39 192.84 156.368 198.365 154.621 207.221C152.873 216.078 158.197 224.235 166.023 225.779ZM165.442 228.722C175.076 230.623 184.531 223.818 186.562 213.523C188.593 203.228 182.43 193.341 172.797 191.441C163.164 189.541 153.708 196.346 151.677 206.641C149.646 216.936 155.809 226.822 165.442 228.722ZM157.215 170.517L135.12 247.97L187.411 258.286L196.042 178.159C196.264 176.097 194.874 174.207 192.839 173.806L161.836 167.69C159.795 167.287 157.786 168.516 157.215 170.517ZM187.088 261.28L134.294 250.865L133.972 251.994C133.33 254.244 134.749 256.562 137.044 257.015L182.213 265.926C184.516 266.38 186.713 264.763 186.964 262.43L187.088 261.28ZM162.416 164.746C162.119 164.688 161.821 164.649 161.525 164.629L172.612 151.911L189.231 155.189L194.342 171.11C194.044 171.008 193.736 170.925 193.42 170.863L162.416 164.746ZM156.516 165.81L169.831 150.536L170.718 148.479L176.009 136.217C176.941 134.054 179.257 132.836 181.567 133.292L188.045 134.57C190.355 135.025 192.034 137.032 192.076 139.386L192.313 152.739L192.355 155.107L198.454 174.106C198.543 174.383 198.548 174.667 198.481 174.93C198.955 176.013 199.159 177.228 199.025 178.48L189.947 262.751C189.507 266.835 185.662 269.664 181.632 268.869L136.464 259.958C132.446 259.166 129.964 255.109 131.087 251.171L154.33 169.694C154.674 168.488 155.316 167.443 156.157 166.619C156.191 166.329 156.31 166.047 156.516 165.81ZM180.987 136.235L187.464 137.513C188.388 137.695 189.06 138.498 189.077 139.44L189.302 152.145L173.729 149.073L178.763 137.405C179.136 136.54 180.062 136.053 180.987 136.235ZM212.553 154.568L220.456 152.098L218.569 146.574L205.652 151.372C204.745 151.709 204.492 152.871 205.176 153.554C206.451 154.829 206.801 156.762 206.055 158.404L205.556 159.502C205.288 160.091 205.59 160.782 206.203 160.987C207.874 161.543 209 163.106 209 164.867V166.422C209 166.762 209.207 167.067 209.522 167.193C210.598 167.624 211.421 168.517 211.761 169.624L213.132 174.078C213.435 175.063 213.364 176.125 212.932 177.06C212.5 177.995 213.39 178.996 214.369 178.678L228.022 174.241L226.539 169.9C226.518 169.908 226.496 169.916 226.474 169.923L218.974 172.423C218.188 172.685 217.339 172.26 217.077 171.474C216.815 170.688 217.24 169.839 218.026 169.577L225.526 167.077C225.54 167.072 225.555 167.068 225.569 167.063L223.881 162.121L216.974 164.423C216.188 164.685 215.339 164.26 215.077 163.474C214.815 162.688 215.24 161.839 216.026 161.577L222.911 159.282L221.427 154.938L213.447 157.432C212.657 157.679 211.815 157.238 211.568 156.447C211.321 155.657 211.762 154.815 212.553 154.568ZM228.992 177.08L256.103 256.429C257.134 259.448 260.479 260.992 263.446 259.82C266.209 258.728 267.635 255.665 266.692 252.848L229.818 142.694C228.784 139.604 225.457 137.921 222.355 138.918C220.192 139.613 218.706 141.427 218.322 143.51C218.207 143.524 218.091 143.552 217.978 143.594L204.607 148.56C201.652 149.658 200.825 153.446 203.054 155.676C203.445 156.067 203.553 156.659 203.324 157.163L202.825 158.26C201.82 160.471 202.951 163.065 205.255 163.833C205.7 163.981 206 164.398 206 164.867V166.422C206 167.988 206.954 169.397 208.408 169.979C208.642 170.072 208.82 170.266 208.894 170.506L210.265 174.961C210.35 175.239 210.33 175.539 210.208 175.803C208.68 179.114 211.828 182.658 215.296 181.531L228.992 177.08ZM226.973 143.646C226.461 142.114 224.811 141.279 223.273 141.774C221.702 142.279 220.851 143.974 221.385 145.536L258.942 255.459C259.42 256.857 260.969 257.573 262.343 257.03C263.623 256.524 264.284 255.105 263.847 253.8L226.973 143.646Z" fill="white"/>
</g>
<defs>
<filter id="filter0_d_308_388" x="0" y="0" width="390" height="540" filterUnits="userSpaceOnUse" color-interpolation-filters="sRGB">
<feFlood flood-opacity="0" result="BackgroundImageFix"/>
<feColorMatrix in="SourceAlpha" type="matrix" values="0 0 0 0 0 0 0 0 0 0 0 0 0 0 0 0 0 0 127 0" result="hardAlpha"/>
<feOffset/>
<feGaussianBlur stdDeviation="10"/>
<feComposite in2="hardAlpha" operator="out"/>
<feColorMatrix type="matrix" values="0 0 0 0 1 0 0 0 0 0.233333 0 0 0 0 0.556367 0 0 0 1 0"/>
<feBlend mode="normal" in2="BackgroundImageFix" result="effect1_dropShadow_308_388"/>
<feBlend mode="normal" in="SourceGraphic" in2="effect1_dropShadow_308_388" result="shape"/>
</filter>
</defs>
</svg>
