<svg width="390" height="540" viewBox="0 0 390 540" fill="none" xmlns="http://www.w3.org/2000/svg">
<g filter="url(#filter0_d_181_258)">
<path fill-rule="evenodd" clip-rule="evenodd" d="M60 20C37.9086 20 20 37.9086 20 60V480C20 502.091 37.9086 520 60 520H330C352.091 520 370 502.091 370 480V60C370 37.9086 352.091 20 330 20H60ZM150.273 314.568V397H160.768V359.88H199.553V351.688H160.768V322.888H204.288V314.568H150.273ZM211.398 336.328V397H221.893V351.816C223.6 350.621 225.734 349.469 228.294 348.36C230.854 347.251 233.542 346.269 236.357 345.416C239.174 344.477 241.776 343.752 244.165 343.24V335.048C240.24 335.816 236.23 337.011 232.133 338.632C228.123 340.253 224.624 342.045 221.637 344.008L220.87 336.328H211.398ZM133.666 432V411.392H146.658V412.832H135.426V420.992H145.474V422.4H135.426V432H133.666ZM148.728 432V416.832H150.264L150.456 418.944C151.245 418.389 152.141 417.899 153.144 417.472C154.168 417.045 155.171 416.725 156.152 416.512V417.952C155.533 418.101 154.861 418.304 154.136 418.56C153.432 418.816 152.749 419.104 152.088 419.424C151.448 419.723 150.915 420.032 150.488 420.352V432H148.728ZM163.118 432.32C162.158 432.32 161.273 432.171 160.462 431.872C159.673 431.573 159.033 431.104 158.542 430.464C158.073 429.803 157.838 428.971 157.838 427.968C157.838 426.624 158.265 425.536 159.118 424.704C159.971 423.851 161.422 423.424 163.47 423.424H169.134V421.984C169.134 421.024 169.006 420.256 168.75 419.68C168.494 419.083 168.025 418.656 167.342 418.4C166.681 418.144 165.699 418.016 164.398 418.016C163.523 418.016 162.681 418.091 161.87 418.24C161.059 418.389 160.291 418.592 159.566 418.848V417.344C160.227 417.088 160.995 416.885 161.87 416.736C162.766 416.587 163.715 416.512 164.718 416.512C166.809 416.512 168.345 416.939 169.326 417.792C170.329 418.624 170.83 420.011 170.83 421.952V432H169.39L169.23 430.112C168.526 430.859 167.694 431.413 166.734 431.776C165.774 432.139 164.569 432.32 163.118 432.32ZM163.566 430.848C164.782 430.848 165.849 430.656 166.766 430.272C167.683 429.867 168.473 429.269 169.134 428.48V424.832H163.534C162.041 424.832 161.006 425.099 160.43 425.632C159.854 426.165 159.566 426.944 159.566 427.968C159.566 429.013 159.918 429.76 160.622 430.208C161.347 430.635 162.329 430.848 163.566 430.848ZM175.478 432V416.832H177.014L177.174 418.688C177.942 418.048 178.817 417.525 179.798 417.12C180.779 416.715 181.953 416.512 183.318 416.512C185.217 416.512 186.593 416.949 187.446 417.824C188.299 418.699 188.726 420.085 188.726 421.984V432H186.966V422.016C186.966 420.523 186.657 419.477 186.038 418.88C185.441 418.283 184.289 417.984 182.582 417.984C181.515 417.984 180.523 418.187 179.606 418.592C178.71 418.997 177.921 419.531 177.238 420.192V432H175.478ZM199.921 432.32C197.297 432.32 195.387 431.627 194.193 430.24C192.998 428.853 192.401 426.912 192.401 424.416C192.401 421.749 193.094 419.765 194.481 418.464C195.889 417.163 197.787 416.512 200.177 416.512C201.158 416.512 201.947 416.587 202.545 416.736C203.142 416.864 203.729 417.067 204.305 417.344V418.784C203.174 418.251 201.894 417.984 200.465 417.984C198.459 417.984 196.902 418.496 195.793 419.52C194.683 420.544 194.129 422.176 194.129 424.416C194.129 426.613 194.598 428.245 195.537 429.312C196.497 430.357 198.097 430.88 200.337 430.88C201.019 430.88 201.702 430.805 202.385 430.656C203.089 430.507 203.739 430.304 204.337 430.048V431.52C203.739 431.776 203.067 431.968 202.321 432.096C201.595 432.245 200.795 432.32 199.921 432.32ZM209.271 412.896V410.976H211.287V412.896H209.271ZM209.495 432V418.304H207.127L207.319 416.832H211.255V432H209.495ZM221.448 432.32C219.635 432.32 218.259 431.808 217.32 430.784C216.381 429.76 215.912 428.309 215.912 426.432V416.832H217.672V426.496C217.672 427.947 218.035 429.045 218.76 429.792C219.485 430.517 220.627 430.88 222.184 430.88C223.251 430.88 224.221 430.677 225.096 430.272C225.992 429.845 226.76 429.312 227.4 428.672V416.832H229.16V432H227.592L227.432 430.144C226.685 430.805 225.832 431.339 224.872 431.744C223.912 432.128 222.771 432.32 221.448 432.32ZM233.947 432V416.832H235.483L235.643 418.688C236.475 418.005 237.36 417.472 238.299 417.088C239.259 416.704 240.262 416.512 241.307 416.512C242.48 416.512 243.387 416.704 244.027 417.088C244.667 417.472 245.136 418.005 245.435 418.688C246.16 418.069 247.003 417.557 247.963 417.152C248.923 416.725 250.075 416.512 251.419 416.512C253.126 416.512 254.395 416.949 255.227 417.824C256.08 418.677 256.507 420.021 256.507 421.856V432H254.779V422.016C254.779 420.501 254.448 419.456 253.787 418.88C253.147 418.283 252.134 417.984 250.747 417.984C249.787 417.984 248.88 418.155 248.027 418.496C247.174 418.816 246.448 419.296 245.851 419.936C245.915 420.235 245.968 420.587 246.011 420.992C246.054 421.376 246.075 421.739 246.075 422.08V432H244.379V422.112C244.379 420.661 244.134 419.616 243.643 418.976C243.152 418.315 242.203 417.984 240.795 417.984C239.856 417.984 238.939 418.197 238.043 418.624C237.147 419.051 236.358 419.573 235.675 420.192V432H233.947ZM207 188C207 182.477 202.747 178 197.5 178C192.253 178 188 182.477 188 188C188 193.523 192.253 198 197.5 198C202.747 198 207 193.523 207 188ZM197.5 111C197.515 111 197.577 111 197.714 111.056C197.863 111.116 198.116 111.25 198.465 111.535C199.191 112.13 200.126 113.213 201.175 114.988C203.277 118.544 205.343 124.022 207.145 131.23C208.936 138.395 210.399 146.991 211.415 156.59C206.194 158.964 200.783 161.627 195.263 164.556C191.234 162.419 187.264 160.423 183.383 158.577C184.402 148.177 185.941 138.886 187.855 131.23C189.657 124.022 191.723 118.544 193.825 114.988C194.874 113.213 195.809 112.13 196.536 111.535C196.884 111.25 197.137 111.116 197.286 111.056C197.423 111 197.485 111 197.5 111ZM178.084 161.619C168.092 157.023 158.839 153.515 150.922 151.251C143.779 149.207 138.002 148.258 133.872 148.3C131.81 148.321 130.404 148.589 129.526 148.921C129.104 149.08 128.862 149.232 128.736 149.331C128.619 149.422 128.588 149.476 128.58 149.489C128.573 149.502 128.542 149.555 128.521 149.702C128.499 149.861 128.489 150.147 128.561 150.591C128.713 151.518 129.184 152.869 130.196 154.665C130.484 155.175 130.804 155.703 131.159 156.249C129.654 157.082 128.388 158.293 127.486 159.753C123.816 154.373 122.549 149.935 124.25 146.989C128.575 139.498 150.83 143.804 178.583 156.351C181.679 126.777 188.983 106 197.5 106C205.835 106 213.008 125.898 216.213 154.466C222.309 151.843 228.094 149.644 233.43 147.911C233.944 149.604 234.896 151.107 236.153 152.289C230.248 154.153 223.706 156.637 216.745 159.686C217.273 165.422 217.645 171.46 217.84 177.716C221.591 180.109 225.189 182.518 228.613 184.92C236.764 179.038 243.759 173.265 249.251 167.955C254.592 162.79 258.303 158.262 260.332 154.664C261.344 152.868 261.815 151.517 261.967 150.59C262.04 150.145 262.029 149.86 262.007 149.7C261.986 149.554 261.955 149.5 261.948 149.487C261.94 149.474 261.909 149.42 261.793 149.329C261.666 149.231 261.424 149.078 261.002 148.919C260.124 148.587 258.718 148.319 256.657 148.298C255.377 148.285 253.94 148.367 252.353 148.548C252.771 147.445 253 146.25 253 145.001C253 144.479 252.96 143.967 252.883 143.467C259.768 142.839 264.514 143.932 266.278 146.987C270.491 154.285 256.499 170.722 232.897 187.988C256.499 205.253 270.491 221.691 266.278 228.988C262.177 236.091 241.957 232.588 216.216 221.511C215.378 228.985 214.269 235.866 212.938 241.953C211.588 240.955 209.978 240.289 208.228 240.075C209.532 233.947 210.615 226.98 211.417 219.387C206.196 217.013 200.784 214.349 195.263 211.419C191.233 213.557 187.262 215.554 183.38 217.399C184.399 227.809 185.94 237.108 187.855 244.77C189.657 251.978 191.723 257.456 193.825 261.012C194.874 262.787 195.809 263.87 196.536 264.465C196.884 264.75 197.137 264.884 197.286 264.944C197.423 265 197.485 265 197.5 265C197.515 265 197.577 265 197.714 264.944C197.863 264.884 198.116 264.75 198.465 264.465C199.191 263.87 200.126 262.787 201.175 261.012C201.563 260.355 201.95 259.633 202.334 258.847C203.727 259.583 205.315 260 207 260C207.107 260 207.215 259.998 207.321 259.995C204.405 266.374 201.058 270 197.5 270C188.981 270 181.675 249.212 178.58 219.626C150.829 232.171 128.575 236.477 124.25 228.987C120.037 221.689 134.029 205.253 157.629 187.988C151.082 183.198 145.275 178.473 140.39 173.988C141.927 173.236 143.242 172.101 144.212 170.708C149.185 175.236 155.151 180.04 161.913 184.92C166.707 181.556 171.845 178.179 177.262 174.851C177.445 170.304 177.722 165.883 178.084 161.619ZM161.913 191.056C153.763 196.937 146.769 202.709 141.277 208.019C135.936 213.183 132.225 217.712 130.196 221.31C129.184 223.106 128.713 224.457 128.561 225.384C128.489 225.829 128.499 226.114 128.521 226.273C128.542 226.42 128.573 226.474 128.58 226.487C128.588 226.5 128.619 226.554 128.736 226.644C128.862 226.743 129.104 226.895 129.526 227.055C130.404 227.386 131.81 227.654 133.872 227.676C138.002 227.718 143.779 226.768 150.922 224.725C158.838 222.46 168.091 218.953 178.082 214.358C177.72 210.093 177.444 205.671 177.261 201.124C171.844 197.796 166.707 194.42 161.913 191.056ZM177.076 195.122C173.307 192.751 169.693 190.366 166.256 187.988C169.693 185.61 173.307 183.224 177.077 180.853C177.026 183.208 177 185.592 177 188C177 190.399 177.026 192.775 177.076 195.122ZM182.408 204.221C182.544 206.894 182.713 209.515 182.913 212.078C185.234 210.955 187.589 209.778 189.97 208.547C188.324 207.634 186.672 206.699 185.014 205.742C184.139 205.237 183.27 204.73 182.408 204.221ZM195.263 205.746C192.701 204.359 190.115 202.913 187.514 201.412C185.702 200.366 183.917 199.312 182.161 198.253C182.055 194.9 182 191.477 182 188C182 184.514 182.055 181.083 182.162 177.722C183.917 176.663 185.702 175.61 187.514 174.564C190.115 173.062 192.701 171.616 195.263 170.229C197.826 171.617 200.412 173.063 203.014 174.565C206.415 176.529 209.72 178.517 212.915 180.518C212.971 182.979 213 185.475 213 188C213 190.516 212.971 193.004 212.915 195.457C209.72 197.458 206.415 199.447 203.014 201.41C200.412 202.912 197.826 204.358 195.263 205.746ZM212.72 174.518C212.537 170.163 212.267 165.934 211.918 161.86C208.22 163.57 204.422 165.429 200.555 167.428C202.202 168.342 203.855 169.277 205.514 170.235C207.965 171.65 210.368 173.079 212.72 174.518ZM217.973 183.754C217.991 185.16 218 186.576 218 188C218 189.416 217.991 190.823 217.973 192.221C220.132 190.811 222.232 189.398 224.27 187.988C222.232 186.578 220.131 185.165 217.973 183.754ZM228.613 191.056C225.19 193.458 221.591 195.866 217.841 198.259C217.646 204.516 217.275 210.554 216.747 216.291C225.095 219.946 232.839 222.79 239.606 224.726C246.749 226.77 252.526 227.719 256.656 227.677C258.718 227.656 260.124 227.388 261.002 227.056C261.424 226.897 261.666 226.745 261.792 226.646C261.909 226.555 261.94 226.501 261.948 226.488C261.955 226.475 261.986 226.422 262.007 226.275C262.029 226.116 262.04 225.83 261.967 225.386C261.815 224.459 261.344 223.108 260.332 221.312C258.303 217.713 254.592 213.185 249.251 208.021C243.759 202.71 236.764 196.938 228.613 191.056ZM211.92 214.117C212.269 210.042 212.538 205.812 212.721 201.457C210.369 202.896 207.965 204.325 205.514 205.74C203.855 206.698 202.202 207.634 200.555 208.547C204.423 210.547 208.221 212.406 211.92 214.117ZM189.97 167.428C188.325 168.341 186.672 169.276 185.014 170.233C184.14 170.738 183.271 171.245 182.409 171.753C182.545 169.082 182.715 166.461 182.915 163.898C185.236 165.021 187.59 166.198 189.97 167.428ZM215 250C215 245.582 211.418 242 207 242C202.582 242 199 245.582 199 250C199 254.418 202.582 258 207 258C211.418 258 215 254.418 215 250ZM243 137C247.418 137 251 140.582 251 145C251 149.418 247.418 153 243 153C238.582 153 235 149.418 235 145C235 140.582 238.582 137 243 137ZM144 165C144 160.582 140.418 157 136 157C131.582 157 128 160.582 128 165C128 169.418 131.582 173 136 173C140.418 173 144 169.418 144 165Z" fill="white"/>
</g>
<defs>
<filter id="filter0_d_181_258" x="0" y="0" width="390" height="540" filterUnits="userSpaceOnUse" color-interpolation-filters="sRGB">
<feFlood flood-opacity="0" result="BackgroundImageFix"/>
<feColorMatrix in="SourceAlpha" type="matrix" values="0 0 0 0 0 0 0 0 0 0 0 0 0 0 0 0 0 0 127 0" result="hardAlpha"/>
<feOffset/>
<feGaussianBlur stdDeviation="10"/>
<feComposite in2="hardAlpha" operator="out"/>
<feColorMatrix type="matrix" values="0 0 0 0 0.78 0 0 0 0 0.3125 0 0 0 0 1 0 0 0 1 0"/>
<feBlend mode="normal" in2="BackgroundImageFix" result="effect1_dropShadow_181_258"/>
<feBlend mode="normal" in="SourceGraphic" in2="effect1_dropShadow_181_258" result="shape"/>
</filter>
</defs>
</svg>
