<svg width="390" height="540" viewBox="0 0 390 540" fill="none" xmlns="http://www.w3.org/2000/svg">
<g filter="url(#filter0_d_193_509)">
<path fill-rule="evenodd" clip-rule="evenodd" d="M20 60C20 37.9086 37.9086 20 60 20H330C352.091 20 370 37.9086 370 60V480C370 502.091 352.091 520 330 520H60C37.9086 520 20 502.091 20 480V60ZM164.952 398.28C156.077 398.28 148.696 396.616 142.808 393.288C137.005 389.875 132.653 385.139 129.752 379.08C126.851 372.936 125.4 365.768 125.4 357.576C125.4 348.616 126.765 340.808 129.496 334.152C132.227 327.496 136.493 322.376 142.296 318.792C148.099 315.123 155.608 313.288 164.824 313.288C169.603 313.288 173.912 313.629 177.752 314.312C181.677 314.995 185.347 315.933 188.76 317.128V326.344C185.347 325.064 181.72 324.083 177.88 323.4C174.04 322.632 169.987 322.248 165.72 322.248C158.296 322.248 152.408 323.656 148.056 326.472C143.704 329.288 140.589 333.341 138.712 338.632C136.835 343.923 135.896 350.237 135.896 357.576C135.896 367.731 138.243 375.581 142.936 381.128C147.629 386.589 155.181 389.32 165.592 389.32C169.261 389.32 172.803 389.021 176.216 388.424C179.629 387.827 182.659 387.016 185.304 385.992V359.752H163.288V352.584H194.392V391.752C191.917 393.373 188.291 394.867 183.512 396.232C178.819 397.597 172.632 398.28 164.952 398.28ZM228.526 398.28C224.686 398.28 221.145 397.597 217.902 396.232C214.659 394.867 212.057 392.861 210.094 390.216C208.131 387.485 207.15 384.072 207.15 379.976C207.15 374.429 208.985 369.907 212.654 366.408C216.323 362.824 222.297 361.032 230.574 361.032H251.694V357.32C251.694 353.992 251.225 351.347 250.286 349.384C249.433 347.421 247.769 346.013 245.294 345.16C242.819 344.307 239.193 343.88 234.414 343.88C230.745 343.88 227.203 344.179 223.79 344.776C220.377 345.373 217.177 346.184 214.19 347.208V338.504C216.921 337.48 220.121 336.669 223.79 336.072C227.545 335.389 231.555 335.048 235.822 335.048C244.441 335.048 250.883 336.797 255.15 340.296C259.502 343.795 261.678 349.469 261.678 357.32V397H252.846L252.078 390.088C249.433 392.819 246.233 394.867 242.478 396.232C238.723 397.597 234.073 398.28 228.526 398.28ZM231.214 389.704C235.651 389.704 239.577 388.936 242.99 387.4C246.403 385.779 249.305 383.603 251.694 380.872V369.096H230.83C226.051 369.096 222.638 369.992 220.59 371.784C218.542 373.576 217.518 376.307 217.518 379.976C217.518 383.645 218.755 386.205 221.23 387.656C223.705 389.021 227.033 389.704 231.214 389.704ZM148.981 431.072C150.389 431.904 152.181 432.32 154.357 432.32C156.298 432.32 157.845 432.16 158.997 431.84C160.17 431.499 161.045 431.136 161.621 430.752V421.12H154.165V422.528H160.021V429.856C159.317 430.133 158.474 430.368 157.493 430.56C156.533 430.731 155.552 430.816 154.549 430.816C151.754 430.816 149.728 430.069 148.469 428.576C147.232 427.061 146.613 424.96 146.613 422.272C146.613 420.309 146.848 418.613 147.317 417.184C147.808 415.733 148.629 414.613 149.781 413.824C150.933 413.013 152.512 412.608 154.517 412.608C155.562 412.608 156.565 412.693 157.525 412.864C158.506 413.013 159.402 413.227 160.213 413.504V411.936C159.402 411.659 158.506 411.445 157.525 411.296C156.565 411.147 155.498 411.072 154.325 411.072C152.042 411.072 150.208 411.541 148.821 412.48C147.434 413.419 146.432 414.731 145.813 416.416C145.194 418.08 144.885 420.032 144.885 422.272C144.885 424.277 145.216 426.037 145.877 427.552C146.56 429.045 147.594 430.219 148.981 431.072ZM167.759 431.872C168.57 432.171 169.455 432.32 170.415 432.32C171.866 432.32 173.071 432.139 174.031 431.776C174.991 431.413 175.823 430.859 176.527 430.112L176.687 432H178.127V421.952C178.127 420.011 177.626 418.624 176.623 417.792C175.642 416.939 174.106 416.512 172.015 416.512C171.012 416.512 170.063 416.587 169.167 416.736C168.292 416.885 167.524 417.088 166.863 417.344V418.848C167.588 418.592 168.356 418.389 169.167 418.24C169.978 418.091 170.82 418.016 171.695 418.016C172.996 418.016 173.978 418.144 174.639 418.4C175.322 418.656 175.791 419.083 176.047 419.68C176.303 420.256 176.431 421.024 176.431 421.984V423.424H170.767C168.719 423.424 167.268 423.851 166.415 424.704C165.562 425.536 165.135 426.624 165.135 427.968C165.135 428.971 165.37 429.803 165.839 430.464C166.33 431.104 166.97 431.573 167.759 431.872ZM174.063 430.272C173.146 430.656 172.079 430.848 170.863 430.848C169.626 430.848 168.644 430.635 167.919 430.208C167.215 429.76 166.863 429.013 166.863 427.968C166.863 426.944 167.151 426.165 167.727 425.632C168.303 425.099 169.338 424.832 170.831 424.832H176.431V428.48C175.77 429.269 174.98 429.867 174.063 430.272ZM183.543 431.616C184.055 432.085 184.738 432.32 185.591 432.32C185.847 432.32 186.124 432.299 186.423 432.256C186.722 432.235 187.01 432.181 187.287 432.096V430.624C186.818 430.752 186.348 430.816 185.879 430.816C185.41 430.816 185.068 430.688 184.855 430.432C184.642 430.176 184.535 429.707 184.535 429.024V410.432H182.775V429.088C182.775 430.304 183.031 431.147 183.543 431.616ZM190.605 431.616C191.117 432.085 191.8 432.32 192.654 432.32C192.91 432.32 193.187 432.299 193.486 432.256C193.784 432.235 194.072 432.181 194.35 432.096V430.624C193.88 430.752 193.411 430.816 192.941 430.816C192.472 430.816 192.131 430.688 191.917 430.432C191.704 430.176 191.598 429.707 191.598 429.024V410.432H189.837V429.088C189.837 430.304 190.094 431.147 190.605 431.616ZM200.428 410.976H198.411V412.896H200.428V410.976ZM198.635 418.304V432H200.396V416.832H196.46L196.268 418.304H198.635ZM206.46 430.784C207.399 431.808 208.775 432.32 210.589 432.32C211.911 432.32 213.053 432.128 214.012 431.744C214.973 431.339 215.826 430.805 216.572 430.144L216.732 432H218.301V416.832H216.54V428.672C215.9 429.312 215.133 429.845 214.236 430.272C213.362 430.677 212.391 430.88 211.324 430.88C209.767 430.88 208.626 430.517 207.9 429.792C207.175 429.045 206.812 427.947 206.812 426.496V416.832H205.053V426.432C205.053 428.309 205.522 429.76 206.46 430.784ZM223.087 416.832V432H224.816V420.192C225.498 419.573 226.288 419.051 227.184 418.624C228.079 418.197 228.997 417.984 229.936 417.984C231.344 417.984 232.293 418.315 232.784 418.976C233.274 419.616 233.52 420.661 233.52 422.112V432H235.215V422.08C235.215 421.739 235.194 421.376 235.152 420.992C235.109 420.587 235.055 420.235 234.992 419.936C235.589 419.296 236.314 418.816 237.167 418.496C238.021 418.155 238.928 417.984 239.887 417.984C241.274 417.984 242.288 418.283 242.928 418.88C243.589 419.456 243.919 420.501 243.919 422.016V432H245.648V421.856C245.648 420.021 245.221 418.677 244.367 417.824C243.536 416.949 242.266 416.512 240.56 416.512C239.215 416.512 238.064 416.725 237.104 417.152C236.143 417.557 235.301 418.069 234.576 418.688C234.277 418.005 233.807 417.472 233.167 417.088C232.527 416.704 231.621 416.512 230.447 416.512C229.402 416.512 228.4 416.704 227.439 417.088C226.501 417.472 225.615 418.005 224.783 418.688L224.624 416.832H223.087ZM91.9019 260.984V270H98.0479V268.824H93.4279V260.984H91.9019ZM103.525 260.718V261.978H105.191V260.718H103.525ZM103.651 264.526V270H105.177V263.364H102.783L102.643 264.526H103.651ZM112.361 272.366C112.856 272.431 113.351 272.464 113.845 272.464C114.9 272.464 115.707 272.319 116.267 272.03C116.837 271.75 117.121 271.283 117.121 270.63C117.121 270.089 116.939 269.678 116.575 269.398C116.221 269.109 115.712 268.964 115.049 268.964H113.187C112.926 268.964 112.739 268.936 112.627 268.88C112.515 268.815 112.459 268.712 112.459 268.572C112.459 268.367 112.571 268.203 112.795 268.082C113.019 267.961 113.271 267.886 113.551 267.858C113.701 267.877 113.836 267.895 113.957 267.914C114.088 267.923 114.228 267.928 114.377 267.928C115.245 267.928 115.894 267.727 116.323 267.326C116.753 266.915 116.967 266.355 116.967 265.646C116.967 265.385 116.925 265.142 116.841 264.918C116.757 264.694 116.627 264.507 116.449 264.358H117.569L117.611 263.364H115.175C115.045 263.336 114.863 263.308 114.629 263.28C114.396 263.243 114.172 263.224 113.957 263.224C112.94 263.224 112.175 263.415 111.661 263.798C111.157 264.181 110.905 264.797 110.905 265.646C110.905 266.103 110.994 266.495 111.171 266.822C111.358 267.149 111.643 267.405 112.025 267.592C111.68 267.713 111.428 267.891 111.269 268.124C111.111 268.357 111.031 268.609 111.031 268.88C111.031 269.729 111.633 270.154 112.837 270.154H114.629C115.049 270.154 115.334 270.191 115.483 270.266C115.633 270.35 115.707 270.49 115.707 270.686C115.707 270.947 115.553 271.115 115.245 271.19C114.937 271.265 114.447 271.302 113.775 271.302C113.337 271.302 112.875 271.269 112.389 271.204C111.904 271.139 111.475 271.045 111.101 270.924V272.1C111.447 272.221 111.867 272.31 112.361 272.366ZM115.217 266.654C114.984 266.859 114.564 266.962 113.957 266.962C113.36 266.962 112.935 266.855 112.683 266.64C112.441 266.425 112.319 266.08 112.319 265.604C112.319 265.091 112.45 264.727 112.711 264.512C112.973 264.297 113.388 264.19 113.957 264.19C114.564 264.19 114.984 264.302 115.217 264.526C115.46 264.75 115.581 265.109 115.581 265.604C115.581 266.099 115.46 266.449 115.217 266.654ZM123.109 260.564V270H124.635V265.17C124.859 264.937 125.144 264.75 125.489 264.61C125.835 264.461 126.175 264.386 126.511 264.386C127.053 264.386 127.431 264.489 127.645 264.694C127.869 264.899 127.981 265.259 127.981 265.772V270H129.493V265.702C129.493 264.853 129.293 264.227 128.891 263.826C128.49 263.425 127.869 263.224 127.029 263.224C126.525 263.224 126.073 263.299 125.671 263.448C125.27 263.588 124.925 263.775 124.635 264.008V260.564H123.109ZM136.341 269.58C136.696 269.953 137.228 270.14 137.937 270.14C138.46 270.14 138.903 270.065 139.267 269.916V268.838C138.987 268.931 138.721 268.978 138.469 268.978C138.068 268.978 137.778 268.903 137.601 268.754C137.424 268.595 137.335 268.325 137.335 267.942V264.554H139.001L139.099 263.364H137.335V261.376L135.823 261.838V263.364H134.843V264.554H135.823V268.026C135.823 268.679 135.996 269.197 136.341 269.58ZM152.061 260.984V270H158.347V268.824H153.587V266.08H157.829V264.904H153.587V262.174H158.347V260.984H152.061ZM163.958 263.364V270H165.456V265.17C165.689 264.955 165.951 264.773 166.24 264.624C166.539 264.465 166.852 264.386 167.178 264.386C167.645 264.386 167.962 264.498 168.13 264.722C168.298 264.946 168.382 265.301 168.382 265.786V270H169.796V265.744C169.796 265.613 169.792 265.492 169.782 265.38C169.773 265.268 169.754 265.161 169.726 265.058C169.932 264.834 170.174 264.666 170.454 264.554C170.743 264.442 171.047 264.386 171.364 264.386C171.85 264.386 172.2 264.489 172.414 264.694C172.629 264.899 172.736 265.259 172.736 265.772V270H174.234V265.618C174.234 264.806 174.052 264.204 173.688 263.812C173.324 263.42 172.76 263.224 171.994 263.224C171.434 263.224 170.954 263.308 170.552 263.476C170.151 263.635 169.796 263.84 169.488 264.092C169.348 263.821 169.143 263.611 168.872 263.462C168.611 263.303 168.242 263.224 167.766 263.224C167.318 263.224 166.898 263.299 166.506 263.448C166.114 263.597 165.755 263.803 165.428 264.064L165.358 263.364H163.958ZM180.708 260.718V261.978H182.374V260.718H180.708ZM180.834 264.526V270H182.36V263.364H179.966L179.826 264.526H180.834ZM189.279 269.58C189.633 269.953 190.165 270.14 190.875 270.14C191.397 270.14 191.841 270.065 192.205 269.916V268.838C191.925 268.931 191.659 268.978 191.407 268.978C191.005 268.978 190.716 268.903 190.539 268.754C190.361 268.595 190.273 268.325 190.273 267.942V264.554H191.939L192.037 263.364H190.273V261.376L188.761 261.838V263.364H187.781V264.554H188.761V268.026C188.761 268.679 188.933 269.197 189.279 269.58ZM198.51 269.58C198.865 269.953 199.397 270.14 200.106 270.14C200.629 270.14 201.072 270.065 201.436 269.916V268.838C201.156 268.931 200.89 268.978 200.638 268.978C200.237 268.978 199.947 268.903 199.77 268.754C199.593 268.595 199.504 268.325 199.504 267.942V264.554H201.17L201.268 263.364H199.504V261.376L197.992 261.838V263.364H197.012V264.554H197.992V268.026C197.992 268.679 198.165 269.197 198.51 269.58ZM207.363 260.718V261.978H209.029V260.718H207.363ZM207.489 264.526V270H209.015V263.364H206.621L206.481 264.526H207.489ZM214.995 263.364V270H216.521V265.142C216.745 264.918 217.021 264.736 217.347 264.596C217.683 264.456 218.024 264.386 218.369 264.386C218.948 264.386 219.34 264.489 219.545 264.694C219.76 264.899 219.867 265.259 219.867 265.772V270H221.379V265.702C221.379 264.853 221.183 264.227 220.791 263.826C220.399 263.425 219.774 263.224 218.915 263.224C218.411 263.224 217.949 263.308 217.529 263.476C217.119 263.635 216.764 263.831 216.465 264.064L216.395 263.364H214.995ZM228.493 272.366C228.988 272.431 229.482 272.464 229.977 272.464C231.032 272.464 231.839 272.319 232.399 272.03C232.968 271.75 233.253 271.283 233.253 270.63C233.253 270.089 233.071 269.678 232.707 269.398C232.352 269.109 231.844 268.964 231.181 268.964H229.319C229.058 268.964 228.871 268.936 228.759 268.88C228.647 268.815 228.591 268.712 228.591 268.572C228.591 268.367 228.703 268.203 228.927 268.082C229.151 267.961 229.403 267.886 229.683 267.858C229.832 267.877 229.968 267.895 230.089 267.914C230.22 267.923 230.36 267.928 230.509 267.928C231.377 267.928 232.026 267.727 232.455 267.326C232.884 266.915 233.099 266.355 233.099 265.646C233.099 265.385 233.057 265.142 232.973 264.918C232.889 264.694 232.758 264.507 232.581 264.358H233.701L233.743 263.364H231.307C231.176 263.336 230.994 263.308 230.761 263.28C230.528 263.243 230.304 263.224 230.089 263.224C229.072 263.224 228.306 263.415 227.793 263.798C227.289 264.181 227.037 264.797 227.037 265.646C227.037 266.103 227.126 266.495 227.303 266.822C227.49 267.149 227.774 267.405 228.157 267.592C227.812 267.713 227.56 267.891 227.401 268.124C227.242 268.357 227.163 268.609 227.163 268.88C227.163 269.729 227.765 270.154 228.969 270.154H230.761C231.181 270.154 231.466 270.191 231.615 270.266C231.764 270.35 231.839 270.49 231.839 270.686C231.839 270.947 231.685 271.115 231.377 271.19C231.069 271.265 230.579 271.302 229.907 271.302C229.468 271.302 229.006 271.269 228.521 271.204C228.036 271.139 227.606 271.045 227.233 270.924V272.1C227.578 272.221 227.998 272.31 228.493 272.366ZM231.349 266.654C231.116 266.859 230.696 266.962 230.089 266.962C229.492 266.962 229.067 266.855 228.815 266.64C228.572 266.425 228.451 266.08 228.451 265.604C228.451 265.091 228.582 264.727 228.843 264.512C229.104 264.297 229.52 264.19 230.089 264.19C230.696 264.19 231.116 264.302 231.349 264.526C231.592 264.75 231.713 265.109 231.713 265.604C231.713 266.099 231.592 266.449 231.349 266.654ZM246.668 260.984V270H250.322C251.675 270 252.669 269.645 253.304 268.936C253.938 268.217 254.256 267.088 254.256 265.548C254.256 263.915 253.934 262.748 253.29 262.048C252.646 261.339 251.656 260.984 250.322 260.984H246.668ZM250.084 268.824H248.194V262.174H250.084C250.718 262.174 251.227 262.272 251.61 262.468C252.002 262.664 252.286 263.005 252.464 263.49C252.641 263.975 252.73 264.661 252.73 265.548C252.73 266.435 252.632 267.116 252.436 267.592C252.24 268.068 251.946 268.395 251.554 268.572C251.162 268.74 250.672 268.824 250.084 268.824ZM260.164 260.718V261.978H261.83V260.718H260.164ZM260.29 264.526V270H261.816V263.364H259.422L259.282 264.526H260.29ZM268.342 269.244C268.902 269.841 269.779 270.14 270.974 270.14C272.178 270.14 273.055 269.841 273.606 269.244C274.166 268.647 274.446 267.793 274.446 266.682C274.446 265.571 274.166 264.717 273.606 264.12C273.046 263.523 272.169 263.224 270.974 263.224C269.789 263.224 268.916 263.523 268.356 264.12C267.796 264.717 267.516 265.571 267.516 266.682C267.516 267.793 267.791 268.647 268.342 269.244ZM272.458 268.348C272.169 268.684 271.674 268.852 270.974 268.852C270.283 268.852 269.789 268.684 269.49 268.348C269.201 268.003 269.056 267.447 269.056 266.682C269.056 265.917 269.201 265.366 269.49 265.03C269.789 264.694 270.283 264.526 270.974 264.526C271.674 264.526 272.169 264.694 272.458 265.03C272.757 265.366 272.906 265.917 272.906 266.682C272.906 267.447 272.757 268.003 272.458 268.348ZM281.293 269.832C281.75 270.037 282.277 270.14 282.875 270.14C283.36 270.14 283.78 270.075 284.135 269.944C284.489 269.813 284.816 269.613 285.115 269.342L285.213 270H286.515V260.564H284.989V263.798C284.699 263.602 284.396 263.457 284.079 263.364C283.771 263.271 283.416 263.224 283.015 263.224C282.408 263.224 281.862 263.364 281.377 263.644C280.901 263.924 280.527 264.339 280.257 264.89C279.986 265.431 279.851 266.099 279.851 266.892C279.851 267.695 279.977 268.334 280.229 268.81C280.481 269.286 280.835 269.627 281.293 269.832ZM284.989 268.292C284.531 268.759 283.962 268.992 283.281 268.992C282.627 268.992 282.147 268.843 281.839 268.544C281.54 268.245 281.391 267.699 281.391 266.906C281.391 266.085 281.554 265.459 281.881 265.03C282.207 264.601 282.693 264.386 283.337 264.386C283.999 264.386 284.55 264.582 284.989 264.974V268.292ZM293.015 269.286C293.649 269.855 294.545 270.14 295.703 270.14C296.141 270.14 296.552 270.107 296.935 270.042C297.327 269.977 297.672 269.879 297.971 269.748V268.628C297.709 268.731 297.401 268.815 297.047 268.88C296.692 268.945 296.347 268.978 296.011 268.978C295.208 268.978 294.611 268.857 294.219 268.614C293.827 268.371 293.593 267.928 293.519 267.284H298.377V266.052C298.377 265.221 298.12 264.545 297.607 264.022C297.103 263.49 296.347 263.224 295.339 263.224C294.237 263.224 293.416 263.532 292.875 264.148C292.333 264.764 292.063 265.604 292.063 266.668C292.063 267.844 292.38 268.717 293.015 269.286ZM297.033 266.29H293.519C293.519 265.627 293.649 265.142 293.911 264.834C294.181 264.526 294.671 264.372 295.381 264.372C295.978 264.372 296.403 264.503 296.655 264.764C296.907 265.016 297.033 265.371 297.033 265.828V266.29ZM209 168C209 165.239 211.239 163 214 163H246C248.761 163 251 165.239 251 168C251 170.761 248.761 173 246 173H214C211.239 173 209 170.761 209 168ZM139 163C136.239 163 134 165.239 134 168C134 170.761 136.239 173 139 173H172C174.761 173 177 170.761 177 168C177 165.239 174.761 163 172 163H139ZM209 106C209 103.176 211.327 101 214.056 101H246.944C249.673 101 252 103.176 252 106C252 108.824 249.673 111 246.944 111H214.056C211.327 111 209 108.824 209 106ZM214.056 104.571C213.147 104.571 212.525 105.274 212.525 106C212.525 106.726 213.147 107.429 214.056 107.429H246.944C247.853 107.429 248.475 106.726 248.475 106C248.475 105.274 247.853 104.571 246.944 104.571H214.056ZM250 152.944C250 155.673 252.176 158 255 158C257.824 158 260 155.673 260 152.944V120.056C260 117.327 257.824 115 255 115C252.176 115 250 117.327 250 120.056V152.944ZM255 154.475C254.274 154.475 253.571 153.853 253.571 152.944V120.056C253.571 119.147 254.274 118.525 255 118.525C255.726 118.525 256.429 119.147 256.429 120.056V152.944C256.429 153.853 255.726 154.475 255 154.475ZM205 158C202.239 158 200 155.761 200 153V121C200 118.239 202.239 116 205 116C207.761 116 210 118.239 210 121V153C210 155.761 207.761 158 205 158ZM139 101C136.239 101 134 103.239 134 106C134 108.761 136.239 111 139 111H172C174.761 111 177 108.761 177 106C177 103.239 174.761 101 172 101H139ZM180 158C177.239 158 175 155.761 175 153V121C175 118.239 177.239 116 180 116C182.761 116 185 118.239 185 121V153C185 155.761 182.761 158 180 158ZM125 153C125 155.761 127.239 158 130 158C132.761 158 135 155.761 135 153V121C135 118.239 132.761 116 130 116C127.239 116 125 118.239 125 121V153ZM209 228C209 230.761 211.239 233 214 233H246C248.761 233 251 230.761 251 228C251 225.239 248.761 223 246 223H214C211.239 223 209 225.239 209 228ZM250 180.939C250 178.273 252.176 176 255 176C257.824 176 260 178.273 260 180.939V213.061C260 215.727 257.824 218 255 218C252.176 218 250 215.727 250 213.061V180.939ZM255 179.443C254.274 179.443 253.571 180.051 253.571 180.939V213.061C253.571 213.949 254.274 214.557 255 214.557C255.726 214.557 256.429 213.949 256.429 213.061V180.939C256.429 180.051 255.726 179.443 255 179.443ZM205 175C202.239 175 200 177.239 200 180V213C200 215.761 202.239 218 205 218C207.761 218 210 215.761 210 213V180C210 177.239 207.761 175 205 175ZM139 233C136.239 233 134 230.761 134 228C134 225.239 136.239 223 139 223H172C174.761 223 177 225.239 177 228C177 230.761 174.761 233 172 233H139ZM180 175C177.239 175 175 177.239 175 180V213C175 215.761 177.239 218 180 218C182.761 218 185 215.761 185 213V180C185 177.239 182.761 175 180 175ZM125 180C125 177.239 127.239 175 130 175C132.761 175 135 177.239 135 180V213C135 215.761 132.761 218 130 218C127.239 218 125 215.761 125 213V180Z" fill="white"/>
</g>
<defs>
<filter id="filter0_d_193_509" x="0" y="0" width="390" height="540" filterUnits="userSpaceOnUse" color-interpolation-filters="sRGB">
<feFlood flood-opacity="0" result="BackgroundImageFix"/>
<feColorMatrix in="SourceAlpha" type="matrix" values="0 0 0 0 0 0 0 0 0 0 0 0 0 0 0 0 0 0 127 0" result="hardAlpha"/>
<feOffset/>
<feGaussianBlur stdDeviation="10"/>
<feComposite in2="hardAlpha" operator="out"/>
<feColorMatrix type="matrix" values="0 0 0 0 0 0 0 0 0 0.637931 0 0 0 0 1 0 0 0 1 0"/>
<feBlend mode="normal" in2="BackgroundImageFix" result="effect1_dropShadow_193_509"/>
<feBlend mode="normal" in="SourceGraphic" in2="effect1_dropShadow_193_509" result="shape"/>
</filter>
</defs>
</svg>
