<svg width="390" height="540" viewBox="0 0 390 540" fill="none" xmlns="http://www.w3.org/2000/svg">
<g filter="url(#filter0_d_230_177)">
<path fill-rule="evenodd" clip-rule="evenodd" d="M20 60C20 37.9086 37.9086 20 60 20H330C352.091 20 370 37.9086 370 60V480C370 502.091 352.091 520 330 520H60C37.9086 520 20 502.091 20 480V60ZM164.952 398.28C156.077 398.28 148.696 396.616 142.808 393.288C137.005 389.875 132.653 385.139 129.752 379.08C126.851 372.936 125.4 365.768 125.4 357.576C125.4 348.616 126.765 340.808 129.496 334.152C132.227 327.496 136.493 322.376 142.296 318.792C148.099 315.123 155.608 313.288 164.824 313.288C169.603 313.288 173.912 313.629 177.752 314.312C181.677 314.995 185.347 315.933 188.76 317.128V326.344C185.347 325.064 181.72 324.083 177.88 323.4C174.04 322.632 169.987 322.248 165.72 322.248C158.296 322.248 152.408 323.656 148.056 326.472C143.704 329.288 140.589 333.341 138.712 338.632C136.835 343.923 135.896 350.237 135.896 357.576C135.896 367.731 138.243 375.581 142.936 381.128C147.629 386.589 155.181 389.32 165.592 389.32C169.261 389.32 172.803 389.021 176.216 388.424C179.629 387.827 182.659 387.016 185.304 385.992V359.752H163.288V352.584H194.392V391.752C191.917 393.373 188.291 394.867 183.512 396.232C178.819 397.597 172.632 398.28 164.952 398.28ZM239.534 398.28C228.697 398.28 220.59 395.677 215.214 390.472C209.838 385.267 207.15 377.245 207.15 366.408C207.15 356.68 209.454 349.043 214.062 343.496C218.755 337.864 226.137 335.048 236.206 335.048C242.179 335.048 247.086 336.157 250.926 338.376C254.851 340.509 257.753 343.496 259.63 347.336C261.593 351.091 262.574 355.357 262.574 360.136V371.528H217.646C217.987 376.136 218.969 379.763 220.59 382.408C222.297 385.053 224.814 386.973 228.142 388.168C231.555 389.277 236.035 389.832 241.582 389.832C247.811 389.832 253.529 388.765 258.734 386.632V394.824C256.089 395.933 253.102 396.787 249.774 397.384C246.531 397.981 243.118 398.28 239.534 398.28ZM217.646 363.976H253.23V358.984C253.23 354.035 251.907 350.237 249.262 347.592C246.702 344.861 242.435 343.496 236.462 343.496C229.209 343.496 224.259 345.203 221.614 348.616C218.969 352.029 217.646 357.149 217.646 363.976ZM120.153 431.072C121.561 431.904 123.353 432.32 125.529 432.32C127.47 432.32 129.017 432.16 130.169 431.84C131.342 431.499 132.217 431.136 132.793 430.752V421.12H125.337V422.528H131.193V429.856C130.489 430.133 129.646 430.368 128.665 430.56C127.705 430.731 126.724 430.816 125.721 430.816C122.926 430.816 120.9 430.069 119.641 428.576C118.404 427.061 117.785 424.96 117.785 422.272C117.785 420.309 118.02 418.613 118.489 417.184C118.98 415.733 119.801 414.613 120.953 413.824C122.105 413.013 123.684 412.608 125.689 412.608C126.734 412.608 127.737 412.693 128.697 412.864C129.678 413.013 130.574 413.227 131.385 413.504V411.936C130.574 411.659 129.678 411.445 128.697 411.296C127.737 411.147 126.67 411.072 125.497 411.072C123.214 411.072 121.38 411.541 119.993 412.48C118.606 413.419 117.604 414.731 116.985 416.416C116.366 418.08 116.057 420.032 116.057 422.272C116.057 424.277 116.388 426.037 117.049 427.552C117.732 429.045 118.766 430.219 120.153 431.072ZM138.163 430.4C139.422 431.68 141.416 432.32 144.147 432.32C145.811 432.32 147.294 432.053 148.595 431.52V430.08C147.272 430.613 145.907 430.88 144.499 430.88C142.174 430.88 140.542 430.453 139.603 429.6C138.664 428.725 138.152 427.307 138.067 425.344H149.587V422.592C149.587 421.461 149.363 420.437 148.915 419.52C148.488 418.603 147.816 417.877 146.899 417.344C145.982 416.789 144.787 416.512 143.315 416.512C140.84 416.512 139.048 417.205 137.939 418.592C136.851 419.979 136.307 421.888 136.307 424.32C136.307 427.072 136.926 429.099 138.163 430.4ZM147.987 423.968H138.067C138.067 422.048 138.44 420.576 139.187 419.552C139.955 418.507 141.342 417.984 143.347 417.984C144.99 417.984 146.174 418.389 146.899 419.2C147.624 420.011 147.987 421.12 147.987 422.528V423.968ZM154.072 416.832V432H155.832V420.352C156.259 420.032 156.792 419.723 157.432 419.424C158.093 419.104 158.776 418.816 159.48 418.56C160.205 418.304 160.877 418.101 161.496 417.952V416.512C160.515 416.725 159.512 417.045 158.488 417.472C157.485 417.899 156.589 418.389 155.8 418.944L155.608 416.832H154.072ZM164.791 416.832V432H166.519V420.192C167.201 419.573 167.991 419.051 168.887 418.624C169.783 418.197 170.7 417.984 171.639 417.984C173.047 417.984 173.996 418.315 174.487 418.976C174.977 419.616 175.223 420.661 175.223 422.112V432H176.919V422.08C176.919 421.739 176.897 421.376 176.855 420.992C176.812 420.587 176.759 420.235 176.695 419.936C177.292 419.296 178.017 418.816 178.871 418.496C179.724 418.155 180.631 417.984 181.591 417.984C182.977 417.984 183.991 418.283 184.631 418.88C185.292 419.456 185.623 420.501 185.623 422.016V432H187.351V421.856C187.351 420.021 186.924 418.677 186.071 417.824C185.239 416.949 183.969 416.512 182.263 416.512C180.919 416.512 179.767 416.725 178.807 417.152C177.847 417.557 177.004 418.069 176.279 418.688C175.98 418.005 175.511 417.472 174.871 417.088C174.231 416.704 173.324 416.512 172.151 416.512C171.105 416.512 170.103 416.704 169.143 417.088C168.204 417.472 167.319 418.005 166.487 418.688L166.327 416.832H164.791ZM193.493 431.872C194.304 432.171 195.189 432.32 196.149 432.32C197.6 432.32 198.805 432.139 199.765 431.776C200.725 431.413 201.557 430.859 202.261 430.112L202.421 432H203.861V421.952C203.861 420.011 203.36 418.624 202.357 417.792C201.376 416.939 199.84 416.512 197.749 416.512C196.747 416.512 195.797 416.587 194.901 416.736C194.027 416.885 193.259 417.088 192.597 417.344V418.848C193.323 418.592 194.091 418.389 194.901 418.24C195.712 418.091 196.555 418.016 197.429 418.016C198.731 418.016 199.712 418.144 200.373 418.4C201.056 418.656 201.525 419.083 201.781 419.68C202.037 420.256 202.165 421.024 202.165 421.984V423.424H196.501C194.453 423.424 193.003 423.851 192.149 424.704C191.296 425.536 190.869 426.624 190.869 427.968C190.869 428.971 191.104 429.803 191.573 430.464C192.064 431.104 192.704 431.573 193.493 431.872ZM199.797 430.272C198.88 430.656 197.813 430.848 196.597 430.848C195.36 430.848 194.379 430.635 193.653 430.208C192.949 429.76 192.597 429.013 192.597 427.968C192.597 426.944 192.885 426.165 193.461 425.632C194.037 425.099 195.072 424.832 196.565 424.832H202.165V428.48C201.504 429.269 200.715 429.867 199.797 430.272ZM208.509 416.832V432H210.269V420.192C210.952 419.531 211.741 418.997 212.637 418.592C213.555 418.187 214.547 417.984 215.613 417.984C217.32 417.984 218.472 418.283 219.069 418.88C219.688 419.477 219.997 420.523 219.997 422.016V432H221.757V421.984C221.757 420.085 221.331 418.699 220.477 417.824C219.624 416.949 218.248 416.512 216.349 416.512C214.984 416.512 213.811 416.715 212.829 417.12C211.848 417.525 210.973 418.048 210.205 418.688L210.045 416.832H208.509ZM229.256 410.976H227.24V412.896H229.256V410.976ZM227.464 418.304V432H229.224V416.832H225.288L225.096 418.304H227.464ZM235.289 430.784C236.227 431.808 237.603 432.32 239.417 432.32C240.739 432.32 241.881 432.128 242.841 431.744C243.801 431.339 244.654 430.805 245.401 430.144L245.561 432H247.129V416.832H245.369V428.672C244.729 429.312 243.961 429.845 243.065 430.272C242.19 430.677 241.219 430.88 240.153 430.88C238.595 430.88 237.454 430.517 236.729 429.792C236.003 429.045 235.641 427.947 235.641 426.496V416.832H233.881V426.432C233.881 428.309 234.35 429.76 235.289 430.784ZM251.916 416.832V432H253.644V420.192C254.326 419.573 255.116 419.051 256.012 418.624C256.908 418.197 257.825 417.984 258.764 417.984C260.172 417.984 261.121 418.315 261.612 418.976C262.102 419.616 262.348 420.661 262.348 422.112V432H264.044V422.08C264.044 421.739 264.022 421.376 263.98 420.992C263.937 420.587 263.884 420.235 263.82 419.936C264.417 419.296 265.142 418.816 265.996 418.496C266.849 418.155 267.756 417.984 268.716 417.984C270.102 417.984 271.116 418.283 271.756 418.88C272.417 419.456 272.748 420.501 272.748 422.016V432H274.476V421.856C274.476 420.021 274.049 418.677 273.196 417.824C272.364 416.949 271.094 416.512 269.388 416.512C268.044 416.512 266.892 416.725 265.932 417.152C264.972 417.557 264.129 418.069 263.404 418.688C263.105 418.005 262.636 417.472 261.996 417.088C261.356 416.704 260.449 416.512 259.276 416.512C258.23 416.512 257.228 416.704 256.268 417.088C255.329 417.472 254.444 418.005 253.612 418.688L253.452 416.832H251.916ZM242.827 135H148.205C145.443 135 143.205 137.239 143.205 140V234.623C143.205 237.384 145.443 239.623 148.205 239.623H242.827C245.589 239.623 247.827 237.384 247.827 234.623V140C247.827 137.239 245.589 135 242.827 135ZM148.205 130C142.682 130 138.205 134.477 138.205 140V234.623C138.205 240.145 142.682 244.623 148.205 244.623H242.827C248.35 244.623 252.827 240.145 252.827 234.623V140C252.827 134.477 248.35 130 242.827 130H148.205ZM172.906 158.905H217.859C220.62 158.905 222.859 161.143 222.859 163.905V208.858C222.859 211.619 220.62 213.858 217.859 213.858H172.906C170.144 213.858 167.906 211.619 167.906 208.858V163.905C167.906 161.143 170.144 158.905 172.906 158.905ZM162.906 163.905C162.906 158.382 167.383 153.905 172.906 153.905H217.859C223.381 153.905 227.859 158.382 227.859 163.905V208.858C227.859 214.381 223.381 218.858 217.859 218.858H172.906C167.383 218.858 162.906 214.381 162.906 208.858V163.905ZM158 272.532C156.619 272.532 155.5 271.413 155.5 270.032V254.828C155.5 253.447 156.619 252.328 158 252.328C159.381 252.328 160.5 253.447 160.5 254.828V270.032C160.5 271.413 159.381 272.532 158 272.532ZM180.5 270.032C180.5 271.413 181.619 272.532 183 272.532C184.381 272.532 185.5 271.413 185.5 270.032V254.828C185.5 253.447 184.381 252.328 183 252.328C181.619 252.328 180.5 253.447 180.5 254.828V270.032ZM208 272.532C206.619 272.532 205.5 271.413 205.5 270.032V254.828C205.5 253.447 206.619 252.328 208 252.328C209.381 252.328 210.5 253.447 210.5 254.828V270.032C210.5 271.413 209.381 272.532 208 272.532ZM230.5 270.032C230.5 271.413 231.619 272.532 233 272.532C234.381 272.532 235.5 271.413 235.5 270.032V254.828C235.5 253.447 234.381 252.328 233 252.328C231.619 252.328 230.5 253.447 230.5 254.828V270.032ZM158 122.705C156.619 122.705 155.5 121.585 155.5 120.205V105C155.5 103.619 156.619 102.5 158 102.5C159.381 102.5 160.5 103.619 160.5 105V120.205C160.5 121.585 159.381 122.705 158 122.705ZM180.5 120.205C180.5 121.585 181.619 122.705 183 122.705C184.381 122.705 185.5 121.585 185.5 120.205V105C185.5 103.619 184.381 102.5 183 102.5C181.619 102.5 180.5 103.619 180.5 105V120.205ZM208 122.705C206.619 122.705 205.5 121.585 205.5 120.205V105C205.5 103.619 206.619 102.5 208 102.5C209.381 102.5 210.5 103.619 210.5 105V120.205C210.5 121.585 209.381 122.705 208 122.705ZM230.5 120.205C230.5 121.585 231.619 122.705 233 122.705C234.381 122.705 235.5 121.585 235.5 120.205V105C235.5 103.619 234.381 102.5 233 102.5C231.619 102.5 230.5 103.619 230.5 105V120.205ZM259.811 150C259.811 148.619 260.931 147.5 262.311 147.5H277.516C278.897 147.5 280.016 148.619 280.016 150C280.016 151.381 278.897 152.5 277.516 152.5H262.311C260.931 152.5 259.811 151.381 259.811 150ZM262.311 172.5C260.931 172.5 259.811 173.619 259.811 175C259.811 176.381 260.931 177.5 262.311 177.5H277.516C278.897 177.5 280.016 176.381 280.016 175C280.016 173.619 278.897 172.5 277.516 172.5H262.311ZM259.811 200C259.811 198.619 260.931 197.5 262.311 197.5H277.516C278.897 197.5 280.016 198.619 280.016 200C280.016 201.381 278.897 202.5 277.516 202.5H262.311C260.931 202.5 259.811 201.381 259.811 200ZM262.311 222.5C260.931 222.5 259.811 223.619 259.811 225C259.811 226.381 260.931 227.5 262.311 227.5H277.516C278.897 227.5 280.016 226.381 280.016 225C280.016 223.619 278.897 222.5 277.516 222.5H262.311ZM110.5 150C110.5 148.619 111.619 147.5 113 147.5H128.205C129.585 147.5 130.705 148.619 130.705 150C130.705 151.381 129.585 152.5 128.205 152.5H113C111.619 152.5 110.5 151.381 110.5 150ZM113 172.5C111.619 172.5 110.5 173.619 110.5 175C110.5 176.381 111.619 177.5 113 177.5H128.205C129.585 177.5 130.705 176.381 130.705 175C130.705 173.619 129.585 172.5 128.205 172.5H113ZM110.5 200C110.5 198.619 111.619 197.5 113 197.5H128.205C129.585 197.5 130.705 198.619 130.705 200C130.705 201.381 129.585 202.5 128.205 202.5H113C111.619 202.5 110.5 201.381 110.5 200ZM113 222.5C111.619 222.5 110.5 223.619 110.5 225C110.5 226.381 111.619 227.5 113 227.5H128.205C129.585 227.5 130.705 226.381 130.705 225C130.705 223.619 129.585 222.5 128.205 222.5H113Z" fill="white"/>
</g>
<defs>
<filter id="filter0_d_230_177" x="0" y="0" width="390" height="540" filterUnits="userSpaceOnUse" color-interpolation-filters="sRGB">
<feFlood flood-opacity="0" result="BackgroundImageFix"/>
<feColorMatrix in="SourceAlpha" type="matrix" values="0 0 0 0 0 0 0 0 0 0 0 0 0 0 0 0 0 0 127 0" result="hardAlpha"/>
<feOffset/>
<feGaussianBlur stdDeviation="10"/>
<feComposite in2="hardAlpha" operator="out"/>
<feColorMatrix type="matrix" values="0 0 0 0 0.149195 0 0 0 0 0.00833333 0 0 0 0 1 0 0 0 1 0"/>
<feBlend mode="normal" in2="BackgroundImageFix" result="effect1_dropShadow_230_177"/>
<feBlend mode="normal" in="SourceGraphic" in2="effect1_dropShadow_230_177" result="shape"/>
</filter>
</defs>
</svg>
