<svg width="390" height="540" viewBox="0 0 390 540" fill="none" xmlns="http://www.w3.org/2000/svg">
<g filter="url(#filter0_d_164_1519)">
<path fill-rule="evenodd" clip-rule="evenodd" d="M60 20C37.9086 20 20 37.9086 20 60V480C20 502.091 37.9086 520 60 520H330C352.091 520 370 502.091 370 480V60C370 37.9086 352.091 20 330 20H60ZM128.147 314.568V397H138.644V359.88H182.163V397H192.66V314.568H182.163V351.688H138.644V314.568H128.147ZM216.027 390.472C221.402 395.677 229.509 398.28 240.346 398.28C243.93 398.28 247.344 397.981 250.587 397.384C253.915 396.787 256.901 395.933 259.547 394.824V386.632C254.341 388.765 248.624 389.832 242.395 389.832C236.848 389.832 232.368 389.277 228.954 388.168C225.626 386.973 223.109 385.053 221.402 382.408C219.781 379.763 218.8 376.136 218.458 371.528H263.387V360.136C263.387 355.357 262.405 351.091 260.443 347.336C258.565 343.496 255.664 340.509 251.738 338.376C247.898 336.157 242.992 335.048 237.018 335.048C226.949 335.048 219.568 337.864 214.874 343.496C210.266 349.043 207.962 356.68 207.962 366.408C207.962 377.245 210.65 385.267 216.027 390.472ZM254.043 363.976H218.458C218.458 357.149 219.781 352.029 222.426 348.616C225.072 345.203 230.021 343.496 237.275 343.496C243.248 343.496 247.514 344.861 250.074 347.592C252.72 350.237 254.043 354.035 254.043 358.984V363.976ZM148.541 432V411.392H150.301V420.992H162.141V411.392H163.901V432H162.141V422.4H150.301V432H148.541ZM175.897 432.32C173.166 432.32 171.172 431.68 169.913 430.4C168.676 429.099 168.057 427.072 168.057 424.32C168.057 421.888 168.601 419.979 169.689 418.592C170.798 417.205 172.59 416.512 175.065 416.512C176.537 416.512 177.732 416.789 178.649 417.344C179.566 417.877 180.238 418.603 180.665 419.52C181.113 420.437 181.337 421.461 181.337 422.592V425.344H169.817C169.902 427.307 170.414 428.725 171.353 429.6C172.292 430.453 173.924 430.88 176.249 430.88C177.657 430.88 179.022 430.613 180.345 430.08V431.52C179.044 432.053 177.561 432.32 175.897 432.32ZM169.817 423.968H179.737V422.528C179.737 421.12 179.374 420.011 178.649 419.2C177.924 418.389 176.74 417.984 175.097 417.984C173.092 417.984 171.705 418.507 170.937 419.552C170.19 420.576 169.817 422.048 169.817 423.968ZM188.638 432.32C187.785 432.32 187.102 432.085 186.59 431.616C186.078 431.147 185.822 430.304 185.822 429.088V410.432H187.582V429.024C187.582 429.707 187.689 430.176 187.902 430.432C188.115 430.688 188.457 430.816 188.926 430.816C189.395 430.816 189.865 430.752 190.334 430.624V432.096C190.057 432.181 189.769 432.235 189.47 432.256C189.171 432.299 188.894 432.32 188.638 432.32ZM194.396 412.896V410.976H196.412V412.896H194.396ZM194.62 432V418.304H192.252L192.444 416.832H196.38V432H194.62ZM206.573 432.32C204.76 432.32 203.384 431.808 202.445 430.784C201.506 429.76 201.037 428.309 201.037 426.432V416.832H202.797V426.496C202.797 427.947 203.16 429.045 203.885 429.792C204.61 430.517 205.752 430.88 207.309 430.88C208.376 430.88 209.346 430.677 210.221 430.272C211.117 429.845 211.885 429.312 212.525 428.672V416.832H214.285V432H212.717L212.557 430.144C211.81 430.805 210.957 431.339 209.997 431.744C209.037 432.128 207.896 432.32 206.573 432.32ZM219.072 432V416.832H220.608L220.768 418.688C221.6 418.005 222.485 417.472 223.424 417.088C224.384 416.704 225.387 416.512 226.432 416.512C227.605 416.512 228.512 416.704 229.152 417.088C229.792 417.472 230.261 418.005 230.56 418.688C231.285 418.069 232.128 417.557 233.088 417.152C234.048 416.725 235.2 416.512 236.544 416.512C238.251 416.512 239.52 416.949 240.352 417.824C241.205 418.677 241.632 420.021 241.632 421.856V432H239.904V422.016C239.904 420.501 239.573 419.456 238.912 418.88C238.272 418.283 237.259 417.984 235.872 417.984C234.912 417.984 234.005 418.155 233.152 418.496C232.299 418.816 231.573 419.296 230.976 419.936C231.04 420.235 231.093 420.587 231.136 420.992C231.179 421.376 231.2 421.739 231.2 422.08V432H229.504V422.112C229.504 420.661 229.259 419.616 228.768 418.976C228.277 418.315 227.328 417.984 225.92 417.984C224.981 417.984 224.064 418.197 223.168 418.624C222.272 419.051 221.483 419.573 220.8 420.192V432H219.072ZM221.641 189.676C238.794 191.461 255.621 176.626 257.895 154.771C260.17 132.917 246.759 114.934 229.606 113.148C212.453 111.363 195.626 126.199 193.351 148.053C191.077 169.908 204.488 187.891 221.641 189.676ZM221.123 194.649C241.693 196.79 260.383 179.168 262.868 155.289C265.354 131.41 250.693 110.316 230.124 108.175C209.554 106.034 190.864 123.657 188.378 147.536C186.151 168.934 197.692 188.096 214.916 193.386L202.969 203.328L202.843 203.433L201.194 204.806L199.862 205.914C199.271 206.406 199.434 207.354 200.156 207.621L201.781 208.22L203.794 208.962L203.948 209.018L208.743 210.786C208.378 211.201 207.969 211.688 207.533 212.242C205.968 214.228 204.024 217.116 202.54 220.703C199.534 227.967 198.466 238.048 205.998 248.95C212.369 258.171 211.258 266.284 208.612 272.196C207.509 274.662 206.129 276.753 204.879 278.364C204.87 278.21 204.86 278.051 204.849 277.888C204.69 275.633 204.263 272.533 203.179 269.152C201.001 262.354 196.139 254.364 185.568 249.984C176.66 246.293 173.71 240.598 172.812 235.974C172.35 233.591 172.421 231.413 172.613 229.824C172.709 229.034 172.833 228.402 172.929 227.978C172.977 227.767 173.018 227.608 173.045 227.51C173.049 227.498 173.052 227.487 173.054 227.477L173.062 227.451L173.074 227.408L173.078 227.394L173.161 227.132L178.011 226.685L178.175 226.67L180.311 226.473L182.036 226.314C182.802 226.244 183.205 225.37 182.76 224.741L181.76 223.327L180.522 221.575L180.427 221.441L171.368 208.63L171.35 208.605C181.918 205.589 190.724 197.091 195.58 185.744C194.282 184.394 193.071 182.932 191.956 181.372C186.892 195.497 175.323 204.799 162.823 204.799C146.076 204.799 131 188.101 131 165.475C131 142.849 146.076 126.15 162.823 126.15C171.546 126.15 179.815 130.68 185.737 138.217C186.299 136.352 186.959 134.545 187.709 132.803C181.155 125.567 172.418 121.15 162.823 121.15C142.486 121.15 126 140.995 126 165.475C126 189.955 142.486 209.799 162.823 209.799C163.68 209.799 164.53 209.764 165.372 209.695L159.053 223.411L158.985 223.56L158.087 225.509L157.362 227.082C157.04 227.781 157.596 228.567 158.362 228.496L160.087 228.337L162.224 228.14L162.387 228.125L167.898 227.617C167.811 228.076 167.723 228.616 167.649 229.224C167.412 231.185 167.317 233.906 167.904 236.926C169.104 243.108 173.113 250.235 183.654 254.603C192.532 258.282 196.564 264.892 198.418 270.678C199.35 273.589 199.723 276.278 199.861 278.239C199.93 279.216 199.94 280.004 199.933 280.537C199.93 280.803 199.922 281.005 199.916 281.135C199.913 281.2 199.91 281.246 199.908 281.273L199.907 281.296L199.907 281.299L199.907 281.3L199.907 281.3L199.907 281.302L199.711 283.789L200.005 283.812L203.033 287.321L204.926 285.688L203.547 284.09C204.926 285.688 204.927 285.687 204.928 285.686L204.931 285.684L204.937 285.679L204.954 285.664L204.978 285.643L205.009 285.615C205.054 285.575 205.116 285.519 205.194 285.448C205.348 285.305 205.565 285.101 205.83 284.838C206.359 284.312 207.087 283.548 207.909 282.57C209.546 280.621 211.591 277.781 213.176 274.239C216.391 267.055 217.661 257.035 210.112 246.108C203.724 236.863 204.671 228.628 207.16 222.614C208.423 219.562 210.095 217.069 211.461 215.335C212.141 214.472 212.737 213.806 213.156 213.364C213.365 213.143 213.529 212.978 213.637 212.873C213.69 212.82 213.73 212.782 213.753 212.76L213.777 212.738L213.778 212.737L213.779 212.736L213.852 212.669L218.671 214.445L218.824 214.502L220.838 215.244L222.463 215.843C223.185 216.109 223.925 215.494 223.794 214.735L223.5 213.028L223.136 210.914L223.109 210.752L220.447 195.289L220.419 195.127L220.321 194.556C220.587 194.59 220.855 194.621 221.123 194.649ZM164.803 222.881L168.952 213.874L174.678 221.971L164.803 222.881ZM216.009 198.982L208.386 205.325L217.691 208.755L216.009 198.982Z" fill="white"/>
</g>
<defs>
<filter id="filter0_d_164_1519" x="0" y="0" width="390" height="540" filterUnits="userSpaceOnUse" color-interpolation-filters="sRGB">
<feFlood flood-opacity="0" result="BackgroundImageFix"/>
<feColorMatrix in="SourceAlpha" type="matrix" values="0 0 0 0 0 0 0 0 0 0 0 0 0 0 0 0 0 0 127 0" result="hardAlpha"/>
<feOffset/>
<feGaussianBlur stdDeviation="10"/>
<feComposite in2="hardAlpha" operator="out"/>
<feColorMatrix type="matrix" values="0 0 0 0 1 0 0 0 0 0.233333 0 0 0 0 0.556367 0 0 0 1 0"/>
<feBlend mode="normal" in2="BackgroundImageFix" result="effect1_dropShadow_164_1519"/>
<feBlend mode="normal" in="SourceGraphic" in2="effect1_dropShadow_164_1519" result="shape"/>
</filter>
</defs>
</svg>
