<svg width="390" height="540" viewBox="0 0 390 540" fill="none" xmlns="http://www.w3.org/2000/svg">
<g filter="url(#filter0_d_164_2104)">
<path fill-rule="evenodd" clip-rule="evenodd" d="M60 20C37.9086 20 20 37.9086 20 60V480C20 502.091 37.9086 520 60 520H330C352.091 520 370 502.091 370 480V60C370 37.9086 352.091 20 330 20H60ZM162.273 314.568V397H172.768V359.88H216.288V397H226.785V314.568H216.288V351.688H172.768V314.568H162.273ZM130.588 432V411.392H132.348V420.992H144.188V411.392H145.948V432H144.188V422.4H132.348V432H130.588ZM151.891 437.632C151.443 437.632 151.027 437.6 150.643 437.536C150.28 437.493 149.928 437.408 149.587 437.28V435.808C149.949 435.936 150.28 436.021 150.579 436.064C150.899 436.107 151.219 436.128 151.539 436.128C152.285 436.128 152.883 435.957 153.331 435.616C153.779 435.296 154.173 434.816 154.515 434.176C154.856 433.557 155.219 432.8 155.603 431.904L148.979 416.832H150.803L156.499 430.016L162.419 416.832H164.211L157.651 431.52C157.139 432.693 156.627 433.739 156.115 434.656C155.624 435.573 155.048 436.299 154.387 436.832C153.725 437.365 152.893 437.632 151.891 437.632ZM172.45 432.32C171.128 432.32 169.954 432.053 168.93 431.52C167.906 430.987 167.106 430.155 166.53 429.024C165.954 427.872 165.666 426.379 165.666 424.544C165.666 421.792 166.285 419.765 167.522 418.464C168.781 417.163 170.477 416.512 172.61 416.512C173.656 416.512 174.584 416.64 175.394 416.896C176.226 417.131 177.026 417.536 177.794 418.112V410.432H179.554V432H178.082L177.922 430.304C177.197 430.987 176.397 431.499 175.522 431.84C174.648 432.16 173.624 432.32 172.45 432.32ZM172.866 430.88C174.872 430.88 176.514 430.197 177.794 428.832V419.648C177.197 419.136 176.525 418.731 175.778 418.432C175.032 418.133 174.136 417.984 173.09 417.984C171.213 417.984 169.794 418.507 168.834 419.552C167.874 420.597 167.394 422.261 167.394 424.544C167.394 426.699 167.842 428.299 168.738 429.344C169.634 430.368 171.01 430.88 172.866 430.88ZM184.369 432V416.832H185.905L186.097 418.944C186.886 418.389 187.782 417.899 188.785 417.472C189.809 417.045 190.811 416.725 191.793 416.512V417.952C191.174 418.101 190.502 418.304 189.777 418.56C189.073 418.816 188.39 419.104 187.729 419.424C187.089 419.723 186.555 420.032 186.129 420.352V432H184.369ZM201.055 432.32C198.495 432.32 196.649 431.648 195.518 430.304C194.388 428.96 193.822 426.997 193.822 424.416C193.822 421.856 194.398 419.904 195.551 418.56C196.702 417.195 198.537 416.512 201.055 416.512C203.593 416.512 205.439 417.195 206.59 418.56C207.743 419.904 208.318 421.856 208.318 424.416C208.318 426.997 207.743 428.96 206.59 430.304C205.46 431.648 203.615 432.32 201.055 432.32ZM201.055 430.816C203.081 430.816 204.5 430.293 205.311 429.248C206.143 428.203 206.559 426.592 206.559 424.416C206.559 422.261 206.143 420.661 205.311 419.616C204.479 418.571 203.06 418.048 201.055 418.048C199.049 418.048 197.63 418.571 196.798 419.616C195.967 420.661 195.551 422.261 195.551 424.416C195.551 426.592 195.967 428.203 196.798 429.248C197.63 430.293 199.049 430.816 201.055 430.816ZM218.254 437.632C217.123 437.632 216.046 437.568 215.022 437.44C213.998 437.333 213.112 437.141 212.366 436.864V435.36C213.24 435.637 214.179 435.84 215.182 435.968C216.206 436.117 217.208 436.192 218.19 436.192C219.854 436.192 221.123 436.064 221.998 435.808C222.872 435.552 223.31 434.944 223.31 433.984C223.31 433.259 223.086 432.747 222.638 432.448C222.19 432.171 221.358 432.032 220.142 432.032H216.014C214.606 432.032 213.571 431.808 212.91 431.36C212.248 430.912 211.918 430.251 211.918 429.376C211.918 428.757 212.142 428.181 212.59 427.648C213.038 427.115 213.688 426.741 214.542 426.528C213.582 426.144 212.899 425.547 212.494 424.736C212.11 423.925 211.918 422.997 211.918 421.952C211.918 420.053 212.44 418.677 213.486 417.824C214.531 416.949 216.152 416.512 218.35 416.512C218.798 416.512 219.246 416.555 219.694 416.64C220.163 416.704 220.536 416.768 220.814 416.832H226.158L226.094 418.144H223.15C223.704 418.613 224.099 419.179 224.334 419.84C224.59 420.501 224.718 421.205 224.718 421.952C224.718 423.68 224.227 425.003 223.246 425.92C222.286 426.816 220.76 427.264 218.67 427.264C218.328 427.264 217.998 427.253 217.678 427.232C217.358 427.189 217.006 427.136 216.622 427.072C215.832 427.157 215.139 427.381 214.542 427.744C213.944 428.085 213.646 428.565 213.646 429.184C213.646 429.653 213.827 429.995 214.19 430.208C214.574 430.421 215.267 430.528 216.27 430.528H220.526C223.555 430.528 225.07 431.648 225.07 433.888C225.07 435.381 224.472 436.373 223.278 436.864C222.083 437.376 220.408 437.632 218.254 437.632ZM218.35 425.888C220.099 425.888 221.304 425.589 221.966 424.992C222.648 424.395 222.99 423.381 222.99 421.952C222.99 420.523 222.627 419.488 221.902 418.848C221.198 418.208 220.014 417.888 218.35 417.888C216.686 417.888 215.491 418.197 214.766 418.816C214.04 419.435 213.678 420.48 213.678 421.952C213.678 423.317 214.019 424.32 214.702 424.96C215.406 425.579 216.622 425.888 218.35 425.888ZM236.413 432.32C233.682 432.32 231.687 431.68 230.428 430.4C229.191 429.099 228.572 427.072 228.572 424.32C228.572 421.888 229.117 419.979 230.204 418.592C231.314 417.205 233.106 416.512 235.581 416.512C237.053 416.512 238.247 416.789 239.165 417.344C240.082 417.877 240.754 418.603 241.18 419.52C241.628 420.437 241.853 421.461 241.853 422.592V425.344H230.333C230.418 427.307 230.93 428.725 231.868 429.6C232.807 430.453 234.439 430.88 236.764 430.88C238.173 430.88 239.538 430.613 240.861 430.08V431.52C239.559 432.053 238.077 432.32 236.413 432.32ZM230.333 423.968H240.253V422.528C240.253 421.12 239.89 420.011 239.165 419.2C238.439 418.389 237.255 417.984 235.613 417.984C233.607 417.984 232.221 418.507 231.452 419.552C230.706 420.576 230.333 422.048 230.333 423.968ZM246.337 432V416.832H247.874L248.033 418.688C248.801 418.048 249.676 417.525 250.658 417.12C251.639 416.715 252.812 416.512 254.178 416.512C256.076 416.512 257.452 416.949 258.305 417.824C259.159 418.699 259.585 420.085 259.585 421.984V432H257.826V422.016C257.826 420.523 257.516 419.477 256.898 418.88C256.3 418.283 255.148 417.984 253.441 417.984C252.375 417.984 251.383 418.187 250.465 418.592C249.57 418.997 248.78 419.531 248.098 420.192V432H246.337ZM214 174.5C214 184.717 205.717 193 195.5 193C185.283 193 177 184.717 177 174.5C177 164.283 185.283 156 195.5 156C205.717 156 214 164.283 214 174.5ZM221 174.5C221 188.583 209.583 200 195.5 200C181.417 200 170 188.583 170 174.5C170 160.417 181.417 149 195.5 149C209.583 149 221 160.417 221 174.5ZM234.5 175C234.5 173.067 236.067 171.5 238 171.5H263C264.933 171.5 266.5 173.067 266.5 175C266.5 176.933 264.933 178.5 263 178.5H238C236.067 178.5 234.5 176.933 234.5 175ZM244.674 120.556C246.041 119.19 248.257 119.19 249.624 120.556C250.991 121.923 250.991 124.139 249.624 125.506L231.725 143.405C230.358 144.772 228.142 144.772 226.775 143.405C225.409 142.038 225.409 139.822 226.775 138.455L244.674 120.556ZM164.405 204.931C163.038 203.565 160.822 203.565 159.455 204.931L141.557 222.83C140.19 224.197 140.19 226.413 141.557 227.78C142.924 229.147 145.14 229.147 146.506 227.78L164.405 209.881C165.772 208.514 165.772 206.298 164.405 204.931ZM231.725 205.775C230.358 204.408 228.142 204.408 226.775 205.775C225.408 207.142 225.408 209.358 226.775 210.725L244.674 228.624C246.041 229.99 248.257 229.99 249.624 228.624C250.99 227.257 250.99 225.041 249.624 223.674L231.725 205.775ZM141.556 120.556C142.923 119.19 145.139 119.19 146.506 120.556L164.405 138.455C165.772 139.822 165.772 142.038 164.405 143.405C163.038 144.772 160.822 144.772 159.455 143.405L141.556 125.506C140.19 124.139 140.19 121.923 141.556 120.556ZM128 171.5C126.067 171.5 124.5 173.067 124.5 175C124.5 176.933 126.067 178.5 128 178.5H153C154.933 178.5 156.5 176.933 156.5 175C156.5 173.067 154.933 171.5 153 171.5H128ZM196 213.5C197.933 213.5 199.5 215.067 199.5 217V242C199.5 243.933 197.933 245.5 196 245.5C194.067 245.5 192.5 243.933 192.5 242V217C192.5 215.067 194.067 213.5 196 213.5ZM199.5 107C199.5 105.067 197.933 103.5 196 103.5C194.067 103.5 192.5 105.067 192.5 107V132C192.5 133.933 194.067 135.5 196 135.5C197.933 135.5 199.5 133.933 199.5 132V107Z" fill="white"/>
</g>
<defs>
<filter id="filter0_d_164_2104" x="0" y="0" width="390" height="540" filterUnits="userSpaceOnUse" color-interpolation-filters="sRGB">
<feFlood flood-opacity="0" result="BackgroundImageFix"/>
<feColorMatrix in="SourceAlpha" type="matrix" values="0 0 0 0 0 0 0 0 0 0 0 0 0 0 0 0 0 0 127 0" result="hardAlpha"/>
<feOffset/>
<feGaussianBlur stdDeviation="10"/>
<feComposite in2="hardAlpha" operator="out"/>
<feColorMatrix type="matrix" values="0 0 0 0 1 0 0 0 0 0.233333 0 0 0 0 0.556367 0 0 0 1 0"/>
<feBlend mode="normal" in2="BackgroundImageFix" result="effect1_dropShadow_164_2104"/>
<feBlend mode="normal" in="SourceGraphic" in2="effect1_dropShadow_164_2104" result="shape"/>
</filter>
</defs>
</svg>
