<svg width="390" height="540" viewBox="0 0 390 540" fill="none" xmlns="http://www.w3.org/2000/svg">
<g filter="url(#filter0_d_193_521)">
<path fill-rule="evenodd" clip-rule="evenodd" d="M20 60C20 37.9086 37.9086 20 60 20H330C352.091 20 370 37.9086 370 60V480C370 502.091 352.091 520 330 520H60C37.9086 520 20 502.091 20 480V60ZM152.273 397V314.568H162.768V397H152.273ZM180.648 397V336.328H190.12L190.76 343.24C193.661 340.851 197.031 338.888 200.872 337.352C204.797 335.816 209.277 335.048 214.311 335.048C221.992 335.048 227.581 336.84 231.079 340.424C234.578 344.008 236.327 349.64 236.327 357.32V397H225.831V357.704C225.831 352.413 224.765 348.744 222.632 346.696C220.498 344.563 216.402 343.496 210.344 343.496C206.589 343.496 203.048 344.179 199.719 345.544C196.391 346.909 193.533 348.787 191.143 351.176V397H180.648ZM149.462 411.392V432H151.223V411.392H149.462ZM156.025 416.832V432H157.785V420.192C158.468 419.531 159.257 418.997 160.153 418.592C161.07 418.187 162.062 417.984 163.129 417.984C164.836 417.984 165.988 418.283 166.585 418.88C167.204 419.477 167.513 420.523 167.513 422.016V432H169.273V421.984C169.273 420.085 168.846 418.699 167.993 417.824C167.14 416.949 165.764 416.512 163.865 416.512C162.5 416.512 161.326 416.715 160.345 417.12C159.364 417.525 158.489 418.048 157.721 418.688L157.561 416.832H156.025ZM176.212 431.52C177.236 432.053 178.409 432.32 179.732 432.32C180.905 432.32 181.929 432.16 182.803 431.84C183.678 431.499 184.478 430.987 185.204 430.304L185.363 432H186.835V410.432H185.076V418.112C184.307 417.536 183.508 417.131 182.676 416.896C181.865 416.64 180.937 416.512 179.891 416.512C177.758 416.512 176.062 417.163 174.803 418.464C173.566 419.765 172.947 421.792 172.947 424.544C172.947 426.379 173.236 427.872 173.811 429.024C174.387 430.155 175.188 430.987 176.212 431.52ZM185.076 428.832C183.796 430.197 182.153 430.88 180.148 430.88C178.292 430.88 176.915 430.368 176.02 429.344C175.124 428.299 174.676 426.699 174.676 424.544C174.676 422.261 175.156 420.597 176.115 419.552C177.076 418.507 178.494 417.984 180.372 417.984C181.417 417.984 182.313 418.133 183.059 418.432C183.806 418.731 184.478 419.136 185.076 419.648V428.832ZM193.474 410.976V412.896H195.49V410.976H193.474ZM193.698 418.304V432H195.458V416.832H191.522L191.33 418.304H193.698ZM201.523 430.784C202.462 431.808 203.838 432.32 205.651 432.32C206.974 432.32 208.115 432.128 209.075 431.744C210.035 431.339 210.888 430.805 211.635 430.144L211.795 432H213.363V416.832H211.603V428.672C210.963 429.312 210.195 429.845 209.299 430.272C208.424 430.677 207.454 430.88 206.387 430.88C204.83 430.88 203.688 430.517 202.963 429.792C202.238 429.045 201.875 427.947 201.875 426.496V416.832H200.115V426.432C200.115 428.309 200.584 429.76 201.523 430.784ZM218.15 416.832V432H219.878V420.192C220.561 419.573 221.35 419.051 222.246 418.624C223.142 418.197 224.059 417.984 224.998 417.984C226.406 417.984 227.355 418.315 227.846 418.976C228.337 419.616 228.582 420.661 228.582 422.112V432H230.278V422.08C230.278 421.739 230.257 421.376 230.214 420.992C230.171 420.587 230.118 420.235 230.054 419.936C230.651 419.296 231.377 418.816 232.23 418.496C233.083 418.155 233.99 417.984 234.95 417.984C236.337 417.984 237.35 418.283 237.99 418.88C238.651 419.456 238.982 420.501 238.982 422.016V432H240.71V421.856C240.71 420.021 240.283 418.677 239.43 417.824C238.598 416.949 237.329 416.512 235.622 416.512C234.278 416.512 233.126 416.725 232.166 417.152C231.206 417.557 230.363 418.069 229.638 418.688C229.339 418.005 228.87 417.472 228.23 417.088C227.59 416.704 226.683 416.512 225.51 416.512C224.465 416.512 223.462 416.704 222.502 417.088C221.563 417.472 220.678 418.005 219.846 418.688L219.686 416.832H218.15ZM128 111V194.795H262V111H128ZM120 98C117.239 98 115 100.239 115 103V202.795C115 205.556 117.239 207.795 120 207.795H185.944V226.828H170.58C167.819 226.828 165.58 229.066 165.58 231.828V236.467C165.58 239.228 167.819 241.467 170.58 241.467H218.762C221.524 241.467 223.762 239.228 223.762 236.467V231.828C223.762 229.066 221.524 226.828 218.762 226.828H204.126V207.795H270C272.761 207.795 275 205.556 275 202.795V103C275 100.239 272.761 98 270 98H120ZM142.565 150.077C141.008 148.51 138.475 148.502 136.908 150.059C135.341 151.616 135.333 154.149 136.89 155.716L165.981 184.995C167.538 186.562 170.07 186.57 171.638 185.013C173.205 183.456 173.213 180.923 171.656 179.356L142.565 150.077ZM140.544 124.44C142.111 122.883 144.644 122.891 146.201 124.458L197.11 175.696C198.667 177.263 198.659 179.796 197.092 181.353C195.525 182.91 192.992 182.902 191.435 181.335L140.526 130.097C138.969 128.53 138.977 125.997 140.544 124.44ZM84.326 260.984V270H90.4719V268.824H85.8519V260.984H84.326ZM95.9492 260.718V261.978H97.6152V260.718H95.9492ZM96.0752 264.526V270H97.6012V263.364H95.2072L95.0672 264.526H96.0752ZM108.887 272.94C109.186 273.239 109.629 273.388 110.217 273.388C110.441 273.388 110.633 273.374 110.791 273.346C110.95 273.318 111.109 273.276 111.267 273.22V272.114C111.183 272.133 111.085 272.151 110.973 272.17C110.871 272.189 110.773 272.198 110.679 272.198C110.399 272.198 110.208 272.142 110.105 272.03C110.012 271.918 109.965 271.717 109.965 271.428V263.364H108.663L108.565 264.022C108.267 263.751 107.94 263.551 107.585 263.42C107.24 263.289 106.825 263.224 106.339 263.224C105.406 263.224 104.664 263.523 104.113 264.12C103.572 264.708 103.301 265.599 103.301 266.794C103.301 267.989 103.577 268.847 104.127 269.37C104.678 269.883 105.429 270.14 106.381 270.14C107.184 270.14 107.87 269.953 108.439 269.58V271.54C108.439 272.175 108.589 272.641 108.887 272.94ZM107.725 268.838C107.455 268.941 107.137 268.992 106.773 268.992C106.12 268.992 105.635 268.829 105.317 268.502C105 268.175 104.841 267.601 104.841 266.78C104.841 265.996 104.986 265.403 105.275 265.002C105.574 264.591 106.064 264.386 106.745 264.386C107.417 264.386 107.982 264.619 108.439 265.086V268.404C108.234 268.581 107.996 268.726 107.725 268.838ZM116.49 269.482C116.919 269.921 117.531 270.14 118.324 270.14C118.847 270.14 119.313 270.061 119.724 269.902C120.135 269.743 120.489 269.547 120.788 269.314L120.858 270H122.244V263.364H120.732V268.222C120.499 268.455 120.223 268.642 119.906 268.782C119.589 268.922 119.243 268.992 118.87 268.992C118.366 268.992 117.993 268.875 117.75 268.642C117.507 268.409 117.386 268.045 117.386 267.55V263.364H115.86V267.55C115.86 268.399 116.07 269.043 116.49 269.482ZM128.784 260.718V261.978H130.45V260.718H128.784ZM128.91 264.526V270H130.436V263.364H128.042L127.902 264.526H128.91ZM137.578 269.832C138.035 270.037 138.562 270.14 139.16 270.14C139.645 270.14 140.065 270.075 140.42 269.944C140.774 269.813 141.101 269.613 141.4 269.342L141.498 270H142.8V260.564H141.274V263.798C140.984 263.602 140.681 263.457 140.364 263.364C140.056 263.271 139.701 263.224 139.3 263.224C138.693 263.224 138.147 263.364 137.662 263.644C137.186 263.924 136.812 264.339 136.542 264.89C136.271 265.431 136.136 266.099 136.136 266.892C136.136 267.695 136.262 268.334 136.514 268.81C136.766 269.286 137.12 269.627 137.578 269.832ZM141.274 268.292C140.816 268.759 140.247 268.992 139.566 268.992C138.912 268.992 138.432 268.843 138.124 268.544C137.825 268.245 137.676 267.699 137.676 266.906C137.676 266.085 137.839 265.459 138.166 265.03C138.492 264.601 138.978 264.386 139.622 264.386C140.284 264.386 140.835 264.582 141.274 264.974V268.292ZM157.045 268.922C157.81 269.734 158.935 270.14 160.419 270.14C160.941 270.14 161.417 270.107 161.847 270.042C162.285 269.977 162.691 269.883 163.065 269.762V268.418C162.682 268.567 162.271 268.679 161.833 268.754C161.403 268.819 160.974 268.852 160.545 268.852C159.49 268.852 158.711 268.581 158.207 268.04C157.703 267.489 157.451 266.687 157.451 265.632C157.451 264.503 157.679 263.639 158.137 263.042C158.603 262.445 159.397 262.146 160.517 262.146C160.983 262.146 161.427 262.188 161.847 262.272C162.276 262.347 162.677 262.459 163.051 262.608V261.278C162.677 261.147 162.271 261.045 161.833 260.97C161.403 260.886 160.927 260.844 160.405 260.844C159.378 260.844 158.533 261.04 157.871 261.432C157.208 261.815 156.713 262.365 156.387 263.084C156.069 263.793 155.911 264.643 155.911 265.632C155.911 267.013 156.289 268.11 157.045 268.922ZM168.744 263.364V270H170.27V265.212C170.457 265.1 170.686 264.993 170.956 264.89C171.227 264.778 171.512 264.68 171.81 264.596C172.118 264.503 172.403 264.433 172.664 264.386V263.224C172.235 263.289 171.801 263.406 171.362 263.574C170.924 263.742 170.546 263.929 170.228 264.134L170.144 263.364H168.744ZM177.693 272.268C178.048 272.399 178.477 272.464 178.981 272.464C179.485 272.464 179.91 272.343 180.255 272.1C180.61 271.857 180.918 271.521 181.179 271.092C181.45 270.672 181.702 270.182 181.935 269.622L184.637 263.364H183.069L180.913 268.292L178.785 263.364H177.203L180.157 269.916C179.999 270.233 179.849 270.49 179.709 270.686C179.579 270.891 179.425 271.041 179.247 271.134C179.07 271.227 178.837 271.274 178.547 271.274C178.407 271.274 178.267 271.265 178.127 271.246C177.997 271.227 177.852 271.19 177.693 271.134V272.268ZM190.318 270.042C190.738 270.107 191.176 270.14 191.634 270.14C192.539 270.14 193.23 269.981 193.706 269.664C194.182 269.337 194.42 268.847 194.42 268.194C194.42 267.802 194.35 267.485 194.21 267.242C194.079 266.99 193.86 266.775 193.552 266.598C193.244 266.421 192.828 266.253 192.306 266.094C191.736 265.907 191.321 265.763 191.06 265.66C190.808 265.548 190.682 265.361 190.682 265.1C190.682 264.848 190.803 264.68 191.046 264.596C191.298 264.512 191.666 264.47 192.152 264.47C192.422 264.47 192.712 264.498 193.02 264.554C193.337 264.61 193.626 264.689 193.888 264.792V263.518C193.645 263.434 193.351 263.364 193.006 263.308C192.66 263.252 192.296 263.224 191.914 263.224C190.943 263.224 190.238 263.392 189.8 263.728C189.361 264.055 189.142 264.521 189.142 265.128C189.142 265.52 189.221 265.837 189.38 266.08C189.538 266.323 189.762 266.523 190.052 266.682C190.341 266.831 190.682 266.971 191.074 267.102C191.484 267.233 191.82 267.345 192.082 267.438C192.352 267.531 192.553 267.634 192.684 267.746C192.824 267.858 192.894 268.012 192.894 268.208C192.894 268.479 192.782 268.661 192.558 268.754C192.334 268.847 191.96 268.894 191.438 268.894C191.092 268.894 190.728 268.861 190.346 268.796C189.963 268.731 189.613 268.637 189.296 268.516V269.804C189.566 269.897 189.907 269.977 190.318 270.042ZM200.849 269.58C201.203 269.953 201.735 270.14 202.445 270.14C202.967 270.14 203.411 270.065 203.775 269.916V268.838C203.495 268.931 203.229 268.978 202.977 268.978C202.575 268.978 202.286 268.903 202.109 268.754C201.931 268.595 201.843 268.325 201.843 267.942V264.554H203.509L203.607 263.364H201.843V261.376L200.331 261.838V263.364H199.351V264.554H200.331V268.026C200.331 268.679 200.503 269.197 200.849 269.58ZM210.038 269.916C210.402 270.065 210.794 270.14 211.214 270.14C211.811 270.14 212.306 270.07 212.698 269.93C213.099 269.79 213.435 269.589 213.706 269.328L213.804 270H215.106V265.73C215.106 264.843 214.849 264.204 214.336 263.812C213.832 263.42 213.095 263.224 212.124 263.224C211.629 263.224 211.167 263.261 210.738 263.336C210.309 263.411 209.945 263.509 209.646 263.63V264.764C210.327 264.531 211.06 264.414 211.844 264.414C212.339 264.414 212.712 264.456 212.964 264.54C213.225 264.624 213.403 264.759 213.496 264.946C213.599 265.133 213.65 265.385 213.65 265.702V265.996H211.522C210.617 265.996 209.945 266.192 209.506 266.584C209.077 266.967 208.862 267.475 208.862 268.11C208.862 268.558 208.969 268.936 209.184 269.244C209.399 269.543 209.683 269.767 210.038 269.916ZM212.81 268.824C212.474 268.973 212.077 269.048 211.62 269.048C211.191 269.048 210.859 268.973 210.626 268.824C210.393 268.675 210.276 268.427 210.276 268.082C210.276 267.727 210.374 267.466 210.57 267.298C210.775 267.121 211.102 267.032 211.55 267.032H213.65V268.194C213.435 268.455 213.155 268.665 212.81 268.824ZM221.418 269.748C221.698 270.009 222.109 270.14 222.65 270.14C222.865 270.14 223.052 270.126 223.21 270.098C223.378 270.079 223.551 270.037 223.728 269.972V268.866C223.523 268.922 223.308 268.95 223.084 268.95C222.898 268.95 222.758 268.903 222.664 268.81C222.571 268.717 222.524 268.539 222.524 268.278V260.564H220.998V268.418C220.998 269.034 221.138 269.477 221.418 269.748ZM236.549 260.984V270H240.203C241.556 270 242.55 269.645 243.185 268.936C243.819 268.217 244.137 267.088 244.137 265.548C244.137 263.915 243.815 262.748 243.171 262.048C242.527 261.339 241.537 260.984 240.203 260.984H236.549ZM239.965 268.824H238.075V262.174H239.965C240.599 262.174 241.108 262.272 241.491 262.468C241.883 262.664 242.167 263.005 242.345 263.49C242.522 263.975 242.611 264.661 242.611 265.548C242.611 266.435 242.513 267.116 242.317 267.592C242.121 268.068 241.827 268.395 241.435 268.572C241.043 268.74 240.553 268.824 239.965 268.824ZM250.045 260.718V261.978H251.711V260.718H250.045ZM250.171 264.526V270H251.697V263.364H249.303L249.163 264.526H250.171ZM258.573 270.042C258.993 270.107 259.432 270.14 259.889 270.14C260.794 270.14 261.485 269.981 261.961 269.664C262.437 269.337 262.675 268.847 262.675 268.194C262.675 267.802 262.605 267.485 262.465 267.242C262.334 266.99 262.115 266.775 261.807 266.598C261.499 266.421 261.084 266.253 260.561 266.094C259.992 265.907 259.576 265.763 259.315 265.66C259.063 265.548 258.937 265.361 258.937 265.1C258.937 264.848 259.058 264.68 259.301 264.596C259.553 264.512 259.922 264.47 260.407 264.47C260.678 264.47 260.967 264.498 261.275 264.554C261.592 264.61 261.882 264.689 262.143 264.792V263.518C261.9 263.434 261.606 263.364 261.261 263.308C260.916 263.252 260.552 263.224 260.169 263.224C259.198 263.224 258.494 263.392 258.055 263.728C257.616 264.055 257.397 264.521 257.397 265.128C257.397 265.52 257.476 265.837 257.635 266.08C257.794 266.323 258.018 266.523 258.307 266.682C258.596 266.831 258.937 266.971 259.329 267.102C259.74 267.233 260.076 267.345 260.337 267.438C260.608 267.531 260.808 267.634 260.939 267.746C261.079 267.858 261.149 268.012 261.149 268.208C261.149 268.479 261.037 268.661 260.813 268.754C260.589 268.847 260.216 268.894 259.693 268.894C259.348 268.894 258.984 268.861 258.601 268.796C258.218 268.731 257.868 268.637 257.551 268.516V269.804C257.822 269.897 258.162 269.977 258.573 270.042ZM269.687 263.364H268.371V273.024H269.897V269.58C270.467 269.953 271.153 270.14 271.955 270.14C272.907 270.14 273.659 269.846 274.209 269.258C274.76 268.661 275.035 267.765 275.035 266.57C275.035 265.375 274.769 264.521 274.237 264.008C273.705 263.485 272.963 263.224 272.011 263.224C271.526 263.224 271.106 263.289 270.751 263.42C270.397 263.551 270.07 263.751 269.771 264.022L269.687 263.364ZM273.495 266.556C273.495 268.18 272.851 268.992 271.563 268.992C271.199 268.992 270.882 268.941 270.611 268.838C270.35 268.726 270.112 268.581 269.897 268.404V265.086C270.355 264.619 270.924 264.386 271.605 264.386C272.287 264.386 272.772 264.554 273.061 264.89C273.351 265.217 273.495 265.772 273.495 266.556ZM281.14 269.748C281.42 270.009 281.83 270.14 282.372 270.14C282.586 270.14 282.773 270.126 282.932 270.098C283.1 270.079 283.272 270.037 283.45 269.972V268.866C283.244 268.922 283.03 268.95 282.806 268.95C282.619 268.95 282.479 268.903 282.386 268.81C282.292 268.717 282.246 268.539 282.246 268.278V260.564H280.72V268.418C280.72 269.034 280.86 269.477 281.14 269.748ZM289.74 269.916C290.104 270.065 290.496 270.14 290.916 270.14C291.513 270.14 292.008 270.07 292.4 269.93C292.801 269.79 293.137 269.589 293.408 269.328L293.506 270H294.808V265.73C294.808 264.843 294.551 264.204 294.038 263.812C293.534 263.42 292.796 263.224 291.826 263.224C291.331 263.224 290.869 263.261 290.44 263.336C290.01 263.411 289.646 263.509 289.348 263.63V264.764C290.029 264.531 290.762 264.414 291.546 264.414C292.04 264.414 292.414 264.456 292.666 264.54C292.927 264.624 293.104 264.759 293.198 264.946C293.3 265.133 293.352 265.385 293.352 265.702V265.996H291.224C290.318 265.996 289.646 266.192 289.208 266.584C288.778 266.967 288.564 267.475 288.564 268.11C288.564 268.558 288.671 268.936 288.886 269.244C289.1 269.543 289.385 269.767 289.74 269.916ZM292.512 268.824C292.176 268.973 291.779 269.048 291.322 269.048C290.892 269.048 290.561 268.973 290.328 268.824C290.094 268.675 289.978 268.427 289.978 268.082C289.978 267.727 290.076 267.466 290.272 267.298C290.477 267.121 290.804 267.032 291.252 267.032H293.352V268.194C293.137 268.455 292.857 268.665 292.512 268.824ZM300.281 272.268C300.636 272.399 301.065 272.464 301.569 272.464C302.073 272.464 302.498 272.343 302.843 272.1C303.198 271.857 303.506 271.521 303.767 271.092C304.038 270.672 304.29 270.182 304.523 269.622L307.225 263.364H305.657L303.501 268.292L301.373 263.364H299.791L302.745 269.916C302.586 270.233 302.437 270.49 302.297 270.686C302.166 270.891 302.012 271.041 301.835 271.134C301.658 271.227 301.424 271.274 301.135 271.274C300.995 271.274 300.855 271.265 300.715 271.246C300.584 271.227 300.44 271.19 300.281 271.134V272.268Z" fill="white"/>
</g>
<defs>
<filter id="filter0_d_193_521" x="0" y="0" width="390" height="540" filterUnits="userSpaceOnUse" color-interpolation-filters="sRGB">
<feFlood flood-opacity="0" result="BackgroundImageFix"/>
<feColorMatrix in="SourceAlpha" type="matrix" values="0 0 0 0 0 0 0 0 0 0 0 0 0 0 0 0 0 0 127 0" result="hardAlpha"/>
<feOffset/>
<feGaussianBlur stdDeviation="10"/>
<feComposite in2="hardAlpha" operator="out"/>
<feColorMatrix type="matrix" values="0 0 0 0 0 0 0 0 0 0.637931 0 0 0 0 1 0 0 0 1 0"/>
<feBlend mode="normal" in2="BackgroundImageFix" result="effect1_dropShadow_193_521"/>
<feBlend mode="normal" in="SourceGraphic" in2="effect1_dropShadow_193_521" result="shape"/>
</filter>
</defs>
</svg>
