<svg width="390" height="540" viewBox="0 0 390 540" fill="none" xmlns="http://www.w3.org/2000/svg">
<g filter="url(#filter0_d_299_123)">
<path fill-rule="evenodd" clip-rule="evenodd" d="M20 60C20 37.9086 37.9086 20 60 20H330C352.091 20 370 37.9086 370 60V480C370 502.091 352.091 520 330 520H60C37.9086 520 20 502.091 20 480V60ZM129.397 397V314.568H164.214C173.43 314.568 180.214 317.043 184.566 321.992C188.918 326.941 191.094 333.341 191.094 341.192C191.094 349.213 188.619 355.571 183.669 360.264C178.805 364.872 172.15 367.176 163.702 367.176H139.894V397H129.397ZM139.894 358.984H162.038C168.182 358.984 172.79 357.405 175.862 354.248C179.019 351.005 180.598 346.653 180.598 341.192C180.598 335.389 179.104 330.909 176.118 327.752C173.216 324.509 168.736 322.888 162.678 322.888H139.894V358.984ZM234.745 398.28C230.223 398.28 226.255 397.683 222.842 396.488C219.514 395.208 216.441 393.245 213.626 390.6L212.857 397H203.898V310.728H214.393V340.808C219.94 336.968 226.682 335.048 234.617 335.048C243.236 335.048 249.978 337.523 254.842 342.472C259.706 347.336 262.138 355.229 262.138 366.152C262.138 377.16 259.706 385.267 254.842 390.472C249.978 395.677 243.279 398.28 234.745 398.28ZM232.057 389.832C239.14 389.832 244.175 387.869 247.161 383.944C250.148 380.019 251.642 374.088 251.642 366.152C251.642 357.875 250.02 352.029 246.777 348.616C243.62 345.203 238.628 343.496 231.801 343.496C228.132 343.496 224.847 344.051 221.945 345.16C219.044 346.184 216.527 347.635 214.393 349.512V382.536C216.697 385.011 219.343 386.845 222.329 388.04C225.316 389.235 228.559 389.832 232.057 389.832ZM163.837 411.392V432H176.99V430.592H165.598V411.392H163.837ZM180.303 430.4C181.562 431.68 183.557 432.32 186.288 432.32C187.952 432.32 189.434 432.053 190.736 431.52V430.08C189.413 430.613 188.048 430.88 186.639 430.88C184.314 430.88 182.682 430.453 181.743 429.6C180.805 428.725 180.293 427.307 180.208 425.344H191.728V422.592C191.728 421.461 191.503 420.437 191.055 419.52C190.629 418.603 189.957 417.877 189.04 417.344C188.122 416.789 186.928 416.512 185.456 416.512C182.981 416.512 181.189 417.205 180.079 418.592C178.992 419.979 178.447 421.888 178.447 424.32C178.447 427.072 179.066 429.099 180.303 430.4ZM190.128 423.968H180.208C180.208 422.048 180.581 420.576 181.327 419.552C182.096 418.507 183.482 417.984 185.488 417.984C187.13 417.984 188.314 418.389 189.04 419.2C189.765 420.011 190.128 421.12 190.128 422.528V423.968ZM197.884 431.872C198.695 432.171 199.58 432.32 200.54 432.32C201.991 432.32 203.196 432.139 204.156 431.776C205.116 431.413 205.948 430.859 206.652 430.112L206.812 432H208.252V421.952C208.252 420.011 207.751 418.624 206.748 417.792C205.767 416.939 204.231 416.512 202.14 416.512C201.137 416.512 200.188 416.587 199.292 416.736C198.417 416.885 197.649 417.088 196.988 417.344V418.848C197.713 418.592 198.481 418.389 199.292 418.24C200.103 418.091 200.945 418.016 201.82 418.016C203.121 418.016 204.103 418.144 204.764 418.4C205.447 418.656 205.916 419.083 206.172 419.68C206.428 420.256 206.556 421.024 206.556 421.984V423.424H200.892C198.844 423.424 197.393 423.851 196.54 424.704C195.687 425.536 195.26 426.624 195.26 427.968C195.26 428.971 195.495 429.803 195.964 430.464C196.455 431.104 197.095 431.573 197.884 431.872ZM204.188 430.272C203.271 430.656 202.204 430.848 200.988 430.848C199.751 430.848 198.769 430.635 198.044 430.208C197.34 429.76 196.988 429.013 196.988 427.968C196.988 426.944 197.276 426.165 197.852 425.632C198.428 425.099 199.463 424.832 200.956 424.832H206.556V428.48C205.895 429.269 205.105 429.867 204.188 430.272ZM215.524 431.52C216.548 432.053 217.721 432.32 219.044 432.32C220.217 432.32 221.241 432.16 222.116 431.84C222.991 431.499 223.791 430.987 224.516 430.304L224.676 432H226.148V410.432H224.388V418.112C223.62 417.536 222.82 417.131 221.988 416.896C221.177 416.64 220.249 416.512 219.204 416.512C217.071 416.512 215.375 417.163 214.116 418.464C212.879 419.765 212.26 421.792 212.26 424.544C212.26 426.379 212.548 427.872 213.124 429.024C213.7 430.155 214.5 430.987 215.524 431.52ZM224.388 428.832C223.108 430.197 221.465 430.88 219.46 430.88C217.604 430.88 216.228 430.368 215.332 429.344C214.436 428.299 213.988 426.699 213.988 424.544C213.988 422.261 214.468 420.597 215.428 419.552C216.388 418.507 217.807 417.984 219.684 417.984C220.729 417.984 221.625 418.133 222.372 418.432C223.119 418.731 223.791 419.136 224.388 419.648V428.832ZM171.005 252.99H140.694V264.906H171.005V252.99ZM186.542 252.956V252.99V264.906V264.906H190.818V269.906H131.496V264.906H135.694V264.906V252.99V252.956H131.252V247.956V152.673H131V147.673V128.661C131 112.28 144.28 99 160.661 99C177.043 99 190.322 112.28 190.322 128.661V145.611H190.574V150.611V247.956V252.956H186.542ZM153.61 145.611H136.252H136V128.661C136 115.041 147.041 104 160.661 104C164.162 104 167.492 104.729 170.508 106.044C170.291 106.036 170.072 106.031 169.853 106.031C160.882 106.031 153.61 113.303 153.61 122.274V145.611ZM136.252 152.673H162.324V247.956H136.252V152.673ZM208.557 253.105H238.867V265.021H208.557V253.105ZM254.405 253.105V253.072H258.437V248.072V150.727V145.727H258.185V128.776C258.185 112.395 244.905 99.1152 228.524 99.1152C212.143 99.1152 198.863 112.395 198.863 128.776V147.788V152.788H199.115V248.072V253.072H203.557V253.105V265.021V265.021H199.358V270.021H258.681V265.021H254.405V265.021V253.105ZM230.187 152.788V248.072H204.115V152.788H230.187ZM221.473 122.389V145.727H204.115H203.863V128.776C203.863 115.156 214.904 104.115 228.524 104.115C232.024 104.115 235.354 104.845 238.37 106.159C238.153 106.151 237.935 106.146 237.716 106.146C228.745 106.146 221.473 113.419 221.473 122.389Z" fill="white"/>
</g>
<defs>
<filter id="filter0_d_299_123" x="0" y="0" width="390" height="540" filterUnits="userSpaceOnUse" color-interpolation-filters="sRGB">
<feFlood flood-opacity="0" result="BackgroundImageFix"/>
<feColorMatrix in="SourceAlpha" type="matrix" values="0 0 0 0 0 0 0 0 0 0 0 0 0 0 0 0 0 0 127 0" result="hardAlpha"/>
<feOffset/>
<feGaussianBlur stdDeviation="10"/>
<feComposite in2="hardAlpha" operator="out"/>
<feColorMatrix type="matrix" values="0 0 0 0 0 0 0 0 0 0.637931 0 0 0 0 1 0 0 0 1 0"/>
<feBlend mode="normal" in2="BackgroundImageFix" result="effect1_dropShadow_299_123"/>
<feBlend mode="normal" in="SourceGraphic" in2="effect1_dropShadow_299_123" result="shape"/>
</filter>
</defs>
</svg>
