<svg width="390" height="540" viewBox="0 0 390 540" fill="none" xmlns="http://www.w3.org/2000/svg">
<g filter="url(#filter0_d_174_19)">
<path fill-rule="evenodd" clip-rule="evenodd" d="M60 20C37.9086 20 20 37.9086 20 60V480C20 502.091 37.9086 520 60 520H330C352.091 520 370 502.091 370 480V60C370 37.9086 352.091 20 330 20H60ZM154.398 314.568V397H208.798V388.808H164.893V314.568H154.398ZM222.908 312.52V322.12H234.555V312.52H222.908ZM223.932 344.648V397H234.428V336.328H215.611L214.587 344.648H223.932ZM144.494 432V411.392H146.254V430.592H157.646V432H144.494ZM161.88 412.896V410.976H163.896V412.896H161.88ZM162.104 432V418.304H159.736L159.928 416.832H163.864V432H162.104ZM173.961 432.32C172.617 432.32 171.583 431.947 170.857 431.2C170.132 430.453 169.769 429.408 169.769 428.064V418.304H167.401V416.832H169.769V412.864L171.529 412.288V416.832H175.913L175.817 418.304H171.529V428C171.529 428.981 171.753 429.707 172.201 430.176C172.671 430.645 173.428 430.88 174.473 430.88C174.751 430.88 175.039 430.859 175.337 430.816C175.657 430.752 175.999 430.656 176.361 430.528V431.936C175.657 432.192 174.857 432.32 173.961 432.32ZM179.712 432V410.432H181.473V418.656C182.219 418.016 183.072 417.504 184.033 417.12C185.014 416.715 186.187 416.512 187.553 416.512C189.387 416.512 190.742 416.949 191.617 417.824C192.512 418.699 192.96 420.085 192.96 421.984V432H191.201V422.016C191.201 420.523 190.88 419.477 190.24 418.88C189.622 418.283 188.502 417.984 186.88 417.984C185.835 417.984 184.843 418.197 183.904 418.624C182.966 419.029 182.155 419.563 181.473 420.224V432H179.712ZM198.443 412.896V410.976H200.459V412.896H198.443ZM198.667 432V418.304H196.299L196.491 416.832H200.427V432H198.667ZM210.62 432.32C208.806 432.32 207.43 431.808 206.492 430.784C205.553 429.76 205.084 428.309 205.084 426.432V416.832H206.844V426.496C206.844 427.947 207.206 429.045 207.932 429.792C208.657 430.517 209.798 430.88 211.356 430.88C212.422 430.88 213.393 430.677 214.268 430.272C215.164 429.845 215.932 429.312 216.572 428.672V416.832H218.332V432H216.764L216.604 430.144C215.857 430.805 215.004 431.339 214.044 431.744C213.084 432.128 211.942 432.32 210.62 432.32ZM223.119 432V416.832H224.655L224.815 418.688C225.647 418.005 226.532 417.472 227.471 417.088C228.431 416.704 229.433 416.512 230.479 416.512C231.652 416.512 232.559 416.704 233.199 417.088C233.839 417.472 234.308 418.005 234.607 418.688C235.332 418.069 236.175 417.557 237.135 417.152C238.095 416.725 239.247 416.512 240.591 416.512C242.297 416.512 243.567 416.949 244.399 417.824C245.252 418.677 245.679 420.021 245.679 421.856V432H243.951V422.016C243.951 420.501 243.62 419.456 242.959 418.88C242.319 418.283 241.305 417.984 239.919 417.984C238.959 417.984 238.052 418.155 237.199 418.496C236.345 418.816 235.62 419.296 235.023 419.936C235.087 420.235 235.14 420.587 235.183 420.992C235.225 421.376 235.247 421.739 235.247 422.08V432H233.551V422.112C233.551 420.661 233.305 419.616 232.815 418.976C232.324 418.315 231.375 417.984 229.967 417.984C229.028 417.984 228.111 418.197 227.215 418.624C226.319 419.051 225.529 419.573 224.847 420.192V432H223.119ZM125 186V178C125 169.716 131.716 163 140 163H250C258.284 163 265 169.716 265 178V228C265 236.284 258.284 243 250 243H140C131.716 243 125 236.284 125 228V221V186ZM120 186V178C120 166.954 128.954 158 140 158H250C261.046 158 270 166.954 270 178V228C270 239.046 261.046 248 250 248H140C128.954 248 120 239.046 120 228V221H111C108.239 221 106 218.761 106 216V191C106 188.239 108.239 186 111 186H120ZM140 168C134.477 168 130 172.477 130 178V228C130 233.523 134.477 238 140 238H250C255.523 238 260 233.523 260 228V178C260 172.477 255.523 168 250 168H140ZM180.501 207.912H195.186V227.824C195.186 228.35 195.894 228.519 196.132 228.05L210.817 199.139C210.986 198.806 210.744 198.412 210.371 198.412H195.686V178.501C195.686 177.975 194.978 177.805 194.74 178.274L180.055 207.186C179.886 207.518 180.128 207.912 180.501 207.912Z" fill="white"/>
</g>
<defs>
<filter id="filter0_d_174_19" x="0" y="0" width="390" height="540" filterUnits="userSpaceOnUse" color-interpolation-filters="sRGB">
<feFlood flood-opacity="0" result="BackgroundImageFix"/>
<feColorMatrix in="SourceAlpha" type="matrix" values="0 0 0 0 0 0 0 0 0 0 0 0 0 0 0 0 0 0 127 0" result="hardAlpha"/>
<feOffset/>
<feGaussianBlur stdDeviation="10"/>
<feComposite in2="hardAlpha" operator="out"/>
<feColorMatrix type="matrix" values="0 0 0 0 0.78 0 0 0 0 0.3125 0 0 0 0 1 0 0 0 1 0"/>
<feBlend mode="normal" in2="BackgroundImageFix" result="effect1_dropShadow_174_19"/>
<feBlend mode="normal" in="SourceGraphic" in2="effect1_dropShadow_174_19" result="shape"/>
</filter>
</defs>
</svg>
