<svg width="390" height="540" viewBox="0 0 390 540" fill="none" xmlns="http://www.w3.org/2000/svg">
<g filter="url(#filter0_d_188_148)">
<path fill-rule="evenodd" clip-rule="evenodd" d="M20 60C20 37.9086 37.9086 20 60 20H330C352.091 20 370 37.9086 370 60V480C370 502.091 352.091 520 330 520H60C37.9086 520 20 502.091 20 480V60ZM120.335 397V314.568H131.599L159.503 371.784L187.407 314.568H198.671V397H188.303V330.952L163.087 382.664H156.047L130.703 330.952V397H120.335ZM240.137 419.528C235.614 419.528 231.177 419.272 226.825 418.76C222.558 418.248 218.889 417.437 215.817 416.328V407.624C219.23 408.733 223.07 409.587 227.337 410.184C231.604 410.781 235.7 411.08 239.625 411.08C246.025 411.08 250.718 410.696 253.705 409.928C256.692 409.16 258.185 407.197 258.185 404.04C258.185 401.821 257.374 400.243 255.753 399.304C254.217 398.365 251.444 397.896 247.433 397.896H231.305C220.126 397.896 214.537 394.141 214.537 386.632C214.537 384.157 215.305 381.811 216.841 379.592C218.462 377.288 220.852 375.667 224.009 374.728C220.596 373.021 218.078 370.675 216.457 367.688C214.836 364.616 214.025 360.989 214.025 356.808C214.025 349.213 216.201 343.709 220.553 340.296C224.99 336.797 231.732 335.048 240.777 335.048C242.654 335.048 244.574 335.219 246.537 335.56C248.585 335.816 250.164 336.072 251.273 336.328H273.161L272.777 343.496H261.769C263.732 345.117 265.14 347.08 265.993 349.384C266.846 351.603 267.273 354.077 267.273 356.808C267.273 363.549 265.31 368.797 261.385 372.552C257.46 376.221 251.444 378.056 243.337 378.056C241.972 378.056 240.734 378.013 239.625 377.928C238.601 377.757 237.364 377.587 235.913 377.416C233.268 377.501 230.793 378.269 228.489 379.72C226.185 381.085 225.033 382.877 225.033 385.096C225.033 386.547 225.588 387.613 226.697 388.296C227.892 388.979 230.025 389.32 233.097 389.32H249.865C255.924 389.32 260.574 390.557 263.817 393.032C267.06 395.421 268.681 398.963 268.681 403.656C268.681 409.629 266.206 413.768 261.257 416.072C256.308 418.376 249.268 419.528 240.137 419.528ZM240.777 370.12C246.836 370.12 251.017 369.139 253.321 367.176C255.625 365.213 256.777 361.757 256.777 356.808C256.777 351.859 255.54 348.275 253.065 346.056C250.676 343.837 246.58 342.728 240.777 342.728C235.06 342.728 230.921 343.795 228.361 345.928C225.801 348.061 224.521 351.688 224.521 356.808C224.521 361.501 225.716 364.915 228.105 367.048C230.58 369.096 234.804 370.12 240.777 370.12ZM118.447 430.392V451H120.175V432.952L127.279 447.416H128.655L135.727 432.952V451H137.455V430.392H135.407L127.951 445.656L120.495 430.392H118.447ZM144.243 450.872C145.054 451.171 145.939 451.32 146.899 451.32C148.35 451.32 149.555 451.139 150.515 450.776C151.475 450.413 152.307 449.859 153.011 449.112L153.171 451H154.611V440.952C154.611 439.011 154.11 437.624 153.107 436.792C152.126 435.939 150.59 435.512 148.499 435.512C147.497 435.512 146.547 435.587 145.651 435.736C144.777 435.885 144.009 436.088 143.347 436.344V437.848C144.073 437.592 144.841 437.389 145.651 437.24C146.462 437.091 147.305 437.016 148.179 437.016C149.481 437.016 150.462 437.144 151.123 437.4C151.806 437.656 152.275 438.083 152.531 438.68C152.787 439.256 152.915 440.024 152.915 440.984V442.424H147.251C145.203 442.424 143.753 442.851 142.899 443.704C142.046 444.536 141.619 445.624 141.619 446.968C141.619 447.971 141.854 448.803 142.323 449.464C142.814 450.104 143.454 450.573 144.243 450.872ZM150.547 449.272C149.63 449.656 148.563 449.848 147.347 449.848C146.11 449.848 145.129 449.635 144.403 449.208C143.699 448.76 143.347 448.013 143.347 446.968C143.347 445.944 143.635 445.165 144.211 444.632C144.787 444.099 145.822 443.832 147.315 443.832H152.915V447.48C152.254 448.269 151.465 448.867 150.547 449.272ZM161.787 456.44C162.811 456.568 163.889 456.632 165.019 456.632C167.174 456.632 168.849 456.376 170.043 455.864C171.238 455.373 171.835 454.381 171.835 452.888C171.835 450.648 170.321 449.528 167.291 449.528H163.035C162.033 449.528 161.339 449.421 160.955 449.208C160.593 448.995 160.411 448.653 160.411 448.184C160.411 447.565 160.71 447.085 161.307 446.744C161.905 446.381 162.598 446.157 163.387 446.072C163.771 446.136 164.123 446.189 164.443 446.232C164.763 446.253 165.094 446.264 165.435 446.264C167.526 446.264 169.051 445.816 170.011 444.92C170.993 444.003 171.483 442.68 171.483 440.952C171.483 440.205 171.355 439.501 171.099 438.84C170.865 438.179 170.47 437.613 169.915 437.144H172.859L172.923 435.832H167.579C167.302 435.768 166.929 435.704 166.459 435.64C166.011 435.555 165.563 435.512 165.115 435.512C162.918 435.512 161.297 435.949 160.251 436.824C159.206 437.677 158.683 439.053 158.683 440.952C158.683 441.997 158.875 442.925 159.259 443.736C159.665 444.547 160.347 445.144 161.307 445.528C160.454 445.741 159.803 446.115 159.355 446.648C158.907 447.181 158.683 447.757 158.683 448.376C158.683 449.251 159.014 449.912 159.675 450.36C160.337 450.808 161.371 451.032 162.779 451.032H166.907C168.123 451.032 168.955 451.171 169.403 451.448C169.851 451.747 170.075 452.259 170.075 452.984C170.075 453.944 169.638 454.552 168.763 454.808C167.889 455.064 166.619 455.192 164.955 455.192C163.974 455.192 162.971 455.117 161.947 454.968C160.945 454.84 160.006 454.637 159.131 454.36V455.864C159.878 456.141 160.763 456.333 161.787 456.44ZM168.731 443.992C168.07 444.589 166.865 444.888 165.115 444.888C163.387 444.888 162.171 444.579 161.467 443.96C160.785 443.32 160.443 442.317 160.443 440.952C160.443 439.48 160.806 438.435 161.531 437.816C162.257 437.197 163.451 436.888 165.115 436.888C166.779 436.888 167.963 437.208 168.667 437.848C169.393 438.488 169.755 439.523 169.755 440.952C169.755 442.381 169.414 443.395 168.731 443.992ZM175.791 435.832V451H177.551V439.192C178.233 438.531 179.023 437.997 179.919 437.592C180.836 437.187 181.828 436.984 182.895 436.984C184.601 436.984 185.753 437.283 186.351 437.88C186.969 438.477 187.279 439.523 187.279 441.016V451H189.039V440.984C189.039 439.085 188.612 437.699 187.759 436.824C186.905 435.949 185.529 435.512 183.631 435.512C182.265 435.512 181.092 435.715 180.111 436.12C179.129 436.525 178.255 437.048 177.487 437.688L177.327 435.832H175.791ZM194.569 449.4C195.828 450.68 197.822 451.32 200.553 451.32C202.217 451.32 203.7 451.053 205.001 450.52V449.08C203.678 449.613 202.313 449.88 200.905 449.88C198.58 449.88 196.948 449.453 196.009 448.6C195.07 447.725 194.558 446.307 194.473 444.344H205.993V441.592C205.993 440.461 205.769 439.437 205.321 438.52C204.894 437.603 204.222 436.877 203.305 436.344C202.388 435.789 201.193 435.512 199.721 435.512C197.246 435.512 195.454 436.205 194.345 437.592C193.257 438.979 192.713 440.888 192.713 443.32C192.713 446.072 193.332 448.099 194.569 449.4ZM204.393 442.968H194.473C194.473 441.048 194.846 439.576 195.593 438.552C196.361 437.507 197.748 436.984 199.753 436.984C201.396 436.984 202.58 437.389 203.305 438.2C204.03 439.011 204.393 440.12 204.393 441.528V442.968ZM212.178 451.128C213.01 451.256 213.874 451.32 214.77 451.32C216.541 451.32 217.927 451 218.93 450.36C219.954 449.72 220.466 448.653 220.466 447.16C220.466 446.243 220.274 445.517 219.89 444.984C219.527 444.429 218.962 443.971 218.194 443.608C217.447 443.245 216.509 442.883 215.378 442.52C214.439 442.221 213.671 441.955 213.074 441.72C212.498 441.485 212.071 441.208 211.794 440.888C211.538 440.547 211.41 440.077 211.41 439.48C211.41 438.605 211.709 437.987 212.306 437.624C212.925 437.24 213.991 437.048 215.506 437.048C216.786 437.048 218.045 437.24 219.282 437.624V436.056C218.749 435.885 218.13 435.757 217.426 435.672C216.743 435.565 216.018 435.512 215.25 435.512C213.287 435.512 211.869 435.853 210.994 436.536C210.119 437.197 209.682 438.189 209.682 439.512C209.682 440.451 209.885 441.187 210.29 441.72C210.695 442.232 211.239 442.637 211.922 442.936C212.626 443.213 213.405 443.501 214.258 443.8C215.282 444.141 216.125 444.44 216.786 444.696C217.447 444.952 217.927 445.261 218.226 445.624C218.546 445.965 218.706 446.477 218.706 447.16C218.706 448.141 218.386 448.835 217.746 449.24C217.106 449.624 216.039 449.816 214.546 449.816C213.778 449.816 213.021 449.763 212.274 449.656C211.527 449.528 210.802 449.347 210.098 449.112V450.68C210.674 450.872 211.367 451.021 212.178 451.128ZM225.49 429.976V431.896H227.506V429.976H225.49ZM225.714 437.304V451H227.474V435.832H223.538L223.346 437.304H225.714ZM233.539 449.784C234.477 450.808 235.853 451.32 237.667 451.32C238.989 451.32 240.131 451.128 241.091 450.744C242.051 450.339 242.904 449.805 243.651 449.144L243.811 451H245.379V435.832H243.619V447.672C242.979 448.312 242.211 448.845 241.315 449.272C240.44 449.677 239.469 449.88 238.403 449.88C236.845 449.88 235.704 449.517 234.979 448.792C234.253 448.045 233.891 446.947 233.891 445.496V435.832H232.131V445.432C232.131 447.309 232.6 448.76 233.539 449.784ZM250.166 435.832V451H251.894V439.192C252.576 438.573 253.366 438.051 254.262 437.624C255.158 437.197 256.075 436.984 257.014 436.984C258.422 436.984 259.371 437.315 259.862 437.976C260.352 438.616 260.598 439.661 260.598 441.112V451H262.294V441.08C262.294 440.739 262.272 440.376 262.23 439.992C262.187 439.587 262.134 439.235 262.07 438.936C262.667 438.296 263.392 437.816 264.246 437.496C265.099 437.155 266.006 436.984 266.966 436.984C268.352 436.984 269.366 437.283 270.006 437.88C270.667 438.456 270.998 439.501 270.998 441.016V451H272.726V440.856C272.726 439.021 272.299 437.677 271.446 436.824C270.614 435.949 269.344 435.512 267.638 435.512C266.294 435.512 265.142 435.725 264.182 436.152C263.222 436.557 262.379 437.069 261.654 437.688C261.355 437.005 260.886 436.472 260.246 436.088C259.606 435.704 258.699 435.512 257.526 435.512C256.48 435.512 255.478 435.704 254.518 436.088C253.579 436.472 252.694 437.005 251.862 437.688L251.702 435.832H250.166ZM158.983 216.641C158.604 217.053 158.059 217.293 157.5 217.297C157.1 217.299 156.693 217.182 156.334 216.919C156.219 216.838 156.113 216.745 156.017 216.641L154.619 215.293L154.502 215.18L154.5 215.178L147.005 207.951L146.982 207.928L146.962 207.91L146.951 207.899L146.92 207.873C146.391 207.406 140.975 202.495 141.541 197.132C142.1 191.838 145.656 188.71 150.95 189.021C153.652 189.18 155.964 191.231 157.5 193.048C159.036 191.231 161.348 189.18 164.05 189.021C169.344 188.71 172.9 191.838 173.459 197.132C174.025 202.495 168.609 207.406 168.08 207.873C168.05 207.899 168.024 207.923 167.995 207.951L160.5 215.178L160.498 215.18L160.381 215.293L158.983 216.641ZM127.5 105H135.5V115H140.5V105H148.5V115H153.5V105H161.5V115H166.5V105H174.5V115H179.5V105H187.5C190.261 105 192.5 107.239 192.5 110V120C192.5 122.761 190.261 125 187.5 125H127.5C124.739 125 122.5 122.761 122.5 120V110C122.5 107.239 124.739 105 127.5 105ZM117.5 110C117.5 104.477 121.977 100 127.5 100H187.5C193.023 100 197.5 104.477 197.5 110V120C197.5 125.523 193.023 130 187.5 130H188V139.256C188 142.313 189.855 145.064 192.689 146.21L203.685 150.655C208.408 152.564 211.5 157.149 211.5 162.244V237H206.5V230H108V255.5C108 259.642 111.358 263 115.5 263H154.5H155H163.583C164.403 264.845 165.515 266.532 166.862 268H155H154.5H115.5C108.596 268 103 262.404 103 255.5V162.244C103 157.149 106.092 152.564 110.815 150.655L121.811 146.21C124.645 145.064 126.5 142.313 126.5 139.256V130H127.5C121.977 130 117.5 125.523 117.5 120V110ZM206.5 225V180.5H108V225H206.5ZM206.5 175.5H108V162.244C108 159.187 109.855 156.436 112.689 155.29L123.685 150.845C128.408 148.936 131.5 144.351 131.5 139.256V130H183V139.256C183 144.351 186.092 148.936 190.815 150.845L201.811 155.29C204.645 156.436 206.5 159.187 206.5 162.244V175.5ZM205.24 245H223.83C229.447 245 234 249.553 234 255.17C234 260.787 229.447 265.34 223.83 265.34H205.24V245ZM200.24 245H180.17C174.553 245 170 249.553 170 255.17C170 260.787 174.553 265.34 180.17 265.34H200.24V245ZM180.17 270.34C171.792 270.34 165 263.548 165 255.17C165 246.792 171.792 240 180.17 240H223.83C224.628 240 225.411 240.062 226.176 240.18L223.531 237.919C217.163 232.475 216.413 222.9 221.857 216.531C227.301 210.163 236.877 209.413 243.245 214.857L276.432 243.226C282.801 248.67 283.55 258.246 278.107 264.614C272.663 270.983 263.087 271.732 256.718 266.288L238.275 250.523C238.746 251.987 239 253.549 239 255.17C239 263.548 232.208 270.34 223.83 270.34H180.17ZM255.253 231.699L239.996 218.658C235.727 215.008 229.307 215.511 225.658 219.78C222.008 224.049 222.511 230.469 226.78 234.119L242.036 247.16L255.253 231.699ZM245.837 250.409L259.053 234.948L273.184 247.027C277.453 250.676 277.956 257.096 274.306 261.366C270.656 265.635 264.237 266.137 259.967 262.488L245.837 250.409Z" fill="white"/>
</g>
<defs>
<filter id="filter0_d_188_148" x="0" y="0" width="390" height="540" filterUnits="userSpaceOnUse" color-interpolation-filters="sRGB">
<feFlood flood-opacity="0" result="BackgroundImageFix"/>
<feColorMatrix in="SourceAlpha" type="matrix" values="0 0 0 0 0 0 0 0 0 0 0 0 0 0 0 0 0 0 127 0" result="hardAlpha"/>
<feOffset/>
<feGaussianBlur stdDeviation="10"/>
<feComposite in2="hardAlpha" operator="out"/>
<feColorMatrix type="matrix" values="0 0 0 0 0.149195 0 0 0 0 0.00833333 0 0 0 0 1 0 0 0 1 0"/>
<feBlend mode="normal" in2="BackgroundImageFix" result="effect1_dropShadow_188_148"/>
<feBlend mode="normal" in="SourceGraphic" in2="effect1_dropShadow_188_148" result="shape"/>
</filter>
</defs>
</svg>
