<svg width="390" height="540" viewBox="0 0 390 540" fill="none" xmlns="http://www.w3.org/2000/svg">
<g filter="url(#filter0_d_302_79)">
<path fill-rule="evenodd" clip-rule="evenodd" d="M60 20C37.9086 20 20 37.9086 20 60V480C20 502.091 37.9086 520 60 520H330C352.091 520 370 502.091 370 480V60C370 37.9086 352.091 20 330 20H60ZM161.023 314.568V397H171.518V330.824L218.367 397H227.967V314.568H217.471V380.872L170.495 314.568H161.023ZM137.556 432V411.392H139.22L151.988 429.376V411.392H153.748V432H152.052L139.316 414.048V432H137.556ZM159.568 412.896V410.976H161.584V412.896H159.568ZM159.792 432V418.304H157.424L157.616 416.832H161.552V432H159.792ZM171.649 432.32C170.305 432.32 169.27 431.947 168.545 431.2C167.819 430.453 167.457 429.408 167.457 428.064V418.304H165.089V416.832H167.457V412.864L169.217 412.288V416.832H173.601L173.505 418.304H169.217V428C169.217 428.981 169.441 429.707 169.889 430.176C170.358 430.645 171.115 430.88 172.161 430.88C172.438 430.88 172.726 430.859 173.025 430.816C173.345 430.752 173.686 430.656 174.049 430.528V431.936C173.345 432.192 172.545 432.32 171.649 432.32ZM177.4 432V416.832H178.936L179.128 418.944C179.917 418.389 180.813 417.899 181.816 417.472C182.84 417.045 183.843 416.725 184.824 416.512V417.952C184.205 418.101 183.533 418.304 182.808 418.56C182.104 418.816 181.421 419.104 180.76 419.424C180.12 419.723 179.587 420.032 179.16 420.352V432H177.4ZM194.086 432.32C191.526 432.32 189.68 431.648 188.55 430.304C187.419 428.96 186.854 426.997 186.854 424.416C186.854 421.856 187.43 419.904 188.582 418.56C189.734 417.195 191.568 416.512 194.086 416.512C196.624 416.512 198.47 417.195 199.622 418.56C200.774 419.904 201.35 421.856 201.35 424.416C201.35 426.997 200.774 428.96 199.622 430.304C198.491 431.648 196.646 432.32 194.086 432.32ZM194.086 430.816C196.112 430.816 197.531 430.293 198.342 429.248C199.174 428.203 199.59 426.592 199.59 424.416C199.59 422.261 199.174 420.661 198.342 419.616C197.51 418.571 196.091 418.048 194.086 418.048C192.08 418.048 190.662 418.571 189.83 419.616C188.998 420.661 188.582 422.261 188.582 424.416C188.582 426.592 188.998 428.203 189.83 429.248C190.662 430.293 192.08 430.816 194.086 430.816ZM211.285 437.632C210.154 437.632 209.077 437.568 208.053 437.44C207.029 437.333 206.144 437.141 205.397 436.864V435.36C206.272 435.637 207.21 435.84 208.213 435.968C209.237 436.117 210.24 436.192 211.221 436.192C212.885 436.192 214.154 436.064 215.029 435.808C215.904 435.552 216.341 434.944 216.341 433.984C216.341 433.259 216.117 432.747 215.669 432.448C215.221 432.171 214.389 432.032 213.173 432.032H209.045C207.637 432.032 206.602 431.808 205.941 431.36C205.28 430.912 204.949 430.251 204.949 429.376C204.949 428.757 205.173 428.181 205.621 427.648C206.069 427.115 206.72 426.741 207.573 426.528C206.613 426.144 205.93 425.547 205.525 424.736C205.141 423.925 204.949 422.997 204.949 421.952C204.949 420.053 205.472 418.677 206.517 417.824C207.562 416.949 209.184 416.512 211.381 416.512C211.829 416.512 212.277 416.555 212.725 416.64C213.194 416.704 213.568 416.768 213.845 416.832H219.189L219.125 418.144H216.181C216.736 418.613 217.13 419.179 217.365 419.84C217.621 420.501 217.749 421.205 217.749 421.952C217.749 423.68 217.258 425.003 216.277 425.92C215.317 426.816 213.792 427.264 211.701 427.264C211.36 427.264 211.029 427.253 210.709 427.232C210.389 427.189 210.037 427.136 209.653 427.072C208.864 427.157 208.17 427.381 207.573 427.744C206.976 428.085 206.677 428.565 206.677 429.184C206.677 429.653 206.858 429.995 207.221 430.208C207.605 430.421 208.298 430.528 209.301 430.528H213.557C216.586 430.528 218.101 431.648 218.101 433.888C218.101 435.381 217.504 436.373 216.309 436.864C215.114 437.376 213.44 437.632 211.285 437.632ZM211.381 425.888C213.13 425.888 214.336 425.589 214.997 424.992C215.68 424.395 216.021 423.381 216.021 421.952C216.021 420.523 215.658 419.488 214.933 418.848C214.229 418.208 213.045 417.888 211.381 417.888C209.717 417.888 208.522 418.197 207.797 418.816C207.072 419.435 206.709 420.48 206.709 421.952C206.709 423.317 207.05 424.32 207.733 424.96C208.437 425.579 209.653 425.888 211.381 425.888ZM229.444 432.32C226.713 432.32 224.718 431.68 223.46 430.4C222.222 429.099 221.604 427.072 221.604 424.32C221.604 421.888 222.148 419.979 223.236 418.592C224.345 417.205 226.137 416.512 228.612 416.512C230.084 416.512 231.278 416.789 232.196 417.344C233.113 417.877 233.785 418.603 234.212 419.52C234.66 420.437 234.884 421.461 234.884 422.592V425.344H223.364C223.449 427.307 223.961 428.725 224.9 429.6C225.838 430.453 227.47 430.88 229.796 430.88C231.204 430.88 232.569 430.613 233.892 430.08V431.52C232.59 432.053 231.108 432.32 229.444 432.32ZM223.364 423.968H233.284V422.528C233.284 421.12 232.921 420.011 232.196 419.2C231.47 418.389 230.286 417.984 228.644 417.984C226.638 417.984 225.252 418.507 224.484 419.552C223.737 420.576 223.364 422.048 223.364 423.968ZM239.369 432V416.832H240.905L241.065 418.688C241.833 418.048 242.707 417.525 243.689 417.12C244.67 416.715 245.843 416.512 247.209 416.512C249.107 416.512 250.483 416.949 251.337 417.824C252.19 418.699 252.617 420.085 252.617 421.984V432H250.857V422.016C250.857 420.523 250.547 419.477 249.929 418.88C249.331 418.283 248.179 417.984 246.473 417.984C245.406 417.984 244.414 418.187 243.497 418.592C242.601 418.997 241.811 419.531 241.129 420.192V432H239.369ZM150.742 139.248C149.913 139.248 149.242 139.919 149.242 140.748C149.242 141.576 149.913 142.248 150.742 142.248H229.538C230.367 142.248 231.038 141.576 231.038 140.748C231.038 139.919 230.367 139.248 229.538 139.248H150.742ZM228.294 211.226C239.962 211.226 249.421 201.767 249.421 190.099C249.421 178.431 239.962 168.972 228.294 168.972C216.626 168.972 207.167 178.431 207.167 190.099C207.167 201.767 216.626 211.226 228.294 211.226ZM242.646 211.936C249.739 207.264 254.421 199.228 254.421 190.099C254.421 180.305 249.032 171.769 241.057 167.296L240.146 141.712C240.139 141.5 240.158 141.288 240.204 141.081L242.861 129.127C243.902 124.443 240.338 120 235.539 120H193.872H185.371H143.704C138.906 120 135.342 124.443 136.382 129.127L139.039 141.081C139.085 141.288 139.104 141.5 139.097 141.712L135.005 256.697C134.973 257.593 135.098 258.542 135.461 259.466C135.763 260.235 136.26 261.411 136.91 262.612C137.539 263.776 138.406 265.145 139.499 266.163C140.78 267.357 142.517 268.202 143.926 268.768C145.388 269.356 146.764 269.747 147.507 269.94C148.098 270.094 148.676 270.152 149.218 270.152H179.772H199.471H230.025C230.568 270.152 231.146 270.094 231.737 269.94C232.48 269.747 233.855 269.356 235.317 268.768C236.727 268.202 238.463 267.357 239.744 266.163C240.837 265.145 241.704 263.776 242.333 262.612C242.983 261.411 243.48 260.235 243.782 259.466C244.145 258.542 244.27 257.593 244.238 256.697L242.646 211.936ZM237.733 214.47L239.242 256.874C239.253 257.185 239.207 257.439 239.128 257.639C238.869 258.3 238.455 259.273 237.935 260.234C237.395 261.232 236.836 262.039 236.336 262.505C235.741 263.059 234.697 263.629 233.452 264.129C232.26 264.608 231.108 264.937 230.478 265.101C230.361 265.131 230.213 265.152 230.025 265.152H199.471H179.772H149.218C149.03 265.152 148.882 265.131 148.765 265.101C148.136 264.937 146.983 264.608 145.791 264.129C144.546 263.629 143.503 263.059 142.907 262.505C142.407 262.039 141.848 261.232 141.308 260.234C140.789 259.273 140.374 258.3 140.115 257.639C140.037 257.439 139.991 257.185 140.002 256.874L140.931 230.753H207.461C210.499 230.753 212.961 228.291 212.961 225.253V211.257C217.268 214.383 222.566 216.226 228.294 216.226C231.622 216.226 234.805 215.604 237.733 214.47ZM141.109 225.753L142.334 191.343H202.196C202.469 197.158 204.642 202.475 208.108 206.688H207.961V225.253C207.961 225.529 207.737 225.753 207.461 225.753H141.109ZM142.512 186.343L144.094 141.89C144.116 141.254 144.058 140.617 143.92 139.996L141.263 128.042C140.916 126.481 142.104 125 143.704 125H185.371H193.872H235.539C237.139 125 238.327 126.481 237.98 128.042L235.323 139.996C235.185 140.617 235.127 141.254 235.15 141.89L235.976 165.12C233.693 164.418 231.276 164.021 228.773 163.976C229.426 163.986 230.074 164.016 230.715 164.065C227.818 159.001 222.99 155.041 216.916 153.385C207.564 150.835 197.984 154.49 192.554 161.849C191.881 162.761 192.144 164.023 192.998 164.769C194.145 165.77 195.993 165.543 196.937 164.349C201.231 158.918 208.5 156.272 215.601 158.208C219.344 159.229 222.481 161.37 224.749 164.172C225.756 164.058 226.779 163.992 227.814 163.976C214.876 164.209 204.234 173.847 202.435 186.343H142.512ZM189.213 235.076C189.336 233.793 190.414 232.815 191.702 232.815C193.177 232.815 194.331 234.085 194.19 235.554L194.186 235.6C192.981 248.14 181.84 257.329 169.3 256.124C158.113 255.049 149.593 246.066 148.74 235.237C148.634 233.892 149.753 232.815 151.102 232.815C152.511 232.815 153.623 233.989 153.777 235.39C154.682 243.597 161.234 250.326 169.778 251.147C179.569 252.087 188.268 244.913 189.209 235.122L189.213 235.076ZM196.638 184.707C195.218 184.707 194.104 183.515 193.963 182.102C193.14 173.808 186.553 166.98 177.942 166.153C168.151 165.212 159.452 172.387 158.511 182.178L158.486 182.446C158.362 183.729 157.285 184.707 155.997 184.707C154.522 184.707 153.367 183.437 153.509 181.968L153.534 181.7C154.739 169.16 165.881 159.971 178.42 161.176C189.693 162.259 198.257 171.371 198.998 182.311C199.089 183.646 197.976 184.707 196.638 184.707ZM217.829 217.739L215.007 228.089C212.855 235.983 205.719 241.182 197.917 241.218C196.795 241.223 195.757 241.92 195.357 242.969C194.789 244.455 195.648 246.17 197.238 246.212C207.502 246.484 217.01 239.752 219.831 229.404L222.658 219.036C220.994 218.732 219.38 218.296 217.829 217.739ZM147.583 199.638C147.583 198.809 148.254 198.138 149.083 198.138H198.02C198.848 198.138 199.52 198.809 199.52 199.638C199.52 200.466 198.848 201.138 198.02 201.138H149.083C148.254 201.138 147.583 200.466 147.583 199.638ZM149.083 206.432C148.254 206.432 147.583 207.104 147.583 207.932C147.583 208.76 148.254 209.432 149.083 209.432H198.02C198.848 209.432 199.52 208.76 199.52 207.932C199.52 207.104 198.848 206.432 198.02 206.432H149.083ZM147.583 217.885C147.583 217.057 148.254 216.385 149.083 216.385H154.059C154.888 216.385 155.559 217.057 155.559 217.885C155.559 218.714 154.888 219.385 154.059 219.385H149.083C148.254 219.385 147.583 218.714 147.583 217.885ZM159.036 216.385C158.208 216.385 157.536 217.057 157.536 217.885C157.536 218.714 158.208 219.385 159.036 219.385H160.695C161.523 219.385 162.195 218.714 162.195 217.885C162.195 217.057 161.523 216.385 160.695 216.385H159.036ZM165.83 217.885C165.83 217.057 166.502 216.385 167.33 216.385H185.578C186.407 216.385 187.078 217.057 187.078 217.885C187.078 218.714 186.407 219.385 185.578 219.385H167.33C166.502 219.385 165.83 218.714 165.83 217.885ZM193.043 216.385C192.215 216.385 191.543 217.057 191.543 217.885C191.543 218.714 192.215 219.385 193.043 219.385H198.02C198.848 219.385 199.52 218.714 199.52 217.885C199.52 217.057 198.848 216.385 198.02 216.385H193.043ZM217.046 178.671C217.632 178.085 218.582 178.085 219.168 178.671L221.131 180.634V179.731C221.131 178.902 221.803 178.231 222.631 178.231C223.46 178.231 224.131 178.902 224.131 179.731V183.634L228.061 187.564L231.628 183.996V179.731C231.628 178.902 232.299 178.231 233.128 178.231C233.956 178.231 234.628 178.902 234.628 179.731V180.996L236.772 178.852C237.358 178.266 238.308 178.266 238.893 178.852C239.479 179.438 239.479 180.388 238.893 180.973L236.931 182.936H237.833C238.661 182.936 239.333 183.607 239.333 184.436C239.333 185.264 238.661 185.936 237.833 185.936H233.931L230.182 189.685L233.931 193.434L237.833 193.434C238.661 193.434 239.333 194.105 239.333 194.934C239.333 195.762 238.661 196.434 237.833 196.434H236.931L238.893 198.396C239.479 198.982 239.479 199.932 238.893 200.518C238.308 201.103 237.358 201.103 236.772 200.518L234.628 198.373V199.639C234.628 200.467 233.956 201.139 233.128 201.139C232.299 201.139 231.628 200.467 231.628 199.639V195.373L228.061 191.806L224.131 195.735V199.639C224.131 200.467 223.46 201.139 222.631 201.139C221.803 201.139 221.131 200.467 221.131 199.639V198.735L219.168 200.699C218.582 201.285 217.632 201.285 217.047 200.699C216.461 200.113 216.461 199.163 217.047 198.578L219.191 196.434H217.926C217.098 196.434 216.426 195.762 216.426 194.934C216.426 194.105 217.098 193.434 217.926 193.434L222.19 193.434L225.939 189.685L222.19 185.936H217.926C217.098 185.936 216.426 185.264 216.426 184.436C216.426 183.607 217.098 182.936 217.926 182.936H219.19L217.046 180.792C216.461 180.206 216.461 179.256 217.046 178.671Z" fill="white"/>
</g>
<defs>
<filter id="filter0_d_302_79" x="0" y="0" width="390" height="540" filterUnits="userSpaceOnUse" color-interpolation-filters="sRGB">
<feFlood flood-opacity="0" result="BackgroundImageFix"/>
<feColorMatrix in="SourceAlpha" type="matrix" values="0 0 0 0 0 0 0 0 0 0 0 0 0 0 0 0 0 0 127 0" result="hardAlpha"/>
<feOffset/>
<feGaussianBlur stdDeviation="10"/>
<feComposite in2="hardAlpha" operator="out"/>
<feColorMatrix type="matrix" values="0 0 0 0 1 0 0 0 0 0.233333 0 0 0 0 0.556367 0 0 0 1 0"/>
<feBlend mode="normal" in2="BackgroundImageFix" result="effect1_dropShadow_302_79"/>
<feBlend mode="normal" in="SourceGraphic" in2="effect1_dropShadow_302_79" result="shape"/>
</filter>
</defs>
</svg>
