<svg width="390" height="540" viewBox="0 0 390 540" fill="none" xmlns="http://www.w3.org/2000/svg">
<g filter="url(#filter0_d_164_2064)">
<path fill-rule="evenodd" clip-rule="evenodd" d="M20 60C20 37.9086 37.9086 20 60 20H330C352.091 20 370 37.9086 370 60V480C370 502.091 352.091 520 330 520H60C37.9086 520 20 502.091 20 480V60ZM194.479 398.28C181.593 398.28 172.036 394.909 165.807 388.168C159.577 381.341 156.462 370.547 156.462 355.784C156.462 341.021 159.577 330.269 165.807 323.528C172.036 316.701 181.593 313.288 194.479 313.288C207.449 313.288 217.007 316.701 223.151 323.528C229.38 330.269 232.495 341.021 232.495 355.784C232.495 370.547 229.38 381.341 223.151 388.168C217.007 394.909 207.449 398.28 194.479 398.28ZM194.479 389.32C200.708 389.32 205.828 388.253 209.839 386.12C213.935 383.987 216.964 380.488 218.927 375.624C220.975 370.675 221.999 364.061 221.999 355.784C221.999 347.507 220.975 340.936 218.927 336.072C216.964 331.123 213.935 327.581 209.839 325.448C205.828 323.315 200.708 322.248 194.479 322.248C188.249 322.248 183.087 323.315 178.991 325.448C174.98 327.581 171.951 331.123 169.902 336.072C167.94 340.936 166.958 347.507 166.958 355.784C166.958 364.061 167.94 370.675 169.902 375.624C171.951 380.488 174.98 383.987 178.991 386.12C183.087 388.253 188.249 389.32 194.479 389.32ZM147.438 429.632C148.931 431.424 151.267 432.32 154.445 432.32C157.624 432.32 159.96 431.424 161.454 429.632C162.947 427.84 163.693 425.227 163.693 421.792C163.693 418.101 162.947 415.392 161.454 413.664C159.96 411.936 157.624 411.072 154.445 411.072C151.267 411.072 148.931 411.936 147.438 413.664C145.944 415.392 145.198 418.101 145.198 421.792C145.198 425.227 145.944 427.84 147.438 429.632ZM160.077 428.64C158.861 430.091 156.984 430.816 154.445 430.816C151.907 430.816 150.019 430.091 148.781 428.64C147.544 427.189 146.925 424.907 146.925 421.792C146.925 419.531 147.192 417.728 147.726 416.384C148.28 415.04 149.112 414.08 150.221 413.504C151.352 412.907 152.76 412.608 154.445 412.608C156.131 412.608 157.528 412.907 158.637 413.504C159.747 414.08 160.568 415.04 161.102 416.384C161.656 417.728 161.934 419.531 161.934 421.792C161.934 424.907 161.315 427.189 160.077 428.64ZM171.199 424.288L165.471 432H167.359L172.127 425.472L176.927 432H178.847L173.151 424.288L178.623 416.832H176.735L172.127 423.072L167.551 416.832H165.631L171.199 424.288ZM182.58 437.536C182.964 437.6 183.38 437.632 183.828 437.632C184.831 437.632 185.663 437.365 186.324 436.832C186.986 436.299 187.562 435.573 188.052 434.656C188.564 433.739 189.076 432.693 189.588 431.52L196.148 416.832H194.356L188.436 430.016L182.74 416.832H180.916L187.54 431.904C187.156 432.8 186.794 433.557 186.452 434.176C186.111 434.816 185.716 435.296 185.268 435.616C184.82 435.957 184.223 436.128 183.476 436.128C183.156 436.128 182.836 436.107 182.516 436.064C182.218 436.021 181.887 435.936 181.524 435.808V437.28C181.866 437.408 182.218 437.493 182.58 437.536ZM200.772 437.44C201.796 437.568 202.873 437.632 204.004 437.632C206.158 437.632 207.833 437.376 209.028 436.864C210.222 436.373 210.82 435.381 210.82 433.888C210.82 431.648 209.305 430.528 206.276 430.528H202.02C201.017 430.528 200.324 430.421 199.94 430.208C199.577 429.995 199.396 429.653 199.396 429.184C199.396 428.565 199.694 428.085 200.292 427.744C200.889 427.381 201.582 427.157 202.372 427.072C202.756 427.136 203.108 427.189 203.428 427.232C203.748 427.253 204.078 427.264 204.42 427.264C206.51 427.264 208.036 426.816 208.996 425.92C209.977 425.003 210.468 423.68 210.468 421.952C210.468 421.205 210.34 420.501 210.084 419.84C209.849 419.179 209.454 418.613 208.9 418.144H211.844L211.908 416.832H206.564C206.286 416.768 205.913 416.704 205.444 416.64C204.996 416.555 204.548 416.512 204.1 416.512C201.902 416.512 200.281 416.949 199.236 417.824C198.19 418.677 197.668 420.053 197.668 421.952C197.668 422.997 197.86 423.925 198.244 424.736C198.649 425.547 199.332 426.144 200.292 426.528C199.438 426.741 198.788 427.115 198.34 427.648C197.892 428.181 197.668 428.757 197.668 429.376C197.668 430.251 197.998 430.912 198.66 431.36C199.321 431.808 200.356 432.032 201.764 432.032H205.892C207.108 432.032 207.94 432.171 208.388 432.448C208.836 432.747 209.06 433.259 209.06 433.984C209.06 434.944 208.622 435.552 207.748 435.808C206.873 436.064 205.604 436.192 203.94 436.192C202.958 436.192 201.956 436.117 200.932 435.968C199.929 435.84 198.99 435.637 198.116 435.36V436.864C198.862 437.141 199.748 437.333 200.772 437.44ZM207.716 424.992C207.054 425.589 205.849 425.888 204.1 425.888C202.372 425.888 201.156 425.579 200.452 424.96C199.769 424.32 199.428 423.317 199.428 421.952C199.428 420.48 199.79 419.435 200.516 418.816C201.241 418.197 202.436 417.888 204.1 417.888C205.764 417.888 206.948 418.208 207.652 418.848C208.377 419.488 208.74 420.523 208.74 421.952C208.74 423.381 208.398 424.395 207.716 424.992ZM216.178 430.4C217.437 431.68 219.432 432.32 222.163 432.32C223.827 432.32 225.309 432.053 226.611 431.52V430.08C225.288 430.613 223.923 430.88 222.514 430.88C220.189 430.88 218.557 430.453 217.618 429.6C216.68 428.725 216.168 427.307 216.083 425.344H227.603V422.592C227.603 421.461 227.378 420.437 226.93 419.52C226.504 418.603 225.832 417.877 224.915 417.344C223.997 416.789 222.803 416.512 221.331 416.512C218.856 416.512 217.064 417.205 215.954 418.592C214.867 419.979 214.322 421.888 214.322 424.32C214.322 427.072 214.941 429.099 216.178 430.4ZM226.003 423.968H216.083C216.083 422.048 216.456 420.576 217.202 419.552C217.971 418.507 219.357 417.984 221.363 417.984C223.005 417.984 224.189 418.389 224.915 419.2C225.64 420.011 226.003 421.12 226.003 422.528V423.968ZM232.087 416.832V432H233.848V420.192C234.53 419.531 235.32 418.997 236.215 418.592C237.133 418.187 238.125 417.984 239.191 417.984C240.898 417.984 242.05 418.283 242.648 418.88C243.266 419.477 243.576 420.523 243.576 422.016V432H245.335V421.984C245.335 420.085 244.909 418.699 244.055 417.824C243.202 416.949 241.826 416.512 239.928 416.512C238.562 416.512 237.389 416.715 236.408 417.12C235.426 417.525 234.551 418.048 233.783 418.688L233.624 416.832H232.087ZM284.54 176.002H293.689C297.935 176.002 301.389 177.587 303.792 180.16C306.163 182.698 307.391 186.065 307.501 189.483C307.722 196.378 303.406 203.736 294.292 206.001C292.057 206.557 288.282 206.932 283.593 207.2C278.836 207.472 272.938 207.642 266.338 207.734C253.133 207.919 237.031 207.796 221.443 207.55C205.851 207.304 190.757 206.935 179.561 206.627C173.963 206.473 169.339 206.335 166.114 206.235C164.502 206.185 163.239 206.145 162.379 206.117C161.949 206.103 161.62 206.092 161.398 206.085L161.147 206.076L161.083 206.074L161.067 206.074L161.063 206.074C161.062 206.074 161.061 206.074 161.146 203.575C161.23 201.076 161.23 201.076 161.231 201.076L161.235 201.077L161.251 201.077L161.314 201.079L161.564 201.088C161.784 201.095 162.112 201.106 162.541 201.12C163.399 201.147 164.659 201.188 166.269 201.238C169.489 201.337 174.107 201.475 179.699 201.629C190.882 201.936 205.956 202.305 221.522 202.55C237.092 202.796 253.137 202.918 266.268 202.734C272.835 202.643 278.652 202.474 283.308 202.208C288.031 201.938 291.365 201.577 293.086 201.149C299.798 199.481 302.653 194.303 302.504 189.644C302.428 187.286 301.585 185.122 300.139 183.573C298.725 182.059 296.615 181.002 293.689 181.002H284.54H282.144H281.532H281.377H281.338H281.328H281.326H281.325L281.325 178.502L281.325 176.002H281.326H281.328H281.338H281.377H281.532H282.144H284.54ZM246.437 262.834H237.287H234.892H234.279H234.124H234.085H234.076H234.073H234.073H234.073L234.072 260.334L234.073 257.834H234.073H234.073H234.076H234.086H234.124H234.279H234.892H237.287H246.437C249.402 257.834 251.56 256.809 253.006 255.349C254.476 253.865 255.339 251.799 255.438 249.532C255.633 245.078 252.837 239.8 245.716 237.655C243.928 237.117 240.886 236.634 236.769 236.232C232.702 235.835 227.744 235.531 222.215 235.301C211.161 234.842 197.924 234.689 185.172 234.689C172.425 234.689 160.184 234.842 151.128 234.996C146.601 235.072 142.871 235.149 140.273 235.207C138.975 235.235 137.959 235.259 137.268 235.276L136.872 235.286L136.482 235.296L136.281 235.301L136.23 235.302L136.218 235.302L136.215 235.302C136.214 235.302 136.214 235.302 136.148 232.803C136.083 230.304 136.083 230.304 136.084 230.304L136.088 230.304L136.101 230.304L136.152 230.302L136.355 230.297C136.534 230.293 136.8 230.286 137.147 230.278C137.841 230.261 138.86 230.237 140.163 230.208C142.768 230.15 146.506 230.073 151.043 229.996C160.117 229.843 172.388 229.689 185.172 229.689C197.952 229.689 211.267 229.842 222.423 230.305C227.999 230.537 233.059 230.847 237.255 231.256C241.401 231.661 244.865 232.177 247.158 232.868C256.357 235.639 260.733 242.897 260.433 249.751C260.285 253.138 258.984 256.418 256.559 258.867C254.11 261.34 250.642 262.834 246.437 262.834ZM317.497 235.559C317.635 228.384 312.755 220.947 303.058 218.988C298.548 218.077 288.469 217.49 276.171 217.095C263.771 216.697 248.852 216.491 234.481 216.391C220.108 216.292 206.268 216.301 196.024 216.334C190.901 216.351 186.676 216.374 183.732 216.392C182.26 216.402 181.108 216.41 180.323 216.416C180.067 216.418 179.851 216.42 179.675 216.421L179.429 216.423L179.199 216.425L179.141 216.425L179.127 216.426L179.123 216.426C179.122 216.426 179.122 216.426 179.143 218.926C179.165 221.425 179.166 221.425 179.166 221.425L179.17 221.425L179.184 221.425L179.242 221.425L179.47 221.423C179.671 221.421 179.97 221.419 180.361 221.416C181.144 221.41 182.294 221.402 183.764 221.392C186.704 221.374 190.923 221.351 196.04 221.334C206.274 221.301 220.095 221.292 234.447 221.391C248.801 221.49 263.672 221.697 276.011 222.093C288.451 222.492 298.058 223.079 302.068 223.889C309.408 225.372 312.589 230.716 312.498 235.463C312.452 237.871 311.572 240.114 309.975 241.742C308.404 243.344 305.989 244.503 302.563 244.503L302.563 249.503C307.197 249.503 310.943 247.896 313.545 245.243C316.122 242.615 317.429 239.112 317.497 235.559ZM116.142 219.237V214.237H103.097V219.237H116.142ZM95.0691 219.237H80.5635C77.0337 213.078 75 205.842 75 198.1C75 175.651 92.0999 157.453 113.194 157.453C114.314 157.453 115.422 157.504 116.518 157.605C122.485 140.744 135.854 129 151.388 129C162.326 129 172.19 134.822 179.153 144.155C184.899 141.638 191.045 141.116 196.899 143.087C205.133 145.858 211.173 153.018 214.197 162.251C231.162 161.511 246.896 171.417 252.535 188.027L247.8 189.634C242.92 175.259 229.3 166.597 214.415 167.247L210.626 167.412L209.446 163.808C206.776 155.655 201.669 149.968 195.304 147.826C190.775 146.301 185.917 146.651 181.159 148.735L177.521 150.328L175.146 147.145C168.923 138.805 160.436 134 151.388 134C138.596 134 126.726 143.748 121.231 159.273L119.933 162.94L116.059 162.584C115.118 162.497 114.162 162.453 113.194 162.453C95.15 162.453 80 178.115 80 198.1C80 203.925 81.2982 209.404 83.5884 214.237H95.0691V219.237ZM252.535 188.027C253.98 192.281 254.651 196.648 254.623 200.976H249.622C249.65 197.173 249.062 193.348 247.801 189.634L252.535 188.027Z" fill="white"/>
</g>
<defs>
<filter id="filter0_d_164_2064" x="0" y="0" width="390" height="540" filterUnits="userSpaceOnUse" color-interpolation-filters="sRGB">
<feFlood flood-opacity="0" result="BackgroundImageFix"/>
<feColorMatrix in="SourceAlpha" type="matrix" values="0 0 0 0 0 0 0 0 0 0 0 0 0 0 0 0 0 0 127 0" result="hardAlpha"/>
<feOffset/>
<feGaussianBlur stdDeviation="10"/>
<feComposite in2="hardAlpha" operator="out"/>
<feColorMatrix type="matrix" values="0 0 0 0 1 0 0 0 0 0.233333 0 0 0 0 0.556367 0 0 0 1 0"/>
<feBlend mode="normal" in2="BackgroundImageFix" result="effect1_dropShadow_164_2064"/>
<feBlend mode="normal" in="SourceGraphic" in2="effect1_dropShadow_164_2064" result="shape"/>
</filter>
</defs>
</svg>
