<svg width="390" height="540" viewBox="0 0 390 540" fill="none" xmlns="http://www.w3.org/2000/svg">
<g filter="url(#filter0_d_302_116)">
<path fill-rule="evenodd" clip-rule="evenodd" d="M60 20C37.9086 20 20 37.9086 20 60V480C20 502.091 37.9086 520 60 520H330C352.091 520 370 502.091 370 480V60C370 37.9086 352.091 20 330 20H60ZM166.21 314.568V397H176.706V367.176H200.514C208.962 367.176 215.618 364.872 220.482 360.264C225.431 355.571 227.906 349.213 227.906 341.192C227.906 333.341 225.73 326.941 221.378 321.992C217.026 317.043 210.242 314.568 201.026 314.568H166.21ZM198.85 358.984H176.706V322.888H199.49C205.549 322.888 210.029 324.509 212.93 327.752C215.917 330.909 217.41 335.389 217.41 341.192C217.41 346.653 215.831 351.005 212.674 354.248C209.602 357.405 204.994 358.984 198.85 358.984ZM115.603 432V411.392H123.795C126.056 411.392 127.71 411.989 128.755 413.184C129.822 414.357 130.355 415.904 130.355 417.824C130.355 419.765 129.758 421.301 128.563 422.432C127.368 423.541 125.736 424.096 123.667 424.096H117.363V432H115.603ZM117.363 422.688H123.507C125.192 422.688 126.462 422.251 127.315 421.376C128.168 420.501 128.595 419.317 128.595 417.824C128.595 416.224 128.179 414.997 127.347 414.144C126.536 413.269 125.31 412.832 123.667 412.832H117.363V422.688ZM133.884 432V410.432H135.644V418.656C136.391 418.016 137.244 417.504 138.204 417.12C139.186 416.715 140.359 416.512 141.724 416.512C143.559 416.512 144.914 416.949 145.788 417.824C146.684 418.699 147.132 420.085 147.132 421.984V432H145.372V422.016C145.372 420.523 145.052 419.477 144.412 418.88C143.794 418.283 142.674 417.984 141.052 417.984C140.007 417.984 139.015 418.197 138.076 418.624C137.138 419.029 136.327 419.563 135.644 420.224V432H133.884ZM158.039 432.32C155.479 432.32 153.634 431.648 152.503 430.304C151.372 428.96 150.807 426.997 150.807 424.416C150.807 421.856 151.383 419.904 152.535 418.56C153.687 417.195 155.522 416.512 158.039 416.512C160.578 416.512 162.423 417.195 163.575 418.56C164.727 419.904 165.303 421.856 165.303 424.416C165.303 426.997 164.727 428.96 163.575 430.304C162.444 431.648 160.599 432.32 158.039 432.32ZM158.039 430.816C160.066 430.816 161.484 430.293 162.295 429.248C163.127 428.203 163.543 426.592 163.543 424.416C163.543 422.261 163.127 420.661 162.295 419.616C161.463 418.571 160.044 418.048 158.039 418.048C156.034 418.048 154.615 418.571 153.783 419.616C152.951 420.661 152.535 422.261 152.535 424.416C152.535 426.592 152.951 428.203 153.783 429.248C154.615 430.293 156.034 430.816 158.039 430.816ZM173.77 432.32C172.874 432.32 172.01 432.256 171.178 432.128C170.367 432.021 169.674 431.872 169.098 431.68V430.112C169.802 430.347 170.527 430.528 171.274 430.656C172.021 430.763 172.778 430.816 173.546 430.816C175.039 430.816 176.106 430.624 176.746 430.24C177.386 429.835 177.706 429.141 177.706 428.16C177.706 427.477 177.546 426.965 177.226 426.624C176.927 426.261 176.447 425.952 175.786 425.696C175.125 425.44 174.282 425.141 173.258 424.8C172.405 424.501 171.626 424.213 170.922 423.936C170.239 423.637 169.695 423.232 169.29 422.72C168.885 422.187 168.682 421.451 168.682 420.512C168.682 419.189 169.119 418.197 169.994 417.536C170.869 416.853 172.287 416.512 174.25 416.512C175.018 416.512 175.743 416.565 176.426 416.672C177.13 416.757 177.749 416.885 178.282 417.056V418.624C177.045 418.24 175.786 418.048 174.506 418.048C172.991 418.048 171.925 418.24 171.306 418.624C170.709 418.987 170.41 419.605 170.41 420.48C170.41 421.077 170.538 421.547 170.794 421.888C171.071 422.208 171.498 422.485 172.074 422.72C172.671 422.955 173.439 423.221 174.378 423.52C175.509 423.883 176.447 424.245 177.194 424.608C177.962 424.971 178.527 425.429 178.89 425.984C179.274 426.517 179.466 427.243 179.466 428.16C179.466 429.653 178.954 430.72 177.93 431.36C176.927 432 175.541 432.32 173.77 432.32ZM183.634 438.912V416.832H185.106L185.266 418.56C186.013 417.856 186.813 417.344 187.666 417.024C188.541 416.683 189.565 416.512 190.738 416.512C192.872 416.512 194.536 417.141 195.73 418.4C196.925 419.637 197.522 421.632 197.522 424.384C197.522 427.136 196.904 429.152 195.666 430.432C194.429 431.691 192.744 432.32 190.61 432.32C189.544 432.32 188.594 432.192 187.762 431.936C186.93 431.68 186.141 431.285 185.394 430.752V438.912H183.634ZM190.162 430.88C192.061 430.88 193.469 430.368 194.386 429.344C195.325 428.299 195.794 426.645 195.794 424.384C195.794 422.229 195.368 420.629 194.514 419.584C193.682 418.517 192.285 417.984 190.322 417.984C188.317 417.984 186.674 418.667 185.394 420.032V429.184C185.992 429.696 186.674 430.112 187.442 430.432C188.21 430.731 189.117 430.88 190.162 430.88ZM201.697 432V410.432H203.457V418.656C204.204 418.016 205.057 417.504 206.017 417.12C206.998 416.715 208.172 416.512 209.537 416.512C211.372 416.512 212.726 416.949 213.601 417.824C214.497 418.699 214.945 420.085 214.945 421.984V432H213.185V422.016C213.185 420.523 212.865 419.477 212.225 418.88C211.606 418.283 210.486 417.984 208.865 417.984C207.82 417.984 206.828 418.197 205.889 418.624C204.95 419.029 204.14 419.563 203.457 420.224V432H201.697ZM225.851 432.32C223.291 432.32 221.446 431.648 220.315 430.304C219.185 428.96 218.619 426.997 218.619 424.416C218.619 421.856 219.195 419.904 220.347 418.56C221.499 417.195 223.334 416.512 225.851 416.512C228.39 416.512 230.235 417.195 231.387 418.56C232.539 419.904 233.115 421.856 233.115 424.416C233.115 426.997 232.539 428.96 231.387 430.304C230.257 431.648 228.411 432.32 225.851 432.32ZM225.851 430.816C227.878 430.816 229.297 430.293 230.107 429.248C230.939 428.203 231.355 426.592 231.355 424.416C231.355 422.261 230.939 420.661 230.107 419.616C229.275 418.571 227.857 418.048 225.851 418.048C223.846 418.048 222.427 418.571 221.595 419.616C220.763 420.661 220.347 422.261 220.347 424.416C220.347 426.592 220.763 428.203 221.595 429.248C222.427 430.293 223.846 430.816 225.851 430.816ZM237.291 432V416.832H238.827L239.019 418.944C239.808 418.389 240.704 417.899 241.707 417.472C242.731 417.045 243.733 416.725 244.715 416.512V417.952C244.096 418.101 243.424 418.304 242.699 418.56C241.995 418.816 241.312 419.104 240.651 419.424C240.011 419.723 239.477 420.032 239.051 420.352V432H237.291ZM253.385 432.32C251.572 432.32 250.196 431.808 249.257 430.784C248.319 429.76 247.849 428.309 247.849 426.432V416.832H249.609V426.496C249.609 427.947 249.972 429.045 250.697 429.792C251.423 430.517 252.564 430.88 254.121 430.88C255.188 430.88 256.159 430.677 257.033 430.272C257.929 429.845 258.697 429.312 259.337 428.672V416.832H261.097V432H259.529L259.369 430.144C258.623 430.805 257.769 431.339 256.809 431.744C255.849 432.128 254.708 432.32 253.385 432.32ZM270.332 432.32C269.436 432.32 268.572 432.256 267.74 432.128C266.93 432.021 266.236 431.872 265.66 431.68V430.112C266.364 430.347 267.09 430.528 267.836 430.656C268.583 430.763 269.34 430.816 270.108 430.816C271.602 430.816 272.668 430.624 273.308 430.24C273.948 429.835 274.268 429.141 274.268 428.16C274.268 427.477 274.108 426.965 273.788 426.624C273.49 426.261 273.01 425.952 272.348 425.696C271.687 425.44 270.844 425.141 269.82 424.8C268.967 424.501 268.188 424.213 267.484 423.936C266.802 423.637 266.258 423.232 265.852 422.72C265.447 422.187 265.244 421.451 265.244 420.512C265.244 419.189 265.682 418.197 266.556 417.536C267.431 416.853 268.85 416.512 270.812 416.512C271.58 416.512 272.306 416.565 272.988 416.672C273.692 416.757 274.311 416.885 274.844 417.056V418.624C273.607 418.24 272.348 418.048 271.068 418.048C269.554 418.048 268.487 418.24 267.868 418.624C267.271 418.987 266.972 419.605 266.972 420.48C266.972 421.077 267.1 421.547 267.356 421.888C267.634 422.208 268.06 422.485 268.636 422.72C269.234 422.955 270.002 423.221 270.94 423.52C272.071 423.883 273.01 424.245 273.756 424.608C274.524 424.971 275.09 425.429 275.452 425.984C275.836 426.517 276.028 427.243 276.028 428.16C276.028 429.653 275.516 430.72 274.492 431.36C273.49 432 272.103 432.32 270.332 432.32ZM200.295 194.938C205.072 194.021 210.29 194.986 215.147 196.907C217.194 197.717 219.123 198.8 220.88 200.127L222.716 201.514C228.449 205.843 232.245 212.256 233.282 219.364C233.786 222.816 233.624 226.333 232.804 229.724L232.338 231.654C230.422 239.579 225.96 246.674 219.738 252.016C219.414 252.294 219.079 252.581 218.725 252.883C214.538 256.453 209.55 259.045 204.209 260.787C203.324 261.075 202.49 261.35 201.696 261.611C197.396 263.026 194.302 264.043 190.921 264.754C187.238 265.529 183.173 265.943 176.889 265.995C165.406 265.878 158.584 263.959 152.618 262.066C146.11 260 139.937 256.941 134.663 252.765L134.138 252.35C127.282 246.93 122.614 239.223 120.803 230.632L120.446 228.938C119.839 226.053 119.693 223.09 120.016 220.16C120.854 212.552 124.792 205.625 130.901 201.013L132.073 200.128C133.832 198.801 135.761 197.717 137.81 196.907C142.668 194.986 147.888 194.021 152.666 194.938C153.207 195.042 153.75 195.173 154.303 195.343C156.984 196.167 159.529 197.341 162.243 198.594L162.244 198.594L162.251 198.598C162.978 198.933 163.717 199.274 164.474 199.615C167.958 201.187 171.738 202.717 175.88 203.208C176.086 203.232 176.288 203.231 176.484 203.207C176.681 203.231 176.883 203.232 177.089 203.208C181.23 202.717 185.008 201.187 188.492 199.615C189.25 199.273 189.99 198.932 190.718 198.596L190.723 198.593C193.436 197.341 195.979 196.167 198.658 195.343C199.211 195.173 199.755 195.042 200.295 194.938ZM191.949 269.647C188.147 270.447 184.08 270.875 178.348 270.977C178.234 270.992 178.118 271.001 178 271.001C177.624 271.001 177.252 270.999 176.885 270.995C176.434 270.999 175.972 271.001 175.5 271.001C175.35 271.001 175.204 270.987 175.061 270.962C163.973 270.667 157.055 268.719 151.106 266.832C144.121 264.615 137.384 261.298 131.559 256.685L131.038 256.273C123.233 250.103 117.954 241.358 115.911 231.663L115.554 229.969C114.837 226.565 114.665 223.07 115.046 219.613C116.035 210.636 120.681 202.464 127.888 197.023L129.061 196.137C131.179 194.539 133.503 193.233 135.971 192.258C141.35 190.131 147.576 188.87 153.608 190.028C154.306 190.162 155.027 190.335 155.772 190.564C158.807 191.496 161.746 192.854 164.496 194.125L164.496 194.125C165.186 194.444 165.864 194.757 166.529 195.057C169.945 196.597 173.135 197.848 176.469 198.243L176.484 198.245L176.5 198.243C179.833 197.848 183.022 196.598 186.436 195.058C187.101 194.758 187.779 194.444 188.469 194.125C191.217 192.855 194.155 191.497 197.189 190.564C197.934 190.335 198.655 190.162 199.352 190.028C205.383 188.87 211.609 190.131 216.986 192.258C219.453 193.234 221.776 194.539 223.893 196.137L225.729 197.524C232.511 202.645 237.002 210.232 238.23 218.642C238.826 222.726 238.634 226.886 237.664 230.898L237.198 232.828C235.025 241.818 229.977 249.816 222.995 255.809C222.667 256.091 222.328 256.381 221.969 256.687C217.201 260.754 211.607 263.633 205.759 265.54C205.441 265.644 205.128 265.746 204.82 265.848L204.233 266.04C203.921 266.143 203.614 266.244 203.312 266.343C199.018 267.757 195.624 268.875 191.949 269.647ZM161.543 205.088C160.644 204.446 159.395 204.654 158.753 205.553C158.111 206.452 158.319 207.701 159.218 208.343C169.732 215.853 183.856 215.853 194.371 208.343C195.27 207.701 195.478 206.452 194.836 205.553C194.194 204.654 192.945 204.446 192.046 205.088C182.922 211.605 170.666 211.605 161.543 205.088ZM192.753 155.138C193.395 154.239 194.644 154.031 195.543 154.673C204.667 161.19 216.923 161.19 226.046 154.673C226.945 154.031 228.194 154.239 228.836 155.138C229.478 156.037 229.27 157.286 228.371 157.928C217.857 165.438 203.733 165.438 193.218 157.928C192.319 157.286 192.111 156.037 192.753 155.138ZM131.912 218.646C132.169 217.572 131.507 216.493 130.433 216.236C129.359 215.978 128.279 216.641 128.022 217.715L127.679 219.149C126.047 225.966 128.209 233.133 133.339 237.91C134.147 238.663 135.412 238.618 136.165 237.81C136.918 237.001 136.873 235.736 136.065 234.983C131.99 231.188 130.273 225.495 131.569 220.08L131.912 218.646ZM164.433 165.821C165.508 166.078 166.17 167.157 165.913 168.232L165.57 169.666C164.273 175.08 165.991 180.774 170.065 184.568C170.874 185.321 170.919 186.587 170.166 187.395C169.413 188.203 168.148 188.248 167.339 187.495C162.21 182.718 160.048 175.551 161.679 168.734L162.023 167.3C162.28 166.226 163.359 165.564 164.433 165.821ZM221.736 221.374C221.75 222.479 222.657 223.363 223.761 223.349C224.866 223.335 225.75 222.429 225.736 221.324L225.721 220.089C225.64 213.672 222.083 207.806 216.432 204.766C215.459 204.243 214.247 204.608 213.723 205.58C213.2 206.553 213.565 207.766 214.537 208.289C218.908 210.64 221.658 215.177 221.721 220.139L221.736 221.374ZM257.762 172.934C256.658 172.948 255.751 172.064 255.737 170.96L255.721 169.724C255.659 164.762 252.908 160.225 248.538 157.874C247.565 157.351 247.201 156.138 247.724 155.166C248.247 154.193 249.46 153.828 250.433 154.352C256.084 157.391 259.64 163.258 259.721 169.674L259.737 170.909C259.751 172.014 258.867 172.92 257.762 172.934ZM186.666 143.35C181.888 142.433 176.668 143.398 171.81 145.319C169.762 146.129 167.832 147.213 166.074 148.54L164.901 149.425C158.792 154.037 154.854 160.963 154.016 168.572C153.694 171.502 153.839 174.465 154.447 177.35L154.804 179.043C155.431 182.022 156.413 184.897 157.699 187.639C156.184 187.007 154.638 186.422 153.067 185.939C152.51 185.768 151.964 185.625 151.431 185.505C150.811 183.739 150.301 181.927 149.911 180.074L149.554 178.381C148.837 174.977 148.666 171.482 149.046 168.024C150.035 159.048 154.681 150.876 161.889 145.435L163.061 144.549C165.179 142.95 167.504 141.645 169.971 140.669C175.35 138.542 181.577 137.282 187.609 138.44C188.307 138.574 189.028 138.747 189.772 138.975C192.807 139.908 195.747 141.266 198.497 142.537L198.497 142.537C199.187 142.856 199.865 143.169 200.529 143.469C203.945 145.009 207.135 146.259 210.469 146.655L210.485 146.657L210.5 146.655C213.833 146.259 217.022 145.01 220.436 143.47C221.101 143.17 221.779 142.856 222.469 142.537C225.218 141.267 228.156 139.908 231.189 138.976C231.934 138.747 232.655 138.574 233.353 138.44C239.384 137.282 245.609 138.543 250.986 140.67C253.453 141.646 255.777 142.951 257.894 144.549L259.73 145.936C266.512 151.057 271.003 158.644 272.23 167.054C272.826 171.138 272.634 175.298 271.664 179.31L271.198 181.24C269.022 190.243 263.924 198.149 257.298 204.392C256.991 204.682 256.683 204.973 256.374 205.265L256.369 205.269C255.861 205.749 255.349 206.232 254.834 206.716C251.547 209.803 247.854 212.458 243.891 214.618C243.535 212.933 243.058 211.285 242.468 209.684C245.695 207.83 248.708 205.61 251.411 203.072C251.919 202.595 252.415 202.126 252.915 201.654L252.917 201.652L252.932 201.638L252.933 201.637C253.243 201.345 253.554 201.051 253.869 200.753C259.909 195.062 264.426 187.977 266.338 180.065L266.804 178.135C267.624 174.744 267.786 171.228 267.282 167.776C266.245 160.668 262.449 154.255 256.717 149.926L254.881 148.539C253.123 147.212 251.195 146.129 249.147 145.319C244.291 143.398 239.072 142.433 234.295 143.35C233.755 143.454 233.211 143.585 232.658 143.755C229.98 144.579 227.436 145.753 224.723 147.005L224.722 147.006C223.993 147.342 223.252 147.685 222.492 148.027C219.009 149.599 215.23 151.129 211.089 151.62C210.884 151.644 210.681 151.643 210.485 151.619C210.288 151.643 210.086 151.644 209.881 151.62C205.738 151.129 201.959 149.599 198.474 148.027C197.714 147.685 196.973 147.342 196.243 147.006C193.529 145.753 190.984 144.578 188.304 143.755C187.751 143.585 187.207 143.454 186.666 143.35Z" fill="white"/>
</g>
<defs>
<filter id="filter0_d_302_116" x="0" y="0" width="390" height="540" filterUnits="userSpaceOnUse" color-interpolation-filters="sRGB">
<feFlood flood-opacity="0" result="BackgroundImageFix"/>
<feColorMatrix in="SourceAlpha" type="matrix" values="0 0 0 0 0 0 0 0 0 0 0 0 0 0 0 0 0 0 127 0" result="hardAlpha"/>
<feOffset/>
<feGaussianBlur stdDeviation="10"/>
<feComposite in2="hardAlpha" operator="out"/>
<feColorMatrix type="matrix" values="0 0 0 0 1 0 0 0 0 0.233333 0 0 0 0 0.556367 0 0 0 1 0"/>
<feBlend mode="normal" in2="BackgroundImageFix" result="effect1_dropShadow_302_116"/>
<feBlend mode="normal" in="SourceGraphic" in2="effect1_dropShadow_302_116" result="shape"/>
</filter>
</defs>
</svg>
