<svg width="390" height="540" viewBox="0 0 390 540" fill="none" xmlns="http://www.w3.org/2000/svg">
<g filter="url(#filter0_d_308_347)">
<path fill-rule="evenodd" clip-rule="evenodd" d="M20 60C20 37.9086 37.9086 20 60 20H330C352.091 20 370 37.9086 370 60V480C370 502.091 352.091 520 330 520H60C37.9086 520 20 502.091 20 480V60ZM128.96 397V314.568H163.776C172.992 314.568 179.776 317.043 184.128 321.992C188.48 326.941 190.656 333.341 190.656 341.192C190.656 349.213 188.181 355.571 183.232 360.264C178.368 364.872 171.712 367.176 163.264 367.176H139.456V397H128.96ZM139.456 358.984H161.6C167.744 358.984 172.352 357.405 175.424 354.248C178.581 351.005 180.16 346.653 180.16 341.192C180.16 335.389 178.667 330.909 175.68 327.752C172.779 324.509 168.299 322.888 162.24 322.888H139.456V358.984ZM231.236 398.28C220.655 398.28 212.932 395.592 208.068 390.216C203.289 384.755 200.9 376.904 200.9 366.664C200.9 356.509 203.332 348.701 208.196 343.24C213.06 337.779 220.74 335.048 231.236 335.048C241.732 335.048 249.412 337.779 254.276 343.24C259.14 348.701 261.572 356.509 261.572 366.664C261.572 376.904 259.183 384.755 254.404 390.216C249.625 395.592 241.903 398.28 231.236 398.28ZM231.236 389.32C238.489 389.32 243.609 387.528 246.596 383.944C249.583 380.275 251.076 374.515 251.076 366.664C251.076 358.813 249.54 353.096 246.468 349.512C243.481 345.843 238.404 344.008 231.236 344.008C224.068 344.008 218.948 345.843 215.876 349.512C212.889 353.096 211.396 358.813 211.396 366.664C211.396 374.515 212.889 380.275 215.876 383.944C218.863 387.528 223.983 389.32 231.236 389.32ZM131.494 411.392V432H133.254V424.096H139.558C141.627 424.096 143.259 423.541 144.454 422.432C145.648 421.301 146.246 419.765 146.246 417.824C146.246 415.904 145.712 414.357 144.646 413.184C143.6 411.989 141.947 411.392 139.686 411.392H131.494ZM139.398 422.688H133.254V412.832H139.558C141.2 412.832 142.427 413.269 143.238 414.144C144.07 414.997 144.486 416.224 144.486 417.824C144.486 419.317 144.059 420.501 143.206 421.376C142.352 422.251 141.083 422.688 139.398 422.688ZM150.831 430.304C151.962 431.648 153.807 432.32 156.367 432.32C158.927 432.32 160.772 431.648 161.903 430.304C163.055 428.96 163.631 426.997 163.631 424.416C163.631 421.856 163.055 419.904 161.903 418.56C160.751 417.195 158.906 416.512 156.367 416.512C153.85 416.512 152.015 417.195 150.863 418.56C149.711 419.904 149.135 421.856 149.135 424.416C149.135 426.997 149.7 428.96 150.831 430.304ZM160.623 429.248C159.812 430.293 158.394 430.816 156.367 430.816C154.362 430.816 152.943 430.293 152.111 429.248C151.279 428.203 150.863 426.592 150.863 424.416C150.863 422.261 151.279 420.661 152.111 419.616C152.943 418.571 154.362 418.048 156.367 418.048C158.372 418.048 159.791 418.571 160.623 419.616C161.455 420.661 161.871 422.261 161.871 424.416C161.871 426.592 161.455 428.203 160.623 429.248ZM168.574 431.616C169.086 432.085 169.769 432.32 170.622 432.32C170.878 432.32 171.156 432.299 171.454 432.256C171.753 432.235 172.041 432.181 172.318 432.096V430.624C171.849 430.752 171.38 430.816 170.91 430.816C170.441 430.816 170.1 430.688 169.886 430.432C169.673 430.176 169.566 429.707 169.566 429.024V410.432H167.806V429.088C167.806 430.304 168.062 431.147 168.574 431.616ZM176.737 430.304C177.868 431.648 179.713 432.32 182.273 432.32C184.833 432.32 186.679 431.648 187.809 430.304C188.961 428.96 189.537 426.997 189.537 424.416C189.537 421.856 188.961 419.904 187.809 418.56C186.657 417.195 184.812 416.512 182.273 416.512C179.756 416.512 177.921 417.195 176.769 418.56C175.617 419.904 175.041 421.856 175.041 424.416C175.041 426.997 175.607 428.96 176.737 430.304ZM186.529 429.248C185.719 430.293 184.3 430.816 182.273 430.816C180.268 430.816 178.849 430.293 178.017 429.248C177.185 428.203 176.769 426.592 176.769 424.416C176.769 422.261 177.185 420.661 178.017 419.616C178.849 418.571 180.268 418.048 182.273 418.048C184.279 418.048 185.697 418.571 186.529 419.616C187.361 420.661 187.777 422.261 187.777 424.416C187.777 426.592 187.361 428.203 186.529 429.248ZM193.712 416.832V432H195.473V420.192C196.155 419.531 196.945 418.997 197.84 418.592C198.758 418.187 199.75 417.984 200.816 417.984C202.523 417.984 203.675 418.283 204.273 418.88C204.891 419.477 205.201 420.523 205.201 422.016V432H206.96V421.984C206.96 420.085 206.534 418.699 205.68 417.824C204.827 416.949 203.451 416.512 201.553 416.512C200.187 416.512 199.014 416.715 198.033 417.12C197.051 417.525 196.176 418.048 195.408 418.688L195.249 416.832H193.712ZM212.443 410.976V412.896H214.459V410.976H212.443ZM212.667 418.304V432H214.427V416.832H210.491L210.299 418.304H212.667ZM220.492 430.784C221.43 431.808 222.806 432.32 224.62 432.32C225.942 432.32 227.084 432.128 228.044 431.744C229.004 431.339 229.857 430.805 230.604 430.144L230.764 432H232.332V416.832H230.572V428.672C229.932 429.312 229.164 429.845 228.268 430.272C227.393 430.677 226.422 430.88 225.356 430.88C223.798 430.88 222.657 430.517 221.932 429.792C221.206 429.045 220.844 427.947 220.844 426.496V416.832H219.084V426.432C219.084 428.309 219.553 429.76 220.492 430.784ZM237.119 416.832V432H238.847V420.192C239.529 419.573 240.319 419.051 241.215 418.624C242.111 418.197 243.028 417.984 243.967 417.984C245.375 417.984 246.324 418.315 246.815 418.976C247.305 419.616 247.551 420.661 247.551 422.112V432H249.247V422.08C249.247 421.739 249.225 421.376 249.183 420.992C249.14 420.587 249.087 420.235 249.023 419.936C249.62 419.296 250.345 418.816 251.199 418.496C252.052 418.155 252.959 417.984 253.919 417.984C255.305 417.984 256.319 418.283 256.959 418.88C257.62 419.456 257.951 420.501 257.951 422.016V432H259.679V421.856C259.679 420.021 259.252 418.677 258.399 417.824C257.567 416.949 256.297 416.512 254.591 416.512C253.247 416.512 252.095 416.725 251.135 417.152C250.175 417.557 249.332 418.069 248.607 418.688C248.308 418.005 247.839 417.472 247.199 417.088C246.559 416.704 245.652 416.512 244.479 416.512C243.433 416.512 242.431 416.704 241.471 417.088C240.532 417.472 239.647 418.005 238.815 418.688L238.655 416.832H237.119ZM108.922 270L112.366 260.984H114.074L117.49 270H115.922L115.026 267.676H111.4L110.504 270H108.922ZM114.774 266.5L113.206 262.37L111.638 266.5H114.774ZM123.191 270V263.364H124.591L124.661 264.064C124.96 263.831 125.314 263.635 125.725 263.476C126.145 263.308 126.607 263.224 127.111 263.224C127.97 263.224 128.595 263.425 128.987 263.826C129.379 264.227 129.575 264.853 129.575 265.702V270H128.063V265.772C128.063 265.259 127.956 264.899 127.741 264.694C127.536 264.489 127.144 264.386 126.565 264.386C126.22 264.386 125.879 264.456 125.543 264.596C125.216 264.736 124.941 264.918 124.717 265.142V270H123.191ZM138.019 270.14C137.309 270.14 136.777 269.953 136.423 269.58C136.077 269.197 135.905 268.679 135.905 268.026V264.554H134.925V263.364H135.905V261.838L137.417 261.376V263.364H139.181L139.083 264.554H137.417V267.942C137.417 268.325 137.505 268.595 137.683 268.754C137.86 268.903 138.149 268.978 138.551 268.978C138.803 268.978 139.069 268.931 139.349 268.838V269.916C138.985 270.065 138.541 270.14 138.019 270.14ZM145.276 261.978V260.718H146.942V261.978H145.276ZM145.402 270V264.526H144.394L144.534 263.364H146.928V270H145.402ZM152.628 266.822V265.632H157.976V266.822H152.628ZM165.869 270.14C165.412 270.14 164.973 270.107 164.553 270.042C164.142 269.977 163.802 269.897 163.531 269.804V268.516C163.848 268.637 164.198 268.731 164.581 268.796C164.964 268.861 165.328 268.894 165.673 268.894C166.196 268.894 166.569 268.847 166.793 268.754C167.017 268.661 167.129 268.479 167.129 268.208C167.129 268.012 167.059 267.858 166.919 267.746C166.788 267.634 166.588 267.531 166.317 267.438C166.056 267.345 165.72 267.233 165.309 267.102C164.917 266.971 164.576 266.831 164.287 266.682C163.998 266.523 163.774 266.323 163.615 266.08C163.456 265.837 163.377 265.52 163.377 265.128C163.377 264.521 163.596 264.055 164.035 263.728C164.474 263.392 165.178 263.224 166.149 263.224C166.532 263.224 166.896 263.252 167.241 263.308C167.586 263.364 167.88 263.434 168.123 263.518V264.792C167.862 264.689 167.572 264.61 167.255 264.554C166.947 264.498 166.658 264.47 166.387 264.47C165.902 264.47 165.533 264.512 165.281 264.596C165.038 264.68 164.917 264.848 164.917 265.1C164.917 265.361 165.043 265.548 165.295 265.66C165.556 265.763 165.972 265.907 166.541 266.094C167.064 266.253 167.479 266.421 167.787 266.598C168.095 266.775 168.314 266.99 168.445 267.242C168.585 267.485 168.655 267.802 168.655 268.194C168.655 268.847 168.417 269.337 167.941 269.664C167.465 269.981 166.774 270.14 165.869 270.14ZM176.68 270.14C175.971 270.14 175.439 269.953 175.084 269.58C174.739 269.197 174.566 268.679 174.566 268.026V264.554H173.586V263.364H174.566V261.838L176.078 261.376V263.364H177.842L177.744 264.554H176.078V267.942C176.078 268.325 176.167 268.595 176.344 268.754C176.521 268.903 176.811 268.978 177.212 268.978C177.464 268.978 177.73 268.931 178.01 268.838V269.916C177.646 270.065 177.203 270.14 176.68 270.14ZM185.449 270.14C185.029 270.14 184.637 270.065 184.273 269.916C183.919 269.767 183.634 269.543 183.419 269.244C183.205 268.936 183.097 268.558 183.097 268.11C183.097 267.475 183.312 266.967 183.741 266.584C184.18 266.192 184.852 265.996 185.757 265.996H187.885V265.702C187.885 265.385 187.834 265.133 187.731 264.946C187.638 264.759 187.461 264.624 187.199 264.54C186.947 264.456 186.574 264.414 186.079 264.414C185.295 264.414 184.563 264.531 183.881 264.764V263.63C184.18 263.509 184.544 263.411 184.973 263.336C185.403 263.261 185.865 263.224 186.359 263.224C187.33 263.224 188.067 263.42 188.571 263.812C189.085 264.204 189.341 264.843 189.341 265.73V270H188.039L187.941 269.328C187.671 269.589 187.335 269.79 186.933 269.93C186.541 270.07 186.047 270.14 185.449 270.14ZM185.855 269.048C186.313 269.048 186.709 268.973 187.045 268.824C187.391 268.665 187.671 268.455 187.885 268.194V267.032H185.785C185.337 267.032 185.011 267.121 184.805 267.298C184.609 267.466 184.511 267.727 184.511 268.082C184.511 268.427 184.628 268.675 184.861 268.824C185.095 268.973 185.426 269.048 185.855 269.048ZM197.768 270.14C197.058 270.14 196.526 269.953 196.172 269.58C195.826 269.197 195.654 268.679 195.654 268.026V264.554H194.674V263.364H195.654V261.838L197.166 261.376V263.364H198.93L198.832 264.554H197.166V267.942C197.166 268.325 197.254 268.595 197.432 268.754C197.609 268.903 197.898 268.978 198.3 268.978C198.552 268.978 198.818 268.931 199.098 268.838V269.916C198.734 270.065 198.29 270.14 197.768 270.14ZM205.025 261.978V260.718H206.691V261.978H205.025ZM205.151 270V264.526H204.143L204.283 263.364H206.677V270H205.151ZM215.919 270.14C214.752 270.14 213.87 269.846 213.273 269.258C212.676 268.661 212.377 267.802 212.377 266.682C212.377 265.515 212.704 264.647 213.357 264.078C214.02 263.509 214.902 263.224 216.003 263.224C216.46 263.224 216.843 263.257 217.151 263.322C217.468 263.387 217.772 263.49 218.061 263.63V264.764C217.576 264.521 216.988 264.4 216.297 264.4C215.532 264.4 214.944 264.573 214.533 264.918C214.122 265.254 213.917 265.842 213.917 266.682C213.917 267.475 214.099 268.059 214.463 268.432C214.827 268.796 215.429 268.978 216.269 268.978C216.932 268.978 217.534 268.852 218.075 268.6V269.762C217.767 269.883 217.436 269.977 217.081 270.042C216.736 270.107 216.348 270.14 215.919 270.14ZM234.554 270.14C234.069 270.14 233.649 270.075 233.294 269.944C232.94 269.813 232.613 269.613 232.314 269.342L232.23 270H230.914V260.564H232.44V263.798C233.019 263.415 233.714 263.224 234.526 263.224C235.469 263.224 236.211 263.495 236.752 264.036C237.303 264.568 237.578 265.431 237.578 266.626C237.578 267.83 237.308 268.717 236.766 269.286C236.225 269.855 235.488 270.14 234.554 270.14ZM234.148 268.992C234.839 268.992 235.324 268.796 235.604 268.404C235.894 268.012 236.038 267.419 236.038 266.626C236.038 265.805 235.884 265.226 235.576 264.89C235.268 264.554 234.783 264.386 234.12 264.386C233.43 264.386 232.87 264.577 232.44 264.96V268.292C232.879 268.759 233.448 268.992 234.148 268.992ZM243.263 263.364H244.663L244.747 264.134C245.064 263.929 245.442 263.742 245.881 263.574C246.32 263.406 246.754 263.289 247.183 263.224V264.386C246.922 264.433 246.637 264.503 246.329 264.596C246.03 264.68 245.746 264.778 245.475 264.89C245.204 264.993 244.976 265.1 244.789 265.212V270H243.263V263.364ZM254.888 270.14C254.095 270.14 253.483 269.921 253.054 269.482C252.634 269.043 252.424 268.399 252.424 267.55V263.364H253.95V267.55C253.95 268.045 254.071 268.409 254.314 268.642C254.557 268.875 254.93 268.992 255.434 268.992C255.807 268.992 256.153 268.922 256.47 268.782C256.787 268.642 257.063 268.455 257.296 268.222V263.364H258.808V270H257.422L257.352 269.314C257.053 269.547 256.699 269.743 256.288 269.902C255.877 270.061 255.411 270.14 254.888 270.14ZM267 270.14C266.543 270.14 266.104 270.107 265.684 270.042C265.273 269.977 264.933 269.897 264.662 269.804V268.516C264.979 268.637 265.329 268.731 265.712 268.796C266.095 268.861 266.459 268.894 266.804 268.894C267.327 268.894 267.7 268.847 267.924 268.754C268.148 268.661 268.26 268.479 268.26 268.208C268.26 268.012 268.19 267.858 268.05 267.746C267.919 267.634 267.719 267.531 267.448 267.438C267.187 267.345 266.851 267.233 266.44 267.102C266.048 266.971 265.707 266.831 265.418 266.682C265.129 266.523 264.905 266.323 264.746 266.08C264.587 265.837 264.508 265.52 264.508 265.128C264.508 264.521 264.727 264.055 265.166 263.728C265.605 263.392 266.309 263.224 267.28 263.224C267.663 263.224 268.027 263.252 268.372 263.308C268.717 263.364 269.011 263.434 269.254 263.518V264.792C268.993 264.689 268.703 264.61 268.386 264.554C268.078 264.498 267.789 264.47 267.518 264.47C267.033 264.47 266.664 264.512 266.412 264.596C266.169 264.68 266.048 264.848 266.048 265.1C266.048 265.361 266.174 265.548 266.426 265.66C266.687 265.763 267.103 265.907 267.672 266.094C268.195 266.253 268.61 266.421 268.918 266.598C269.226 266.775 269.445 266.99 269.576 267.242C269.716 267.485 269.786 267.802 269.786 268.194C269.786 268.847 269.548 269.337 269.072 269.664C268.596 269.981 267.905 270.14 267 270.14ZM275.482 270V260.564H277.008V264.008C277.297 263.775 277.643 263.588 278.044 263.448C278.445 263.299 278.898 263.224 279.402 263.224C280.242 263.224 280.863 263.425 281.264 263.826C281.665 264.227 281.866 264.853 281.866 265.702V270H280.354V265.772C280.354 265.259 280.242 264.899 280.018 264.694C279.803 264.489 279.425 264.386 278.884 264.386C278.548 264.386 278.207 264.461 277.862 264.61C277.517 264.75 277.232 264.937 277.008 265.17V270H275.482ZM145 135H245.369C248.13 135 250.369 137.239 250.369 140V192.407H140V140C140 137.239 142.239 135 145 135ZM135 140C135 134.477 139.477 130 145 130H245.369C250.892 130 255.369 134.477 255.369 140V192.407V197.407H250.369H249.647V234.721C249.647 235.549 248.975 236.221 248.147 236.221C247.318 236.221 246.647 235.549 246.647 234.721V197.407H242.425V234.721C242.425 235.549 241.753 236.221 240.925 236.221C240.096 236.221 239.425 235.549 239.425 234.721V197.407H236.406V234.721C236.406 235.549 235.735 236.221 234.906 236.221C234.078 236.221 233.406 235.549 233.406 234.721V197.407H229.184V234.721C229.184 235.549 228.512 236.221 227.684 236.221C226.856 236.221 226.184 235.549 226.184 234.721V197.407H223.165V234.721C223.165 235.549 222.494 236.221 221.665 236.221C220.837 236.221 220.165 235.549 220.165 234.721V197.407H215.944V234.721C215.944 235.549 215.272 236.221 214.444 236.221C213.615 236.221 212.944 235.549 212.944 234.721V197.407H209.925V234.721C209.925 235.549 209.254 236.221 208.425 236.221C207.597 236.221 206.925 235.549 206.925 234.721V197.407H202.703V234.721C202.703 235.549 202.031 236.221 201.203 236.221C200.375 236.221 199.703 235.549 199.703 234.721V197.407H196.684V234.721C196.684 235.549 196.013 236.221 195.184 236.221C194.356 236.221 193.684 235.549 193.684 234.721V197.407H189.462V234.721C189.462 235.549 188.791 236.221 187.962 236.221C187.134 236.221 186.462 235.549 186.462 234.721V197.407H183.444V234.721C183.444 235.549 182.772 236.221 181.944 236.221C181.115 236.221 180.444 235.549 180.444 234.721V197.407H176.222V234.721C176.222 235.549 175.55 236.221 174.722 236.221C173.893 236.221 173.222 235.549 173.222 234.721V197.407H170.203V234.721C170.203 235.549 169.532 236.221 168.703 236.221C167.875 236.221 167.203 235.549 167.203 234.721V197.407H162.981V234.721C162.981 235.549 162.31 236.221 161.481 236.221C160.653 236.221 159.981 235.549 159.981 234.721V197.407H156.963V234.721C156.963 235.549 156.291 236.221 155.463 236.221C154.634 236.221 153.963 235.549 153.963 234.721V197.407H149.741V234.721C149.741 235.549 149.069 236.221 148.241 236.221C147.412 236.221 146.741 235.549 146.741 234.721V197.407H143.722V234.721C143.722 235.549 143.051 236.221 142.222 236.221C141.394 236.221 140.722 235.549 140.722 234.721V197.407H140H135V192.407V140ZM166.898 148.649H222.268C230.915 148.649 237.925 155.658 237.925 164.306C237.925 172.953 230.915 179.963 222.268 179.963H166.898C158.251 179.963 151.241 172.953 151.241 164.306C151.241 155.659 158.251 148.649 166.898 148.649ZM148.241 164.306C148.241 154.002 156.594 145.649 166.898 145.649H222.268C232.572 145.649 240.925 154.002 240.925 164.306C240.925 174.61 232.572 182.963 222.268 182.963H166.898C156.594 182.963 148.241 174.61 148.241 164.306Z" fill="white"/>
</g>
<defs>
<filter id="filter0_d_308_347" x="0" y="0" width="390" height="540" filterUnits="userSpaceOnUse" color-interpolation-filters="sRGB">
<feFlood flood-opacity="0" result="BackgroundImageFix"/>
<feColorMatrix in="SourceAlpha" type="matrix" values="0 0 0 0 0 0 0 0 0 0 0 0 0 0 0 0 0 0 127 0" result="hardAlpha"/>
<feOffset/>
<feGaussianBlur stdDeviation="10"/>
<feComposite in2="hardAlpha" operator="out"/>
<feColorMatrix type="matrix" values="0 0 0 0 0 0 0 0 0 0.637931 0 0 0 0 1 0 0 0 1 0"/>
<feBlend mode="normal" in2="BackgroundImageFix" result="effect1_dropShadow_308_347"/>
<feBlend mode="normal" in="SourceGraphic" in2="effect1_dropShadow_308_347" result="shape"/>
</filter>
</defs>
</svg>
