<svg width="390" height="540" viewBox="0 0 390 540" fill="none" xmlns="http://www.w3.org/2000/svg">
<g filter="url(#filter0_d_179_143)">
<path fill-rule="evenodd" clip-rule="evenodd" d="M20 60C20 37.9086 37.9086 20 60 20H330C352.091 20 370 37.9086 370 60V480C370 502.091 352.091 520 330 520H60C37.9086 520 20 502.091 20 480V60ZM164.085 397V314.568H174.581V355.4L213.109 314.568H225.397L194.677 347.592L226.421 397H215.157L188.021 354.376L174.581 368.584V397H164.085ZM125.463 411.392V432H127.223V424.096H133.527C135.596 424.096 137.228 423.541 138.423 422.432C139.617 421.301 140.215 419.765 140.215 417.824C140.215 415.904 139.681 414.357 138.615 413.184C137.569 411.989 135.916 411.392 133.655 411.392H125.463ZM133.367 422.688H127.223V412.832H133.527C135.169 412.832 136.396 413.269 137.206 414.144C138.038 414.997 138.454 416.224 138.454 417.824C138.454 419.317 138.028 420.501 137.174 421.376C136.321 422.251 135.052 422.688 133.367 422.688ZM144.8 430.304C145.93 431.648 147.776 432.32 150.336 432.32C152.896 432.32 154.741 431.648 155.872 430.304C157.024 428.96 157.6 426.997 157.6 424.416C157.6 421.856 157.024 419.904 155.872 418.56C154.72 417.195 152.874 416.512 150.336 416.512C147.818 416.512 145.984 417.195 144.832 418.56C143.68 419.904 143.104 421.856 143.104 424.416C143.104 426.997 143.669 428.96 144.8 430.304ZM154.592 429.248C153.781 430.293 152.362 430.816 150.336 430.816C148.33 430.816 146.912 430.293 146.08 429.248C145.248 428.203 144.832 426.592 144.832 424.416C144.832 422.261 145.248 420.661 146.08 419.616C146.912 418.571 148.33 418.048 150.336 418.048C152.341 418.048 153.76 418.571 154.592 419.616C155.424 420.661 155.84 422.261 155.84 424.416C155.84 426.592 155.424 428.203 154.592 429.248ZM163.951 431.2C164.676 431.947 165.711 432.32 167.055 432.32C167.951 432.32 168.751 432.192 169.455 431.936V430.528C169.092 430.656 168.751 430.752 168.431 430.816C168.132 430.859 167.844 430.88 167.567 430.88C166.522 430.88 165.764 430.645 165.295 430.176C164.847 429.707 164.623 428.981 164.623 428V418.304H168.911L169.007 416.832H164.623V412.288L162.863 412.864V416.832H160.495V418.304H162.863V428.064C162.863 429.408 163.226 430.453 163.951 431.2ZM174.79 431.872C175.601 432.171 176.486 432.32 177.446 432.32C178.897 432.32 180.102 432.139 181.062 431.776C182.022 431.413 182.854 430.859 183.558 430.112L183.718 432H185.158V421.952C185.158 420.011 184.657 418.624 183.654 417.792C182.673 416.939 181.137 416.512 179.046 416.512C178.044 416.512 177.094 416.587 176.198 416.736C175.324 416.885 174.556 417.088 173.894 417.344V418.848C174.62 418.592 175.388 418.389 176.198 418.24C177.009 418.091 177.852 418.016 178.726 418.016C180.028 418.016 181.009 418.144 181.67 418.4C182.353 418.656 182.822 419.083 183.078 419.68C183.334 420.256 183.462 421.024 183.462 421.984V423.424H177.798C175.75 423.424 174.3 423.851 173.446 424.704C172.593 425.536 172.166 426.624 172.166 427.968C172.166 428.971 172.401 429.803 172.87 430.464C173.361 431.104 174.001 431.573 174.79 431.872ZM181.094 430.272C180.177 430.656 179.11 430.848 177.894 430.848C176.657 430.848 175.676 430.635 174.95 430.208C174.246 429.76 173.894 429.013 173.894 427.968C173.894 426.944 174.182 426.165 174.758 425.632C175.334 425.099 176.369 424.832 177.862 424.832H183.462V428.48C182.801 429.269 182.012 429.867 181.094 430.272ZM191.662 432.128C192.494 432.256 193.358 432.32 194.254 432.32C196.025 432.32 197.412 432 198.414 431.36C199.438 430.72 199.95 429.653 199.95 428.16C199.95 427.243 199.758 426.517 199.374 425.984C199.012 425.429 198.446 424.971 197.678 424.608C196.932 424.245 195.993 423.883 194.862 423.52C193.924 423.221 193.156 422.955 192.558 422.72C191.982 422.485 191.556 422.208 191.278 421.888C191.022 421.547 190.894 421.077 190.894 420.48C190.894 419.605 191.193 418.987 191.79 418.624C192.409 418.24 193.476 418.048 194.99 418.048C196.27 418.048 197.529 418.24 198.766 418.624V417.056C198.233 416.885 197.614 416.757 196.91 416.672C196.228 416.565 195.502 416.512 194.734 416.512C192.772 416.512 191.353 416.853 190.478 417.536C189.604 418.197 189.166 419.189 189.166 420.512C189.166 421.451 189.369 422.187 189.774 422.72C190.18 423.232 190.724 423.637 191.406 423.936C192.11 424.213 192.889 424.501 193.742 424.8C194.766 425.141 195.609 425.44 196.27 425.696C196.932 425.952 197.412 426.261 197.71 426.624C198.03 426.965 198.19 427.477 198.19 428.16C198.19 429.141 197.87 429.835 197.23 430.24C196.59 430.624 195.524 430.816 194.03 430.816C193.262 430.816 192.505 430.763 191.758 430.656C191.012 430.528 190.286 430.347 189.582 430.112V431.68C190.158 431.872 190.852 432.021 191.662 432.128ZM205.162 432.128C205.994 432.256 206.858 432.32 207.754 432.32C209.525 432.32 210.912 432 211.914 431.36C212.938 430.72 213.45 429.653 213.45 428.16C213.45 427.243 213.258 426.517 212.874 425.984C212.512 425.429 211.946 424.971 211.178 424.608C210.432 424.245 209.493 423.883 208.362 423.52C207.424 423.221 206.656 422.955 206.058 422.72C205.482 422.485 205.056 422.208 204.778 421.888C204.522 421.547 204.394 421.077 204.394 420.48C204.394 419.605 204.693 418.987 205.29 418.624C205.909 418.24 206.976 418.048 208.49 418.048C209.77 418.048 211.029 418.24 212.266 418.624V417.056C211.733 416.885 211.114 416.757 210.41 416.672C209.728 416.565 209.002 416.512 208.234 416.512C206.272 416.512 204.853 416.853 203.978 417.536C203.104 418.197 202.666 419.189 202.666 420.512C202.666 421.451 202.869 422.187 203.274 422.72C203.68 423.232 204.224 423.637 204.906 423.936C205.61 424.213 206.389 424.501 207.242 424.8C208.266 425.141 209.109 425.44 209.77 425.696C210.432 425.952 210.912 426.261 211.21 426.624C211.53 426.965 211.69 427.477 211.69 428.16C211.69 429.141 211.37 429.835 210.73 430.24C210.09 430.624 209.024 430.816 207.53 430.816C206.762 430.816 206.005 430.763 205.258 430.656C204.512 430.528 203.786 430.347 203.082 430.112V431.68C203.658 431.872 204.352 432.021 205.162 432.128ZM218.474 410.976V412.896H220.49V410.976H218.474ZM218.698 418.304V432H220.458V416.832H216.522L216.33 418.304H218.698ZM226.523 430.784C227.462 431.808 228.838 432.32 230.651 432.32C231.974 432.32 233.115 432.128 234.075 431.744C235.035 431.339 235.888 430.805 236.635 430.144L236.795 432H238.363V416.832H236.603V428.672C235.963 429.312 235.195 429.845 234.299 430.272C233.424 430.677 232.454 430.88 231.387 430.88C229.83 430.88 228.688 430.517 227.963 429.792C227.238 429.045 226.875 427.947 226.875 426.496V416.832H225.115V426.432C225.115 428.309 225.584 429.76 226.523 430.784ZM243.15 416.832V432H244.878V420.192C245.561 419.573 246.35 419.051 247.246 418.624C248.142 418.197 249.059 417.984 249.998 417.984C251.406 417.984 252.355 418.315 252.846 418.976C253.337 419.616 253.582 420.661 253.582 422.112V432H255.278V422.08C255.278 421.739 255.257 421.376 255.214 420.992C255.171 420.587 255.118 420.235 255.054 419.936C255.651 419.296 256.377 418.816 257.23 418.496C258.083 418.155 258.99 417.984 259.95 417.984C261.337 417.984 262.35 418.283 262.99 418.88C263.651 419.456 263.982 420.501 263.982 422.016V432H265.71V421.856C265.71 420.021 265.283 418.677 264.43 417.824C263.598 416.949 262.329 416.512 260.622 416.512C259.278 416.512 258.126 416.725 257.166 417.152C256.206 417.557 255.363 418.069 254.638 418.688C254.339 418.005 253.87 417.472 253.23 417.088C252.59 416.704 251.683 416.512 250.51 416.512C249.465 416.512 248.462 416.704 247.502 417.088C246.563 417.472 245.678 418.005 244.846 418.688L244.686 416.832H243.15ZM212.785 197.409C212.597 198.578 212.5 199.778 212.5 201H257.5C257.5 188.574 247.426 178.5 235 178.5C223.868 178.5 214.624 186.584 212.819 197.202L212.918 197.247C212.874 197.301 212.83 197.355 212.785 197.409ZM214.517 182.65C215.15 181.944 215.82 181.27 216.522 180.632C216.558 180.315 216.626 180.01 216.662 179.848L216.673 179.796L216.717 179.598C216.78 179.313 216.848 179.003 216.919 178.636C217.091 177.748 217.265 176.591 217.291 175.226C217.343 172.518 216.814 168.927 214.411 164.994C213.837 164.055 212.614 162.984 210.739 162.002C208.908 161.043 206.662 160.278 204.329 159.828C201.993 159.377 199.671 159.261 197.687 159.523C196.073 159.735 194.833 160.176 193.969 160.754C195.581 163.423 196.356 165.986 196.776 168.521V168.281H196.776H196.776H196.776H196.776H196.777H196.777H196.777H196.777H196.778H196.778H196.778H196.778H196.779H196.779H196.779H196.779H196.779H196.78H196.78H196.78H196.78H196.781H196.781H196.781H196.781H196.782H196.782H196.782H196.782H196.783H196.783H196.783H196.784H196.784H196.784H196.785H196.785H196.785H196.786H196.786H196.786H196.787H196.787H196.787H196.788H196.789H196.79H196.791H196.791H196.792H196.793H196.793H196.794H196.794H196.795H196.795H196.796H196.796H196.797H196.797H196.798H196.798H196.799H196.8H196.8H196.801H196.801H196.802H196.802H196.803H196.803H196.804H196.805H196.806H196.806H196.807H196.808H196.81H196.811H196.811H196.812H196.812H196.813H196.814H196.815H196.815H196.816H196.817H196.817H196.818H196.819H196.82H196.82H196.821H196.822H196.823H196.823H196.824H196.825H196.826H196.828H196.828H196.829H196.829H196.831H196.831H196.832H196.833H196.834H196.835H196.836H196.837H196.837H196.838H196.839H196.84H196.841H196.842H196.842H196.844H196.846H196.846H196.848H196.848H196.85H196.85H196.851H196.852H196.853H196.854H196.855H196.856H196.857H196.859H196.859H196.861H196.863H196.863H196.865H196.865H196.867H196.867H196.869H196.87H196.871H196.872H196.873H196.874H196.875H196.877H196.877H196.879H196.881H196.882H196.884H196.884H196.886H196.887H196.888H196.889H196.89H196.892H196.892H196.894H196.895H196.897H196.899H196.9H196.902H196.902H196.904H196.905H196.906H196.908H196.909H196.911H196.911H196.913H196.914H196.916H196.916H196.918H196.919H196.921H196.922H196.923H196.925H196.926H196.928H196.928H196.931H196.931H196.934H196.934H196.936H196.937H196.939H196.94H196.941H196.943H196.944H196.946H196.947H196.95H196.952H196.953H196.955H196.956H196.958H196.959H196.96H196.963H196.963H196.966H196.966H196.969H196.969H196.972H196.973H196.975H196.976H196.977H196.98H196.98H196.983H196.983H196.986H196.987H196.989H196.99H196.992H196.994H196.995H196.997H196.998H197.001H197.004H197.005H197.007H197.008H197.01H197.012H197.013H197.016H197.016H197.02H197.02H197.023H197.024H197.026H197.028H197.029H197.032H197.032H197.035H197.039H197.039H197.042H197.043H197.045H197.048H197.049H197.052H197.052H197.055H197.056H197.058H197.06H197.062H197.064H197.065H197.068H197.069H197.072H197.073H197.075H197.077H197.079H197.081H197.082H197.085H197.086H197.089H197.09H197.093H197.094H197.096H197.099H197.1H197.103H197.103H197.107H197.108H197.11H197.112H197.114H197.117H197.118H197.121H197.121H197.125H197.126H197.129H197.131H197.132H197.136H197.136H197.14H197.14H197.143H197.145H197.147H197.15H197.151H197.155H197.158H197.16H197.162H197.165H197.166H197.169H197.17H197.174H197.174H197.178H197.18H197.181H197.185H197.185H197.189H197.19H197.193H197.195H197.197H197.2H197.201H197.205H197.205H197.209H197.21H197.213H197.216H197.217H197.221H197.225H197.226H197.229H197.232H197.233H197.237H197.237H197.241H197.243H197.245H197.248H197.25H197.254H197.254H197.258H197.259H197.262H197.265H197.266H197.27H197.27H197.275H197.276H197.279H197.282H197.283H197.287H197.292H197.293H197.296H197.299H197.3H197.304H197.305H197.309H197.311H197.313H197.317H197.317H197.322H197.322H197.326H197.328H197.331H197.334H197.335H197.339H197.34H197.344H197.347H197.348H197.353H197.357H197.359H197.362H197.365H197.366H197.371H197.371H197.375H197.378H197.38H197.384H197.384H197.389H197.39H197.393H197.397H197.398H197.402H197.403H197.407H197.409H197.412H197.416H197.416H197.421H197.422H197.425H197.429H197.43H197.435H197.436H197.439H197.442H197.444H197.449H197.454H197.458H197.463H197.468H197.473H197.477H197.482H197.487H197.492H197.497H197.501H197.506H197.511H197.516H197.521H197.526H197.531H197.535H197.54H197.545H197.55H197.555H197.56H197.565H197.57H197.575H197.58H197.585H197.59H197.595H197.6H197.605H197.61H197.615H197.62H197.626H197.631H197.636H197.641H197.646H197.651H197.656H197.661H197.667C200.646 168.281 203.415 168.757 206.149 169.226L206.152 169.227L206.155 169.227L206.157 169.228C206.604 169.305 207.05 169.381 207.496 169.455C208.313 169.592 208.865 170.365 208.729 171.182C208.593 171.999 207.82 172.551 207.003 172.415C206.529 172.336 206.065 172.256 205.607 172.178L205.607 172.178C202.863 171.708 200.37 171.281 197.667 171.281H197.661H197.656H197.651H197.646H197.641H197.636H197.631H197.626H197.62H197.615H197.61H197.605H197.6H197.595H197.59H197.585H197.58H197.575H197.57H197.565H197.56H197.555H197.55H197.545H197.54H197.535H197.531H197.526H197.521H197.516H197.511H197.506H197.501H197.497H197.492H197.487H197.482H197.477H197.473H197.468H197.463H197.458H197.454H197.449H197.444H197.442H197.439H197.436H197.435H197.43H197.429H197.425H197.422H197.421H197.416H197.416H197.412H197.409H197.407H197.403H197.402H197.398H197.397H197.393H197.39H197.389H197.384H197.384H197.38H197.378H197.375H197.371H197.371H197.366H197.365H197.362H197.359H197.357H197.353H197.348H197.347H197.344H197.34H197.339H197.335H197.334H197.331H197.328H197.326H197.322H197.322H197.317H197.317H197.313H197.311H197.309H197.305H197.304H197.3H197.299H197.296H197.293H197.292H197.287H197.283H197.282H197.279H197.276H197.275H197.27H197.27H197.266H197.265H197.262H197.259H197.258H197.254H197.254H197.25H197.248H197.245H197.243H197.241H197.237H197.237H197.233H197.232H197.229H197.226H197.225H197.221H197.217H197.216H197.213H197.21H197.209H197.205H197.205H197.201H197.2H197.197H197.195H197.193H197.19H197.189H197.185H197.185H197.181H197.18H197.178H197.174H197.174H197.17H197.169H197.166H197.165H197.162H197.16H197.158H197.155H197.151H197.15H197.147H197.145H197.143H197.14H197.14H197.136H197.136H197.132H197.131H197.129H197.126H197.125H197.121H197.121H197.118H197.117H197.116C197.202 172.235 197.261 173.189 197.321 174.147L197.321 174.148C197.338 174.422 197.355 174.697 197.373 174.972C197.426 175.798 197.439 176.542 197.449 177.089C197.664 177.075 197.909 177.056 198.192 177.032C201.641 176.739 206.277 177.16 210 178.978C211.713 179.815 213.338 181 214.517 182.65ZM211.188 187.234C211.07 186.682 210.868 186.214 210.617 185.809C210.053 184.901 209.114 184.11 207.806 183.471C205.135 182.167 201.473 181.772 198.615 182.014C197.618 182.099 196.633 182.165 195.824 182.063C194.887 181.944 193.675 181.525 192.982 180.231C192.507 179.346 192.478 178.32 192.462 177.777L192.461 177.731C192.454 177.505 192.451 177.285 192.447 177.059L192.447 177.059C192.438 176.54 192.428 175.994 192.383 175.294L192.347 174.724C192.049 170.058 191.843 166.833 189.609 163.207C187.905 160.443 184.765 158.761 181.834 158.661C179.059 158.566 176.622 159.853 175.591 163.048C175.54 163.208 175.473 163.36 175.394 163.501C175.913 164.117 176.395 164.76 176.838 165.424C180.005 170.18 181.327 176.345 179.197 182.032C182.607 183.429 186.263 185.968 187.744 190.088C188.554 192.341 188.54 194.502 187.85 196.455C187.197 198.304 185.993 199.814 184.613 201H190.44C200.967 200.511 205.932 197.203 206.696 196.513C207.209 196.05 207.688 195.589 208.129 195.125C208.742 192.309 209.786 189.655 211.188 187.234ZM171.475 159.892C168.636 157.885 165.255 156.593 161.579 156.45C158.626 156.335 155.434 157.311 153.036 158.516C152.721 157.327 152.363 156.001 151.855 154.704C149.815 149.49 144.721 144.92 139.356 143.249C136.626 142.398 133.629 142.239 130.846 143.343C128.013 144.468 125.723 146.778 124.247 150.244C121.317 157.126 122.826 164.383 125.658 170.42C124.129 170.241 122.586 170.171 120.598 170.264C117.732 170.398 114.507 170.901 112.175 172.622C110.941 173.533 109.964 174.78 109.465 176.402C108.975 177.991 108.998 179.757 109.431 181.651C111.012 188.568 116.5 193.45 122.358 196.989C124.865 198.503 127.537 199.829 130.16 201H127.5C123.358 201 120 204.358 120 208.5C120 212.642 123.358 216 127.5 216H130.708C130.544 216.376 130.47 216.798 130.511 217.236L134.799 262.501C131.992 263.585 130 266.31 130 269.5C130 273.642 133.358 277 137.5 277H252.5C256.642 277 260 273.642 260 269.5C260 266.275 257.965 263.526 255.109 262.466L259.489 216.236C259.492 216.201 259.495 216.166 259.497 216.132C259.498 216.106 259.499 216.08 259.5 216.055C259.5 216.036 259.5 216.018 259.5 216H262.5C266.642 216 270 212.642 270 208.5C270 204.358 266.642 201 262.5 201C262.5 194.834 260.471 189.143 257.044 184.556C258.808 178.461 258.289 172.851 256.147 167.959C254.087 163.255 250.587 159.347 246.437 156.313C246.476 156.288 246.515 156.262 246.554 156.238C247.965 155.341 249.574 154.634 251.248 153.907C252.008 153.577 252.357 152.694 252.027 151.934C251.697 151.174 250.814 150.825 250.054 151.155C248.412 151.868 246.586 152.663 244.945 153.705C244.541 153.962 244.136 154.233 243.737 154.52C238.433 151.42 232.029 150.875 226.215 151.845C221.219 152.678 216.399 154.671 212.792 157.435C212.009 157.038 211.182 156.675 210.326 156.349C212.546 154.696 215.903 152.101 218.691 149.381C220.677 147.444 222.639 145.199 223.602 142.993C224.091 141.87 224.434 140.506 224.14 139.09C223.824 137.571 222.864 136.403 221.542 135.615C219.85 134.606 217.757 134.267 215.914 134.259C214.044 134.251 212.093 134.583 210.53 135.225C208.2 136.182 206.692 137.763 205.66 139.514C205.124 138.214 204.355 136.78 203.357 135.515C202.071 133.884 200.128 132.194 197.518 131.911C196.088 131.757 194.638 132.014 193.467 132.976C192.336 133.905 191.831 135.192 191.619 136.344C191.211 138.561 191.699 141.3 192.372 143.737C193.073 146.271 194.092 148.878 195.075 151.008C195.568 152.076 196.063 153.049 196.52 153.852C196.659 154.097 196.803 154.341 196.949 154.577C194.699 154.884 192.455 155.599 190.673 156.968C188.163 154.934 185.048 153.768 182.005 153.664C177.787 153.52 173.596 155.446 171.475 159.892ZM227.037 156.777C231.582 156.019 236.213 156.395 240.031 158.212C239.16 159.499 238.7 160.699 238.228 161.93L238.226 161.934C238.12 162.21 238.013 162.488 237.901 162.769C237.821 162.97 237.787 163.179 237.795 163.383L237.775 163.366C237.369 163.025 236.971 162.667 236.549 162.286L236.549 162.286L236.548 162.285L236.547 162.284L236.487 162.23C236.049 161.836 235.586 161.419 235.101 161.019C234.463 160.492 233.517 160.582 232.99 161.221C232.462 161.86 232.553 162.805 233.192 163.333C233.619 163.685 234.037 164.06 234.478 164.458L234.55 164.523L234.55 164.523C234.963 164.895 235.398 165.288 235.847 165.664C236.801 166.465 237.891 167.258 239.214 167.802C240.867 168.482 242.596 168.607 244.139 168.607C244.967 168.607 245.639 167.936 245.639 167.107C245.639 166.279 244.967 165.607 244.139 165.607C242.725 165.607 241.464 165.484 240.355 165.028C240.153 164.945 239.956 164.852 239.762 164.75C240.169 164.616 240.516 164.31 240.688 163.881C240.826 163.534 240.949 163.215 241.065 162.916C241.552 161.655 241.898 160.761 242.622 159.739C246.616 162.46 249.802 165.935 251.567 169.964C252.88 172.962 253.446 176.353 252.903 180.125C248.092 175.995 241.838 173.5 235 173.5C230.39 173.5 226.045 174.634 222.228 176.639C222.26 176.221 222.282 175.781 222.29 175.321C222.357 171.827 221.657 167.264 218.677 162.387C218.259 161.703 217.742 161.067 217.152 160.48C219.854 158.745 223.321 157.397 227.037 156.777ZM202.233 154.49C202.312 153.802 202.106 153.084 201.606 152.53C201.523 152.437 201.267 152.085 200.867 151.381C200.493 150.725 200.062 149.881 199.615 148.913C198.718 146.969 197.804 144.621 197.191 142.405C196.552 140.092 196.346 138.285 196.537 137.249C196.572 137.056 196.612 136.939 196.641 136.874C196.707 136.867 196.816 136.865 196.981 136.882C197.672 136.957 198.525 137.462 199.431 138.611C200.306 139.72 200.975 141.122 201.346 142.252C201.346 142.252 201.357 142.292 201.376 142.387C201.397 142.496 201.42 142.64 201.445 142.822C201.494 143.19 201.541 143.641 201.588 144.156C201.61 144.395 201.633 144.651 201.656 144.915C201.727 145.729 201.806 146.623 201.902 147.354C201.964 147.831 202.049 148.368 202.18 148.831C202.242 149.051 202.351 149.39 202.545 149.73C202.678 149.961 203.209 150.846 204.372 151.081C205.719 151.353 206.61 150.54 206.897 150.225C207.219 149.87 207.415 149.481 207.528 149.234C207.771 148.701 207.987 148.004 208.195 147.205C209.22 143.261 209.92 140.881 212.43 139.85C213.278 139.502 214.557 139.253 215.893 139.259C217.258 139.265 218.35 139.533 218.981 139.909C219.167 140.02 219.233 140.098 219.245 140.115C219.252 140.162 219.267 140.424 219.019 140.994C218.467 142.258 217.112 143.937 215.201 145.801C211.979 148.943 207.928 151.912 205.958 153.355L205.954 153.358C205.634 153.593 205.37 153.787 205.172 153.935C204.865 154.165 204.626 154.453 204.459 154.772C203.721 154.65 202.977 154.555 202.233 154.49ZM142.772 201H156.411C154.738 196.315 152.2 191.81 148.967 188.546C145.636 185.185 141.65 183.211 137.107 183.535C136.28 183.594 135.563 182.972 135.504 182.145C135.445 181.319 136.067 180.601 136.893 180.542C142.541 180.14 147.336 182.638 151.098 186.435C151.407 186.747 151.709 187.068 152.005 187.398C152.937 182.491 155.08 176.13 161.984 171.426C162.668 170.96 163.601 171.137 164.068 171.821C164.534 172.506 164.358 173.439 163.673 173.906C156.48 178.807 155.212 185.714 154.526 190.618C156.598 193.644 158.238 197.074 159.419 200.513C159.474 200.674 159.5 200.838 159.5 201H172.5C172.903 200.549 173.469 200.241 174.117 200.176C176.447 199.943 179.33 198.903 181.266 197.283C182.211 196.491 182.834 195.644 183.136 194.789C183.423 193.976 183.478 193.002 183.039 191.779C182.118 189.218 179.386 187.302 176.212 186.257L176.153 186.238L176.153 186.238C175.818 186.128 175.326 185.966 174.939 185.758C174.715 185.637 174.279 185.377 173.923 184.889C173.496 184.302 173.355 183.631 173.411 183.022C173.456 182.527 173.626 182.144 173.701 181.983C173.779 181.813 173.873 181.643 173.928 181.543L173.929 181.543L173.938 181.526L173.94 181.521C174.067 181.293 174.185 181.078 174.313 180.78C176.034 176.776 175.256 172.069 172.676 168.196C170.097 164.324 165.935 161.623 161.385 161.446C159.531 161.374 157.197 162.024 155.301 162.973C155.293 162.981 155.285 162.991 155.275 163.001C155.266 163.012 155.255 163.024 155.243 163.037C155.124 163.172 155.074 163.236 155.007 163.323C154.939 163.409 154.854 163.519 154.663 163.746C154.44 164.011 154.005 164.514 153.394 164.874C152.655 165.31 151.623 165.554 150.516 165.125C149.463 164.718 148.843 163.916 148.537 163.126C148.273 162.444 148.237 161.765 148.229 161.354C148.224 161.123 148.232 160.731 148.237 160.473V160.472L148.237 160.471C148.239 160.364 148.241 160.28 148.241 160.241C148.242 159.984 148.228 159.895 148.229 159.895L148.229 159.895C147.901 158.655 147.603 157.556 147.199 156.525C145.742 152.801 141.863 149.267 137.869 148.022C135.921 147.415 134.143 147.414 132.692 147.99C131.291 148.547 129.888 149.76 128.848 152.203C126.131 158.585 128.433 165.985 132.321 172.205C132.434 172.386 133.009 173.32 132.583 174.498C132.107 175.811 130.912 176.099 130.627 176.154C130.236 176.23 129.901 176.205 129.755 176.192C129.572 176.175 129.404 176.146 129.278 176.122C129.037 176.075 128.786 176.011 128.622 175.97L128.607 175.966L128.601 175.965C128.51 175.941 128.443 175.925 128.385 175.911C128.336 175.899 128.316 175.895 128.316 175.895C125.413 175.378 123.732 175.123 120.831 175.259C118.137 175.384 116.21 175.859 115.144 176.645C114.68 176.988 114.396 177.377 114.243 177.875C114.079 178.406 114.01 179.244 114.306 180.537C115.427 185.445 119.458 189.396 124.944 192.709C129.915 195.713 135.639 197.936 140.46 199.808L140.479 199.815C140.933 199.992 141.379 200.165 141.815 200.335C142.195 200.484 142.518 200.715 142.772 201ZM138.306 246.5L136.885 231.5H192.5V246.5H138.306ZM197.5 231.5H253.02L251.599 246.5H197.5V231.5ZM138.78 251.5H167.5V262H139.774L138.78 251.5ZM217.5 251.5H172.5V262H217.5V251.5ZM222.5 251.5H251.126L250.131 262H222.5V251.5ZM135.489 216.764L136.411 226.5H157.5V216H135.292C135.395 216.237 135.463 216.493 135.489 216.764ZM227.5 226.5H195H162.5V216H227.5V226.5ZM253.494 226.5H232.5V216H254.489L253.494 226.5ZM137.527 267H252.5C253.881 267 255 268.119 255 269.5C255 270.881 253.881 272 252.5 272H137.5C136.119 272 135 270.881 135 269.5C135 268.127 136.107 267.012 137.478 267C137.494 267 137.51 267 137.527 267ZM262.5 206H127.5C126.119 206 125 207.119 125 208.5C125 209.881 126.119 211 127.5 211H262.5C263.881 211 265 209.881 265 208.5C265 207.119 263.881 206 262.5 206ZM196.679 136.802C196.679 136.802 196.678 136.803 196.676 136.805C196.678 136.803 196.679 136.802 196.679 136.802ZM196.554 136.891C196.554 136.892 196.561 136.89 196.573 136.884C196.566 136.886 196.561 136.888 196.558 136.889C196.555 136.89 196.554 136.891 196.554 136.891ZM202.972 147.173C202.97 147.176 202.97 147.177 202.97 147.178C202.97 147.178 202.97 147.177 202.971 147.174C202.973 147.171 202.975 147.166 202.979 147.159C202.976 147.165 202.973 147.169 202.972 147.173ZM206.997 147.488L206.993 147.477L206.997 147.488L206.997 147.49L206.997 147.488ZM196.436 177.1C196.436 177.1 196.438 177.1 196.443 177.101L196.436 177.1C196.436 177.1 196.436 177.1 196.436 177.1ZM197.495 178.135C197.496 178.142 197.497 178.145 197.497 178.145C197.497 178.145 197.496 178.142 197.495 178.135Z" fill="white"/>
</g>
<defs>
<filter id="filter0_d_179_143" x="0" y="0" width="390" height="540" filterUnits="userSpaceOnUse" color-interpolation-filters="sRGB">
<feFlood flood-opacity="0" result="BackgroundImageFix"/>
<feColorMatrix in="SourceAlpha" type="matrix" values="0 0 0 0 0 0 0 0 0 0 0 0 0 0 0 0 0 0 127 0" result="hardAlpha"/>
<feOffset/>
<feGaussianBlur stdDeviation="10"/>
<feComposite in2="hardAlpha" operator="out"/>
<feColorMatrix type="matrix" values="0 0 0 0 0.78 0 0 0 0 0.3125 0 0 0 0 1 0 0 0 1 0"/>
<feBlend mode="normal" in2="BackgroundImageFix" result="effect1_dropShadow_179_143"/>
<feBlend mode="normal" in="SourceGraphic" in2="effect1_dropShadow_179_143" result="shape"/>
</filter>
</defs>
</svg>
