<svg width="390" height="540" viewBox="0 0 390 540" fill="none" xmlns="http://www.w3.org/2000/svg">
<g filter="url(#filter0_d_192_405)">
<path fill-rule="evenodd" clip-rule="evenodd" d="M60 20C37.9086 20 20 37.9086 20 60V480C20 502.091 37.9086 520 60 520H330C352.091 520 370 502.091 370 480V60C370 37.9086 352.091 20 330 20H60ZM133.21 314.568V397H143.706V365.896H161.114C165.125 365.896 167.898 366.451 169.434 367.56C171.055 368.669 172.421 370.504 173.53 373.064L184.026 397H194.778L184.026 372.168C183.087 369.949 182.149 368.2 181.21 366.92C180.357 365.555 179.077 364.36 177.37 363.336C183.173 361.971 187.525 359.283 190.426 355.272C193.413 351.261 194.906 346.227 194.906 340.168C194.906 332.317 192.858 326.088 188.762 321.48C184.751 316.872 178.309 314.568 169.434 314.568H133.21ZM166.49 357.704H143.706V322.888H167.898C178.906 322.888 184.41 328.648 184.41 340.168C184.41 346.312 182.789 350.792 179.546 353.608C176.389 356.339 172.037 357.704 166.49 357.704ZM212.652 396.232C215.895 397.597 219.436 398.28 223.276 398.28C228.823 398.28 233.473 397.597 237.228 396.232C240.983 394.867 244.183 392.819 246.828 390.088L247.596 397H256.428V357.32C256.428 349.469 254.252 343.795 249.9 340.296C245.633 336.797 239.191 335.048 230.572 335.048C226.305 335.048 222.295 335.389 218.54 336.072C214.871 336.669 211.671 337.48 208.94 338.504V347.208C211.927 346.184 215.127 345.373 218.54 344.776C221.953 344.179 225.495 343.88 229.164 343.88C233.943 343.88 237.569 344.307 240.044 345.16C242.519 346.013 244.183 347.421 245.036 349.384C245.975 351.347 246.444 353.992 246.444 357.32V361.032H225.324C217.047 361.032 211.073 362.824 207.404 366.408C203.735 369.907 201.9 374.429 201.9 379.976C201.9 384.072 202.881 387.485 204.844 390.216C206.807 392.861 209.409 394.867 212.652 396.232ZM237.74 387.4C234.327 388.936 230.401 389.704 225.964 389.704C221.783 389.704 218.455 389.021 215.98 387.656C213.505 386.205 212.268 383.645 212.268 379.976C212.268 376.307 213.292 373.576 215.34 371.784C217.388 369.992 220.801 369.096 225.58 369.096H246.444V380.872C244.055 383.603 241.153 385.779 237.74 387.4ZM144.775 432V411.392H153.383C155.538 411.392 157.095 411.947 158.055 413.056C159.036 414.165 159.527 415.659 159.527 417.536C159.527 419.115 159.143 420.405 158.375 421.408C157.628 422.411 156.498 423.061 154.983 423.36C155.474 423.595 155.826 423.883 156.039 424.224C156.274 424.565 156.519 425.013 156.775 425.568L159.527 432H157.735L155.015 425.792C154.802 425.301 154.567 424.907 154.311 424.608C154.055 424.309 153.703 424.096 153.255 423.968C152.807 423.819 152.178 423.744 151.367 423.744H146.535V432H144.775ZM146.535 422.336H152.871C154.386 422.336 155.58 421.963 156.455 421.216C157.33 420.448 157.767 419.221 157.767 417.536C157.767 414.4 156.263 412.832 153.255 412.832H146.535V422.336ZM166.915 432.32C165.955 432.32 165.07 432.171 164.259 431.872C163.47 431.573 162.83 431.104 162.339 430.464C161.87 429.803 161.635 428.971 161.635 427.968C161.635 426.624 162.062 425.536 162.915 424.704C163.768 423.851 165.219 423.424 167.267 423.424H172.931V421.984C172.931 421.024 172.803 420.256 172.547 419.68C172.291 419.083 171.822 418.656 171.139 418.4C170.478 418.144 169.496 418.016 168.195 418.016C167.32 418.016 166.478 418.091 165.667 418.24C164.856 418.389 164.088 418.592 163.363 418.848V417.344C164.024 417.088 164.792 416.885 165.667 416.736C166.563 416.587 167.512 416.512 168.515 416.512C170.606 416.512 172.142 416.939 173.123 417.792C174.126 418.624 174.627 420.011 174.627 421.952V432H173.187L173.027 430.112C172.323 430.859 171.491 431.413 170.531 431.776C169.571 432.139 168.366 432.32 166.915 432.32ZM167.363 430.848C168.579 430.848 169.646 430.656 170.563 430.272C171.48 429.867 172.27 429.269 172.931 428.48V424.832H167.331C165.838 424.832 164.803 425.099 164.227 425.632C163.651 426.165 163.363 426.944 163.363 427.968C163.363 429.013 163.715 429.76 164.419 430.208C165.144 430.635 166.126 430.848 167.363 430.848ZM185.419 432.32C184.096 432.32 182.923 432.053 181.899 431.52C180.875 430.987 180.075 430.155 179.499 429.024C178.923 427.872 178.635 426.379 178.635 424.544C178.635 421.792 179.254 419.765 180.491 418.464C181.75 417.163 183.446 416.512 185.579 416.512C186.624 416.512 187.552 416.64 188.363 416.896C189.195 417.131 189.995 417.536 190.763 418.112V410.432H192.523V432H191.051L190.891 430.304C190.166 430.987 189.366 431.499 188.491 431.84C187.616 432.16 186.592 432.32 185.419 432.32ZM185.835 430.88C187.84 430.88 189.483 430.197 190.763 428.832V419.648C190.166 419.136 189.494 418.731 188.747 418.432C188 418.133 187.104 417.984 186.059 417.984C184.182 417.984 182.763 418.507 181.803 419.552C180.843 420.597 180.363 422.261 180.363 424.544C180.363 426.699 180.811 428.299 181.707 429.344C182.603 430.368 183.979 430.88 185.835 430.88ZM199.161 412.896V410.976H201.178V412.896H199.161ZM199.385 432V418.304H197.018L197.21 416.832H201.146V432H199.385ZM211.339 432.32C209.525 432.32 208.149 431.808 207.21 430.784C206.272 429.76 205.803 428.309 205.803 426.432V416.832H207.562V426.496C207.562 427.947 207.925 429.045 208.65 429.792C209.376 430.517 210.517 430.88 212.074 430.88C213.141 430.88 214.112 430.677 214.986 430.272C215.883 429.845 216.65 429.312 217.29 428.672V416.832H219.051V432H217.482L217.322 430.144C216.576 430.805 215.723 431.339 214.762 431.744C213.803 432.128 212.661 432.32 211.339 432.32ZM223.837 432V416.832H225.374L225.533 418.688C226.365 418.005 227.251 417.472 228.189 417.088C229.15 416.704 230.152 416.512 231.197 416.512C232.371 416.512 233.277 416.704 233.917 417.088C234.557 417.472 235.027 418.005 235.326 418.688C236.051 418.069 236.893 417.557 237.854 417.152C238.814 416.725 239.965 416.512 241.31 416.512C243.016 416.512 244.286 416.949 245.117 417.824C245.971 418.677 246.398 420.021 246.398 421.856V432H244.669V422.016C244.669 420.501 244.339 419.456 243.678 418.88C243.038 418.283 242.024 417.984 240.637 417.984C239.678 417.984 238.771 418.155 237.917 418.496C237.064 418.816 236.339 419.296 235.742 419.936C235.805 420.235 235.859 420.587 235.902 420.992C235.944 421.376 235.965 421.739 235.965 422.08V432H234.27V422.112C234.27 420.661 234.024 419.616 233.534 418.976C233.043 418.315 232.094 417.984 230.686 417.984C229.747 417.984 228.829 418.197 227.934 418.624C227.038 419.051 226.248 419.573 225.566 420.192V432H223.837ZM120.745 260.984V270H126.891V268.824H122.271V260.984H120.745ZM132.861 269.482C133.29 269.921 133.901 270.14 134.695 270.14C135.217 270.14 135.684 270.061 136.095 269.902C136.505 269.743 136.86 269.547 137.159 269.314L137.229 270H138.615V263.364H137.103V268.222C136.869 268.455 136.594 268.642 136.277 268.782C135.959 268.922 135.614 268.992 135.241 268.992C134.737 268.992 134.363 268.875 134.121 268.642C133.878 268.409 133.757 268.045 133.757 267.55V263.364H132.231V267.55C132.231 268.399 132.441 269.043 132.861 269.482ZM144.594 263.364V270H146.092V265.17C146.326 264.955 146.587 264.773 146.876 264.624C147.175 264.465 147.488 264.386 147.814 264.386C148.281 264.386 148.598 264.498 148.766 264.722C148.934 264.946 149.018 265.301 149.018 265.786V270H150.432V265.744C150.432 265.613 150.428 265.492 150.418 265.38C150.409 265.268 150.39 265.161 150.362 265.058C150.568 264.834 150.81 264.666 151.09 264.554C151.38 264.442 151.683 264.386 152 264.386C152.486 264.386 152.836 264.489 153.05 264.694C153.265 264.899 153.372 265.259 153.372 265.772V270H154.87V265.618C154.87 264.806 154.688 264.204 154.324 263.812C153.96 263.42 153.396 263.224 152.63 263.224C152.07 263.224 151.59 263.308 151.188 263.476C150.787 263.635 150.432 263.84 150.124 264.092C149.984 263.821 149.779 263.611 149.508 263.462C149.247 263.303 148.878 263.224 148.402 263.224C147.954 263.224 147.534 263.299 147.142 263.448C146.75 263.597 146.391 263.803 146.064 264.064L145.994 263.364H144.594ZM161.345 260.718V261.978H163.011V260.718H161.345ZM161.471 264.526V270H162.997V263.364H160.603L160.463 264.526H161.471ZM168.977 263.364V270H170.503V265.142C170.727 264.918 171.002 264.736 171.329 264.596C171.665 264.456 172.005 264.386 172.351 264.386C172.929 264.386 173.321 264.489 173.527 264.694C173.741 264.899 173.849 265.259 173.849 265.772V270H175.361V265.702C175.361 264.853 175.165 264.227 174.773 263.826C174.381 263.425 173.755 263.224 172.897 263.224C172.393 263.224 171.931 263.308 171.511 263.476C171.1 263.635 170.745 263.831 170.447 264.064L170.377 263.364H168.977ZM181.68 269.244C182.24 269.841 183.117 270.14 184.312 270.14C185.516 270.14 186.393 269.841 186.944 269.244C187.504 268.647 187.784 267.793 187.784 266.682C187.784 265.571 187.504 264.717 186.944 264.12C186.384 263.523 185.506 263.224 184.312 263.224C183.126 263.224 182.254 263.523 181.694 264.12C181.134 264.717 180.854 265.571 180.854 266.682C180.854 267.793 181.129 268.647 181.68 269.244ZM185.796 268.348C185.506 268.684 185.012 268.852 184.312 268.852C183.621 268.852 183.126 268.684 182.828 268.348C182.538 268.003 182.394 267.447 182.394 266.682C182.394 265.917 182.538 265.366 182.828 265.03C183.126 264.694 183.621 264.526 184.312 264.526C185.012 264.526 185.506 264.694 185.796 265.03C186.094 265.366 186.244 265.917 186.244 266.682C186.244 267.447 186.094 268.003 185.796 268.348ZM194.029 269.482C194.458 269.921 195.069 270.14 195.863 270.14C196.385 270.14 196.852 270.061 197.263 269.902C197.673 269.743 198.028 269.547 198.327 269.314L198.397 270H199.783V263.364H198.271V268.222C198.037 268.455 197.762 268.642 197.445 268.782C197.127 268.922 196.782 268.992 196.409 268.992C195.905 268.992 195.531 268.875 195.289 268.642C195.046 268.409 194.925 268.045 194.925 267.55V263.364H193.399V267.55C193.399 268.399 193.609 269.043 194.029 269.482ZM206.658 270.042C207.078 270.107 207.517 270.14 207.974 270.14C208.88 270.14 209.57 269.981 210.046 269.664C210.522 269.337 210.76 268.847 210.76 268.194C210.76 267.802 210.69 267.485 210.55 267.242C210.42 266.99 210.2 266.775 209.892 266.598C209.584 266.421 209.169 266.253 208.646 266.094C208.077 265.907 207.662 265.763 207.4 265.66C207.148 265.548 207.022 265.361 207.022 265.1C207.022 264.848 207.144 264.68 207.386 264.596C207.638 264.512 208.007 264.47 208.492 264.47C208.763 264.47 209.052 264.498 209.36 264.554C209.678 264.61 209.967 264.689 210.228 264.792V263.518C209.986 263.434 209.692 263.364 209.346 263.308C209.001 263.252 208.637 263.224 208.254 263.224C207.284 263.224 206.579 263.392 206.14 263.728C205.702 264.055 205.482 264.521 205.482 265.128C205.482 265.52 205.562 265.837 205.72 266.08C205.879 266.323 206.103 266.523 206.392 266.682C206.682 266.831 207.022 266.971 207.414 267.102C207.825 267.233 208.161 267.345 208.422 267.438C208.693 267.531 208.894 267.634 209.024 267.746C209.164 267.858 209.234 268.012 209.234 268.208C209.234 268.479 209.122 268.661 208.898 268.754C208.674 268.847 208.301 268.894 207.778 268.894C207.433 268.894 207.069 268.861 206.686 268.796C206.304 268.731 205.954 268.637 205.636 268.516V269.804C205.907 269.897 206.248 269.977 206.658 270.042ZM224.737 268.922C225.502 269.734 226.627 270.14 228.111 270.14C228.634 270.14 229.11 270.107 229.539 270.042C229.978 269.977 230.384 269.883 230.757 269.762V268.418C230.374 268.567 229.964 268.679 229.525 268.754C229.096 268.819 228.666 268.852 228.237 268.852C227.182 268.852 226.403 268.581 225.899 268.04C225.395 267.489 225.143 266.687 225.143 265.632C225.143 264.503 225.372 263.639 225.829 263.042C226.296 262.445 227.089 262.146 228.209 262.146C228.676 262.146 229.119 262.188 229.539 262.272C229.968 262.347 230.37 262.459 230.743 262.608V261.278C230.37 261.147 229.964 261.045 229.525 260.97C229.096 260.886 228.62 260.844 228.097 260.844C227.07 260.844 226.226 261.04 225.563 261.432C224.9 261.815 224.406 262.365 224.079 263.084C223.762 263.793 223.603 264.643 223.603 265.632C223.603 267.013 223.981 268.11 224.737 268.922ZM236.856 269.748C237.136 270.009 237.547 270.14 238.088 270.14C238.303 270.14 238.49 270.126 238.648 270.098C238.816 270.079 238.989 270.037 239.166 269.972V268.866C238.961 268.922 238.746 268.95 238.522 268.95C238.336 268.95 238.196 268.903 238.102 268.81C238.009 268.717 237.962 268.539 237.962 268.278V260.564H236.436V268.418C236.436 269.034 236.576 269.477 236.856 269.748ZM245.106 269.244C245.666 269.841 246.544 270.14 247.738 270.14C248.942 270.14 249.82 269.841 250.37 269.244C250.93 268.647 251.21 267.793 251.21 266.682C251.21 265.571 250.93 264.717 250.37 264.12C249.81 263.523 248.933 263.224 247.738 263.224C246.553 263.224 245.68 263.523 245.12 264.12C244.56 264.717 244.28 265.571 244.28 266.682C244.28 267.793 244.556 268.647 245.106 269.244ZM249.222 268.348C248.933 268.684 248.438 268.852 247.738 268.852C247.048 268.852 246.553 268.684 246.254 268.348C245.965 268.003 245.82 267.447 245.82 266.682C245.82 265.917 245.965 265.366 246.254 265.03C246.553 264.694 247.048 264.526 247.738 264.526C248.438 264.526 248.933 264.694 249.222 265.03C249.521 265.366 249.67 265.917 249.67 266.682C249.67 267.447 249.521 268.003 249.222 268.348ZM257.511 269.258C258.108 269.846 258.99 270.14 260.157 270.14C260.586 270.14 260.974 270.107 261.319 270.042C261.674 269.977 262.005 269.883 262.313 269.762V268.6C261.772 268.852 261.17 268.978 260.507 268.978C259.667 268.978 259.065 268.796 258.701 268.432C258.337 268.059 258.155 267.475 258.155 266.682C258.155 265.842 258.36 265.254 258.771 264.918C259.182 264.573 259.77 264.4 260.535 264.4C261.226 264.4 261.814 264.521 262.299 264.764V263.63C262.01 263.49 261.706 263.387 261.389 263.322C261.081 263.257 260.698 263.224 260.241 263.224C259.14 263.224 258.258 263.509 257.595 264.078C256.942 264.647 256.615 265.515 256.615 266.682C256.615 267.802 256.914 268.661 257.511 269.258ZM267.726 260.564V270H269.252V267.69L270.134 266.85L272.332 270H273.942L271.086 266.038L273.788 263.364H272.038L269.252 266.024V260.564H267.726ZM193.48 211.891C193.48 212.313 193.655 212.695 193.936 212.967C171.233 212.413 153 193.836 153 171C153 148.164 171.233 129.587 193.935 129.032C193.655 129.305 193.48 129.687 193.48 130.109V137.039C193.48 137.868 194.152 138.539 194.98 138.539C195.809 138.539 196.48 137.868 196.48 137.039V130.109C196.48 129.687 196.306 129.305 196.025 129.032C218.727 129.587 236.96 148.164 236.96 171C236.96 193.836 218.727 212.413 196.025 212.967C196.306 212.695 196.48 212.313 196.48 211.891V204.96C196.48 204.132 195.809 203.46 194.98 203.46C194.152 203.46 193.48 204.132 193.48 204.96V211.891ZM194.98 222.98C207.119 222.98 218.287 218.819 227.134 211.845V231C227.134 235.142 223.776 238.5 219.634 238.5H170.327C166.184 238.5 162.827 235.142 162.827 231V211.845C171.673 218.819 182.841 222.98 194.98 222.98ZM246.96 171C246.96 185.15 241.306 197.98 232.134 207.353V231C232.134 237.904 226.537 243.5 219.634 243.5H170.327C163.423 243.5 157.827 237.904 157.827 231V207.353C148.654 197.98 143 185.15 143 171C143 156.85 148.654 144.02 157.827 134.647V111C157.827 104.096 163.423 98.5 170.327 98.5H219.634C226.537 98.5 232.134 104.096 232.134 111V134.646C241.306 144.02 246.96 156.849 246.96 171ZM227.134 130.155C218.287 123.181 207.119 119.02 194.98 119.02C182.841 119.02 171.673 123.181 162.827 130.155V111C162.827 106.858 166.184 103.5 170.327 103.5H219.634C223.776 103.5 227.134 106.858 227.134 111V130.155ZM197.48 143.97C197.48 142.589 196.361 141.47 194.98 141.47C193.6 141.47 192.48 142.589 192.48 143.97V165.999C192.48 170.141 195.838 173.499 199.98 173.499H212.307C213.688 173.499 214.807 172.38 214.807 170.999C214.807 169.619 213.688 168.499 212.307 168.499H199.98C198.6 168.499 197.48 167.38 197.48 165.999V143.97ZM155.362 171.694C155.362 170.865 156.033 170.194 156.862 170.194H163.792C164.621 170.194 165.292 170.865 165.292 171.694C165.292 172.522 164.621 173.194 163.792 173.194H156.862C156.033 173.194 155.362 172.522 155.362 171.694ZM226.168 170.194C225.34 170.194 224.668 170.865 224.668 171.694C224.668 172.522 225.34 173.194 226.168 173.194H233.099C233.928 173.194 234.599 172.522 234.599 171.694C234.599 170.865 233.928 170.194 233.099 170.194H226.168ZM217.484 149.93C216.898 149.345 216.898 148.395 217.484 147.809L222.384 142.908C222.97 142.322 223.92 142.322 224.506 142.908C225.092 143.494 225.092 144.444 224.506 145.03L219.605 149.93C219.019 150.516 218.069 150.516 217.484 149.93ZM217.484 194.932C216.898 194.346 216.898 193.396 217.484 192.81C218.069 192.225 219.019 192.225 219.605 192.81L224.506 197.711C225.092 198.297 225.092 199.247 224.506 199.832C223.92 200.418 222.97 200.418 222.384 199.832L217.484 194.932ZM175.298 149.93C175.884 149.345 175.884 148.395 175.298 147.809L170.397 142.908C169.812 142.322 168.862 142.322 168.276 142.908C167.69 143.494 167.69 144.444 168.276 145.03L173.177 149.93C173.763 150.516 174.712 150.516 175.298 149.93ZM175.298 194.932C175.884 194.346 175.884 193.396 175.298 192.81C174.712 192.225 173.763 192.225 173.177 192.81L168.276 197.711C167.69 198.297 167.69 199.247 168.276 199.832C168.862 200.418 169.812 200.418 170.397 199.832L175.298 194.932Z" fill="white"/>
</g>
<defs>
<filter id="filter0_d_192_405" x="0" y="0" width="390" height="540" filterUnits="userSpaceOnUse" color-interpolation-filters="sRGB">
<feFlood flood-opacity="0" result="BackgroundImageFix"/>
<feColorMatrix in="SourceAlpha" type="matrix" values="0 0 0 0 0 0 0 0 0 0 0 0 0 0 0 0 0 0 127 0" result="hardAlpha"/>
<feOffset/>
<feGaussianBlur stdDeviation="10"/>
<feComposite in2="hardAlpha" operator="out"/>
<feColorMatrix type="matrix" values="0 0 0 0 0.149195 0 0 0 0 0.00833333 0 0 0 0 1 0 0 0 1 0"/>
<feBlend mode="normal" in2="BackgroundImageFix" result="effect1_dropShadow_192_405"/>
<feBlend mode="normal" in="SourceGraphic" in2="effect1_dropShadow_192_405" result="shape"/>
</filter>
</defs>
</svg>
