<svg width="390" height="540" viewBox="0 0 390 540" fill="none" xmlns="http://www.w3.org/2000/svg">
<g filter="url(#filter0_d_181_259)">
<path fill-rule="evenodd" clip-rule="evenodd" d="M20 60C20 37.9086 37.9086 20 60 20H330C352.091 20 370 37.9086 370 60V480C370 502.091 352.091 520 330 520H60C37.9086 520 20 502.091 20 480V60ZM128.147 397V314.568H164.372C173.246 314.568 179.689 316.872 183.699 321.48C187.796 326.088 189.844 332.317 189.844 340.168C189.844 346.227 188.35 351.261 185.363 355.272C182.462 359.283 178.11 361.971 172.307 363.336C174.014 364.36 175.294 365.555 176.148 366.92C177.086 368.2 178.025 369.949 178.964 372.168L189.715 397H178.964L168.467 373.064C167.358 370.504 165.993 368.669 164.372 367.56C162.835 366.451 160.062 365.896 156.051 365.896H138.644V397H128.147ZM138.644 357.704H161.428C166.974 357.704 171.326 356.339 174.484 353.608C177.726 350.792 179.348 346.312 179.348 340.168C179.348 328.648 173.844 322.888 162.836 322.888H138.644V357.704ZM235.995 398.28C231.473 398.28 227.505 397.683 224.092 396.488C220.764 395.208 217.691 393.245 214.876 390.6L214.107 397H205.148V310.728H215.643V340.808C221.19 336.968 227.932 335.048 235.867 335.048C244.486 335.048 251.228 337.523 256.092 342.472C260.956 347.336 263.388 355.229 263.388 366.152C263.388 377.16 260.956 385.267 256.092 390.472C251.228 395.677 244.529 398.28 235.995 398.28ZM233.307 389.832C240.39 389.832 245.425 387.869 248.411 383.944C251.398 380.019 252.892 374.088 252.892 366.152C252.892 357.875 251.27 352.029 248.027 348.616C244.87 345.203 239.878 343.496 233.051 343.496C229.382 343.496 226.097 344.051 223.195 345.16C220.294 346.184 217.777 347.635 215.643 349.512V382.536C217.947 385.011 220.593 386.845 223.579 388.04C226.566 389.235 229.809 389.832 233.307 389.832ZM130.588 411.392V432H132.348V423.744H137.18C137.99 423.744 138.619 423.819 139.067 423.968C139.516 424.096 139.868 424.309 140.124 424.608C140.38 424.907 140.614 425.301 140.827 425.792L143.548 432H145.34L142.588 425.568C142.331 425.013 142.086 424.565 141.852 424.224C141.638 423.883 141.286 423.595 140.796 423.36C142.31 423.061 143.441 422.411 144.188 421.408C144.955 420.405 145.34 419.115 145.34 417.536C145.34 415.659 144.849 414.165 143.868 413.056C142.908 411.947 141.35 411.392 139.196 411.392H130.588ZM138.684 422.336H132.348V412.832H139.067C142.076 412.832 143.579 414.4 143.579 417.536C143.579 419.221 143.142 420.448 142.268 421.216C141.393 421.963 140.198 422.336 138.684 422.336ZM150.773 430.784C151.712 431.808 153.088 432.32 154.901 432.32C156.224 432.32 157.365 432.128 158.325 431.744C159.285 431.339 160.138 430.805 160.885 430.144L161.045 432H162.613V416.832H160.853V428.672C160.213 429.312 159.445 429.845 158.549 430.272C157.674 430.677 156.704 430.88 155.637 430.88C154.08 430.88 152.938 430.517 152.213 429.792C151.488 429.045 151.125 427.947 151.125 426.496V416.832H149.365V426.432C149.365 428.309 149.834 429.76 150.773 430.784ZM171.432 431.84C172.307 432.16 173.331 432.32 174.504 432.32C176.637 432.32 178.301 431.68 179.496 430.4C180.691 429.099 181.288 427.061 181.288 424.288C181.288 421.536 180.691 419.552 179.496 418.336C178.301 417.12 176.637 416.512 174.504 416.512C173.459 416.512 172.499 416.64 171.624 416.896C170.749 417.152 169.928 417.557 169.16 418.112V410.432H167.4V432H168.872L169.032 430.304C169.779 430.987 170.579 431.499 171.432 431.84ZM178.28 429.216C177.448 430.325 176.051 430.88 174.088 430.88C172.083 430.88 170.44 430.197 169.16 428.832V419.648C169.757 419.157 170.451 418.763 171.24 418.464C172.051 418.144 172.979 417.984 174.024 417.984C175.901 417.984 177.288 418.475 178.184 419.456C179.101 420.416 179.56 422.027 179.56 424.288C179.56 426.443 179.133 428.085 178.28 429.216ZM186.661 410.976V412.896H188.678V410.976H186.661ZM186.885 418.304V432H188.646V416.832H184.71L184.518 418.304H186.885ZM196.087 431.52C197.111 432.053 198.284 432.32 199.607 432.32C200.78 432.32 201.804 432.16 202.678 431.84C203.553 431.499 204.353 430.987 205.079 430.304L205.238 432H206.71V410.432H204.951V418.112C204.182 417.536 203.383 417.131 202.551 416.896C201.74 416.64 200.812 416.512 199.766 416.512C197.633 416.512 195.937 417.163 194.678 418.464C193.441 419.765 192.822 421.792 192.822 424.544C192.822 426.379 193.111 427.872 193.686 429.024C194.262 430.155 195.062 430.987 196.087 431.52ZM204.951 428.832C203.671 430.197 202.028 430.88 200.023 430.88C198.167 430.88 196.79 430.368 195.895 429.344C194.999 428.299 194.551 426.699 194.551 424.544C194.551 422.261 195.031 420.597 195.99 419.552C196.951 418.507 198.369 417.984 200.247 417.984C201.292 417.984 202.188 418.133 202.934 418.432C203.681 418.731 204.353 419.136 204.951 419.648V428.832ZM213.349 410.976V412.896H215.365V410.976H213.349ZM213.573 418.304V432H215.333V416.832H211.397L211.205 418.304H213.573ZM221.398 430.784C222.337 431.808 223.713 432.32 225.526 432.32C226.849 432.32 227.99 432.128 228.95 431.744C229.91 431.339 230.763 430.805 231.51 430.144L231.67 432H233.238V416.832H231.478V428.672C230.838 429.312 230.07 429.845 229.174 430.272C228.299 430.677 227.329 430.88 226.262 430.88C224.705 430.88 223.563 430.517 222.838 429.792C222.113 429.045 221.75 427.947 221.75 426.496V416.832H219.99V426.432C219.99 428.309 220.459 429.76 221.398 430.784ZM238.025 416.832V432H239.753V420.192C240.436 419.573 241.225 419.051 242.121 418.624C243.017 418.197 243.934 417.984 244.873 417.984C246.281 417.984 247.23 418.315 247.721 418.976C248.212 419.616 248.457 420.661 248.457 422.112V432H250.153V422.08C250.153 421.739 250.132 421.376 250.089 420.992C250.046 420.587 249.993 420.235 249.929 419.936C250.526 419.296 251.252 418.816 252.105 418.496C252.958 418.155 253.865 417.984 254.825 417.984C256.212 417.984 257.225 418.283 257.865 418.88C258.526 419.456 258.857 420.501 258.857 422.016V432H260.585V421.856C260.585 420.021 260.158 418.677 259.305 417.824C258.473 416.949 257.204 416.512 255.497 416.512C254.153 416.512 253.001 416.725 252.041 417.152C251.081 417.557 250.238 418.069 249.513 418.688C249.214 418.005 248.745 417.472 248.105 417.088C247.465 416.704 246.558 416.512 245.385 416.512C244.34 416.512 243.337 416.704 242.377 417.088C241.438 417.472 240.553 418.005 239.721 418.688L239.561 416.832H238.025ZM240.085 158.122C240.085 167.278 237.249 175.783 232.394 182.833L196.926 240.922C196.147 242.199 194.292 242.199 193.512 240.922L158.046 182.835C153.19 175.784 150.354 167.279 150.354 158.122C150.354 133.754 170.441 114 195.219 114C219.998 114 240.085 133.754 240.085 158.122ZM195.668 182.829C209.296 182.829 220.344 171.964 220.344 158.562C220.344 145.16 209.296 134.295 195.668 134.295C182.04 134.295 170.992 145.16 170.992 158.562C170.992 171.964 182.04 182.829 195.668 182.829ZM259.523 253.335L198.679 247.446L201.522 242.698L210.969 243.612L223.917 225H212.118L215.112 220H239.692C243.204 220 246.459 221.843 248.267 224.855L262.683 248.882C263.346 249.299 263.791 250.016 263.848 250.824L266.267 254.855C270.266 261.52 265.465 270 257.692 270H133.015C125.242 270 120.441 261.52 124.441 254.855L142.441 224.855C144.248 221.843 147.503 220 151.015 220H175.596L178.589 225H151.015C149.259 225 147.632 225.921 146.728 227.428L141.075 236.849L188.427 241.431L191.62 246.763L172.354 244.899V265H257.692C261.578 265 263.979 260.76 261.979 257.428L259.523 253.335ZM230.008 225H239.692C241.448 225 243.075 225.921 243.979 227.428L256.324 248.002L216.676 244.165L230.008 225ZM138.227 241.596L128.728 257.428C126.728 260.76 129.129 265 133.015 265H167.354V244.415L138.227 241.596Z" fill="white"/>
</g>
<defs>
<filter id="filter0_d_181_259" x="0" y="0" width="390" height="540" filterUnits="userSpaceOnUse" color-interpolation-filters="sRGB">
<feFlood flood-opacity="0" result="BackgroundImageFix"/>
<feColorMatrix in="SourceAlpha" type="matrix" values="0 0 0 0 0 0 0 0 0 0 0 0 0 0 0 0 0 0 127 0" result="hardAlpha"/>
<feOffset/>
<feGaussianBlur stdDeviation="10"/>
<feComposite in2="hardAlpha" operator="out"/>
<feColorMatrix type="matrix" values="0 0 0 0 0.78 0 0 0 0 0.3125 0 0 0 0 1 0 0 0 1 0"/>
<feBlend mode="normal" in2="BackgroundImageFix" result="effect1_dropShadow_181_259"/>
<feBlend mode="normal" in="SourceGraphic" in2="effect1_dropShadow_181_259" result="shape"/>
</filter>
</defs>
</svg>
