<svg width="390" height="540" viewBox="0 0 390 540" fill="none" xmlns="http://www.w3.org/2000/svg">
<g filter="url(#filter0_d_308_304)">
<path fill-rule="evenodd" clip-rule="evenodd" d="M60 20C37.9086 20 20 37.9086 20 60V480C20 502.091 37.9086 520 60 520H330C352.091 520 370 502.091 370 480V60C370 37.9086 352.091 20 330 20H60ZM132.632 394.44C138.947 397 147.225 398.28 157.465 398.28C167.961 398.28 175.854 396.317 181.145 392.392C186.435 388.381 189.081 382.749 189.081 375.496C189.081 371.571 188.312 368.072 186.777 365C185.241 361.928 182.595 359.283 178.84 357.064C175.086 354.76 169.838 352.797 163.096 351.176C157.465 349.811 153.07 348.531 149.913 347.336C146.755 346.056 144.494 344.563 143.129 342.856C141.849 341.064 141.208 338.76 141.208 335.944C141.208 330.909 143.086 327.368 146.84 325.32C150.595 323.272 155.971 322.248 162.969 322.248C166.809 322.248 170.521 322.547 174.105 323.144C177.689 323.741 181.017 324.595 184.089 325.704V316.488C181.87 315.72 178.712 314.995 174.617 314.312C170.521 313.629 166.083 313.288 161.305 313.288C150.979 313.288 143.299 315.336 138.265 319.432C133.23 323.443 130.713 328.947 130.713 335.944C130.713 341.917 132.547 346.696 136.216 350.28C139.886 353.779 146.243 356.637 155.288 358.856C161.006 360.221 165.571 361.587 168.984 362.952C172.398 364.232 174.83 365.853 176.281 367.816C177.816 369.693 178.585 372.253 178.585 375.496C178.585 380.701 176.75 384.328 173.081 386.376C169.411 388.339 163.907 389.32 156.568 389.32C152.302 389.32 148.12 388.979 144.025 388.296C140.014 387.528 136.216 386.461 132.632 385.096V394.44ZM209.902 390.472C215.277 395.677 223.384 398.28 234.221 398.28C237.805 398.28 241.219 397.981 244.462 397.384C247.79 396.787 250.776 395.933 253.422 394.824V386.632C248.216 388.765 242.499 389.832 236.27 389.832C230.723 389.832 226.243 389.277 222.829 388.168C219.501 386.973 216.984 385.053 215.277 382.408C213.656 379.763 212.675 376.136 212.333 371.528H257.262V360.136C257.262 355.357 256.28 351.091 254.318 347.336C252.44 343.496 249.539 340.509 245.613 338.376C241.773 336.157 236.867 335.048 230.893 335.048C220.824 335.048 213.443 337.864 208.749 343.496C204.141 349.043 201.837 356.68 201.837 366.408C201.837 377.245 204.525 385.267 209.902 390.472ZM247.918 363.976H212.333C212.333 357.149 213.656 352.029 216.301 348.616C218.947 345.203 223.896 343.496 231.15 343.496C237.123 343.496 241.389 344.861 243.949 347.592C246.595 350.237 247.918 354.035 247.918 358.984V363.976ZM138.553 432.32C136.078 432.32 134.084 432.021 132.569 431.424V429.856C134.34 430.496 136.292 430.816 138.425 430.816C140.43 430.816 141.945 430.507 142.969 429.888C143.993 429.269 144.505 428.224 144.505 426.752C144.505 425.856 144.302 425.131 143.897 424.576C143.492 424.021 142.841 423.563 141.945 423.2C141.07 422.816 139.886 422.464 138.393 422.144C136.814 421.781 135.556 421.365 134.617 420.896C133.7 420.405 133.038 419.808 132.633 419.104C132.249 418.4 132.057 417.568 132.057 416.608C132.057 414.944 132.654 413.611 133.849 412.608C135.065 411.584 136.932 411.072 139.449 411.072C140.601 411.072 141.678 411.157 142.681 411.328C143.684 411.499 144.452 411.669 144.985 411.84V413.408C143.449 412.875 141.721 412.608 139.801 412.608C137.86 412.608 136.366 412.928 135.321 413.568C134.297 414.187 133.785 415.2 133.785 416.608C133.785 417.397 133.956 418.048 134.297 418.56C134.66 419.051 135.268 419.467 136.121 419.808C136.974 420.149 138.148 420.501 139.641 420.864C141.326 421.248 142.638 421.717 143.577 422.272C144.537 422.805 145.22 423.445 145.625 424.192C146.03 424.917 146.233 425.771 146.233 426.752C146.233 428.587 145.582 429.973 144.281 430.912C142.98 431.851 141.07 432.32 138.553 432.32ZM157.584 432.32C154.854 432.32 152.859 431.68 151.6 430.4C150.363 429.099 149.744 427.072 149.744 424.32C149.744 421.888 150.288 419.979 151.376 418.592C152.486 417.205 154.278 416.512 156.752 416.512C158.224 416.512 159.419 416.789 160.336 417.344C161.254 417.877 161.926 418.603 162.352 419.52C162.8 420.437 163.024 421.461 163.024 422.592V425.344H151.504C151.59 427.307 152.102 428.725 153.04 429.6C153.979 430.453 155.611 430.88 157.936 430.88C159.344 430.88 160.71 430.613 162.032 430.08V431.52C160.731 432.053 159.248 432.32 157.584 432.32ZM151.504 423.968H161.424V422.528C161.424 421.12 161.062 420.011 160.336 419.2C159.611 418.389 158.427 417.984 156.784 417.984C154.779 417.984 153.392 418.507 152.624 419.552C151.878 420.576 151.504 422.048 151.504 423.968ZM170.325 432.32C169.472 432.32 168.789 432.085 168.277 431.616C167.765 431.147 167.509 430.304 167.509 429.088V410.432H169.269V429.024C169.269 429.707 169.376 430.176 169.589 430.432C169.803 430.688 170.144 430.816 170.613 430.816C171.083 430.816 171.552 430.752 172.021 430.624V432.096C171.744 432.181 171.456 432.235 171.157 432.256C170.859 432.299 170.581 432.32 170.325 432.32ZM182.584 432.32C179.854 432.32 177.859 431.68 176.6 430.4C175.363 429.099 174.744 427.072 174.744 424.32C174.744 421.888 175.288 419.979 176.376 418.592C177.486 417.205 179.278 416.512 181.752 416.512C183.224 416.512 184.419 416.789 185.336 417.344C186.254 417.877 186.926 418.603 187.352 419.52C187.8 420.437 188.024 421.461 188.024 422.592V425.344H176.504C176.59 427.307 177.102 428.725 178.04 429.6C178.979 430.453 180.611 430.88 182.936 430.88C184.344 430.88 185.71 430.613 187.032 430.08V431.52C185.731 432.053 184.248 432.32 182.584 432.32ZM176.504 423.968H186.424V422.528C186.424 421.12 186.062 420.011 185.336 419.2C184.611 418.389 183.427 417.984 181.784 417.984C179.779 417.984 178.392 418.507 177.624 419.552C176.878 420.576 176.504 422.048 176.504 423.968ZM192.509 432V416.832H194.045L194.205 418.688C194.973 418.048 195.848 417.525 196.829 417.12C197.811 416.715 198.984 416.512 200.349 416.512C202.248 416.512 203.624 416.949 204.477 417.824C205.331 418.699 205.757 420.085 205.757 421.984V432H203.997V422.016C203.997 420.523 203.688 419.477 203.069 418.88C202.472 418.283 201.32 417.984 199.613 417.984C198.547 417.984 197.555 418.187 196.637 418.592C195.741 418.997 194.952 419.531 194.269 420.192V432H192.509ZM211.24 412.896V410.976H213.256V412.896H211.24ZM211.464 432V418.304H209.096L209.288 416.832H213.224V432H211.464ZM223.417 432.32C221.603 432.32 220.227 431.808 219.289 430.784C218.35 429.76 217.881 428.309 217.881 426.432V416.832H219.641V426.496C219.641 427.947 220.003 429.045 220.729 429.792C221.454 430.517 222.595 430.88 224.153 430.88C225.219 430.88 226.19 430.677 227.065 430.272C227.961 429.845 228.729 429.312 229.369 428.672V416.832H231.129V432H229.561L229.401 430.144C228.654 430.805 227.801 431.339 226.841 431.744C225.881 432.128 224.739 432.32 223.417 432.32ZM235.916 432V416.832H237.452L237.612 418.688C238.444 418.005 239.329 417.472 240.268 417.088C241.228 416.704 242.23 416.512 243.276 416.512C244.449 416.512 245.356 416.704 245.996 417.088C246.636 417.472 247.105 418.005 247.404 418.688C248.129 418.069 248.972 417.557 249.932 417.152C250.892 416.725 252.044 416.512 253.388 416.512C255.094 416.512 256.364 416.949 257.196 417.824C258.049 418.677 258.476 420.021 258.476 421.856V432H256.748V422.016C256.748 420.501 256.417 419.456 255.756 418.88C255.116 418.283 254.102 417.984 252.716 417.984C251.756 417.984 250.849 418.155 249.996 418.496C249.142 418.816 248.417 419.296 247.82 419.936C247.884 420.235 247.937 420.587 247.98 420.992C248.022 421.376 248.044 421.739 248.044 422.08V432H246.348V422.112C246.348 420.661 246.102 419.616 245.612 418.976C245.121 418.315 244.172 417.984 242.764 417.984C241.825 417.984 240.908 418.197 240.012 418.624C239.116 419.051 238.326 419.573 237.644 420.192V432H235.916ZM157.242 269.692C157.951 269.991 158.889 270.14 160.056 270.14C161.251 270.14 162.142 269.916 162.73 269.468C163.318 269.011 163.612 268.385 163.612 267.592C163.612 267.163 163.528 266.78 163.36 266.444C163.201 266.099 162.917 265.8 162.506 265.548C162.105 265.287 161.535 265.063 160.798 264.876C160.229 264.727 159.781 264.591 159.454 264.47C159.137 264.349 158.913 264.204 158.782 264.036C158.651 263.868 158.586 263.649 158.586 263.378C158.586 262.911 158.773 262.589 159.146 262.412C159.519 262.235 160.042 262.146 160.714 262.146C161.573 262.146 162.357 262.281 163.066 262.552V261.208C162.805 261.115 162.441 261.031 161.974 260.956C161.517 260.881 161.027 260.844 160.504 260.844C159.356 260.844 158.493 261.068 157.914 261.516C157.335 261.964 157.046 262.585 157.046 263.378C157.046 264.059 157.242 264.596 157.634 264.988C158.026 265.371 158.707 265.688 159.678 265.94C160.285 266.089 160.761 266.234 161.106 266.374C161.451 266.505 161.699 266.663 161.848 266.85C161.997 267.037 162.072 267.284 162.072 267.592C162.072 268.096 161.89 268.432 161.526 268.6C161.171 268.768 160.635 268.852 159.916 268.852C159.459 268.852 158.997 268.805 158.53 268.712C158.073 268.619 157.643 268.497 157.242 268.348V269.692ZM169.964 269.286C170.598 269.855 171.494 270.14 172.652 270.14C173.09 270.14 173.501 270.107 173.884 270.042C174.276 269.977 174.621 269.879 174.92 269.748V268.628C174.658 268.731 174.35 268.815 173.996 268.88C173.641 268.945 173.296 268.978 172.96 268.978C172.157 268.978 171.56 268.857 171.168 268.614C170.776 268.371 170.542 267.928 170.468 267.284H175.326V266.052C175.326 265.221 175.069 264.545 174.556 264.022C174.052 263.49 173.296 263.224 172.288 263.224C171.186 263.224 170.365 263.532 169.824 264.148C169.282 264.764 169.012 265.604 169.012 266.668C169.012 267.844 169.329 268.717 169.964 269.286ZM173.982 266.29H170.468C170.468 265.627 170.598 265.142 170.86 264.834C171.13 264.526 171.62 264.372 172.33 264.372C172.927 264.372 173.352 264.503 173.604 264.764C173.856 265.016 173.982 265.371 173.982 265.828V266.29ZM181.907 269.916C182.271 270.065 182.663 270.14 183.083 270.14C183.68 270.14 184.175 270.07 184.567 269.93C184.968 269.79 185.304 269.589 185.575 269.328L185.673 270H186.975V265.73C186.975 264.843 186.718 264.204 186.205 263.812C185.701 263.42 184.964 263.224 183.993 263.224C183.498 263.224 183.036 263.261 182.607 263.336C182.178 263.411 181.814 263.509 181.515 263.63V264.764C182.196 264.531 182.929 264.414 183.713 264.414C184.208 264.414 184.581 264.456 184.833 264.54C185.094 264.624 185.272 264.759 185.365 264.946C185.468 265.133 185.519 265.385 185.519 265.702V265.996H183.391C182.486 265.996 181.814 266.192 181.375 266.584C180.946 266.967 180.731 267.475 180.731 268.11C180.731 268.558 180.838 268.936 181.053 269.244C181.268 269.543 181.552 269.767 181.907 269.916ZM184.679 268.824C184.343 268.973 183.946 269.048 183.489 269.048C183.06 269.048 182.728 268.973 182.495 268.824C182.262 268.675 182.145 268.427 182.145 268.082C182.145 267.727 182.243 267.466 182.439 267.298C182.644 267.121 182.971 267.032 183.419 267.032H185.519V268.194C185.304 268.455 185.024 268.665 184.679 268.824ZM193.273 264.554V270H194.785V264.554H196.451L196.521 263.364H194.785V262.566C194.785 262.183 194.869 261.913 195.037 261.754C195.205 261.595 195.509 261.516 195.947 261.516C196.246 261.516 196.54 261.567 196.829 261.67V260.578C196.643 260.503 196.437 260.447 196.213 260.41C195.989 260.363 195.742 260.34 195.471 260.34C194.743 260.34 194.193 260.545 193.819 260.956C193.455 261.357 193.273 261.889 193.273 262.552V263.364H192.307V264.554H193.273ZM202.166 269.244C202.726 269.841 203.603 270.14 204.798 270.14C206.002 270.14 206.879 269.841 207.43 269.244C207.99 268.647 208.27 267.793 208.27 266.682C208.27 265.571 207.99 264.717 207.43 264.12C206.87 263.523 205.993 263.224 204.798 263.224C203.613 263.224 202.74 263.523 202.18 264.12C201.62 264.717 201.34 265.571 201.34 266.682C201.34 267.793 201.615 268.647 202.166 269.244ZM206.282 268.348C205.993 268.684 205.498 268.852 204.798 268.852C204.107 268.852 203.613 268.684 203.314 268.348C203.025 268.003 202.88 267.447 202.88 266.682C202.88 265.917 203.025 265.366 203.314 265.03C203.613 264.694 204.107 264.526 204.798 264.526C205.498 264.526 205.993 264.694 206.282 265.03C206.581 265.366 206.73 265.917 206.73 266.682C206.73 267.447 206.581 268.003 206.282 268.348ZM214.501 269.244C215.061 269.841 215.938 270.14 217.133 270.14C218.337 270.14 219.214 269.841 219.765 269.244C220.325 268.647 220.605 267.793 220.605 266.682C220.605 265.571 220.325 264.717 219.765 264.12C219.205 263.523 218.328 263.224 217.133 263.224C215.948 263.224 215.075 263.523 214.515 264.12C213.955 264.717 213.675 265.571 213.675 266.682C213.675 267.793 213.95 268.647 214.501 269.244ZM218.617 268.348C218.328 268.684 217.833 268.852 217.133 268.852C216.442 268.852 215.948 268.684 215.649 268.348C215.36 268.003 215.215 267.447 215.215 266.682C215.215 265.917 215.36 265.366 215.649 265.03C215.948 264.694 216.442 264.526 217.133 264.526C217.833 264.526 218.328 264.694 218.617 265.03C218.916 265.366 219.065 265.917 219.065 266.682C219.065 267.447 218.916 268.003 218.617 268.348ZM227.452 269.832C227.909 270.037 228.436 270.14 229.034 270.14C229.519 270.14 229.939 270.075 230.294 269.944C230.648 269.813 230.975 269.613 231.274 269.342L231.372 270H232.674V260.564H231.148V263.798C230.858 263.602 230.555 263.457 230.238 263.364C229.93 263.271 229.575 263.224 229.174 263.224C228.567 263.224 228.021 263.364 227.536 263.644C227.06 263.924 226.686 264.339 226.416 264.89C226.145 265.431 226.01 266.099 226.01 266.892C226.01 267.695 226.136 268.334 226.388 268.81C226.64 269.286 226.994 269.627 227.452 269.832ZM231.148 268.292C230.69 268.759 230.121 268.992 229.44 268.992C228.786 268.992 228.306 268.843 227.998 268.544C227.699 268.245 227.55 267.699 227.55 266.906C227.55 266.085 227.713 265.459 228.04 265.03C228.366 264.601 228.852 264.386 229.496 264.386C230.158 264.386 230.709 264.582 231.148 264.974V268.292ZM160.003 155.531C160.814 155.364 161.607 155.887 161.773 156.699L160.304 157C161.773 156.699 161.773 156.699 161.773 156.699L161.774 156.7L161.774 156.702L161.775 156.708L161.78 156.731L161.798 156.82C161.813 156.897 161.836 157.011 161.865 157.157C161.922 157.45 162.003 157.874 162.1 158.403C162.294 159.459 162.553 160.937 162.809 162.622C163.319 165.971 163.835 170.224 163.803 173.629C163.773 176.789 163.258 180.726 162.763 183.826C162.514 185.386 162.267 186.753 162.082 187.73C161.99 188.22 161.913 188.612 161.858 188.882C161.831 189.018 161.81 189.123 161.795 189.195L161.778 189.277L161.774 189.298L161.773 189.304L161.772 189.306L161.772 189.306C161.772 189.306 161.772 189.307 160.304 189L161.772 189.307C161.603 190.117 160.808 190.638 159.997 190.468C159.187 190.299 158.666 189.504 158.836 188.693L158.836 188.693L158.837 188.688L158.841 188.67L158.856 188.594C158.87 188.526 158.89 188.425 158.917 188.295C158.969 188.033 159.044 187.651 159.134 187.173C159.315 186.217 159.557 184.878 159.801 183.353C160.291 180.281 160.775 176.526 160.803 173.601C160.832 170.448 160.349 166.393 159.843 163.074C159.593 161.425 159.34 159.979 159.15 158.945C159.055 158.428 158.975 158.015 158.92 157.732L158.9 157.629C158.882 157.537 158.867 157.463 158.856 157.409L158.84 157.327L158.836 157.307L158.835 157.302L158.834 157.301L160.003 155.531ZM206.044 153.969C201.31 151.342 190.51 145.672 182.131 143.667C183.285 143.346 184.564 143.024 185.939 142.73C191.905 141.454 199.513 140.742 206.454 142.779C207.068 142.959 207.503 143.433 207.704 144.568C207.911 145.743 207.782 147.309 207.453 148.981C207.129 150.624 206.639 152.237 206.225 153.45C206.176 153.592 206.129 153.728 206.083 153.857C206.07 153.895 206.057 153.932 206.044 153.969ZM209.064 154.42C208.928 154.817 208.8 155.173 208.688 155.475L232.862 169.576L233.502 169.95C233.619 169.846 233.746 169.749 233.881 169.659L260.435 151.956C262.761 150.406 265.876 152.073 265.876 154.869V189.72C265.876 192.492 262.806 194.164 260.477 192.66L233.924 175.511C233.719 175.379 233.534 175.231 233.369 175.069L232.862 175.365L208.447 189.607C208.447 189.607 189.925 200.634 179.071 201.847L178.257 201.938C170.341 202.826 164.944 203.431 157.039 201.474C148.307 199.313 143.619 196.02 136.267 190.856L136.231 190.831C130.976 187.14 125.545 180.035 122.584 175.828C121.174 173.824 121.256 171.173 122.774 169.25C125.84 165.366 131.284 158.913 136.231 155.334C143.683 149.943 148.16 146.958 157.039 144.556C163.939 142.688 168.983 142.177 175.461 142.712L175.519 142.69C176.03 142.49 176.771 142.213 177.704 141.895C179.569 141.26 182.207 140.46 185.312 139.796C191.49 138.475 199.667 137.661 207.298 139.9C209.415 140.522 210.346 142.281 210.658 144.046C210.962 145.769 210.75 147.769 210.396 149.561C210.037 151.383 209.503 153.135 209.064 154.42ZM143.304 165C143.304 166.657 144.647 168 146.304 168C147.961 168 149.304 166.657 149.304 165C149.304 163.343 147.961 162 146.304 162C144.647 162 143.304 163.343 143.304 165ZM139 180.5H132.544C134.663 182.936 136.946 185.223 139.105 186.739C146.455 191.902 150.481 194.7 158.24 196.621C165.268 198.36 169.875 197.845 177.926 196.944L178.516 196.878C182.995 196.377 189.641 193.691 195.645 190.775C198.54 189.368 201.115 187.995 202.966 186.972C203.89 186.462 204.63 186.041 205.135 185.75C205.387 185.605 205.581 185.492 205.708 185.417C205.772 185.38 205.82 185.352 205.85 185.334L205.883 185.315L205.89 185.311L205.89 185.311L205.89 185.31L205.89 185.31L205.909 185.299L205.928 185.288L227.9 172.471L205.928 159.653L205.915 159.646L205.904 159.639L205.904 159.639L205.903 159.639L205.903 159.639L205.897 159.635L205.864 159.616C205.834 159.598 205.787 159.571 205.723 159.534C205.597 159.46 205.405 159.349 205.155 159.206C204.654 158.919 203.92 158.505 203.003 158.001C201.164 156.992 198.605 155.635 195.718 154.238C189.752 151.352 183.064 148.639 178.444 148.055C170.705 147.077 165.811 147.362 158.345 149.382C150.348 151.546 146.458 154.107 139.162 159.385C134.84 162.512 129.773 168.453 126.699 172.348C126.612 172.458 126.581 172.565 126.579 172.657C126.576 172.747 126.599 172.846 126.672 172.95C127.624 174.302 128.782 175.879 130.062 177.5H139C139.828 177.5 140.5 178.172 140.5 179C140.5 179.828 139.828 180.5 139 180.5ZM176.082 176.627C176.288 175.825 177.105 175.341 177.908 175.547L190.124 178.682C192.352 179.253 192.691 182.277 190.644 183.327L176.989 190.335C176.252 190.713 175.348 190.422 174.969 189.685C174.591 188.948 174.882 188.044 175.619 187.665L188.102 181.26L177.162 178.453C176.359 178.247 175.876 177.43 176.082 176.627ZM191.304 234C219.826 234 243.849 214.741 251.079 188.518L254.601 190.754C246.521 218.069 221.24 238 191.304 238C159.641 238 133.186 215.704 126.782 185.955C128.524 187.73 130.351 189.379 132.168 190.681C140.093 215.793 163.572 234 191.304 234ZM191.304 110C162.938 110 139.021 129.049 131.649 155.053C129.92 156.369 128.156 157.956 126.462 159.626C132.254 129.09 159.083 106 191.304 106C220.992 106 246.102 125.602 254.397 152.57L250.904 154.859C243.467 128.954 219.599 110 191.304 110ZM238.557 172.551L260.876 157.671V186.966L238.557 172.551Z" fill="white"/>
</g>
<defs>
<filter id="filter0_d_308_304" x="0" y="0" width="390" height="540" filterUnits="userSpaceOnUse" color-interpolation-filters="sRGB">
<feFlood flood-opacity="0" result="BackgroundImageFix"/>
<feColorMatrix in="SourceAlpha" type="matrix" values="0 0 0 0 0 0 0 0 0 0 0 0 0 0 0 0 0 0 127 0" result="hardAlpha"/>
<feOffset/>
<feGaussianBlur stdDeviation="10"/>
<feComposite in2="hardAlpha" operator="out"/>
<feColorMatrix type="matrix" values="0 0 0 0 1 0 0 0 0 0.233333 0 0 0 0 0.556367 0 0 0 1 0"/>
<feBlend mode="normal" in2="BackgroundImageFix" result="effect1_dropShadow_308_304"/>
<feBlend mode="normal" in="SourceGraphic" in2="effect1_dropShadow_308_304" result="shape"/>
</filter>
</defs>
</svg>
