<svg width="390" height="540" viewBox="0 0 390 540" fill="none" xmlns="http://www.w3.org/2000/svg">
<g filter="url(#filter0_d_230_123)">
<path fill-rule="evenodd" clip-rule="evenodd" d="M60 20C37.9086 20 20 37.9086 20 60V480C20 502.091 37.9086 520 60 520H330C352.091 520 370 502.091 370 480V60C370 37.9086 352.091 20 330 20H60ZM150.695 394.44C157.01 397 165.287 398.28 175.527 398.28C186.023 398.28 193.916 396.317 199.207 392.392C204.498 388.381 207.143 382.749 207.143 375.496C207.143 371.571 206.375 368.072 204.839 365C203.303 361.928 200.658 359.283 196.903 357.064C193.148 354.76 187.9 352.797 181.159 351.176C175.527 349.811 171.132 348.531 167.975 347.336C164.818 346.056 162.556 344.563 161.191 342.856C159.911 341.064 159.271 338.76 159.271 335.944C159.271 330.909 161.148 327.368 164.903 325.32C168.658 323.272 174.034 322.248 181.031 322.248C184.871 322.248 188.583 322.547 192.167 323.144C195.751 323.741 199.079 324.595 202.151 325.704V316.488C199.932 315.72 196.775 314.995 192.679 314.312C188.583 313.629 184.146 313.288 179.367 313.288C169.042 313.288 161.362 315.336 156.327 319.432C151.292 323.443 148.775 328.947 148.775 335.944C148.775 341.917 150.61 346.696 154.279 350.28C157.948 353.779 164.306 356.637 173.351 358.856C179.068 360.221 183.634 361.587 187.047 362.952C190.46 364.232 192.892 365.853 194.343 367.816C195.879 369.693 196.647 372.253 196.647 375.496C196.647 380.701 194.812 384.328 191.143 386.376C187.474 388.339 181.97 389.32 174.631 389.32C170.364 389.32 166.183 388.979 162.087 388.296C158.076 387.528 154.279 386.461 150.695 385.096V394.44ZM224.97 312.52V322.12H236.618V312.52H224.97ZM225.994 344.648V397H236.49V336.328H217.674L216.65 344.648H225.994ZM157.662 432.32C155.188 432.32 153.193 432.021 151.678 431.424V429.856C153.449 430.496 155.401 430.816 157.534 430.816C159.54 430.816 161.054 430.507 162.078 429.888C163.102 429.269 163.614 428.224 163.614 426.752C163.614 425.856 163.412 425.131 163.006 424.576C162.601 424.021 161.95 423.563 161.054 423.2C160.18 422.816 158.996 422.464 157.502 422.144C155.924 421.781 154.665 421.365 153.726 420.896C152.809 420.405 152.148 419.808 151.742 419.104C151.358 418.4 151.166 417.568 151.166 416.608C151.166 414.944 151.764 413.611 152.958 412.608C154.174 411.584 156.041 411.072 158.558 411.072C159.71 411.072 160.788 411.157 161.79 411.328C162.793 411.499 163.561 411.669 164.094 411.84V413.408C162.558 412.875 160.83 412.608 158.91 412.608C156.969 412.608 155.476 412.928 154.43 413.568C153.406 414.187 152.894 415.2 152.894 416.608C152.894 417.397 153.065 418.048 153.406 418.56C153.769 419.051 154.377 419.467 155.23 419.808C156.084 420.149 157.257 420.501 158.75 420.864C160.436 421.248 161.748 421.717 162.686 422.272C163.646 422.805 164.329 423.445 164.734 424.192C165.14 424.917 165.342 425.771 165.342 426.752C165.342 428.587 164.692 429.973 163.39 430.912C162.089 431.851 160.18 432.32 157.662 432.32ZM170.505 412.896V410.976H172.521V412.896H170.505ZM170.729 432V418.304H168.361L168.553 416.832H172.489V432H170.729ZM180.122 432.32C179.269 432.32 178.586 432.085 178.074 431.616C177.562 431.147 177.306 430.304 177.306 429.088V410.432H179.066V429.024C179.066 429.707 179.173 430.176 179.386 430.432C179.6 430.688 179.941 430.816 180.41 430.816C180.88 430.816 181.349 430.752 181.818 430.624V432.096C181.541 432.181 181.253 432.235 180.954 432.256C180.656 432.299 180.378 432.32 180.122 432.32ZM185.88 412.896V410.976H187.896V412.896H185.88ZM186.104 432V418.304H183.736L183.928 416.832H187.864V432H186.104ZM199.561 432.32C196.937 432.32 195.028 431.627 193.833 430.24C192.639 428.853 192.041 426.912 192.041 424.416C192.041 421.749 192.735 419.765 194.121 418.464C195.529 417.163 197.428 416.512 199.817 416.512C200.799 416.512 201.588 416.587 202.185 416.736C202.783 416.864 203.369 417.067 203.945 417.344V418.784C202.815 418.251 201.535 417.984 200.105 417.984C198.1 417.984 196.543 418.496 195.433 419.52C194.324 420.544 193.769 422.176 193.769 424.416C193.769 426.613 194.239 428.245 195.177 429.312C196.137 430.357 197.737 430.88 199.977 430.88C200.66 430.88 201.343 430.805 202.025 430.656C202.729 430.507 203.38 430.304 203.977 430.048V431.52C203.38 431.776 202.708 431.968 201.961 432.096C201.236 432.245 200.436 432.32 199.561 432.32ZM213.68 432.32C211.12 432.32 209.274 431.648 208.143 430.304C207.013 428.96 206.447 426.997 206.447 424.416C206.447 421.856 207.023 419.904 208.176 418.56C209.327 417.195 211.162 416.512 213.68 416.512C216.218 416.512 218.064 417.195 219.215 418.56C220.368 419.904 220.943 421.856 220.943 424.416C220.943 426.997 220.368 428.96 219.215 430.304C218.085 431.648 216.24 432.32 213.68 432.32ZM213.68 430.816C215.706 430.816 217.125 430.293 217.936 429.248C218.768 428.203 219.184 426.592 219.184 424.416C219.184 422.261 218.768 420.661 217.936 419.616C217.104 418.571 215.685 418.048 213.68 418.048C211.674 418.048 210.255 418.571 209.423 419.616C208.592 420.661 208.176 422.261 208.176 424.416C208.176 426.592 208.592 428.203 209.423 429.248C210.255 430.293 211.674 430.816 213.68 430.816ZM225.119 432V416.832H226.655L226.815 418.688C227.583 418.048 228.457 417.525 229.439 417.12C230.42 416.715 231.593 416.512 232.959 416.512C234.857 416.512 236.233 416.949 237.087 417.824C237.94 418.699 238.367 420.085 238.367 421.984V432H236.607V422.016C236.607 420.523 236.297 419.477 235.679 418.88C235.081 418.283 233.929 417.984 232.223 417.984C231.156 417.984 230.164 418.187 229.247 418.592C228.351 418.997 227.561 419.531 226.879 420.192V432H225.119ZM126.318 69.9311L143.324 107.473C139.691 104.573 135.443 101.978 130.869 100.775C125.378 99.3318 118.529 99.9381 112.473 101.067C106.339 102.211 100.664 103.964 97.3592 105.081C93.9357 106.239 94.4196 110.884 97.6411 111.696L137.492 121.731C132.329 122.911 126.744 124.937 122.45 128.471C118.085 132.064 114.571 137.963 111.941 143.527C109.276 149.164 107.367 154.789 106.332 158.125C105.259 161.583 109.316 163.911 111.859 161.772L149.919 129.77C149.914 132.112 149.939 134.946 150.034 138.049C150.288 146.417 151.048 156.935 153.13 165.019C155.588 174.564 161.17 185.693 166.038 194.314C168.488 198.652 170.786 202.407 172.473 205.078C172.882 205.725 173.255 206.308 173.585 206.822C160.433 213.306 149.521 223.244 141.058 233.027C133.861 241.347 128.343 249.66 124.625 255.888C122.764 259.005 121.35 261.607 120.399 263.436C119.923 264.35 119.562 265.072 119.318 265.569C119.197 265.818 119.104 266.01 119.041 266.142C119.01 266.208 118.986 266.259 118.969 266.295L118.95 266.336L118.944 266.348L118.942 266.352C118.942 266.353 118.941 266.354 121.21 267.405L118.941 266.354L117.297 269.905H121.21H290.627H294.757L292.842 266.246L290.627 267.405C292.842 266.246 292.842 266.245 292.841 266.244L292.84 266.24L292.833 266.228L292.812 266.187L292.78 266.127L292.731 266.036C292.715 266.007 292.698 265.974 292.679 265.939C292.662 265.908 292.644 265.875 292.625 265.84C292.568 265.735 292.5 265.61 292.422 265.467C292.15 264.973 291.748 264.255 291.22 263.345C290.164 261.526 288.601 258.936 286.563 255.833C282.49 249.632 276.502 241.354 268.843 233.062C262.485 226.178 254.908 219.212 246.258 213.425C246.582 213.34 246.582 213.34 246.582 213.34L246.582 213.339L246.58 213.331L246.57 213.294C246.562 213.261 246.549 213.211 246.532 213.144C246.498 213.009 246.447 212.808 246.382 212.546C246.253 212.022 246.07 211.255 245.853 210.296C245.42 208.376 244.858 205.692 244.342 202.641C243.299 196.47 242.494 189.058 243.197 183.424C243.944 177.44 246.816 170.06 249.615 164.02C250.492 162.127 251.351 160.39 252.114 158.901L258.672 188.955C259.373 192.165 264.012 192.874 265.262 189.415C266.15 186.956 267.37 183.22 268.182 179.253C268.981 175.352 269.452 170.925 268.603 167.221C267.953 164.383 266.567 161.717 264.958 159.373L286.641 169C289.648 170.335 292.96 167.004 290.905 163.953C289.446 161.787 287.156 158.607 284.445 155.619C281.779 152.682 278.501 149.699 275.031 148.202C271.41 146.64 267.25 146.363 263.609 146.554C263.496 146.56 263.383 146.566 263.27 146.573C263.178 146.579 263.086 146.585 262.994 146.591C263.256 146.302 263.517 146.007 263.776 145.705C266.151 142.938 268.473 139.476 269.447 135.654C270.381 131.992 270.021 127.574 269.324 123.67C268.615 119.698 267.495 115.943 266.671 113.464C265.511 109.974 260.85 110.562 260.07 113.759L254.404 136.995C253.667 134.829 252.654 132.702 251.257 130.86C248.972 127.85 245.291 125.381 241.802 123.496C238.252 121.579 234.616 120.117 232.163 119.219C228.709 117.954 226.268 121.967 228.285 124.568L242.872 143.379C240.254 142.414 237.382 141.741 234.513 141.811C230.751 141.902 226.601 143.437 223.034 145.159C219.405 146.91 216.09 148.998 213.921 150.458C210.87 152.515 212.69 156.852 215.984 156.738L246.969 155.664C246.238 156.611 245.441 157.665 244.61 158.795C241.239 163.379 237.199 169.374 234.89 174.649C232.165 180.877 230.478 189.245 229.469 195.898C228.981 199.12 228.643 201.995 228.425 204.115C220.863 201.254 212.736 199.537 204.109 199.516C202.364 199.511 200.644 199.577 198.948 199.707C198.32 199.214 197.435 198.51 196.354 197.628C194.094 195.784 190.985 193.167 187.595 190.078C180.761 183.853 172.98 175.888 168.58 168.555C163.908 160.767 160.499 149.441 158.253 139.869C157.207 135.414 156.426 131.399 155.892 128.392L194.479 160.331C197.039 162.45 201.064 160.092 199.981 156.652C198.932 153.321 196.993 147.691 194.284 142.047C191.609 136.474 188.036 130.567 183.6 126.972C179.226 123.428 173.529 121.403 168.27 120.226L208.049 110.21C211.27 109.398 211.754 104.753 208.331 103.595C205.026 102.478 199.351 100.725 193.217 99.5812C187.161 98.452 180.312 97.8456 174.821 99.2894C169.086 100.797 163.863 104.493 159.724 108.237C158.987 108.903 158.279 109.577 157.602 110.247C157.747 109.047 157.866 107.798 157.947 106.521C158.3 100.951 157.94 94.5622 155.55 89.1358C153.262 83.9402 148.523 78.9575 143.869 74.9216C139.155 70.8333 134.251 67.4833 131.318 65.5927C128.281 63.6343 124.947 66.9049 126.318 69.9311ZM239.412 203.475C239.826 205.924 240.268 208.141 240.655 209.94C238.258 208.56 235.789 207.281 233.251 206.126C233.286 205.754 233.326 205.339 233.372 204.884C233.583 202.803 233.919 199.906 234.413 196.648C235.41 190.068 237.023 182.247 239.471 176.653C239.486 176.62 239.5 176.587 239.515 176.553L239.538 176.502C238.945 178.653 238.488 180.781 238.235 182.805C237.437 189.205 238.356 197.224 239.412 203.475ZM192.094 200.6C189.919 198.8 187.179 196.463 184.227 193.774C177.334 187.495 169.09 179.123 164.293 171.127C160.724 165.179 157.915 157.526 155.774 150.158C156.237 154.984 156.934 159.742 157.972 163.772C160.257 172.646 165.56 183.299 170.392 191.856C172.792 196.106 175.047 199.789 176.701 202.408C177.277 203.321 177.78 204.104 178.191 204.736C182.597 202.914 187.234 201.495 192.094 200.6ZM151.912 114.314C152.359 111.949 152.77 109.153 152.957 106.205C153.288 100.969 152.895 95.5125 150.974 91.1512C149.15 87.0098 145.121 82.6251 140.593 78.699C138.052 76.4949 135.438 74.5068 133.137 72.8664L151.912 114.314ZM163.078 111.945C160.887 113.927 158.954 115.989 157.382 117.812L201.507 106.701C198.79 105.921 195.607 105.113 192.3 104.496C186.409 103.398 180.469 102.974 176.092 104.125C171.484 105.337 166.968 108.426 163.078 111.945ZM148.308 119.298C146.736 117.475 144.804 115.413 142.612 113.431C138.722 109.912 134.206 106.823 129.598 105.611C125.221 104.46 119.281 104.884 113.39 105.983C110.083 106.599 106.9 107.407 104.183 108.187L148.308 119.298ZM166.337 124.924C163.41 124.317 160.574 123.968 158.15 123.77L193.452 152.99C192.474 150.325 191.241 147.262 189.776 144.21C187.175 138.791 183.993 133.726 180.452 130.857C176.724 127.836 171.519 126 166.337 124.924ZM147.515 125.259C145.137 125.457 142.358 125.805 139.493 126.41C134.4 127.485 129.289 129.317 125.628 132.331C122.151 135.193 119.022 140.249 116.461 145.664C115.027 148.699 113.817 151.746 112.856 154.402L147.515 125.259ZM286.338 264.905H125.275C126.166 263.225 127.384 261.021 128.918 258.451C131.763 253.686 135.685 247.677 140.621 241.411H165.793V238.411H143.048C143.633 237.708 144.23 237.003 144.84 236.298C147.257 233.503 149.857 230.723 152.634 228.036H175.453V225.036H155.857C168.679 213.559 184.908 204.469 204.097 204.516C229.235 204.577 250.246 220.295 265.17 236.454C267.39 238.858 269.467 241.262 271.394 243.613H251.245V246.613H273.796C277.235 251.007 280.114 255.121 282.384 258.578C284.031 261.086 285.355 263.243 286.338 264.905ZM243.815 246.613H237.127V243.613H243.815V246.613ZM259.982 142.449C259.204 143.355 258.395 144.204 257.604 144.979L263.549 120.599C263.865 121.862 264.16 123.196 264.402 124.549C265.065 128.262 265.265 131.818 264.602 134.419C263.9 137.174 262.128 139.948 259.982 142.449ZM260.414 151.885C261.511 151.731 262.677 151.61 263.87 151.547C267.161 151.375 270.439 151.666 273.05 152.793C275.514 153.856 278.208 156.187 280.743 158.98C281.666 159.998 282.542 161.046 283.349 162.068L260.414 151.885ZM250.681 142.498C250.906 143.672 251.067 144.833 251.181 145.935L235.803 126.104C236.988 126.643 238.216 127.242 239.425 127.895C242.744 129.688 245.651 131.745 247.274 133.883C248.993 136.148 250.061 139.262 250.681 142.498ZM256.923 157.487C257.706 158.294 258.505 159.178 259.272 160.12C261.372 162.7 263.089 165.544 263.729 168.338C264.333 170.974 264.043 174.542 263.284 178.25C263.005 179.612 262.672 180.952 262.32 182.219L256.923 157.487ZM243.544 149.079C244.614 149.58 245.637 150.125 246.584 150.674L221.649 151.538C222.776 150.897 223.976 150.256 225.207 149.662C228.602 148.024 231.965 146.874 234.634 146.809C237.461 146.741 240.585 147.693 243.544 149.079Z" fill="white"/>
</g>
<defs>
<filter id="filter0_d_230_123" x="0" y="0" width="390" height="540" filterUnits="userSpaceOnUse" color-interpolation-filters="sRGB">
<feFlood flood-opacity="0" result="BackgroundImageFix"/>
<feColorMatrix in="SourceAlpha" type="matrix" values="0 0 0 0 0 0 0 0 0 0 0 0 0 0 0 0 0 0 127 0" result="hardAlpha"/>
<feOffset/>
<feGaussianBlur stdDeviation="10"/>
<feComposite in2="hardAlpha" operator="out"/>
<feColorMatrix type="matrix" values="0 0 0 0 0.149195 0 0 0 0 0.00833333 0 0 0 0 1 0 0 0 1 0"/>
<feBlend mode="normal" in2="BackgroundImageFix" result="effect1_dropShadow_230_123"/>
<feBlend mode="normal" in="SourceGraphic" in2="effect1_dropShadow_230_123" result="shape"/>
</filter>
</defs>
</svg>
