<svg width="390" height="540" viewBox="0 0 390 540" fill="none" xmlns="http://www.w3.org/2000/svg">
<g filter="url(#filter0_d_177_68)">
<path fill-rule="evenodd" clip-rule="evenodd" d="M60 20C37.9086 20 20 37.9086 20 60V480C20 502.091 37.9086 520 60 520H330C352.091 520 370 502.091 370 480V60C370 37.9086 352.091 20 330 20H60ZM126.397 314.568V397H136.894V330.824L183.742 397H193.342V314.568H182.846V380.872L135.869 314.568H126.397ZM219.465 396.232C222.707 397.597 226.249 398.28 230.089 398.28C235.635 398.28 240.286 397.597 244.04 396.232C247.795 394.867 250.995 392.819 253.641 390.088L254.409 397H263.241V357.32C263.241 349.469 261.064 343.795 256.712 340.296C252.446 336.797 246.003 335.048 237.385 335.048C233.118 335.048 229.107 335.389 225.353 336.072C221.683 336.669 218.483 337.48 215.753 338.504V347.208C218.739 346.184 221.939 345.373 225.353 344.776C228.766 344.179 232.307 343.88 235.977 343.88C240.755 343.88 244.382 344.307 246.857 345.16C249.331 346.013 250.995 347.421 251.849 349.384C252.787 351.347 253.257 353.992 253.257 357.32V361.032H232.137C223.859 361.032 217.886 362.824 214.217 366.408C210.547 369.907 208.712 374.429 208.712 379.976C208.712 384.072 209.694 387.485 211.656 390.216C213.619 392.861 216.222 394.867 219.465 396.232ZM244.553 387.4C241.139 388.936 237.214 389.704 232.777 389.704C228.595 389.704 225.267 389.021 222.792 387.656C220.318 386.205 219.081 383.645 219.081 379.976C219.081 376.307 220.105 373.576 222.152 371.784C224.201 369.992 227.614 369.096 232.393 369.096H253.257V380.872C250.867 383.603 247.966 385.779 244.553 387.4ZM149.678 432.32C147.203 432.32 145.209 432.021 143.694 431.424V429.856C145.465 430.496 147.417 430.816 149.55 430.816C151.555 430.816 153.07 430.507 154.094 429.888C155.118 429.269 155.63 428.224 155.63 426.752C155.63 425.856 155.427 425.131 155.022 424.576C154.617 424.021 153.966 423.563 153.07 423.2C152.195 422.816 151.011 422.464 149.518 422.144C147.939 421.781 146.681 421.365 145.742 420.896C144.825 420.405 144.163 419.808 143.758 419.104C143.374 418.4 143.182 417.568 143.182 416.608C143.182 414.944 143.779 413.611 144.974 412.608C146.19 411.584 148.057 411.072 150.574 411.072C151.726 411.072 152.803 411.157 153.806 411.328C154.809 411.499 155.577 411.669 156.11 411.84V413.408C154.574 412.875 152.846 412.608 150.926 412.608C148.985 412.608 147.491 412.928 146.446 413.568C145.422 414.187 144.91 415.2 144.91 416.608C144.91 417.397 145.081 418.048 145.422 418.56C145.785 419.051 146.393 419.467 147.246 419.808C148.099 420.149 149.273 420.501 150.766 420.864C152.451 421.248 153.763 421.717 154.702 422.272C155.662 422.805 156.345 423.445 156.75 424.192C157.155 424.917 157.358 425.771 157.358 426.752C157.358 428.587 156.707 429.973 155.406 430.912C154.105 431.851 152.195 432.32 149.678 432.32ZM168.101 432.32C165.541 432.32 163.696 431.648 162.565 430.304C161.435 428.96 160.869 426.997 160.869 424.416C160.869 421.856 161.445 419.904 162.597 418.56C163.749 417.195 165.584 416.512 168.101 416.512C170.64 416.512 172.485 417.195 173.637 418.56C174.789 419.904 175.365 421.856 175.365 424.416C175.365 426.997 174.789 428.96 173.637 430.304C172.507 431.648 170.661 432.32 168.101 432.32ZM168.101 430.816C170.128 430.816 171.547 430.293 172.357 429.248C173.189 428.203 173.605 426.592 173.605 424.416C173.605 422.261 173.189 420.661 172.357 419.616C171.525 418.571 170.107 418.048 168.101 418.048C166.096 418.048 164.677 418.571 163.845 419.616C163.013 420.661 162.597 422.261 162.597 424.416C162.597 426.592 163.013 428.203 163.845 429.248C164.677 430.293 166.096 430.816 168.101 430.816ZM185.372 432.32C184.049 432.32 182.876 432.053 181.852 431.52C180.828 430.987 180.028 430.155 179.452 429.024C178.876 427.872 178.588 426.379 178.588 424.544C178.588 421.792 179.207 419.765 180.444 418.464C181.703 417.163 183.399 416.512 185.532 416.512C186.577 416.512 187.505 416.64 188.316 416.896C189.148 417.131 189.948 417.536 190.716 418.112V410.432H192.476V432H191.004L190.844 430.304C190.119 430.987 189.319 431.499 188.444 431.84C187.569 432.16 186.545 432.32 185.372 432.32ZM185.788 430.88C187.793 430.88 189.436 430.197 190.716 428.832V419.648C190.119 419.136 189.447 418.731 188.7 418.432C187.953 418.133 187.057 417.984 186.012 417.984C184.135 417.984 182.716 418.507 181.756 419.552C180.796 420.597 180.316 422.261 180.316 424.544C180.316 426.699 180.764 428.299 181.66 429.344C182.556 430.368 183.932 430.88 185.788 430.88ZM199.115 412.896V410.976H201.131V412.896H199.115ZM199.339 432V418.304H196.971L197.163 416.832H201.099V432H199.339ZM207.164 430.784C206.225 429.76 205.756 428.309 205.756 426.432V416.832H207.516V426.496C207.516 427.947 207.878 429.045 208.604 429.792C209.329 430.517 210.47 430.88 212.028 430.88C213.094 430.88 214.065 430.677 214.94 430.272C215.836 429.845 216.604 429.312 217.244 428.672V416.832H219.004V432H217.436L217.276 430.144C216.529 430.805 215.676 431.339 214.716 431.744C213.756 432.128 212.614 432.32 211.292 432.32C209.478 432.32 208.102 431.808 207.164 430.784ZM223.791 432V416.832H225.327L225.487 418.688C226.319 418.005 227.204 417.472 228.143 417.088C229.103 416.704 230.105 416.512 231.151 416.512C232.324 416.512 233.231 416.704 233.871 417.088C234.511 417.472 234.98 418.005 235.279 418.688C236.004 418.069 236.847 417.557 237.807 417.152C238.767 416.725 239.919 416.512 241.263 416.512C242.969 416.512 244.239 416.949 245.071 417.824C245.924 418.677 246.351 420.021 246.351 421.856V432H244.623V422.016C244.623 420.501 244.292 419.456 243.631 418.88C242.991 418.283 241.977 417.984 240.591 417.984C239.631 417.984 238.724 418.155 237.871 418.496C237.017 418.816 236.292 419.296 235.695 419.936C235.759 420.235 235.812 420.587 235.855 420.992C235.897 421.376 235.919 421.739 235.919 422.08V432H234.223V422.112C234.223 420.661 233.977 419.616 233.487 418.976C232.996 418.315 232.047 417.984 230.639 417.984C229.7 417.984 228.783 418.197 227.887 418.624C226.991 419.051 226.201 419.573 225.519 420.192V432H223.791ZM138.5 244C139.881 244 141 242.881 141 241.5C141 240.119 139.881 239 138.5 239C137.119 239 136 240.119 136 241.5C136 242.881 137.119 244 138.5 244ZM143 269.5C143 270.881 141.881 272 140.5 272C139.119 272 138 270.881 138 269.5C138 268.119 139.119 267 140.5 267C141.881 267 143 268.119 143 269.5ZM131.5 259C132.881 259 134 257.881 134 256.5C134 255.119 132.881 254 131.5 254C130.119 254 129 255.119 129 256.5C129 257.881 130.119 259 131.5 259ZM158 275.5C158 276.328 157.328 277 156.5 277C155.672 277 155 276.328 155 275.5C155 274.672 155.672 274 156.5 274C157.328 274 158 274.672 158 275.5ZM119.5 248C120.328 248 121 247.328 121 246.5C121 245.672 120.328 245 119.5 245C118.672 245 118 245.672 118 246.5C118 247.328 118.672 248 119.5 248ZM124 272.5C124 273.328 123.328 274 122.5 274C121.672 274 121 273.328 121 272.5C121 271.672 121.672 271 122.5 271C123.328 271 124 271.672 124 272.5ZM153 254C154.657 254 156 252.657 156 251C156 249.343 154.657 248 153 248C151.343 248 150 249.343 150 251C150 252.657 151.343 254 153 254ZM168.837 222.437C169.423 221.851 171.48 222.959 173.433 224.912C175.386 226.864 176.494 228.922 175.908 229.508C175.322 230.094 173.264 228.986 171.312 227.033C169.359 225.08 168.251 223.023 168.837 222.437ZM182.625 231.276C180.673 229.323 178.615 228.215 178.029 228.801C177.443 229.387 178.551 231.444 180.504 233.397C182.457 235.35 184.514 236.458 185.1 235.872C185.686 235.286 184.578 233.228 182.625 231.276ZM163.18 212.537C163.766 211.952 165.824 213.06 167.776 215.012C169.729 216.965 170.837 219.023 170.251 219.608C169.665 220.194 167.607 219.086 165.655 217.134C163.702 215.181 162.594 213.123 163.18 212.537ZM159.709 194.198C160.976 192.931 162.278 192.416 163.766 192.349C165.405 192.274 167.559 192.742 170.293 194.038C175.824 196.66 182.372 202.011 189.408 209.047C196.444 216.084 201.795 222.631 204.417 228.162C205.713 230.896 206.181 233.05 206.107 234.689C206.039 236.178 205.524 237.479 204.257 238.746C201.683 241.32 197.008 242.498 190.436 240.869C183.973 239.267 176.556 235.086 169.962 228.493C163.369 221.899 159.188 214.483 157.586 208.019C155.957 201.447 157.135 196.772 159.709 194.198ZM174.457 190.561C180.254 193.771 186.566 199.134 192.943 205.512C199.611 212.179 205.169 218.774 208.318 224.785L208.5 224.604L209.141 225.245L212.676 221.709L216.212 218.174L216.854 217.532C213.339 212.348 206.656 202.93 201.019 197.324C195.61 191.945 186.562 185.568 181.508 182.166L180.856 182.818L177.321 186.354L173.785 189.889L174.457 190.561ZM173.785 182.818L170.25 186.354C169.714 186.889 169.325 187.516 169.084 188.184C164.114 186.606 159.696 187.141 156.174 190.663C147.582 199.254 152.173 217.774 166.427 232.028C180.681 246.283 199.201 250.873 207.793 242.281C211.15 238.924 211.793 234.751 210.478 230.063C211.283 229.841 212.043 229.413 212.676 228.78L216.212 225.245L216.8 225.833C220.468 229.501 226.331 229.755 230.303 226.419L303.319 165.085C307.81 161.313 308.106 154.504 303.959 150.357L248.673 95.0716C244.526 90.9246 237.717 91.2201 233.945 95.7107L172.611 168.727C169.275 172.699 169.529 178.562 173.197 182.23L173.785 182.818ZM177.321 179.283L176.733 178.695C174.899 176.861 174.772 173.929 176.44 171.943L237.774 98.9267C239.66 96.6814 243.064 96.5336 245.138 98.6071L300.423 153.893C302.497 155.966 302.349 159.371 300.103 161.257L227.087 222.59C225.101 224.259 222.169 224.131 220.336 222.297L219.747 221.709L220.433 221.023C221.848 219.609 222.261 217.522 221.541 215.732C224.371 216.316 227.49 215.542 229.873 213.42L276.571 171.827C278.718 169.915 278.814 166.591 276.781 164.558L275.224 163.001H192.669L187.003 169.529C184.804 172.062 184.116 175.361 184.818 178.368C184.607 178.224 184.401 178.086 184.203 177.953C182.257 176.644 179.676 176.928 178.017 178.586L177.321 179.283ZM207.224 215.493L207.224 215.493L207.223 215.492L207.221 215.488L207.209 215.469L207.162 215.394C207.12 215.327 207.058 215.227 206.976 215.098C206.813 214.84 206.574 214.464 206.271 213.998C205.665 213.064 204.806 211.768 203.797 210.322C201.764 207.41 199.175 203.965 196.832 201.623C194.49 199.28 191.045 196.691 188.133 194.658C186.687 193.649 185.391 192.791 184.458 192.185C183.991 191.882 183.615 191.642 183.357 191.479C183.228 191.397 183.128 191.335 183.061 191.293L182.986 191.246L182.967 191.235L182.963 191.232L182.962 191.231C182.258 190.796 182.039 189.871 182.475 189.167C182.911 188.462 183.835 188.244 184.54 188.68L183.751 189.956C184.54 188.68 184.54 188.68 184.54 188.68L184.54 188.68L184.542 188.681L184.548 188.685L184.569 188.698L184.651 188.749C184.722 188.793 184.826 188.859 184.96 188.943C185.227 189.112 185.613 189.358 186.091 189.668C187.046 190.288 188.37 191.166 189.85 192.198C192.788 194.249 196.415 196.962 198.954 199.501C201.493 202.041 204.207 205.667 206.257 208.605C207.289 210.085 208.167 211.409 208.787 212.364C209.097 212.842 209.343 213.228 209.512 213.495C209.597 213.629 209.662 213.733 209.706 213.804L209.757 213.886L209.77 213.907L209.774 213.913L209.775 213.915L209.775 213.915C209.775 213.915 209.776 213.915 208.5 214.704L209.776 213.915C210.211 214.62 209.993 215.545 209.288 215.98C208.584 216.416 207.66 216.198 207.224 215.493Z" fill="white"/>
</g>
<defs>
<filter id="filter0_d_177_68" x="0" y="0" width="390" height="540" filterUnits="userSpaceOnUse" color-interpolation-filters="sRGB">
<feFlood flood-opacity="0" result="BackgroundImageFix"/>
<feColorMatrix in="SourceAlpha" type="matrix" values="0 0 0 0 0 0 0 0 0 0 0 0 0 0 0 0 0 0 127 0" result="hardAlpha"/>
<feOffset/>
<feGaussianBlur stdDeviation="10"/>
<feComposite in2="hardAlpha" operator="out"/>
<feColorMatrix type="matrix" values="0 0 0 0 0.78 0 0 0 0 0.3125 0 0 0 0 1 0 0 0 1 0"/>
<feBlend mode="normal" in2="BackgroundImageFix" result="effect1_dropShadow_177_68"/>
<feBlend mode="normal" in="SourceGraphic" in2="effect1_dropShadow_177_68" result="shape"/>
</filter>
</defs>
</svg>
