<svg width="390" height="540" viewBox="0 0 390 540" fill="none" xmlns="http://www.w3.org/2000/svg">
<g filter="url(#filter0_d_189_375)">
<path fill-rule="evenodd" clip-rule="evenodd" d="M60 20C37.9086 20 20 37.9086 20 60V480C20 502.091 37.9086 520 60 520H330C352.091 520 370 502.091 370 480V60C370 37.9086 352.091 20 330 20H60ZM144.632 394.44C150.947 397 159.225 398.28 169.465 398.28C179.961 398.28 187.854 396.317 193.145 392.392C198.435 388.381 201.081 382.749 201.081 375.496C201.081 371.571 200.312 368.072 198.777 365C197.241 361.928 194.595 359.283 190.84 357.064C187.086 354.76 181.838 352.797 175.096 351.176C169.465 349.811 165.07 348.531 161.913 347.336C158.755 346.056 156.494 344.563 155.128 342.856C153.848 341.064 153.208 338.76 153.208 335.944C153.208 330.909 155.086 327.368 158.84 325.32C162.595 323.272 167.971 322.248 174.969 322.248C178.809 322.248 182.521 322.547 186.105 323.144C189.689 323.741 193.017 324.595 196.089 325.704V316.488C193.87 315.72 190.712 314.995 186.617 314.312C182.521 313.629 178.083 313.288 173.305 313.288C162.979 313.288 155.299 315.336 150.264 319.432C145.23 323.443 142.713 328.947 142.713 335.944C142.713 341.917 144.547 346.696 148.217 350.28C151.886 353.779 158.243 356.637 167.288 358.856C173.006 360.221 177.571 361.587 180.984 362.952C184.398 364.232 186.83 365.853 188.281 367.816C189.816 369.693 190.585 372.253 190.585 375.496C190.585 380.701 188.75 384.328 185.081 386.376C181.411 388.339 175.907 389.32 168.568 389.32C164.302 389.32 160.12 388.979 156.025 388.296C152.014 387.528 148.217 386.461 144.632 385.096V394.44ZM216.398 336.328V397H226.893V351.816C228.6 350.621 230.734 349.469 233.294 348.36C235.854 347.251 238.542 346.269 241.357 345.416C244.174 344.477 246.776 343.752 249.165 343.24V335.048C245.24 335.816 241.23 337.011 237.133 338.632C233.123 340.253 229.624 342.045 226.637 344.008L225.87 336.328H216.398ZM134.584 432.32C132.109 432.32 130.115 432.021 128.6 431.424V429.856C130.371 430.496 132.323 430.816 134.456 430.816C136.461 430.816 137.976 430.507 139 429.888C140.024 429.269 140.536 428.224 140.536 426.752C140.536 425.856 140.333 425.131 139.928 424.576C139.523 424.021 138.872 423.563 137.976 423.2C137.101 422.816 135.917 422.464 134.424 422.144C132.845 421.781 131.587 421.365 130.648 420.896C129.731 420.405 129.069 419.808 128.664 419.104C128.28 418.4 128.088 417.568 128.088 416.608C128.088 414.944 128.685 413.611 129.88 412.608C131.096 411.584 132.963 411.072 135.48 411.072C136.632 411.072 137.709 411.157 138.712 411.328C139.715 411.499 140.483 411.669 141.016 411.84V413.408C139.48 412.875 137.752 412.608 135.832 412.608C133.891 412.608 132.397 412.928 131.352 413.568C130.328 414.187 129.816 415.2 129.816 416.608C129.816 417.397 129.987 418.048 130.328 418.56C130.691 419.051 131.299 419.467 132.152 419.808C133.005 420.149 134.179 420.501 135.672 420.864C137.357 421.248 138.669 421.717 139.608 422.272C140.568 422.805 141.251 423.445 141.656 424.192C142.061 424.917 142.264 425.771 142.264 426.752C142.264 428.587 141.613 429.973 140.312 430.912C139.011 431.851 137.101 432.32 134.584 432.32ZM151.227 432.32C149.883 432.32 148.848 431.947 148.123 431.2C147.398 430.453 147.035 429.408 147.035 428.064V418.304H144.667V416.832H147.035V412.864L148.795 412.288V416.832H153.179L153.083 418.304H148.795V428C148.795 428.981 149.019 429.707 149.467 430.176C149.936 430.645 150.694 430.88 151.739 430.88C152.016 430.88 152.304 430.859 152.603 430.816C152.923 430.752 153.264 430.656 153.627 430.528V431.936C152.923 432.192 152.123 432.32 151.227 432.32ZM156.978 432V416.832H158.514L158.706 418.944C159.495 418.389 160.391 417.899 161.394 417.472C162.418 417.045 163.421 416.725 164.402 416.512V417.952C163.783 418.101 163.111 418.304 162.386 418.56C161.682 418.816 160.999 419.104 160.338 419.424C159.698 419.723 159.165 420.032 158.738 420.352V432H156.978ZM173.664 432.32C171.104 432.32 169.259 431.648 168.128 430.304C166.997 428.96 166.432 426.997 166.432 424.416C166.432 421.856 167.008 419.904 168.16 418.56C169.312 417.195 171.147 416.512 173.664 416.512C176.203 416.512 178.048 417.195 179.2 418.56C180.352 419.904 180.928 421.856 180.928 424.416C180.928 426.997 180.352 428.96 179.2 430.304C178.069 431.648 176.224 432.32 173.664 432.32ZM173.664 430.816C175.691 430.816 177.109 430.293 177.92 429.248C178.752 428.203 179.168 426.592 179.168 424.416C179.168 422.261 178.752 420.661 177.92 419.616C177.088 418.571 175.669 418.048 173.664 418.048C171.659 418.048 170.24 418.571 169.408 419.616C168.576 420.661 168.16 422.261 168.16 424.416C168.16 426.592 168.576 428.203 169.408 429.248C170.24 430.293 171.659 430.816 173.664 430.816ZM185.103 432V416.832H186.639L186.799 418.688C187.567 418.048 188.442 417.525 189.423 417.12C190.404 416.715 191.578 416.512 192.943 416.512C194.842 416.512 196.218 416.949 197.071 417.824C197.924 418.699 198.351 420.085 198.351 421.984V432H196.591V422.016C196.591 420.523 196.282 419.477 195.663 418.88C195.066 418.283 193.914 417.984 192.207 417.984C191.14 417.984 190.148 418.187 189.231 418.592C188.335 418.997 187.546 419.531 186.863 420.192V432H185.103ZM208.258 432.32C206.914 432.32 205.879 431.947 205.154 431.2C204.429 430.453 204.066 429.408 204.066 428.064V418.304H201.698V416.832H204.066V412.864L205.826 412.288V416.832H210.21L210.114 418.304H205.826V428C205.826 428.981 206.05 429.707 206.498 430.176C206.967 430.645 207.725 430.88 208.77 430.88C209.047 430.88 209.335 430.859 209.634 430.816C209.954 430.752 210.295 430.656 210.658 430.528V431.936C209.954 432.192 209.154 432.32 208.258 432.32ZM215.208 412.896V410.976H217.224V412.896H215.208ZM215.432 432V418.304H213.064L213.256 416.832H217.192V432H215.432ZM227.385 432.32C225.572 432.32 224.196 431.808 223.257 430.784C222.319 429.76 221.849 428.309 221.849 426.432V416.832H223.609V426.496C223.609 427.947 223.972 429.045 224.697 429.792C225.423 430.517 226.564 430.88 228.121 430.88C229.188 430.88 230.159 430.677 231.033 430.272C231.929 429.845 232.697 429.312 233.337 428.672V416.832H235.097V432H233.529L233.369 430.144C232.623 430.805 231.769 431.339 230.809 431.744C229.849 432.128 228.708 432.32 227.385 432.32ZM239.884 432V416.832H241.42L241.58 418.688C242.412 418.005 243.298 417.472 244.236 417.088C245.196 416.704 246.199 416.512 247.244 416.512C248.418 416.512 249.324 416.704 249.964 417.088C250.604 417.472 251.074 418.005 251.372 418.688C252.098 418.069 252.94 417.557 253.9 417.152C254.86 416.725 256.012 416.512 257.356 416.512C259.063 416.512 260.332 416.949 261.164 417.824C262.018 418.677 262.444 420.021 262.444 421.856V432H260.716V422.016C260.716 420.501 260.386 419.456 259.724 418.88C259.084 418.283 258.071 417.984 256.684 417.984C255.724 417.984 254.818 418.155 253.964 418.496C253.111 418.816 252.386 419.296 251.788 419.936C251.852 420.235 251.906 420.587 251.948 420.992C251.991 421.376 252.012 421.739 252.012 422.08V432H250.316V422.112C250.316 420.661 250.071 419.616 249.58 418.976C249.09 418.315 248.14 417.984 246.732 417.984C245.794 417.984 244.876 418.197 243.98 418.624C243.084 419.051 242.295 419.573 241.612 420.192V432H239.884ZM187.53 151.336C190.02 151.119 190.02 151.119 190.02 151.119L190.02 151.118L190.02 151.115L190.019 151.104L190.015 151.056L189.998 150.868C189.991 150.783 189.982 150.676 189.971 150.549C189.961 150.429 189.95 150.292 189.937 150.137C189.884 149.5 189.807 148.572 189.716 147.413C189.533 145.095 189.29 141.854 189.046 138.167C188.557 130.777 188.073 121.65 188.073 114.555C188.073 107.15 188.558 97.629 189.046 89.924C189.29 86.0789 189.534 82.6999 189.717 80.2825C189.808 79.074 189.884 78.1062 189.938 77.4411C189.964 77.1086 189.985 76.8518 189.999 76.6785L190.015 76.4821L190.019 76.4327L190.021 76.4205L190.021 76.4175L190.021 76.4169C190.021 76.4167 190.021 76.4167 187.53 76.2082C185.038 75.9996 185.038 75.9998 185.038 76L185.038 76.0009L185.038 76.0044L185.037 76.0177L185.032 76.0692L185.016 76.2701C185.001 76.4464 184.98 76.7064 184.953 77.0422C184.9 77.7138 184.823 78.6889 184.731 79.9054C184.547 82.3381 184.302 85.7379 184.056 89.6076C183.567 97.332 183.073 106.984 183.073 114.555C183.073 121.824 183.567 131.087 184.057 138.497C184.302 142.21 184.548 145.472 184.732 147.806C184.824 148.973 184.9 149.909 184.954 150.553C184.97 150.741 184.984 150.904 184.995 151.041C185.003 151.139 185.011 151.223 185.017 151.294L185.033 151.487L185.037 151.536L185.039 151.549L185.039 151.552L185.039 151.553C185.039 151.554 185.039 151.554 187.53 151.336ZM100.271 163.076L100.7 165.539L100.7 165.539L100.703 165.539L100.714 165.537L100.761 165.529L100.949 165.497C101.115 165.468 101.363 165.426 101.684 165.373C102.326 165.266 103.262 165.114 104.432 164.93C106.773 164.563 110.05 164.074 113.789 163.586C121.296 162.607 130.552 161.647 137.83 161.663C144.962 161.678 154.223 162.638 161.772 163.611C165.531 164.095 168.838 164.578 171.204 164.94C172.387 165.122 173.334 165.272 173.985 165.377C174.31 165.43 174.56 165.471 174.729 165.499L174.92 165.531L174.968 165.539L174.979 165.541L174.982 165.541L174.982 165.541L175.399 163.076C175.816 160.611 175.816 160.611 175.815 160.611L175.814 160.611L175.811 160.61L175.797 160.608L175.745 160.6L175.546 160.566C175.371 160.537 175.115 160.495 174.783 160.442C174.12 160.334 173.159 160.181 171.961 159.998C169.565 159.631 166.218 159.142 162.41 158.652C154.827 157.675 145.305 156.679 137.84 156.663C130.217 156.646 120.692 157.643 113.142 158.628C109.352 159.123 106.031 159.619 103.658 159.99C102.471 160.176 101.52 160.332 100.864 160.441C100.536 160.495 100.282 160.538 100.109 160.568L99.912 160.601L99.8608 160.61L99.8474 160.613L99.8437 160.613L99.8427 160.613C99.8424 160.613 99.8421 160.613 100.271 163.076ZM273.168 163.278L272.739 165.741L272.739 165.741L272.736 165.741L272.725 165.739L272.678 165.731L272.49 165.699C272.324 165.67 272.076 165.628 271.755 165.575C271.113 165.468 270.178 165.316 269.007 165.132C266.666 164.765 263.389 164.276 259.65 163.788C252.144 162.809 242.887 161.849 235.609 161.865C228.477 161.88 219.216 162.84 211.667 163.813C207.908 164.297 204.601 164.78 202.235 165.142C201.052 165.324 200.105 165.474 199.455 165.579C199.13 165.632 198.879 165.673 198.71 165.701L198.519 165.733L198.471 165.741L198.46 165.743L198.457 165.743L198.457 165.743L198.04 163.278C197.623 160.813 197.623 160.813 197.624 160.813L197.625 160.813L197.628 160.812L197.642 160.81L197.694 160.802L197.893 160.768C198.068 160.739 198.325 160.697 198.656 160.644C199.319 160.536 200.28 160.383 201.478 160.2C203.874 159.833 207.222 159.344 211.029 158.854C218.613 157.877 228.134 156.881 235.599 156.865C243.222 156.848 252.748 157.845 260.298 158.83C264.087 159.325 267.408 159.821 269.781 160.192C270.968 160.379 271.919 160.534 272.575 160.643C272.903 160.697 273.157 160.74 273.33 160.77L273.527 160.803L273.578 160.812L273.592 160.815L273.595 160.815L273.596 160.815C273.597 160.815 273.597 160.815 273.168 163.278ZM189.04 188.384C188.55 196.008 188.065 205.429 188.073 212.765C188.081 219.949 188.565 229.177 189.052 236.643C189.295 240.368 189.537 243.642 189.719 245.983C189.809 247.154 189.885 248.091 189.938 248.735C189.964 249.057 189.985 249.306 189.999 249.473L190.015 249.664L190.019 249.711L190.02 249.723L190.02 249.726L190.02 249.727C190.02 249.727 190.02 249.727 189.906 249.737L187.53 249.94C185.039 250.154 185.039 250.154 185.039 250.153L185.039 250.153L185.038 250.149L185.037 250.136L185.033 250.086L185.016 249.892C185.002 249.721 184.981 249.469 184.954 249.144C184.901 248.493 184.825 247.548 184.734 246.37C184.551 244.013 184.307 240.718 184.062 236.968C183.575 229.482 183.081 220.123 183.073 212.77C183.065 205.263 183.559 195.707 184.05 188.063C184.297 184.234 184.544 180.87 184.729 178.464C184.822 177.26 184.899 176.295 184.953 175.631L184.983 175.261L185.016 174.867L185.033 174.668L185.037 174.617L185.038 174.604L185.038 174.601L185.039 174.6C185.039 174.6 185.039 174.6 187.53 174.812C190.02 175.025 190.02 175.025 190.02 175.025L190.02 175.025L190.02 175.028L190.019 175.04L190.015 175.089L189.999 175.283L189.975 175.573L189.937 176.037C189.883 176.695 189.806 177.652 189.714 178.847C189.53 181.238 189.285 184.58 189.04 188.384ZM139.916 119.728L141.357 117.685C142.798 115.642 142.798 115.642 142.798 115.643L142.799 115.643L142.801 115.644L142.808 115.65L142.835 115.669L142.939 115.743C142.982 115.773 143.034 115.81 143.095 115.854C143.164 115.903 143.244 115.96 143.334 116.025C143.676 116.27 144.171 116.626 144.783 117.073C146.009 117.967 147.711 119.227 149.62 120.694C153.415 123.609 158.119 127.406 161.511 130.782C164.982 134.237 168.88 139.041 171.87 142.919C173.374 144.87 174.666 146.61 175.583 147.863C176.042 148.49 176.407 148.995 176.658 149.345C176.783 149.52 176.88 149.656 176.947 149.749L177.022 149.855L177.042 149.883L177.047 149.891L177.049 149.893L177.049 149.893C177.049 149.893 177.049 149.894 175.008 151.336L172.966 152.779L172.966 152.779L172.965 152.778L172.961 152.772L172.944 152.748L172.874 152.649C172.841 152.603 172.8 152.546 172.752 152.478C172.707 152.415 172.655 152.342 172.596 152.261C172.353 151.922 171.997 151.429 171.548 150.815C170.65 149.588 169.383 147.883 167.91 145.972C164.944 142.125 161.211 137.538 157.984 134.326C154.83 131.188 150.338 127.55 146.574 124.659C144.704 123.223 143.036 121.988 141.836 121.112C141.236 120.674 140.754 120.327 140.423 120.089C140.257 119.971 140.129 119.88 140.043 119.819L139.946 119.75L139.923 119.733L139.917 119.729L139.916 119.728L139.916 119.728ZM232.082 117.887L233.523 119.93L233.523 119.93L233.522 119.931L233.517 119.935L233.493 119.952L233.396 120.021C233.31 120.082 233.182 120.173 233.017 120.291C232.685 120.529 232.203 120.876 231.603 121.314C230.403 122.19 228.735 123.425 226.865 124.861C223.101 127.752 218.609 131.39 215.455 134.528C212.228 137.74 208.495 142.327 205.529 146.174C204.056 148.085 202.789 149.79 201.891 151.018C201.442 151.631 201.086 152.124 200.843 152.463C200.763 152.575 200.694 152.67 200.639 152.747L200.566 152.851L200.495 152.95L200.478 152.974L200.474 152.98L200.473 152.981L200.473 152.981L198.431 151.538C196.39 150.096 196.39 150.095 196.39 150.095L196.39 150.095L196.392 150.093L196.397 150.085L196.417 150.057L196.493 149.951L196.528 149.902C196.591 149.812 196.676 149.693 196.781 149.547C197.033 149.197 197.398 148.692 197.856 148.065C198.773 146.812 200.065 145.072 201.57 143.121C204.56 139.243 208.457 134.439 211.928 130.984C215.321 127.608 220.024 123.811 223.819 120.896C225.729 119.429 227.431 118.169 228.656 117.275C229.269 116.828 229.763 116.472 230.105 116.227L230.297 116.089C230.378 116.031 230.446 115.983 230.5 115.945L230.604 115.871L230.631 115.852L230.639 115.846L230.641 115.845L230.641 115.845C230.641 115.844 230.642 115.844 232.082 117.887ZM176.601 176.738L175.008 174.812C173.414 172.886 173.414 172.886 173.414 172.886L173.414 172.886L173.412 172.888L173.405 172.894L173.378 172.916L173.275 173.001L173.091 173.155L172.883 173.328C172.541 173.613 172.048 174.026 171.434 174.544C170.206 175.58 168.497 177.034 166.57 178.709C162.73 182.047 157.975 186.305 154.446 189.882C151.304 193.067 147.541 197.327 144.587 200.761C143.104 202.484 141.816 204.011 140.897 205.107C140.438 205.655 140.071 206.096 139.819 206.4C139.739 206.497 139.67 206.58 139.613 206.648L139.529 206.751L139.453 206.842L139.433 206.866L139.428 206.872L139.427 206.874L139.427 206.874C139.426 206.874 139.426 206.874 141.357 208.463L143.287 210.052L143.287 210.052L143.288 210.05L143.293 210.045L143.311 210.023L143.383 209.935C143.448 209.857 143.543 209.742 143.667 209.593C143.915 209.294 144.277 208.859 144.73 208.317C145.638 207.234 146.912 205.725 148.377 204.022C151.318 200.604 154.989 196.451 158.005 193.393C161.393 189.96 166.028 185.805 169.85 182.483C171.755 180.828 173.444 179.39 174.658 178.366C175.264 177.854 175.751 177.446 176.086 177.167C176.173 177.095 176.249 177.031 176.315 176.976C176.376 176.925 176.428 176.882 176.47 176.847L176.569 176.765L176.594 176.745L176.6 176.74L176.601 176.739L176.601 176.738ZM198.431 175.016L196.838 176.943L196.838 176.943L196.84 176.944L196.846 176.949L196.87 176.969L196.969 177.051L197.109 177.168L197.353 177.371C197.688 177.651 198.175 178.058 198.781 178.57C199.995 179.594 201.684 181.032 203.589 182.687C207.411 186.009 212.046 190.164 215.434 193.598C218.45 196.655 222.122 200.808 225.062 204.226C226.527 205.929 227.801 207.438 228.709 208.522C228.988 208.855 229.233 209.148 229.437 209.394C229.565 209.547 229.677 209.682 229.772 209.797L229.91 209.963L230.056 210.139L230.129 210.227L230.147 210.249L230.151 210.255L230.152 210.256L230.152 210.256L232.083 208.667C234.013 207.079 234.013 207.079 234.013 207.078L234.012 207.078L234.011 207.076L234.006 207.07L233.986 207.046L233.91 206.955C233.844 206.874 233.746 206.756 233.62 206.604C233.368 206.3 233.001 205.859 232.542 205.311C231.624 204.215 230.335 202.688 228.853 200.965C225.898 197.531 222.135 193.271 218.993 190.086C215.464 186.509 210.709 182.251 206.869 178.913C204.942 177.239 203.233 175.784 202.006 174.749C201.392 174.231 200.898 173.817 200.557 173.532C200.386 173.39 200.254 173.28 200.164 173.205L200.061 173.12L200.034 173.098L200.027 173.092L200.026 173.091L200.025 173.09C200.025 173.09 200.025 173.09 198.431 175.016ZM152.428 178.311C150.629 178.458 148.601 178.722 147.178 179.16C145.727 179.606 143.868 180.55 142.27 181.464C141.494 181.907 140.819 182.32 140.34 182.621C140.1 182.772 139.911 182.894 139.783 182.977L139.68 183.044L139.639 183.071L139.605 183.094L139.597 183.098L139.596 183.099C139.597 183.099 139.597 183.099 138.209 181.019C136.822 178.939 136.822 178.939 136.822 178.939L136.823 178.939L136.824 178.938L136.828 178.935L136.842 178.926L136.889 178.895C136.929 178.869 136.986 178.831 137.06 178.783C137.206 178.688 137.417 178.553 137.679 178.388C138.203 178.059 138.939 177.608 139.789 177.123C141.443 176.177 143.701 174.998 145.709 174.38C147.678 173.775 150.159 173.48 152.02 173.327C152.977 173.249 153.821 173.205 154.427 173.181C154.731 173.168 154.976 173.161 155.148 173.156C155.233 173.154 155.301 173.153 155.348 173.152L155.403 173.151L155.419 173.151L155.424 173.151L155.425 173.151H155.426C155.426 173.151 155.426 173.151 155.461 175.65C155.495 178.15 155.495 178.15 155.495 178.15L155.494 178.15L155.486 178.15L155.445 178.151L155.416 178.152C155.381 178.152 155.334 178.153 155.277 178.155C155.127 178.159 154.907 178.165 154.63 178.177C154.075 178.199 153.301 178.239 152.428 178.311ZM226.261 179.362C224.838 178.924 222.81 178.66 221.011 178.513C220.138 178.441 219.364 178.401 218.809 178.379C218.532 178.367 218.312 178.361 218.162 178.357C218.088 178.355 218.031 178.354 217.994 178.353L217.953 178.352L217.945 178.352L217.944 178.352L217.945 178.308L217.947 178.156L217.979 175.852C218.013 173.353 218.013 173.353 218.013 173.353L218.014 173.353L218.016 173.353L218.02 173.353L218.036 173.353L218.091 173.354C218.138 173.355 218.206 173.356 218.291 173.359C218.463 173.363 218.708 173.37 219.012 173.383C219.618 173.407 220.462 173.451 221.419 173.529C223.281 173.682 225.761 173.977 227.73 174.582C229.738 175.2 231.996 176.379 233.65 177.325C234.5 177.81 235.236 178.261 235.76 178.59C236.022 178.755 236.233 178.89 236.38 178.985L236.448 179.03L236.551 179.097L236.597 179.128L236.611 179.137L236.615 179.14L236.616 179.141L236.617 179.141C236.617 179.141 236.617 179.141 236.533 179.267C236.471 179.36 236.362 179.524 236.172 179.809L235.23 181.221C233.842 183.301 233.843 183.301 233.843 183.301L233.842 183.3L233.835 183.296L233.8 183.273L233.762 183.248L233.656 183.179C233.528 183.096 233.339 182.974 233.099 182.823C232.62 182.522 231.945 182.109 231.169 181.666C229.571 180.752 227.712 179.808 226.261 179.362ZM171.216 193.122C170.363 194.855 169.31 197.155 168.705 199.12C168.146 200.938 167.733 203.241 167.464 205.007C167.327 205.907 167.222 206.701 167.152 207.271C167.117 207.556 167.09 207.786 167.072 207.946C167.063 208.026 167.056 208.088 167.051 208.132L167.046 208.182L167.044 208.196L167.044 208.2L167.043 208.201L167.043 208.202C167.043 208.202 167.043 208.202 169.53 208.463C172.016 208.724 172.016 208.724 172.016 208.724L172.016 208.723L172.017 208.714L172.022 208.673C172.026 208.637 172.032 208.581 172.04 208.509C172.047 208.442 172.057 208.36 172.068 208.265C172.081 208.155 172.096 208.027 172.114 207.884C172.18 207.35 172.278 206.604 172.407 205.76C172.669 204.038 173.039 202.038 173.484 200.59C173.966 199.025 174.869 197.021 175.701 195.331C176.109 194.504 176.484 193.782 176.757 193.267C176.894 193.01 177.004 192.806 177.079 192.668C177.117 192.598 177.146 192.545 177.165 192.511L177.187 192.472L177.191 192.464L177.192 192.462C177.192 192.462 177.192 192.462 175.008 191.246C172.823 190.03 172.823 190.031 172.823 190.031L172.823 190.031L172.822 190.032L172.82 190.036L172.813 190.05L172.786 190.098C172.763 190.139 172.731 190.199 172.689 190.275C172.606 190.428 172.487 190.648 172.341 190.923C172.05 191.471 171.651 192.239 171.216 193.122ZM204.734 199.324C204.129 197.359 203.077 195.059 202.223 193.327C201.789 192.444 201.389 191.675 201.098 191.127C200.953 190.853 200.834 190.632 200.75 190.48L200.694 190.377L200.653 190.302L200.626 190.254L200.619 190.241L200.617 190.237L200.616 190.235L200.616 190.235C200.616 190.235 200.616 190.235 198.431 191.451L196.859 192.326C196.471 192.541 196.329 192.62 196.277 192.65C196.247 192.666 196.247 192.666 196.247 192.666L196.248 192.668L196.253 192.677L196.274 192.715L196.31 192.78L196.36 192.872C196.435 193.01 196.546 193.215 196.682 193.471C196.955 193.986 197.33 194.708 197.738 195.536C198.57 197.225 199.473 199.229 199.955 200.794C200.4 202.242 200.77 204.243 201.032 205.964C201.161 206.808 201.259 207.554 201.325 208.088C201.358 208.355 201.383 208.568 201.399 208.713C201.404 208.755 201.408 208.792 201.412 208.822L201.418 208.877L201.422 208.918L201.423 208.927L201.423 208.929C201.423 208.928 201.423 208.928 203.909 208.667C206.396 208.407 206.396 208.406 206.396 208.406L206.396 208.406L206.396 208.404L206.395 208.4L206.394 208.386L206.388 208.336C206.383 208.292 206.377 208.23 206.367 208.15C206.349 207.99 206.323 207.76 206.287 207.475C206.217 206.905 206.112 206.112 205.975 205.211C205.706 203.445 205.293 201.142 204.734 199.324ZM172.786 131.317C172.468 129.647 172.026 127.751 171.506 126.422C170.914 124.909 169.779 123.006 168.712 121.389C168.192 120.602 167.712 119.919 167.363 119.434C167.189 119.192 167.049 119 166.953 118.871C166.905 118.806 166.868 118.757 166.844 118.725L166.817 118.69L166.811 118.682L166.811 118.681C166.811 118.681 166.811 118.681 168.802 117.169C170.792 115.657 170.793 115.657 170.793 115.657L170.793 115.658L170.794 115.659L170.797 115.663L170.807 115.676L170.842 115.723L170.891 115.787L170.969 115.894C171.078 116.04 171.233 116.251 171.422 116.514C171.801 117.04 172.319 117.779 172.884 118.634C173.986 120.302 175.367 122.57 176.162 124.6C176.859 126.382 177.369 128.657 177.697 130.381C177.866 131.264 177.994 132.045 178.081 132.606C178.105 132.762 178.126 132.902 178.144 133.022C178.158 133.118 178.17 133.202 178.18 133.272C178.191 133.351 178.199 133.413 178.205 133.457L178.212 133.507L178.214 133.522L178.214 133.526L178.215 133.528L178.215 133.528C178.215 133.528 178.215 133.528 175.736 133.853C173.257 134.177 173.257 134.177 173.257 134.177L173.257 134.176L173.256 134.168L173.251 134.13C173.246 134.095 173.239 134.042 173.229 133.972C173.209 133.832 173.179 133.626 173.139 133.368C173.059 132.851 172.941 132.13 172.786 131.317ZM201.933 126.624C201.413 127.953 200.971 129.849 200.653 131.519C200.498 132.332 200.38 133.053 200.3 133.57C200.26 133.828 200.23 134.034 200.21 134.174L200.196 134.277L200.188 134.332L200.183 134.37L200.182 134.378L200.182 134.379C200.182 134.379 200.182 134.379 197.703 134.055C195.224 133.731 195.224 133.73 195.224 133.73L195.224 133.73L195.225 133.728L195.225 133.724L195.227 133.709L195.234 133.659C195.24 133.615 195.248 133.553 195.26 133.474C195.282 133.315 195.315 133.089 195.358 132.808C195.445 132.247 195.573 131.466 195.742 130.583C196.07 128.859 196.58 126.584 197.277 124.802C198.072 122.772 199.453 120.504 200.555 118.836C201.12 117.981 201.639 117.242 202.017 116.716C202.206 116.453 202.361 116.242 202.47 116.096C202.524 116.022 202.567 115.965 202.597 115.925L202.632 115.878L202.642 115.865L202.645 115.861L202.646 115.86L202.646 115.859C202.647 115.859 202.647 115.859 204.637 117.371C206.628 118.883 206.628 118.883 206.628 118.883L206.628 118.884L206.622 118.892L206.595 118.927C206.571 118.959 206.535 119.008 206.487 119.073C206.391 119.202 206.25 119.394 206.076 119.636C205.727 120.121 205.248 120.804 204.728 121.591C203.66 123.208 202.525 125.111 201.933 126.624ZM154.073 146.675C152.502 145.719 150.343 144.516 148.402 143.874C146.345 143.195 143.744 142.885 141.8 142.734C140.799 142.656 139.915 142.616 139.281 142.596C138.963 142.586 138.705 142.58 138.526 142.578L138.459 142.577C138.4 142.576 138.352 142.575 138.315 142.575L138.257 142.574L138.241 142.574L138.236 142.574L138.234 142.574H138.233C138.233 142.574 138.233 142.574 138.227 145.074C138.22 147.574 138.22 147.574 138.22 147.574L138.221 147.574L138.23 147.574L138.271 147.575L138.333 147.575L138.447 147.577C138.602 147.579 138.832 147.584 139.12 147.593C139.698 147.612 140.504 147.648 141.412 147.719C143.287 147.865 145.381 148.142 146.833 148.622C148.204 149.075 149.958 150.024 151.472 150.946C152.206 151.393 152.843 151.808 153.295 152.111C153.521 152.262 153.7 152.385 153.82 152.468C153.88 152.51 153.926 152.542 153.955 152.562L153.988 152.585L153.994 152.59L153.995 152.59C153.995 152.59 153.995 152.59 155.443 150.552C156.892 148.515 156.892 148.515 156.892 148.515L156.891 148.514L156.89 148.513L156.886 148.511L156.873 148.502L156.828 148.47C156.803 148.452 156.771 148.43 156.733 148.403C156.712 148.389 156.69 148.373 156.666 148.357C156.526 148.26 156.326 148.123 156.077 147.957C155.58 147.624 154.881 147.168 154.073 146.675ZM225.037 144.079C223.096 144.72 220.937 145.923 219.367 146.88C218.558 147.372 217.859 147.828 217.362 148.161C217.113 148.328 216.913 148.465 216.773 148.561C216.724 148.595 216.682 148.624 216.649 148.648L216.611 148.674L216.566 148.706L216.553 148.715L216.549 148.718L216.548 148.719L216.547 148.719C216.547 148.719 216.547 148.719 217.996 150.757C219.445 152.794 219.444 152.794 219.444 152.794L219.445 152.794L219.452 152.789L219.484 152.767L219.562 152.712L219.619 152.672C219.739 152.589 219.918 152.467 220.144 152.315C220.596 152.012 221.233 151.597 221.967 151.15C223.481 150.228 225.235 149.279 226.606 148.826C228.058 148.346 230.152 148.069 232.027 147.923C232.935 147.852 233.741 147.816 234.319 147.798C234.607 147.788 234.837 147.784 234.993 147.781L235.084 147.78L235.168 147.779L235.21 147.779L235.218 147.779L235.219 147.779C235.219 147.779 235.219 147.779 235.213 145.279C235.207 142.779 235.206 142.779 235.206 142.779H235.205L235.204 142.779L235.198 142.779L235.182 142.779L235.124 142.779L235.042 142.78L234.913 142.782C234.734 142.785 234.477 142.79 234.159 142.8C233.524 142.821 232.64 142.86 231.639 142.938C229.696 143.089 227.095 143.399 225.037 144.079ZM115.829 219.557L113.335 219.731C110.841 219.905 110.841 219.905 110.841 219.905L110.841 219.904L110.841 219.903L110.841 219.896L110.839 219.871L110.832 219.774C110.827 219.689 110.818 219.563 110.807 219.402C110.786 219.079 110.755 218.61 110.718 218.025C110.644 216.855 110.546 215.221 110.448 213.361C110.251 209.653 110.053 205 110.053 201.34C110.053 197.53 110.251 192.684 110.447 188.819C110.546 186.88 110.644 185.177 110.718 183.959C110.755 183.349 110.785 182.861 110.807 182.524L110.819 182.333L110.832 182.136L110.839 182.035L110.84 182.009L110.841 182.002L110.841 182.001L110.841 182C110.841 182 110.841 182 113.335 182.167L115.83 182.334L115.83 182.334L115.83 182.336L115.829 182.342L115.828 182.366L115.821 182.463C115.816 182.55 115.807 182.678 115.797 182.843C115.775 183.175 115.745 183.658 115.709 184.261C115.636 185.467 115.538 187.153 115.441 189.072C115.246 192.922 115.053 197.663 115.053 201.34C115.053 204.862 115.245 209.405 115.441 213.097C115.538 214.936 115.635 216.553 115.708 217.71C115.745 218.288 115.775 218.751 115.796 219.069C115.807 219.228 115.815 219.35 115.821 219.433L115.827 219.526L115.829 219.55L115.829 219.555L115.829 219.557L115.829 219.557ZM70.0216 228.439C70.0216 228.439 70.0217 228.439 69.5106 225.992C68.9994 223.544 68.9996 223.544 68.9999 223.544L69.0006 223.544L69.0028 223.544L69.0103 223.542L69.0374 223.537L69.1392 223.516C69.2277 223.498 69.3569 223.471 69.5232 223.438C69.8557 223.372 70.3364 223.278 70.9357 223.165C72.1334 222.94 73.8083 222.64 75.721 222.341C79.5102 221.748 84.367 221.134 88.2991 221.144C92.1476 221.154 96.999 221.767 100.802 222.354C102.722 222.651 104.41 222.947 105.618 223.169C106.222 223.28 106.708 223.372 107.043 223.437C107.211 223.47 107.342 223.496 107.431 223.513L107.534 223.534L107.561 223.539L107.568 223.541L107.57 223.541L107.571 223.541C107.571 223.542 107.572 223.542 107.075 225.992L106.587 228.396L106.578 228.442L106.577 228.442L106.572 228.441L106.549 228.436L106.457 228.418C106.374 228.401 106.251 228.377 106.091 228.346C105.77 228.283 105.301 228.194 104.715 228.086C103.542 227.871 101.902 227.583 100.039 227.296C96.2758 226.714 91.7362 226.153 88.2862 226.144C84.7678 226.135 80.2336 226.695 76.4944 227.281C74.6428 227.57 73.0193 227.861 71.8594 228.079C71.2799 228.188 70.8172 228.279 70.5009 228.342C70.3428 228.373 70.2213 228.398 70.1402 228.414L70.0493 228.433L70.0274 228.438L70.0225 228.439M155.867 228.439C155.867 228.439 155.867 228.439 156.378 225.992C156.889 223.544 156.889 223.544 156.888 223.544L156.888 223.544L156.886 223.544L156.878 223.542L156.851 223.537L156.749 223.516C156.661 223.498 156.531 223.471 156.365 223.438C156.033 223.372 155.552 223.278 154.953 223.165C153.755 222.94 152.08 222.64 150.167 222.341C146.378 221.748 141.521 221.134 137.589 221.144C133.741 221.154 128.889 221.767 125.086 222.354C123.166 222.651 121.479 222.947 120.271 223.169C119.666 223.28 119.181 223.372 118.845 223.437C118.677 223.47 118.547 223.496 118.457 223.513L118.355 223.534L118.328 223.539L118.32 223.541L118.318 223.541L118.317 223.541C118.317 223.542 118.317 223.542 118.814 225.992L119.31 228.442L119.311 228.442L119.317 228.441L119.339 228.436L119.432 228.418L119.505 228.403L119.625 228.379L119.798 228.346C120.119 228.283 120.587 228.194 121.174 228.086C122.347 227.871 123.986 227.583 125.85 227.296C129.613 226.714 134.152 226.153 137.602 226.144C141.121 226.135 145.655 226.695 149.394 227.281C151.246 227.57 152.869 227.861 154.029 228.079C154.608 228.188 155.071 228.279 155.387 228.342C155.435 228.351 155.48 228.36 155.521 228.368L155.608 228.386L155.748 228.414L155.839 228.433L155.861 228.438L155.866 228.439L155.867 228.439ZM115.053 251.229C115.05 247.587 115.242 242.897 115.438 239.088C115.536 237.19 115.634 235.522 115.707 234.329C115.744 233.733 115.775 233.255 115.796 232.928L115.808 232.748L115.821 232.552L115.827 232.456L115.829 232.432L115.829 232.426L115.83 232.424L115.83 232.424L113.335 232.254C110.841 232.083 110.841 232.084 110.841 232.084L110.841 232.084L110.841 232.086L110.841 232.093L110.839 232.119L110.832 232.219C110.826 232.306 110.818 232.435 110.807 232.602C110.785 232.935 110.754 233.419 110.717 234.022C110.643 235.228 110.544 236.913 110.445 238.831C110.248 242.656 110.05 247.455 110.053 251.234C110.056 254.935 110.255 259.635 110.45 263.381C110.548 265.26 110.646 266.91 110.719 268.091C110.755 268.681 110.786 269.155 110.807 269.481C110.818 269.644 110.826 269.771 110.832 269.857L110.839 269.955L110.841 269.98L110.841 269.986L110.841 269.988L110.841 269.989C110.841 269.989 110.841 269.989 113.335 269.818L115.829 269.647L115.829 269.647L115.829 269.645L115.829 269.639L115.827 269.616L115.821 269.521L115.805 269.287L115.797 269.154C115.776 268.833 115.745 268.365 115.709 267.781C115.637 266.613 115.54 264.979 115.443 263.12C115.249 259.39 115.056 254.796 115.053 251.229ZM277.242 241.64L274.755 241.893C272.268 242.145 272.268 242.145 272.268 242.145L272.268 242.144L272.267 242.142L272.266 242.133L272.263 242.098L272.25 241.965L272.234 241.806L272.199 241.453C272.156 241.008 272.095 240.363 272.021 239.559C271.873 237.95 271.676 235.703 271.48 233.144C271.088 228.045 270.69 221.644 270.69 216.605C270.69 211.361 271.087 204.694 271.479 199.379C271.676 196.713 271.872 194.37 272.02 192.694C272.063 192.211 272.101 191.783 272.134 191.419C272.159 191.151 272.18 190.917 272.198 190.721C272.22 190.489 272.237 190.31 272.249 190.188L272.262 190.049L272.265 190.013L272.266 190.003L272.267 190.001L272.267 190C272.267 190 272.267 190 274.755 190.242L277.243 190.484L277.243 190.485L277.243 190.487L277.242 190.495L277.239 190.528L277.226 190.662C277.215 190.781 277.198 190.957 277.177 191.184C277.134 191.64 277.074 192.304 277.001 193.133C276.855 194.791 276.66 197.109 276.466 199.747C276.075 205.04 275.69 211.554 275.69 216.605C275.69 221.442 276.075 227.685 276.465 232.761C276.659 235.289 276.854 237.512 277 239.102C277.073 239.897 277.134 240.533 277.176 240.97L277.204 241.256L277.225 241.47L277.238 241.598L277.241 241.63L277.242 241.638L277.242 241.64L277.242 241.64ZM214.992 252.952C214.992 252.952 214.992 252.952 214.496 250.502C214.225 249.163 214.102 248.556 214.046 248.28C214 248.051 214 248.051 214 248.051L214.001 248.051L214.003 248.051L214.013 248.049L214.049 248.041L214.187 248.014C214.307 247.99 214.484 247.955 214.711 247.912C215.165 247.824 215.822 247.699 216.642 247.549C218.281 247.251 220.574 246.853 223.191 246.455C228.392 245.666 235.004 244.858 240.327 244.871C245.538 244.884 252.146 245.691 257.367 246.474C259.996 246.867 262.307 247.26 263.961 247.555C264.788 247.702 265.452 247.825 265.911 247.911C266.03 247.934 266.136 247.954 266.227 247.971L266.439 248.012L266.578 248.039L266.615 248.046L266.625 248.048L266.627 248.048L266.628 248.049C266.629 248.049 266.629 248.049 266.146 250.502L265.678 252.883L265.664 252.955L265.664 252.955L265.662 252.954L265.655 252.953L265.623 252.947L265.494 252.922L265.394 252.902L265.229 252.871L264.986 252.825C264.542 252.741 263.894 252.622 263.084 252.477C261.464 252.189 259.2 251.804 256.627 251.418C251.444 250.642 245.139 249.883 240.315 249.871C235.393 249.859 229.093 250.617 223.942 251.399C221.384 251.787 219.141 252.176 217.539 252.468C216.738 252.614 216.098 252.736 215.66 252.821C215.441 252.863 215.272 252.896 215.159 252.919L215.032 252.944L215.001 252.95L214.994 252.952L214.992 252.952L214.992 252.952ZM333.133 252.061L333.449 250.502C333.945 248.051 333.945 248.051 333.945 248.051L333.944 248.051L333.941 248.051L333.931 248.049L333.895 248.041L333.757 248.014L333.673 247.997L333.507 247.965L333.345 247.933L333.234 247.912C332.78 247.824 332.123 247.699 331.303 247.549C329.664 247.251 327.371 246.853 324.753 246.455C319.553 245.666 312.94 244.858 307.617 244.871C302.406 244.884 295.799 245.691 290.577 246.474C287.949 246.867 285.638 247.26 283.984 247.555C283.157 247.702 282.493 247.825 282.034 247.911C281.805 247.954 281.627 247.989 281.505 248.012L281.366 248.039L281.33 248.046L281.32 248.048L281.317 248.048L281.316 248.049C281.316 248.049 281.316 248.049 281.436 248.658L281.798 250.502C282.281 252.955 282.281 252.955 282.281 252.955L282.281 252.955L282.282 252.954L282.29 252.953L282.322 252.947L282.451 252.922L282.642 252.885C282.732 252.868 282.838 252.848 282.959 252.825C283.403 252.741 284.051 252.622 284.861 252.477C286.481 252.189 288.745 251.804 291.318 251.418C296.5 250.642 302.805 249.883 307.63 249.871C312.552 249.859 318.851 250.617 324.003 251.399C326.561 251.787 328.804 252.176 330.406 252.468C331.207 252.614 331.847 252.736 332.285 252.821C332.504 252.863 332.673 252.896 332.786 252.919L332.913 252.944L332.944 252.95L332.951 252.952L332.953 252.952C332.953 252.952 332.953 252.952 332.978 252.826L333.133 252.061ZM275.69 284.417C275.683 279.415 276.069 272.97 276.461 267.733C276.656 265.124 276.852 262.831 276.999 261.191C277.072 260.372 277.133 259.715 277.176 259.265L277.204 258.977L277.225 258.749L277.238 258.616L277.242 258.583L277.242 258.575L277.243 258.574L277.243 258.573L274.755 258.326C273.146 258.166 272.578 258.11 272.377 258.09C272.267 258.079 272.267 258.079 272.267 258.079L272.267 258.08L272.267 258.083L272.266 258.092L272.262 258.127L272.249 258.265C272.237 258.386 272.22 258.563 272.198 258.793C272.155 259.251 272.093 259.916 272.019 260.745C271.87 262.404 271.672 264.721 271.475 267.36C271.081 272.62 270.683 279.222 270.69 284.424C270.696 289.518 271.094 295.984 271.484 301.135C271.68 303.72 271.876 305.99 272.022 307.614C272.096 308.426 272.157 309.077 272.2 309.526L272.231 309.855L272.249 310.043L272.263 310.177L272.266 310.212L272.267 310.221L272.267 310.224L272.267 310.225C272.267 310.225 272.267 310.225 274.755 309.977L277.243 309.728L277.243 309.728L277.242 309.726L277.242 309.718L277.238 309.686L277.226 309.556C277.214 309.442 277.198 309.272 277.177 309.051C277.135 308.61 277.074 307.967 277.002 307.164C276.857 305.558 276.664 303.313 276.47 300.757C276.081 295.629 275.696 289.317 275.69 284.417ZM241.299 221.208C241.26 221.264 241.26 221.264 241.26 221.264L241.261 221.265L241.265 221.267L241.281 221.278L241.347 221.324L241.444 221.391L241.61 221.505C241.839 221.664 242.174 221.897 242.59 222.191C243.424 222.779 244.583 223.608 245.881 224.572C248.503 226.519 251.603 228.948 253.766 231.028C255.979 233.157 258.556 236.216 260.621 238.805C261.644 240.087 262.523 241.232 263.147 242.056C263.458 242.467 263.705 242.798 263.874 243.024L263.995 243.188L264.065 243.284L264.113 243.349L264.125 243.365L264.128 243.369L264.128 243.369L264.215 243.305L264.627 243.005L266.146 241.894C268.165 240.418 268.164 240.418 268.164 240.418L268.164 240.418L268.163 240.416L268.159 240.411L268.145 240.391L268.091 240.318L267.985 240.175L267.888 240.043C267.711 239.806 267.455 239.463 267.133 239.038C266.491 238.189 265.585 237.01 264.53 235.687C262.44 233.067 259.694 229.793 257.233 227.425C254.828 225.112 251.514 222.527 248.862 220.558C247.524 219.564 246.331 218.711 245.472 218.105C245.043 217.802 244.696 217.56 244.456 217.394C244.336 217.311 244.242 217.246 244.178 217.202L244.104 217.152L244.085 217.138L244.079 217.135L244.078 217.134L244.077 217.133C244.077 217.133 244.077 217.133 242.669 219.199L241.402 221.057L241.299 221.208ZM306.684 221.264L305.276 219.199L304.115 217.496C303.867 217.133 303.867 217.133 303.867 217.133L303.867 217.134L303.865 217.135L303.86 217.138L303.84 217.152L303.766 217.202L303.668 217.27L303.489 217.394C303.248 217.56 302.902 217.802 302.472 218.105C301.614 218.711 300.421 219.564 299.083 220.558C296.431 222.527 293.116 225.112 290.712 227.425C288.251 229.793 285.505 233.067 283.415 235.687C282.36 237.01 281.454 238.189 280.811 239.038C280.49 239.463 280.234 239.806 280.057 240.043C279.969 240.162 279.9 240.255 279.854 240.318L279.8 240.391L279.786 240.411L279.782 240.416L279.781 240.418L279.78 240.418C279.78 240.418 279.78 240.418 280.001 240.58C280.242 240.756 280.746 241.124 281.798 241.894L283.771 243.336L283.816 243.369L283.817 243.369L283.82 243.365L283.831 243.349L283.879 243.284C283.903 243.251 283.934 243.21 283.97 243.161C284 243.121 284.033 243.075 284.071 243.024C284.239 242.798 284.486 242.467 284.798 242.056C285.421 241.232 286.301 240.087 287.324 238.805C289.388 236.216 291.966 233.157 294.178 231.028C296.341 228.948 299.442 226.519 302.064 224.572C303.362 223.608 304.521 222.779 305.354 222.191C305.584 222.029 305.788 221.886 305.964 221.763C306.035 221.713 306.101 221.667 306.163 221.624C306.225 221.581 306.283 221.541 306.335 221.505C306.45 221.425 306.538 221.364 306.597 221.324L306.664 221.278L306.68 221.267L306.684 221.265L306.684 221.264ZM266.147 258.326L267.708 260.279L267.708 260.279L267.707 260.28L267.703 260.283L267.686 260.296L267.618 260.351C267.557 260.4 267.468 260.472 267.351 260.566C267.119 260.753 266.78 261.028 266.358 261.372C265.513 262.061 264.338 263.028 263.012 264.141C260.349 266.38 257.133 269.166 254.793 271.459C252.708 273.502 250.161 276.286 248.112 278.588C247.093 279.734 246.206 280.749 245.575 281.478C245.259 281.842 245.008 282.134 244.836 282.335L244.749 282.435L244.639 282.564L244.589 282.623L244.576 282.638L244.573 282.641L244.573 282.642L242.669 281.021C240.766 279.401 240.766 279.401 240.766 279.4L240.766 279.4L240.767 279.399L240.771 279.395L240.785 279.378L240.838 279.316L240.93 279.208L241.042 279.078C241.218 278.872 241.475 278.574 241.796 278.203C242.439 277.462 243.34 276.43 244.377 275.264C246.441 272.946 249.081 270.056 251.293 267.888C253.777 265.454 257.114 262.566 259.796 260.313C261.144 259.181 262.339 258.197 263.198 257.497C263.334 257.386 263.461 257.282 263.58 257.186C263.659 257.122 263.734 257.061 263.805 257.003C263.963 256.876 264.099 256.765 264.212 256.674C264.331 256.578 264.424 256.503 264.487 256.453L264.559 256.395L264.578 256.379L264.583 256.375L264.585 256.374L264.585 256.374C264.585 256.374 264.585 256.374 266.147 258.326ZM280.205 260.253L281.799 258.326C283.392 256.4 283.392 256.4 283.392 256.4L283.393 256.4L283.394 256.402L283.399 256.406L283.418 256.421L283.49 256.481C283.553 256.534 283.646 256.611 283.766 256.711C284.004 256.91 284.35 257.2 284.78 257.562C285.638 258.286 286.833 259.303 288.181 260.475C290.863 262.806 294.199 265.792 296.682 268.309C298.893 270.551 301.532 273.539 303.596 275.937C304.632 277.142 305.534 278.21 306.176 278.977C306.497 279.36 306.754 279.669 306.931 279.882C307.019 279.988 307.087 280.071 307.134 280.128L307.187 280.192L307.201 280.209L307.205 280.213L307.206 280.215L307.206 280.215C307.206 280.215 307.206 280.215 305.276 281.804L303.346 283.392L303.345 283.392L303.342 283.388L303.33 283.373L303.28 283.312C303.235 283.258 303.169 283.178 303.083 283.074C302.91 282.867 302.659 282.564 302.343 282.188C301.711 281.434 300.825 280.383 299.805 279.198C297.756 276.816 295.208 273.935 293.123 271.821C290.781 269.447 287.565 266.564 284.901 264.248C283.576 263.097 282.4 262.096 281.555 261.383C281.133 261.027 280.794 260.744 280.562 260.549C280.445 260.452 280.356 260.378 280.295 260.327L280.227 260.271L280.21 260.257L280.206 260.254L280.205 260.253Z" fill="white"/>
</g>
<defs>
<filter id="filter0_d_189_375" x="0" y="0" width="390" height="540" filterUnits="userSpaceOnUse" color-interpolation-filters="sRGB">
<feFlood flood-opacity="0" result="BackgroundImageFix"/>
<feColorMatrix in="SourceAlpha" type="matrix" values="0 0 0 0 0 0 0 0 0 0 0 0 0 0 0 0 0 0 127 0" result="hardAlpha"/>
<feOffset/>
<feGaussianBlur stdDeviation="10"/>
<feComposite in2="hardAlpha" operator="out"/>
<feColorMatrix type="matrix" values="0 0 0 0 0.149195 0 0 0 0 0.00833333 0 0 0 0 1 0 0 0 1 0"/>
<feBlend mode="normal" in2="BackgroundImageFix" result="effect1_dropShadow_189_375"/>
<feBlend mode="normal" in="SourceGraphic" in2="effect1_dropShadow_189_375" result="shape"/>
</filter>
</defs>
</svg>
