<svg width="390" height="540" viewBox="0 0 390 540" fill="none" xmlns="http://www.w3.org/2000/svg">
<g filter="url(#filter0_d_307_266)">
<path fill-rule="evenodd" clip-rule="evenodd" d="M60 20C37.9086 20 20 37.9086 20 60V480C20 502.091 37.9086 520 60 520H330C352.091 520 370 502.091 370 480V60C370 37.9086 352.091 20 330 20H60ZM166.758 394.44C173.072 397 181.35 398.28 191.59 398.28C202.086 398.28 209.979 396.317 215.27 392.392C220.56 388.381 223.206 382.749 223.206 375.496C223.206 371.571 222.438 368.072 220.902 365C219.366 361.928 216.72 359.283 212.965 357.064C209.211 354.76 203.963 352.797 197.221 351.176C191.59 349.811 187.195 348.531 184.038 347.336C180.88 346.056 178.619 344.563 177.253 342.856C175.973 341.064 175.333 338.76 175.333 335.944C175.333 330.909 177.211 327.368 180.965 325.32C184.72 323.272 190.096 322.248 197.094 322.248C200.934 322.248 204.646 322.547 208.23 323.144C211.814 323.741 215.142 324.595 218.214 325.704V316.488C215.995 315.72 212.837 314.995 208.742 314.312C204.646 313.629 200.208 313.288 195.43 313.288C185.104 313.288 177.424 315.336 172.389 319.432C167.355 323.443 164.837 328.947 164.837 335.944C164.837 341.917 166.672 346.696 170.342 350.28C174.011 353.779 180.368 356.637 189.413 358.856C195.131 360.221 199.696 361.587 203.109 362.952C206.523 364.232 208.955 365.853 210.406 367.816C211.941 369.693 212.71 372.253 212.71 375.496C212.71 380.701 210.875 384.328 207.206 386.376C203.536 388.339 198.032 389.32 190.693 389.32C186.427 389.32 182.245 388.979 178.15 388.296C174.139 387.528 170.342 386.461 166.758 385.096V394.44ZM162.381 432.32C159.906 432.32 157.912 432.021 156.397 431.424V429.856C158.168 430.496 160.12 430.816 162.253 430.816C164.258 430.816 165.773 430.507 166.797 429.888C167.821 429.269 168.333 428.224 168.333 426.752C168.333 425.856 168.13 425.131 167.725 424.576C167.32 424.021 166.669 423.563 165.773 423.2C164.898 422.816 163.714 422.464 162.221 422.144C160.642 421.781 159.384 421.365 158.445 420.896C157.528 420.405 156.866 419.808 156.461 419.104C156.077 418.4 155.885 417.568 155.885 416.608C155.885 414.944 156.482 413.611 157.677 412.608C158.893 411.584 160.76 411.072 163.277 411.072C164.429 411.072 165.506 411.157 166.509 411.328C167.512 411.499 168.28 411.669 168.813 411.84V413.408C167.277 412.875 165.549 412.608 163.629 412.608C161.688 412.608 160.194 412.928 159.149 413.568C158.125 414.187 157.613 415.2 157.613 416.608C157.613 417.397 157.784 418.048 158.125 418.56C158.488 419.051 159.096 419.467 159.949 419.808C160.802 420.149 161.976 420.501 163.469 420.864C165.154 421.248 166.466 421.717 167.405 422.272C168.365 422.805 169.048 423.445 169.453 424.192C169.858 424.917 170.061 425.771 170.061 426.752C170.061 428.587 169.41 429.973 168.109 430.912C166.808 431.851 164.898 432.32 162.381 432.32ZM179.432 432.32C177.619 432.32 176.243 431.808 175.304 430.784C174.366 429.76 173.896 428.309 173.896 426.432V416.832H175.656V426.496C175.656 427.947 176.019 429.045 176.744 429.792C177.47 430.517 178.611 430.88 180.168 430.88C181.235 430.88 182.206 430.677 183.08 430.272C183.976 429.845 184.744 429.312 185.384 428.672V416.832H187.144V432H185.576L185.416 430.144C184.67 430.805 183.816 431.339 182.856 431.744C181.896 432.128 180.755 432.32 179.432 432.32ZM194.747 432.32C193.894 432.32 193.211 432.085 192.699 431.616C192.187 431.147 191.931 430.304 191.931 429.088V410.432H193.691V429.024C193.691 429.707 193.798 430.176 194.011 430.432C194.225 430.688 194.566 430.816 195.035 430.816C195.505 430.816 195.974 430.752 196.443 430.624V432.096C196.166 432.181 195.878 432.235 195.579 432.256C195.281 432.299 195.003 432.32 194.747 432.32ZM199.737 432V418.304H197.401V416.832H199.737V414.272C199.737 412.907 200.111 411.84 200.857 411.072C201.625 410.304 202.735 409.92 204.185 409.92C204.676 409.92 205.124 409.963 205.529 410.048C205.935 410.112 206.308 410.208 206.649 410.336V411.744C206.329 411.637 205.999 411.552 205.657 411.488C205.337 411.424 204.996 411.392 204.633 411.392C203.46 411.392 202.639 411.616 202.169 412.064C201.721 412.512 201.497 413.237 201.497 414.24V416.832H205.721L205.625 418.304H201.497V432H199.737ZM215.057 432.32C213.244 432.32 211.868 431.808 210.929 430.784C209.991 429.76 209.521 428.309 209.521 426.432V416.832H211.281V426.496C211.281 427.947 211.644 429.045 212.369 429.792C213.095 430.517 214.236 430.88 215.793 430.88C216.86 430.88 217.831 430.677 218.705 430.272C219.601 429.845 220.369 429.312 221.009 428.672V416.832H222.769V432H221.201L221.041 430.144C220.295 430.805 219.441 431.339 218.481 431.744C217.521 432.128 216.38 432.32 215.057 432.32ZM227.556 432V416.832H229.092L229.284 418.944C230.074 418.389 230.97 417.899 231.972 417.472C232.996 417.045 233.999 416.725 234.98 416.512V417.952C234.362 418.101 233.69 418.304 232.964 418.56C232.26 418.816 231.578 419.104 230.916 419.424C230.276 419.723 229.743 420.032 229.316 420.352V432H227.556ZM193.901 148.032C183.494 147.616 176.202 151.314 169.455 155.647C168.018 156.57 166.62 157.509 165.229 158.443L165.228 158.444L165.228 158.444L165.226 158.445C160.023 161.94 154.909 165.374 148.167 167.699C138.976 170.869 128.679 171.878 118.901 172.836H118.901L118.897 172.837C117.151 173.008 115.422 173.177 113.719 173.357C108.204 173.939 102.908 174.642 98.4483 175.948C94.0128 177.247 89.9632 179.264 87.4048 182.795C84.8859 186.272 84.4386 189.741 85.6295 193.067C86.7046 196.071 89.032 198.677 91.2546 200.927C92.0456 201.728 92.8288 202.489 93.5991 203.239L93.6003 203.24L93.6026 203.242L93.6037 203.243L93.6039 203.243C95.17 204.766 96.6823 206.237 98.0967 207.876C100.145 210.25 101.617 212.589 102.198 215.1C102.641 217.015 102.109 219.109 100.773 221.694C100.115 222.968 99.3216 224.25 98.4652 225.609L98.2135 226.008L98.2133 226.008C97.452 227.215 96.6435 228.495 95.9498 229.761C94.468 232.465 93.0077 235.948 94.1244 239.595C95.2545 243.286 98.6581 246.035 103.952 248.274C109.251 250.515 113.586 251.496 117.377 251.677C121.184 251.858 124.277 251.224 127.025 250.45C127.989 250.178 128.893 249.899 129.761 249.631L129.763 249.631L129.764 249.63L129.765 249.63L129.765 249.63C133.869 248.364 137.185 247.341 142.409 248.446C152.012 250.477 157.465 255.313 162.439 260.267C162.889 260.716 163.341 261.172 163.796 261.632C168.24 266.125 173.016 270.953 180.427 272.238C187.69 273.498 192.141 273.403 196.156 272.336C198.105 271.818 199.865 271.093 201.647 270.325C201.953 270.193 202.26 270.059 202.571 269.924C204.099 269.26 205.713 268.559 207.672 267.827C211.851 266.264 214.555 266.627 217.064 267.21C217.418 267.293 217.792 267.389 218.184 267.489L218.188 267.49C220.529 268.092 223.53 268.863 226.986 267.908C230.995 266.802 233.797 264.787 235.832 262.179C237.793 259.664 238.938 256.719 239.877 253.978C240.105 253.315 240.323 252.66 240.538 252.014L240.538 252.014L240.538 252.014L240.538 252.013C242.18 247.082 243.636 242.709 247.695 239.265C257.035 231.34 267.92 231.306 279.846 231.269C280.779 231.266 281.718 231.263 282.663 231.257C295.415 231.166 309.024 230.263 319.121 216.171C321.57 212.752 322.983 209.529 323 206.481C323.018 203.227 321.452 200.725 319.178 198.92C317.012 197.201 314.137 196.042 311.126 195.178C308.073 194.301 304.614 193.655 301.102 193.097C299.048 192.771 296.988 192.475 294.957 192.183L294.957 192.183L294.956 192.183L294.956 192.183C289.874 191.453 284.976 190.749 280.81 189.662C277.924 188.908 275.686 188.037 274.157 187.018C272.682 186.034 272.1 185.082 271.957 184.114C271.543 181.329 271.278 178.756 271.024 176.289V176.289C270.908 175.167 270.795 174.066 270.67 172.977C270.287 169.613 269.799 166.353 268.74 163.536C267.645 160.624 265.902 158.083 263.001 156.288C260.176 154.54 256.54 153.68 251.975 153.518C242.973 153.198 238.245 154.573 234.341 155.922C234.067 156.017 233.801 156.11 233.54 156.201L233.527 156.206L233.519 156.208C230.325 157.326 227.952 158.156 223.368 157.792C218.092 157.373 214.302 155.393 209.999 153.145L209.855 153.07C205.518 150.804 200.667 148.303 193.901 148.032ZM150.123 173.372C157.679 170.766 163.594 166.785 168.861 163.239C170.175 162.355 171.449 161.498 172.698 160.696C179.017 156.637 185.05 153.683 193.661 154.027C198.966 154.239 202.768 156.137 207.077 158.388L207.465 158.59C211.652 160.781 216.385 163.257 222.893 163.773C228.755 164.238 232.135 163.053 235.477 161.88C235.752 161.784 236.026 161.688 236.301 161.593C239.658 160.432 243.643 159.225 251.762 159.514C255.757 159.656 258.236 160.395 259.844 161.39C261.376 162.339 262.385 163.683 263.124 165.648C263.899 167.708 264.328 170.315 264.709 173.657C264.82 174.626 264.926 175.659 265.038 176.744V176.745V176.745C265.298 179.27 265.588 182.076 266.022 184.996C266.489 188.143 268.43 190.41 270.829 192.009C273.175 193.574 276.163 194.65 279.295 195.467C283.811 196.646 289.246 197.427 294.459 198.176L294.46 198.176C296.411 198.456 298.332 198.732 300.161 199.023C303.605 199.57 306.776 200.171 309.47 200.945C312.205 201.73 314.194 202.624 315.448 203.62C316.594 204.529 317.006 205.404 317 206.448C316.993 207.698 316.38 209.694 314.244 212.676C305.997 224.186 295.212 225.167 282.621 225.257C281.625 225.264 280.615 225.265 279.594 225.265H279.583C267.982 225.272 254.903 225.28 243.813 234.69C238.383 239.297 236.401 245.348 234.814 250.191L234.814 250.192L234.813 250.195C234.604 250.831 234.403 251.445 234.202 252.033C233.289 254.695 232.404 256.818 231.101 258.489C229.87 260.066 228.173 261.356 225.389 262.125C223.575 262.626 222.248 262.299 219.937 261.731L219.932 261.73L219.927 261.729C219.468 261.616 218.97 261.493 218.422 261.366C215.147 260.605 211.175 260.111 205.57 262.207C203.453 262.999 201.68 263.769 200.148 264.435L200.134 264.441C199.838 264.57 199.55 264.694 199.271 264.815C197.518 265.57 196.106 266.141 194.615 266.537C191.751 267.298 188.254 267.506 181.453 266.327C176.019 265.384 172.596 261.952 167.896 257.24C167.498 256.841 167.091 256.433 166.673 256.016C161.437 250.8 154.967 244.97 143.651 242.576C136.792 241.125 131.927 242.651 127.716 243.972C126.923 244.22 126.153 244.462 125.398 244.675C123.001 245.35 120.593 245.823 117.663 245.684C114.717 245.543 111.079 244.774 106.289 242.748C101.494 240.72 100.195 238.928 99.8615 237.838C99.5144 236.705 99.8286 235.168 101.211 232.645C101.811 231.552 102.517 230.431 103.297 229.195L103.297 229.195L103.542 228.807C104.394 227.455 105.314 225.977 106.103 224.449C107.664 221.429 108.969 217.747 108.043 213.747C107.148 209.878 104.976 206.665 102.639 203.957C101.054 202.119 99.2132 200.327 97.5509 198.708L97.5503 198.708L97.55 198.708C96.8291 198.006 96.1417 197.337 95.5232 196.71C93.2999 194.46 91.8627 192.677 91.2784 191.045C90.8098 189.736 90.8081 188.324 92.2635 186.315C93.6796 184.361 96.2189 182.853 100.134 181.706C104.026 180.567 108.843 179.905 114.349 179.324C115.955 179.154 117.616 178.993 119.32 178.827L119.326 178.826L119.329 178.826L119.336 178.825C129.083 177.876 140.2 176.794 150.123 173.372ZM227.944 217.318C235.847 211.829 240.074 204.738 240.074 197.487C240.074 190.237 235.847 183.146 227.944 177.657C220.059 172.182 208.896 168.635 196.326 168.635C183.757 168.635 172.594 172.182 164.709 177.657C156.806 183.146 152.579 190.237 152.579 197.487C152.579 204.738 156.806 211.829 164.709 217.318C172.594 222.793 183.757 226.339 196.326 226.339C208.896 226.339 220.059 222.793 227.944 217.318ZM196.326 231.339C223.249 231.339 245.074 216.183 245.074 197.487C245.074 178.791 223.249 163.635 196.326 163.635C169.404 163.635 147.579 178.791 147.579 197.487C147.579 216.183 169.404 231.339 196.326 231.339ZM171.956 185.05C173.175 184.402 173.639 182.889 172.991 181.669C172.343 180.45 170.829 179.987 169.61 180.635C161.676 184.849 158.639 190.708 157.718 195.643C157.267 198.058 157.332 200.192 157.508 201.726C157.597 202.496 157.714 203.123 157.814 203.57C157.863 203.794 157.909 203.974 157.944 204.104C157.961 204.17 157.976 204.223 157.988 204.264L158.003 204.315L158.009 204.333L158.011 204.34L158.012 204.344C158.012 204.345 158.013 204.346 160.4 203.606L158.013 204.346C158.422 205.665 159.822 206.403 161.141 205.993C162.456 205.586 163.193 204.192 162.792 202.877L162.79 202.872C162.788 202.863 162.782 202.842 162.773 202.809C162.756 202.744 162.728 202.635 162.695 202.486C162.628 202.187 162.542 201.732 162.475 201.155C162.342 199.994 162.294 198.377 162.633 196.56C163.292 193.031 165.446 188.508 171.956 185.05Z" fill="white"/>
</g>
<defs>
<filter id="filter0_d_307_266" x="0" y="0" width="390" height="540" filterUnits="userSpaceOnUse" color-interpolation-filters="sRGB">
<feFlood flood-opacity="0" result="BackgroundImageFix"/>
<feColorMatrix in="SourceAlpha" type="matrix" values="0 0 0 0 0 0 0 0 0 0 0 0 0 0 0 0 0 0 127 0" result="hardAlpha"/>
<feOffset/>
<feGaussianBlur stdDeviation="10"/>
<feComposite in2="hardAlpha" operator="out"/>
<feColorMatrix type="matrix" values="0 0 0 0 1 0 0 0 0 0.233333 0 0 0 0 0.556367 0 0 0 1 0"/>
<feBlend mode="normal" in2="BackgroundImageFix" result="effect1_dropShadow_307_266"/>
<feBlend mode="normal" in="SourceGraphic" in2="effect1_dropShadow_307_266" result="shape"/>
</filter>
</defs>
</svg>
