<svg width="390" height="540" viewBox="0 0 390 540" fill="none" xmlns="http://www.w3.org/2000/svg">
<g filter="url(#filter0_d_308_323)">
<path fill-rule="evenodd" clip-rule="evenodd" d="M60 20C37.9086 20 20 37.9086 20 60V480C20 502.091 37.9086 520 60 520H330C352.091 520 370 502.091 370 480V60C370 37.9086 352.091 20 330 20H60ZM161.357 322.888V397H171.853V322.888H199.245V314.568H133.965V322.888H161.357ZM204.089 390.472C209.465 395.677 217.572 398.28 228.409 398.28C231.993 398.28 235.406 397.981 238.649 397.384C241.977 396.787 244.964 395.933 247.609 394.824V386.632C242.404 388.765 236.686 389.832 230.457 389.832C224.91 389.832 220.43 389.277 217.017 388.168C213.689 386.973 211.172 385.053 209.465 382.408C207.844 379.763 206.862 376.136 206.521 371.528H251.449V360.136C251.449 355.357 250.468 351.091 248.505 347.336C246.628 343.496 243.726 340.509 239.801 338.376C235.961 336.157 231.054 335.048 225.081 335.048C215.012 335.048 207.63 337.864 202.937 343.496C198.329 349.043 196.025 356.68 196.025 366.408C196.025 377.245 198.713 385.267 204.089 390.472ZM242.105 363.976H206.521C206.521 357.149 207.844 352.029 210.489 348.616C213.134 345.203 218.084 343.496 225.337 343.496C231.31 343.496 235.577 344.861 238.137 347.592C240.782 350.237 242.105 354.035 242.105 358.984V363.976ZM139.349 432V412.832H132.245V411.392H148.213V412.832H141.109V432H139.349ZM155.256 432.32C152.526 432.32 150.531 431.68 149.272 430.4C148.035 429.099 147.416 427.072 147.416 424.32C147.416 421.888 147.96 419.979 149.048 418.592C150.158 417.205 151.95 416.512 154.424 416.512C155.896 416.512 157.091 416.789 158.008 417.344C158.926 417.877 159.598 418.603 160.024 419.52C160.472 420.437 160.696 421.461 160.696 422.592V425.344H149.176C149.262 427.307 149.774 428.725 150.712 429.6C151.651 430.453 153.283 430.88 155.608 430.88C157.016 430.88 158.382 430.613 159.704 430.08V431.52C158.403 432.053 156.92 432.32 155.256 432.32ZM149.176 423.968H159.096V422.528C159.096 421.12 158.734 420.011 158.008 419.2C157.283 418.389 156.099 417.984 154.456 417.984C152.451 417.984 151.064 418.507 150.296 419.552C149.55 420.576 149.176 422.048 149.176 423.968ZM167.997 432.32C167.144 432.32 166.461 432.085 165.949 431.616C165.437 431.147 165.181 430.304 165.181 429.088V410.432H166.941V429.024C166.941 429.707 167.048 430.176 167.261 430.432C167.475 430.688 167.816 430.816 168.285 430.816C168.755 430.816 169.224 430.752 169.693 430.624V432.096C169.416 432.181 169.128 432.235 168.829 432.256C168.531 432.299 168.253 432.32 167.997 432.32ZM175.06 432.32C174.206 432.32 173.524 432.085 173.012 431.616C172.5 431.147 172.244 430.304 172.244 429.088V410.432H174.004V429.024C174.004 429.707 174.11 430.176 174.324 430.432C174.537 430.688 174.878 430.816 175.348 430.816C175.817 430.816 176.286 430.752 176.756 430.624V432.096C176.478 432.181 176.19 432.235 175.892 432.256C175.593 432.299 175.316 432.32 175.06 432.32ZM184.682 432.32C182.869 432.32 181.493 431.808 180.554 430.784C179.616 429.76 179.146 428.309 179.146 426.432V416.832H180.906V426.496C180.906 427.947 181.269 429.045 181.994 429.792C182.72 430.517 183.861 430.88 185.418 430.88C186.485 430.88 187.456 430.677 188.33 430.272C189.226 429.845 189.994 429.312 190.634 428.672V416.832H192.394V432H190.826L190.666 430.144C189.92 430.805 189.066 431.339 188.106 431.744C187.146 432.128 186.005 432.32 184.682 432.32ZM197.181 432V416.832H198.717L198.909 418.944C199.699 418.389 200.595 417.899 201.597 417.472C202.621 417.045 203.624 416.725 204.605 416.512V417.952C203.987 418.101 203.315 418.304 202.589 418.56C201.885 418.816 201.203 419.104 200.541 419.424C199.901 419.723 199.368 420.032 198.941 420.352V432H197.181ZM209.411 412.896V410.976H211.428V412.896H209.411ZM209.635 432V418.304H207.268L207.46 416.832H211.396V432H209.635ZM221.589 432.32C219.775 432.32 218.399 431.808 217.46 430.784C216.522 429.76 216.053 428.309 216.053 426.432V416.832H217.812V426.496C217.812 427.947 218.175 429.045 218.9 429.792C219.626 430.517 220.767 430.88 222.324 430.88C223.391 430.88 224.362 430.677 225.236 430.272C226.133 429.845 226.9 429.312 227.54 428.672V416.832H229.301V432H227.732L227.572 430.144C226.826 430.805 225.973 431.339 225.012 431.744C224.053 432.128 222.911 432.32 221.589 432.32ZM234.087 432V416.832H235.624L235.783 418.688C236.615 418.005 237.501 417.472 238.439 417.088C239.4 416.704 240.402 416.512 241.447 416.512C242.621 416.512 243.527 416.704 244.167 417.088C244.807 417.472 245.277 418.005 245.576 418.688C246.301 418.069 247.143 417.557 248.104 417.152C249.064 416.725 250.215 416.512 251.56 416.512C253.266 416.512 254.536 416.949 255.367 417.824C256.221 418.677 256.648 420.021 256.648 421.856V432H254.919V422.016C254.919 420.501 254.589 419.456 253.928 418.88C253.288 418.283 252.274 417.984 250.887 417.984C249.928 417.984 249.021 418.155 248.167 418.496C247.314 418.816 246.589 419.296 245.992 419.936C246.055 420.235 246.109 420.587 246.152 420.992C246.194 421.376 246.215 421.739 246.215 422.08V432H244.52V422.112C244.52 420.661 244.274 419.616 243.784 418.976C243.293 418.315 242.344 417.984 240.936 417.984C239.997 417.984 239.079 418.197 238.184 418.624C237.288 419.051 236.498 419.573 235.816 420.192V432H234.087ZM160 116H231V199H160V116ZM155 116C155 113.239 157.239 111 160 111H231C233.761 111 236 113.239 236 116V199V204H231H160H155V199V116ZM231 211H160V257H231V211ZM160 206H155V211V257C155 259.761 157.239 262 160 262H231C233.761 262 236 259.761 236 257V211V206H231H160ZM160 270H167L167 270.023C166.994 272.784 169.228 275.023 171.989 275.023L175.709 275.024C178.47 275.024 180.713 272.786 180.719 270.024V270H210.281L210.281 270.023C210.274 272.785 212.508 275.023 215.269 275.023H218.989C221.75 275.023 223.994 272.785 224 270.023V270H232V265H160V270ZM172 129.5C172.828 129.5 173.5 130.172 173.5 131V175.5C173.5 176.328 172.828 177 172 177C171.172 177 170.5 176.328 170.5 175.5V131C170.5 130.172 171.172 129.5 172 129.5ZM173.5 222C173.5 221.172 172.828 220.5 172 220.5C171.172 220.5 170.5 221.172 170.5 222V246C170.5 246.828 171.172 247.5 172 247.5C172.828 247.5 173.5 246.828 173.5 246V222Z" fill="white"/>
</g>
<defs>
<filter id="filter0_d_308_323" x="0" y="0" width="390" height="540" filterUnits="userSpaceOnUse" color-interpolation-filters="sRGB">
<feFlood flood-opacity="0" result="BackgroundImageFix"/>
<feColorMatrix in="SourceAlpha" type="matrix" values="0 0 0 0 0 0 0 0 0 0 0 0 0 0 0 0 0 0 127 0" result="hardAlpha"/>
<feOffset/>
<feGaussianBlur stdDeviation="10"/>
<feComposite in2="hardAlpha" operator="out"/>
<feColorMatrix type="matrix" values="0 0 0 0 0.149195 0 0 0 0 0.00833333 0 0 0 0 1 0 0 0 1 0"/>
<feBlend mode="normal" in2="BackgroundImageFix" result="effect1_dropShadow_308_323"/>
<feBlend mode="normal" in="SourceGraphic" in2="effect1_dropShadow_308_323" result="shape"/>
</filter>
</defs>
</svg>
