<svg width="390" height="540" viewBox="0 0 390 540" fill="none" xmlns="http://www.w3.org/2000/svg">
<g filter="url(#filter0_d_193_561)">
<path fill-rule="evenodd" clip-rule="evenodd" d="M60 20C37.9086 20 20 37.9086 20 60V480C20 502.091 37.9086 520 60 520H330C352.091 520 370 502.091 370 480V60C370 37.9086 352.091 20 330 20H60ZM173.357 322.888V397H183.853V322.888H211.245V314.568H145.965V322.888H173.357ZM225.666 395.08C228.055 397.213 231.298 398.28 235.394 398.28C236.845 398.28 238.253 398.195 239.618 398.024C240.983 397.853 242.349 397.512 243.714 397V388.68C241.837 389.192 239.917 389.448 237.954 389.448C236.162 389.448 234.839 388.979 233.986 388.04C233.133 387.101 232.706 385.352 232.706 382.792V310.728H222.21V383.944C222.21 389.149 223.362 392.861 225.666 395.08ZM143.661 432V412.832H136.558V411.392H152.525V412.832H145.422V432H143.661ZM156.056 432V410.432H157.816V418.656C158.563 418.016 159.416 417.504 160.376 417.12C161.358 416.715 162.531 416.512 163.896 416.512C165.731 416.512 167.086 416.949 167.96 417.824C168.856 418.699 169.304 420.085 169.304 421.984V432H167.544V422.016C167.544 420.523 167.224 419.477 166.584 418.88C165.966 418.283 164.846 417.984 163.224 417.984C162.179 417.984 161.187 418.197 160.248 418.624C159.31 419.029 158.499 419.563 157.816 420.224V432H156.056ZM178.102 432.32C177.143 432.32 176.257 432.171 175.447 431.872C174.657 431.573 174.017 431.104 173.527 430.464C173.057 429.803 172.822 428.971 172.822 427.968C172.822 426.624 173.249 425.536 174.102 424.704C174.956 423.851 176.406 423.424 178.454 423.424H184.118V421.984C184.118 421.024 183.99 420.256 183.734 419.68C183.479 419.083 183.009 418.656 182.327 418.4C181.665 418.144 180.684 418.016 179.383 418.016C178.508 418.016 177.665 418.091 176.855 418.24C176.044 418.389 175.276 418.592 174.551 418.848V417.344C175.212 417.088 175.98 416.885 176.855 416.736C177.751 416.587 178.7 416.512 179.702 416.512C181.793 416.512 183.329 416.939 184.311 417.792C185.313 418.624 185.814 420.011 185.814 421.952V432H184.374L184.215 430.112C183.51 430.859 182.678 431.413 181.719 431.776C180.758 432.139 179.553 432.32 178.102 432.32ZM178.551 430.848C179.766 430.848 180.833 430.656 181.751 430.272C182.668 429.867 183.457 429.269 184.118 428.48V424.832H178.518C177.025 424.832 175.99 425.099 175.415 425.632C174.839 426.165 174.551 426.944 174.551 427.968C174.551 429.013 174.902 429.76 175.607 430.208C176.332 430.635 177.313 430.848 178.551 430.848ZM193.279 432.32C192.425 432.32 191.742 432.085 191.23 431.616C190.719 431.147 190.462 430.304 190.462 429.088V410.432H192.223V429.024C192.223 429.707 192.329 430.176 192.542 430.432C192.756 430.688 193.097 430.816 193.566 430.816C194.036 430.816 194.505 430.752 194.975 430.624V432.096C194.697 432.181 194.409 432.235 194.111 432.256C193.812 432.299 193.535 432.32 193.279 432.32ZM200.341 432.32C199.488 432.32 198.805 432.085 198.293 431.616C197.781 431.147 197.525 430.304 197.525 429.088V410.432H199.285V429.024C199.285 429.707 199.392 430.176 199.605 430.432C199.818 430.688 200.16 430.816 200.629 430.816C201.098 430.816 201.568 430.752 202.037 430.624V432.096C201.76 432.181 201.472 432.235 201.173 432.256C200.874 432.299 200.597 432.32 200.341 432.32ZM206.099 412.896V410.976H208.115V412.896H206.099ZM206.323 432V418.304H203.955L204.147 416.832H208.083V432H206.323ZM218.276 432.32C216.463 432.32 215.087 431.808 214.148 430.784C213.209 429.76 212.74 428.309 212.74 426.432V416.832H214.5V426.496C214.5 427.947 214.863 429.045 215.588 429.792C216.313 430.517 217.455 430.88 219.012 430.88C220.079 430.88 221.049 430.677 221.924 430.272C222.82 429.845 223.588 429.312 224.228 428.672V416.832H225.988V432H224.42L224.26 430.144C223.513 430.805 222.66 431.339 221.7 431.744C220.74 432.128 219.599 432.32 218.276 432.32ZM230.775 432V416.832H232.311L232.471 418.688C233.303 418.005 234.188 417.472 235.127 417.088C236.087 416.704 237.09 416.512 238.135 416.512C239.308 416.512 240.215 416.704 240.855 417.088C241.495 417.472 241.964 418.005 242.263 418.688C242.988 418.069 243.831 417.557 244.791 417.152C245.751 416.725 246.903 416.512 248.247 416.512C249.954 416.512 251.223 416.949 252.055 417.824C252.908 418.677 253.335 420.021 253.335 421.856V432H251.607V422.016C251.607 420.501 251.276 419.456 250.615 418.88C249.975 418.283 248.962 417.984 247.575 417.984C246.615 417.984 245.708 418.155 244.855 418.496C244.002 418.816 243.276 419.296 242.679 419.936C242.743 420.235 242.796 420.587 242.839 420.992C242.882 421.376 242.903 421.739 242.903 422.08V432H241.207V422.112C241.207 420.661 240.962 419.616 240.471 418.976C239.98 418.315 239.031 417.984 237.623 417.984C236.684 417.984 235.767 418.197 234.871 418.624C233.975 419.051 233.186 419.573 232.503 420.192V432H230.775ZM237 106.723V134.328C236.254 134.221 235.224 134.077 233.965 133.906C231.224 133.533 227.392 133.036 223.028 132.537C214.326 131.543 203.412 130.529 194.808 130.501C185.888 130.471 174.569 131.485 165.545 132.494C161.019 133 157.045 133.508 154.201 133.889C153.775 133.946 153.374 134.001 153 134.052V106.723C153 104.709 154.469 103.097 156.352 102.876C166.443 101.692 183.007 100 195 100C206.993 100 223.557 101.692 233.648 102.876C235.531 103.097 237 104.709 237 106.723ZM237 260V139.38C236.852 139.358 236.679 139.333 236.482 139.305C235.736 139.198 234.65 139.045 233.292 138.86C230.577 138.491 226.781 137.999 222.46 137.505C213.791 136.514 203.105 135.528 194.792 135.501C186.172 135.472 175.091 136.458 166.1 137.463C161.619 137.964 157.682 138.467 154.866 138.845C154.173 138.938 153.548 139.023 153 139.099V260C153 262.209 154.791 264 157 264H233C235.209 264 237 262.209 237 260ZM147 106.723C147 101.725 150.689 97.5 155.653 96.9172C165.744 95.7326 182.62 94 195 94C207.38 94 224.256 95.7326 234.347 96.9172C239.311 97.5 243 101.725 243 106.723V260C243 265.523 238.523 270 233 270H157C151.477 270 147 265.523 147 260V106.723ZM217.043 206.226C212.416 213.548 204.249 218.41 194.947 218.41C180.522 218.41 168.828 206.716 168.828 192.291C168.828 188.433 169.664 184.77 171.165 181.475L217.043 206.226ZM218.992 202.51L173.206 177.809C177.889 170.793 185.879 166.171 194.947 166.171C209.373 166.171 221.067 177.865 221.067 192.291C221.067 195.917 220.328 199.371 218.992 202.51ZM169.004 176.5C174.335 167.759 183.96 161.924 194.947 161.924C211.718 161.924 225.314 175.519 225.314 192.291C225.314 209.062 211.718 222.657 194.947 222.657C178.176 222.657 164.581 209.062 164.581 192.291C164.581 187.396 165.739 182.772 167.796 178.677C167.739 178.252 167.812 177.807 168.034 177.402C168.259 176.989 168.605 176.682 169.004 176.5ZM184.681 174.216C184.264 173.808 183.588 173.808 183.171 174.216C182.755 174.624 182.755 175.285 183.171 175.693L188.293 180.703C187.712 181.422 187.181 182.269 186.737 183.266L188.622 184.268C189.068 183.221 189.613 182.397 190.178 181.749C190.336 181.7 190.485 181.614 190.61 181.492C190.745 181.359 190.837 181.2 190.884 181.032C191.767 180.237 192.675 179.767 193.386 179.492C193.789 179.336 194.127 179.244 194.357 179.192C194.396 179.183 194.432 179.175 194.464 179.168C194.493 179.162 194.52 179.157 194.544 179.153C194.573 179.158 194.608 179.165 194.647 179.173C194.675 179.179 194.706 179.186 194.739 179.193C194.969 179.246 195.306 179.338 195.709 179.493C196.516 179.805 197.574 180.368 198.563 181.368C200.158 182.982 201.717 185.886 201.53 191.13L203.921 192.401L206.132 191.207L209.149 193.853C209.588 194.238 210.263 194.202 210.657 193.773C211.051 193.343 211.014 192.683 210.575 192.298L206.993 189.157L206.428 188.662L205.764 189.02L203.679 190.145C203.654 185.896 202.527 182.973 201.016 180.977L206.418 175.693C206.835 175.285 206.835 174.624 206.418 174.216C206.001 173.808 205.325 173.808 204.908 174.216L199.58 179.427C198.493 178.469 197.38 177.893 196.494 177.551C195.981 177.352 195.541 177.231 195.223 177.159C195.063 177.123 194.934 177.099 194.84 177.083C194.81 177.078 194.784 177.074 194.762 177.071C194.654 177.049 194.541 177.044 194.426 177.057L194.426 177.058L194.424 177.058L194.424 177.057L194.424 177.057L194.422 177.057L194.417 177.058L194.405 177.059L194.387 177.062L194.369 177.064L194.326 177.07C194.305 177.073 194.282 177.077 194.256 177.081C194.162 177.097 194.032 177.121 193.873 177.157C193.555 177.23 193.115 177.351 192.602 177.549C191.788 177.864 190.78 178.376 189.778 179.202L184.681 174.216ZM203.484 201.677L200.024 199.838C199.813 200.558 199.592 201.24 199.366 201.882C199.242 202.048 199.172 202.246 199.162 202.448C198.018 205.544 196.796 207.637 196.225 208.534C196.218 208.545 196.208 208.555 196.191 208.563C196.173 208.573 196.146 208.581 196.11 208.581H194.608C194.588 208.58 194.568 208.58 194.548 208.58H192.986C192.949 208.58 192.922 208.571 192.904 208.562C192.888 208.553 192.878 208.543 192.871 208.532C191.914 207.029 189.126 202.163 187.945 194.845C187.859 194.313 187.789 193.8 187.732 193.304L181.283 189.875L178.521 192.298C178.081 192.683 178.045 193.343 178.438 193.773C178.832 194.202 179.507 194.238 179.946 193.853L182.963 191.207L185.516 192.585C185.584 193.404 185.69 194.266 185.836 195.171C186.13 196.995 186.52 198.674 186.957 200.198L184.631 198.723L183.961 198.298L183.355 198.806L179.897 201.705C179.449 202.081 179.397 202.74 179.781 203.178C180.165 203.616 180.839 203.666 181.287 203.291L184.139 200.9L187.997 203.348C189.181 206.505 190.438 208.663 191.058 209.636C191.486 210.309 192.23 210.668 192.986 210.668H194.487C194.498 210.669 194.509 210.669 194.521 210.67C194.53 210.67 194.539 210.67 194.548 210.67H196.11C196.866 210.67 197.609 210.311 198.037 209.638C198.67 208.644 199.969 206.413 201.176 203.142L203.484 201.677Z" fill="white"/>
</g>
<defs>
<filter id="filter0_d_193_561" x="0" y="0" width="390" height="540" filterUnits="userSpaceOnUse" color-interpolation-filters="sRGB">
<feFlood flood-opacity="0" result="BackgroundImageFix"/>
<feColorMatrix in="SourceAlpha" type="matrix" values="0 0 0 0 0 0 0 0 0 0 0 0 0 0 0 0 0 0 127 0" result="hardAlpha"/>
<feOffset/>
<feGaussianBlur stdDeviation="10"/>
<feComposite in2="hardAlpha" operator="out"/>
<feColorMatrix type="matrix" values="0 0 0 0 0 0 0 0 0 0.637931 0 0 0 0 1 0 0 0 1 0"/>
<feBlend mode="normal" in2="BackgroundImageFix" result="effect1_dropShadow_193_561"/>
<feBlend mode="normal" in="SourceGraphic" in2="effect1_dropShadow_193_561" result="shape"/>
</filter>
</defs>
</svg>
