<svg width="390" height="540" viewBox="0 0 390 540" fill="none" xmlns="http://www.w3.org/2000/svg">
<g filter="url(#filter0_d_295_45)">
<path fill-rule="evenodd" clip-rule="evenodd" d="M60 20C37.9086 20 20 37.9086 20 60V480C20 502.091 37.9086 520 60 520H330C352.091 520 370 502.091 370 480V60C370 37.9086 352.091 20 330 20H60ZM130.757 394.44C137.072 397 145.35 398.28 155.59 398.28C166.086 398.28 173.979 396.317 179.27 392.392C184.56 388.381 187.206 382.749 187.206 375.496C187.206 371.571 186.438 368.072 184.902 365C183.366 361.928 180.72 359.283 176.965 357.064C173.211 354.76 167.963 352.797 161.221 351.176C155.59 349.811 151.195 348.531 148.038 347.336C144.88 346.056 142.619 344.563 141.254 342.856C139.974 341.064 139.333 338.76 139.333 335.944C139.333 330.909 141.211 327.368 144.965 325.32C148.72 323.272 154.096 322.248 161.094 322.248C164.934 322.248 168.646 322.547 172.23 323.144C175.814 323.741 179.142 324.595 182.214 325.704V316.488C179.995 315.72 176.837 314.995 172.742 314.312C168.646 313.629 164.208 313.288 159.43 313.288C149.104 313.288 141.424 315.336 136.39 319.432C131.355 323.443 128.838 328.947 128.838 335.944C128.838 341.917 130.672 346.696 134.341 350.28C138.011 353.779 144.368 356.637 153.413 358.856C159.131 360.221 163.696 361.587 167.109 362.952C170.523 364.232 172.955 365.853 174.406 367.816C175.941 369.693 176.71 372.253 176.71 375.496C176.71 380.701 174.875 384.328 171.206 386.376C167.536 388.339 162.032 389.32 154.693 389.32C150.427 389.32 146.245 388.979 142.15 388.296C138.139 387.528 134.341 386.461 130.757 385.096V394.44ZM202.523 336.328V397H213.018V351.176C215.408 348.787 218.266 346.909 221.594 345.544C224.923 344.179 228.464 343.496 232.219 343.496C238.277 343.496 242.373 344.563 244.507 346.696C246.64 348.744 247.706 352.413 247.706 357.704V397H258.202V357.32C258.202 349.64 256.453 344.008 252.954 340.424C249.456 336.84 243.867 335.048 236.186 335.048C231.152 335.048 226.672 335.816 222.747 337.352C218.906 338.888 215.536 340.851 212.635 343.24L211.995 336.328H202.523ZM181.661 432V412.832H174.557V411.392H190.525V412.832H183.421V432H181.661ZM194.286 412.896V410.976H196.303V412.896H194.286ZM194.51 432V418.304H192.143L192.335 416.832H196.271V432H194.51ZM201.087 432V416.832H202.624L202.783 418.688C203.551 418.048 204.426 417.525 205.408 417.12C206.389 416.715 207.562 416.512 208.928 416.512C210.826 416.512 212.202 416.949 213.055 417.824C213.909 418.699 214.335 420.085 214.335 421.984V432H212.576V422.016C212.576 420.523 212.266 419.477 211.648 418.88C211.05 418.283 209.898 417.984 208.191 417.984C207.125 417.984 206.133 418.187 205.215 418.592C204.32 418.997 203.53 419.531 202.848 420.192V432H201.087ZM241.208 128.78C242.064 129.32 242.531 129.733 242.78 130C242.531 130.267 242.064 130.68 241.208 131.22C239.157 132.513 235.857 133.862 231.335 135.068C222.363 137.461 209.692 139 195.5 139C181.308 139 168.637 137.461 159.665 135.068C155.143 133.862 151.843 132.513 149.792 131.22C148.936 130.68 148.469 130.267 148.22 130C148.469 129.733 148.936 129.32 149.792 128.78C151.843 127.487 155.143 126.138 159.665 124.932C168.637 122.539 181.308 121 195.5 121C209.692 121 222.363 122.539 231.335 124.932C235.857 126.138 239.157 127.487 241.208 128.78ZM243 135.971C234.597 140.716 216.486 144 195.5 144C174.514 144 156.403 140.716 148 135.971V169.662C148.155 169.691 148.334 169.724 148.535 169.761C149.349 169.911 150.533 170.125 152.014 170.381C154.977 170.895 159.124 171.58 163.861 172.265C173.354 173.638 185.141 175 194.5 175C203.861 175 215.899 173.638 225.644 172.265C230.507 171.579 234.78 170.894 237.837 170.38C239.365 170.123 240.589 169.909 241.43 169.76C241.851 169.685 242.175 169.626 242.395 169.586L242.643 169.541L242.705 169.529L242.721 169.526L242.725 169.525L242.725 169.525C242.725 169.525 242.726 169.525 242.744 169.623L243 171V135.971ZM148 180.162V172.713C148.822 172.864 150.014 173.079 151.502 173.337C154.485 173.855 158.661 174.545 163.432 175.235C172.953 176.612 184.916 178 194.5 178C204.082 178 216.294 176.612 226.063 175.235C230.958 174.546 235.258 173.856 238.335 173.339C239.873 173.08 241.106 172.864 241.956 172.713C242.247 172.661 242.493 172.617 242.691 172.581L242.932 172.537L243 172.525V181.5C242.726 180.025 242.726 180.025 242.725 180.025L242.725 180.025L242.721 180.026L242.705 180.029L242.643 180.041L242.395 180.086C242.175 180.126 241.851 180.185 241.43 180.26C240.589 180.409 239.365 180.623 237.837 180.88C234.78 181.394 230.507 182.079 225.644 182.765C215.899 184.138 203.861 185.5 194.5 185.5C185.141 185.5 173.354 184.138 163.861 182.765C159.124 182.08 154.977 181.395 152.014 180.881C150.533 180.625 149.349 180.411 148.535 180.261C148.334 180.224 148.155 180.191 148 180.162ZM148 183.213V190.662C148.155 190.691 148.334 190.724 148.535 190.761C149.349 190.911 150.533 191.125 152.014 191.381C154.977 191.895 159.124 192.58 163.861 193.265C173.354 194.638 185.141 196 194.5 196C203.861 196 215.899 194.638 225.644 193.265C230.507 192.579 234.78 191.894 237.837 191.38C239.365 191.123 240.589 190.909 241.43 190.76C241.851 190.685 242.175 190.626 242.395 190.586L242.643 190.541L242.705 190.529L242.721 190.526L242.725 190.525L242.725 190.525C242.726 190.525 242.726 190.525 243 192V183.025L242.932 183.037C242.817 183.058 242.674 183.084 242.505 183.115L242.228 183.165L241.956 183.213C241.106 183.364 239.873 183.58 238.335 183.839C235.258 184.356 230.958 185.046 226.063 185.735C216.294 187.112 204.082 188.5 194.5 188.5C184.916 188.5 172.953 187.112 163.432 185.735C158.661 185.045 154.485 184.355 151.502 183.837C150.014 183.579 148.822 183.364 148 183.213ZM148 201.162V193.713C148.822 193.864 150.014 194.079 151.502 194.337C154.485 194.855 158.661 195.545 163.432 196.235C172.953 197.612 184.916 199 194.5 199C204.082 199 216.294 197.612 226.063 196.235C230.958 195.546 235.258 194.856 238.335 194.339C239.873 194.08 241.106 193.864 241.956 193.713C242.38 193.638 242.709 193.578 242.932 193.537L243 193.525V202.5L242.767 201.248C242.726 201.025 242.725 201.025 242.725 201.025L242.725 201.025L242.721 201.026L242.705 201.029L242.643 201.041L242.395 201.086C242.175 201.126 241.851 201.185 241.43 201.26C240.589 201.409 239.365 201.623 237.837 201.88C234.78 202.394 230.507 203.079 225.644 203.765C215.899 205.138 203.861 206.5 194.5 206.5C185.141 206.5 173.354 205.138 163.861 203.765C159.124 203.08 154.977 202.395 152.014 201.881C150.533 201.625 149.349 201.411 148.535 201.261C148.334 201.224 148.155 201.191 148 201.162ZM148 204.213V211.662C148.155 211.691 148.334 211.724 148.535 211.761C149.349 211.911 150.533 212.125 152.014 212.381C154.977 212.895 159.124 213.58 163.861 214.265C173.354 215.638 185.141 217 194.5 217C203.861 217 215.899 215.638 225.644 214.265C230.507 213.579 234.78 212.894 237.837 212.38C239.365 212.123 240.589 211.909 241.43 211.76C241.851 211.685 242.175 211.626 242.395 211.586L242.643 211.541L242.705 211.529L242.721 211.526L242.725 211.525L242.725 211.525C242.726 211.525 242.726 211.525 243 213V204.025L242.932 204.037C242.822 204.058 242.686 204.082 242.525 204.111C242.433 204.128 242.334 204.146 242.226 204.165C242.141 204.18 242.051 204.196 241.956 204.213C241.106 204.364 239.873 204.58 238.335 204.839C235.258 205.356 230.958 206.046 226.063 206.735C216.294 208.112 204.082 209.5 194.5 209.5C184.916 209.5 172.953 208.112 163.432 206.735C158.661 206.045 154.485 205.355 151.502 204.837C150.014 204.579 148.822 204.364 148 204.213ZM148 222.162V214.713C148.822 214.864 150.014 215.079 151.502 215.337C154.485 215.855 158.661 216.545 163.432 217.235C172.953 218.612 184.916 220 194.5 220C204.082 220 216.294 218.612 226.063 217.235C230.958 216.546 235.258 215.856 238.335 215.339C239.873 215.08 241.106 214.864 241.956 214.713C242.38 214.638 242.709 214.578 242.932 214.537L243 214.525V223.5C242.726 222.025 242.726 222.025 242.725 222.025L242.725 222.025L242.721 222.026L242.705 222.029L242.643 222.041L242.395 222.086C242.175 222.126 241.851 222.185 241.43 222.26C240.589 222.409 239.365 222.623 237.837 222.88C234.78 223.394 230.507 224.079 225.644 224.765C215.899 226.138 203.861 227.5 194.5 227.5C185.141 227.5 173.354 226.138 163.861 224.765C159.124 224.08 154.977 223.395 152.014 222.881C150.533 222.625 149.349 222.411 148.535 222.261C148.334 222.224 148.155 222.191 148 222.162ZM148 225.213V256.369C148 256.73 148.044 256.959 148.078 257.075C151.026 259.367 162.078 265.5 195 265.5C227.783 265.5 239.506 259.419 242.845 257C242.85 256.989 242.857 256.973 242.866 256.952C242.923 256.809 243 256.508 243 256.027V225.025L242.932 225.037C242.709 225.078 242.38 225.138 241.956 225.213C241.106 225.364 239.873 225.58 238.335 225.839C235.258 226.356 230.958 227.046 226.063 227.735C216.294 229.112 204.082 230.5 194.5 230.5C184.916 230.5 172.953 229.112 163.432 227.735C158.661 227.045 154.485 226.355 151.502 225.837C150.014 225.579 148.822 225.364 148 225.213ZM248 130C248 122.268 224.495 116 195.5 116C166.505 116 143 122.268 143 130V256.369C143 258.094 143.477 259.794 144.822 260.874C148.881 264.133 161.144 270.5 195 270.5C228.403 270.5 241.326 264.302 245.836 261.006C247.403 259.862 248 257.967 248 256.027V130ZM229.122 129.556C229.122 129.556 229.12 129.56 229.113 129.568C229.118 129.56 229.122 129.556 229.122 129.556ZM228.498 130C228.239 129.856 227.9 129.694 227.468 129.522C225.865 128.881 223.427 128.263 220.269 127.729C213.985 126.667 205.227 126 195.5 126C185.773 126 177.015 126.667 170.731 127.729C167.573 128.263 165.135 128.881 163.532 129.522C163.1 129.694 162.761 129.856 162.502 130C162.761 130.144 163.1 130.306 163.532 130.478C165.135 131.119 167.573 131.737 170.731 132.271C177.015 133.333 185.773 134 195.5 134C205.227 134 213.985 133.333 220.269 132.271C223.427 131.737 225.865 131.119 227.468 130.478C227.9 130.306 228.239 130.144 228.498 130ZM161.878 129.556C161.878 129.556 161.882 129.56 161.887 129.568C161.88 129.56 161.878 129.556 161.878 129.556ZM161.878 130.444C161.878 130.444 161.878 130.443 161.879 130.441C161.881 130.439 161.883 130.436 161.887 130.432C161.882 130.44 161.878 130.444 161.878 130.444ZM229.113 130.432L229.116 130.436L229.12 130.44C229.122 130.443 229.122 130.444 229.122 130.444C229.122 130.444 229.118 130.44 229.113 130.432ZM195.5 136C215.106 136 231 133.314 231 130C231 126.686 215.106 124 195.5 124C175.894 124 160 126.686 160 130C160 133.314 175.894 136 195.5 136Z" fill="white"/>
</g>
<defs>
<filter id="filter0_d_295_45" x="0" y="0" width="390" height="540" filterUnits="userSpaceOnUse" color-interpolation-filters="sRGB">
<feFlood flood-opacity="0" result="BackgroundImageFix"/>
<feColorMatrix in="SourceAlpha" type="matrix" values="0 0 0 0 0 0 0 0 0 0 0 0 0 0 0 0 0 0 127 0" result="hardAlpha"/>
<feOffset/>
<feGaussianBlur stdDeviation="10"/>
<feComposite in2="hardAlpha" operator="out"/>
<feColorMatrix type="matrix" values="0 0 0 0 0 0 0 0 0 0.637931 0 0 0 0 1 0 0 0 1 0"/>
<feBlend mode="normal" in2="BackgroundImageFix" result="effect1_dropShadow_295_45"/>
<feBlend mode="normal" in="SourceGraphic" in2="effect1_dropShadow_295_45" result="shape"/>
</filter>
</defs>
</svg>
